<?xml version="1.0" encoding="utf-8"?>
<!-- Generator: Adobe Illustrator 19.2.1, SVG Export Plug-In . SVG Version: 6.00 Build 0)  -->
<svg version="1.1" id="Ebene_1" xmlns="http://www.w3.org/2000/svg" xmlns:xlink="http://www.w3.org/1999/xlink" x="0px" y="0px"
	 viewBox="0 0 48 48" style="enable-background:new 0 0 48 48;" xml:space="preserve">
<style type="text/css">
	.st0{fill:none;}
	.st1{fill:#FFFFFF;}
</style>
<path class="st0" d="M0,0h48v48H0V0z"/>
<path class="st1" d="M16,20h-6v-6H6v6H0v4h6v6h4v-6h6V20z M36,22c3.3,0,6-2.7,6-6s-2.7-6-6-6c-0.6,0-1.3,0.1-1.8,0.3
	c1.1,1.6,1.8,3.6,1.8,5.7s-0.7,4.1-1.8,5.7C34.7,21.9,35.4,22,36,22z M26,22c3.3,0,6-2.7,6-6s-2.7-6-6-6s-6,2.7-6,6S22.7,22,26,22z
	 M39.2,26.3c1.7,1.5,2.8,3.3,2.8,5.7v4h6v-4C48,28.9,43.3,27,39.2,26.3z M26,26c-4,0-12,2-12,6v4h24v-4C38,28,30,26,26,26z"/>
</svg>
