<?xml version="1.0" encoding="utf-8"?>
<!-- Generator: Adobe Illustrator 19.2.1, SVG Export Plug-In . SVG Version: 6.00 Build 0)  -->
<svg version="1.1" id="Ebene_1" xmlns="http://www.w3.org/2000/svg" xmlns:xlink="http://www.w3.org/1999/xlink" x="0px" y="0px"
	 viewBox="0 0 48 48" style="enable-background:new 0 0 48 48;" xml:space="preserve">
<style type="text/css">
	.st0{fill:none;}
	.st1{fill:#89BDD3;}
</style>
<path class="st0" d="M0,0h48v48H0V0z"/>
<path class="st1" d="M24,34c2.2,0,4-1.8,4-4s-1.8-4-4-4s-4,1.8-4,4S21.8,34,24,34z M36,16h-2v-4c0-5.5-4.5-10-10-10S14,6.5,14,12
	h3.8c0-3.4,2.8-6.2,6.2-6.2s6.2,2.8,6.2,6.2v4H12c-2.2,0-4,1.8-4,4v20c0,2.2,1.8,4,4,4h24c2.2,0,4-1.8,4-4V20C40,17.8,38.2,16,36,16
	z M36,40H12V20h24V40z"/>
</svg>
