<?xml version="1.0" encoding="utf-8"?>
<!-- Generator: Adobe Illustrator 19.2.1, SVG Export Plug-In . SVG Version: 6.00 Build 0)  -->
<svg version="1.1" id="Capa_1" xmlns="http://www.w3.org/2000/svg" xmlns:xlink="http://www.w3.org/1999/xlink" x="0px" y="0px"
	 viewBox="0 0 46 46" style="enable-background:new 0 0 46 46;" xml:space="preserve">
<style type="text/css">
	.st0{fill:#FFFFFF;}
</style>
<g>
	<g>
		<path class="st0" d="M33.4,12.6c-0.1-3.6-0.9-6-2.1-7.6h0c-0.8-1.3-2.6-2.7-3.7-3.3c-7.2-4.4-11.1,1.2-11.5,1.9
			c-0.7,0.2-4.8,2-3.6,8.4c0,0.2,0,0.4,0,0.6c-0.9,0.4-1.5,1.3-1.4,3.5c0.2,2.2,1.3,3.3,2.5,3.5c1.7,4.3,5.2,7.8,9.3,7.8
			c4.1,0,7.5-3.5,9.3-7.7c1.3-0.2,2.5-1.2,2.7-3.6C35.1,13.9,34.3,12.9,33.4,12.6z M22.9,25.4c-4.2,0-7.7-5.2-8.4-10.1
			c0.3-1.8,1.3-5.5,4.1-8.3c2.2,2.3,6.1,5,12.7,4.8c0,0.6,0.1,1.2,0.1,1.9C31.4,19.1,27.6,25.4,22.9,25.4z"/>
		<path class="st0" d="M22.6,15.7c0-0.1,0-0.3,0-0.4h0.8c0,0.1,0,0.2,0,0.4c0,2.1,2.1,2.1,3.1,2.1c1,0,3.1,0,3.1-2.1
			s-2.1-2.1-3.1-2.1c-0.7,0-2,0-2.6,0.7h-1.7c-0.7-0.7-1.9-0.7-2.6-0.7c-1,0-3.1,0-3.1,2.1s2.1,2.1,3.1,2.1
			C20.5,17.8,22.6,17.8,22.6,15.7z M26.5,14.6c1.8,0,2.1,0.4,2.1,1.1s-0.3,1.1-2.1,1.1c-1.8,0-2.1-0.4-2.1-1.1
			C24.4,15,24.7,14.6,26.5,14.6z M17.4,15.7c0-0.8,0.3-1.1,2.1-1.1s2.1,0.4,2.1,1.1s-0.3,1.1-2.1,1.1C17.7,16.8,17.4,16.5,17.4,15.7
			z"/>
		<path class="st0" d="M32.1,27.1l-1.2-0.3l-7.9,18.1L15,26.8l-1.2,0.3c-4.7,1.2-8,5.4-8,10.3v6.4c0,1.3,1,2.3,2.2,2.3h29.7
			c1.3,0,2.3-1,2.3-2.3v-6.4C40.1,32.5,36.8,28.3,32.1,27.1z M28.6,39.5l2.2-2.4c0.5-0.6,1.4-0.6,2,0l2.2,2.4H28.6z"/>
		<path class="st0" d="M23,41.5l2.7-6.7l-1.2-1.2c0.8-0.1,1.3-0.9,1.1-1.6L25,29.7c-0.1-0.6-0.7-1-1.3-1h-1.5c-0.6,0-1.2,0.4-1.3,1
			l-0.5,2.3c-0.2,0.8,0.4,1.5,1.1,1.6l-1.2,1.2L23,41.5z"/>
	</g>
</g>
</svg>
