<?xml version="1.0" encoding="iso-8859-1"?>
<!-- Generator: Adobe Illustrator 16.0.0, SVG Export Plug-In . SVG Version: 6.00 Build 0)  -->
<!DOCTYPE svg PUBLIC "-//W3C//DTD SVG 1.1//EN" "http://www.w3.org/Graphics/SVG/1.1/DTD/svg11.dtd">
<svg version="1.1" id="Capa_1" xmlns="http://www.w3.org/2000/svg" xmlns:xlink="http://www.w3.org/1999/xlink" x="0px" y="0px"
	 width="442.761px" height="442.762px" viewBox="0 0 442.761 442.762" style="enable-background:new 0 0 442.761 442.762;"
	 xml:space="preserve">
<g>
	<path d="M237.081,31.617c-113.594,0-205.679,84.96-205.679,189.764c0,28.473,6.809,55.473,18.986,79.711L1.735,389.064
		c-2.704,4.887-2.215,10.916,1.239,15.307c2.672,3.396,6.722,5.299,10.911,5.299c1.223,0,2.457-0.162,3.674-0.496l106.505-29.234
		c32.434,19.719,71.269,31.205,113.016,31.205c113.595,0,205.681-84.959,205.681-189.764
		C442.761,116.577,350.674,31.617,237.081,31.617z M236.801,126.781c11.227,0,20.357,9.132,20.357,20.357
		c0,11.226-9.132,20.358-20.357,20.358c-11.225,0-20.357-9.132-20.357-20.358C216.443,135.914,225.576,126.781,236.801,126.781z
		 M257.573,297.481c0,10.2-8.299,18.5-18.5,18.5s-18.5-8.3-18.5-18.5v-87.467h-19.385c-8.836,0-16-7.164-16-16s7.164-16,16-16
		h37.229c0.219-0.008,0.434-0.033,0.655-0.033c10.201,0,18.5,8.299,18.5,18.5L257.573,297.481L257.573,297.481z"/>
</g>
<g>
</g>
<g>
</g>
<g>
</g>
<g>
</g>
<g>
</g>
<g>
</g>
<g>
</g>
<g>
</g>
<g>
</g>
<g>
</g>
<g>
</g>
<g>
</g>
<g>
</g>
<g>
</g>
<g>
</g>
</svg>
