<?xml version="1.0" encoding="utf-8"?>
<!-- Generator: Adobe Illustrator 19.2.1, SVG Export Plug-In . SVG Version: 6.00 Build 0)  -->
<svg version="1.1" id="Ebene_1" xmlns="http://www.w3.org/2000/svg" xmlns:xlink="http://www.w3.org/1999/xlink" x="0px" y="0px"
	 viewBox="0 0 595.3 841.9" style="enable-background:new 0 0 595.3 841.9;" xml:space="preserve">
<style type="text/css">
	.st0{fill:#474647;}
	.st1{fill:#E2484A;}
	.st2{fill:#E2B4A4;}
	.st3{fill:#F5C2B0;}
	.st4{fill:#2D2D2E;}
	.st5{fill:#E9E8E5;}
</style>
<g>
	<path class="st0" d="M261.9,794.5c0,0-17.8-0.5-33-0.5s-24.9-1.5-24.9-1.5l-11.5,17.9c0,0-2.1,8.5-5.3,11.6
		c-3.2,3.2,1.1,6.4,1.1,6.4s12.7,2.1,23.3,2.1c10.6,0,28.6-7.4,28.6-7.4h7.4l9.5-4.2C260.4,811.2,261.9,794.5,261.9,794.5z"/>
	<path class="st0" d="M392.3,794c0,0-20.2-2.5-29.3-2c-9.1,0.5-17.8,8.3-17.8,8.3c-1.1,1.6-1.1,10.1-1.1,10.1l1.1,6.4
		c0,0,6.9,2.6,11.6,2.6c4.8,0,4.8-0.5,7.4,1.6c2.6,2.1,10.6,9,21.2,9.5c10.6,0.5,23.3-1.6,24.4-3.2c1.1-1.6,1.1-2.6-0.5-5.8
		c-1.6-3.2-1.1-5.3-4.2-9c-3.2-3.7-8.5-13.2-10.6-15.9C392.3,794,394.9,797.1,392.3,794"/>
	<g>
		<path class="st1" d="M322.5,157.2c-1.9-2-3.9-3.9-6-5.7c-1.6-1.4-3.1-2.6-4.6-3.8c-1.5-1.1-2.9-2.1-4.2-3c-1.2,0.8-2.5,2-3.8,3.3
			c-0.4,0.4-0.8,0.8-1.2,1.2c-1.8,2-3.6,4.3-5.3,6.7l9.5,9.5l-11.1,32.2l6,25.6l6.1,26.3c0,0,0.9-3.2,2.4-8.6
			c3.2-11.4,9.2-32.4,14.9-53l-9.2-24.5L322.5,157.2z"/>
		<path class="st2" d="M333.1,117.7L331,95c-1.1,5.2-3.3,14.1-6.3,19.1c-4.4,7.4-22,13.2-30.4,11.8c-8-1.3-13-6.8-14.3-9.4l-0.4,8.5
			c0.1-0.2,0.1-0.3,0.1-0.3s14.7,19.6,28.4,19.1C321.7,143.4,331.7,123.5,333.1,117.7z"/>
		<path class="st2" d="M354.7,316c-4.6,0-4.8,0.3-7.6,0.3c-2.8,0-12.7,2-14.2,2.5c-1.5,0.5-4.8,3.5-6.8,3.5c-2,0-7.1,3-9.4,4.1
			c-2.3,1-5.6,1-9.1,0.5c-3.6-0.5-3,4.6-3,4.6s0,0-1.5,0c-1.5,0-2,1-2,2.5c0,1.5,4.6,2.5,5.1,3.5c0.2,0.4,0.6,0.8,1,1.3
			c0.4,0.4,0.7,0.7,0.9,1.1c0.4,0.6,0.7,1.1,0.7,1.6c0,1.3,1,2.5,1.8,2.8c0.8,0.3,5.3,1.3,5.3,1.3s0.5,1.5,0.8,2.3
			c0.3,0.8,1.5,1.8,2.3,2.5c0.8,0.8,2.3,3.5,2.3,3.5s2.5,4.3,3.3,5.6c0.8,1.3,3,3.5,8.6,4.1c5.6,0.5,13.4-0.3,19.5-2.5
			c6.1-2.3,17.7-15.2,17.7-15.2s5.3,0,6.3-2.8c1-2.8-7.3-27.9-7.3-27.9S359.3,316,354.7,316z"/>
		<path class="st3" d="M307.9,340c-0.2-0.4-0.5-0.8-0.9-1.1c-1.5-1.4-4.1-2.7-5.8-3.9c-2.3-1.5,0.8-5.3,0.8-5.3s-7.6-2.8-9.1-4.1
			c-1.5-1.3-3.3-1.3-4.6-1.5c-1.3-0.3-5.8-0.8-8.9-1c-3-0.3-8.4-0.3-9.9-0.3c-1.5,0-2.8-0.8-12.7,3.3C247,330.2,244,351,244,351
			s7.1,6.3,8.6,8.1c1.5,1.8,4.3,4.1,7.1,4.3c2.8,0.3,6.6,2.8,9.4,4.8c2.8,2,5.8,4.3,11.1,4.3c5.3,0,8.1,0,9.6-1.3
			c1.5-1.3,1-2.3,3.5-3.5c2.5-1.3-0.3-4.1,1.8-4.6c2-0.5,5.3-1.3,6.1-6.1c2.5,0,3.3-5.3,4.1-8.4c4.1-0.3,3.5-6.3,2.8-8.4
			C308,340.2,307.9,340.1,307.9,340z"/>
		<path class="st3" d="M337,62.8c-0.1,1.5-0.3,2.9-0.6,3.7c-0.7,1.8-0.7,3.2-3.2,7.9c-2.5,4.7-4.3,3.2-4.3,3.2s-0.4-7.2-0.7-8.6
			c-0.4-1.4-3.6-6.8-4.7-10.1c-1.1-3.2-3.6-13.7-4.7-14c-1.1-0.4-12.9,0.7-18.3,0.7c-5.4,0-13.6,1.1-22.3,0.7
			c-8.6-0.4-11.3-1.6-11.3-1.6s-1.3,8.4-1.6,10.6c-0.4,2.2-0.7,12.6-0.4,16.2c0.4,3.6,1.4,12.2,1.4,12.2s-2.5,0.7-3.6-0.4
			c-0.6-0.6-1.9-3-3.2-5.5c-0.2,0.3-0.4,0.7-0.4,1.6c0,0,0.7,4.3,1.8,8.6c1.1,4.3,3.9,11.1,4.7,12.6c0.7,1.4,3.2,4.3,4.3,3.6
			c1.1-0.7,7.5,12.2,8.6,14.7c0.1,0.1,0.1,0.3,0.2,0.4c1.5,2.8,6.7,8.6,15.2,10c9,1.4,27.7-4.7,32.3-12.6c3.2-5.3,5.5-14.8,6.7-20.3
			c0.6-2.7,0.9-4.5,0.9-4.5s7.9-0.7,8.3-5.7c0.4-5,0.4-17.2,0.4-18.3C342.5,66.9,341.1,61.4,337,62.8z"/>
		<path class="st4" d="M316.5,151.5c2.1,1.8,4.1,3.8,6,5.7c3.5,3.7,6.5,7.4,8,10.7c-0.8-2.3-3.8-6.7-7.5-11.1
			c-1.8-2.2-3.8-4.4-5.8-6.3c-1.1-1.1-2.2-2-3.3-2.9c-2.4-1.9-4.6-3-6.2-2.9c1.3,0.8,2.7,1.9,4.2,3
			C313.3,148.8,314.9,150.1,316.5,151.5z"/>
		<path class="st4" d="M203.4,791c0,6.8,4.9,5.3,9.7,5.3c4.9,0,28.7,1,36.4,1.5c7.8,0.5,11.2,7.3,11.2,5.8c0-1.5,2.4-9.7,6.3-17.5
			c3.9-7.8,5.3-19.7,5.3-19.7c2-11.2,7.1-33.4,9.1-47.6c2-14.2,9.1-104.4,9.1-116.6c0-12.2,13.2-119.6,13.2-119.6s5.1,17.2,5.1,25.3
			c0,8.1,10.1,77,10.1,84.1c0,7.1,7.1,87.2,7.1,100.3c0,13.2,3,58.8,5.1,67.9c2,9.1,8.1,24.3,8.1,24.3c0.2,8.3,2.7,21.3,7.6,17
			c4.9-4.4,19.9-5.3,28.2-5.3c8.3,0,18-1.5,18-1.5v-9.1c0,0,4.1-12.2,5.1-16.2c1-4.1-4.1-25.3-4.1-33.4c0-8.1-1-14.2-1-21.3
			c0-7.1-1-37.5-1-51.7c0-14.2,0-101.4,0-104.4c0-3-1-87.2-1-87.2l17.2-3c0,0-1-17.2-1-21.3c0-4.1-8.1-95.3-8.1-95.3
			s8.1-7.1,13.2-9.1c5.1-2,29.4-24.3,29.4-28.4s-6.1-35.5-8.1-46.6c-2-11.1-14.2-114.5-14.2-114.5s-14.2-11.4-45.6-16.5
			c-31.4-5.1-34.5-13.9-34.5-13.9s0.2,2,0.2,3.8c0,1.8-0.1,7.2-0.1,10.7c0,1.7-1.1,6.9-2.7,12.8c-1.5,5.8-3.6,12.2-5.5,16.9
			c-0.2,0.4-0.4,0.8-0.5,1.2c0,0,0,0.1,0,0.1c0,0,0-0.1,0-0.1c-1.7,6.3-3.5,13-5.4,19.8c-5.7,20.6-11.6,41.6-14.9,53
			c-1.5,5.4-2.4,8.6-2.4,8.6l-6.1-26.3l-6-25.6l-6.7-28.9c1.7-2.9,4.8-7.9,8.4-12.8c1.7-2.4,3.5-4.7,5.3-6.7
			c0.4-0.4,0.8-0.8,1.2-1.2c1.3-1.4,2.6-2.5,3.8-3.3c-1.4,0.1-3.1,1.4-5,3.4c-0.2,0.2-0.4,0.4-0.6,0.7c-1.7,1.9-3.5,4.3-5.2,6.8
			c-3.3,4.8-6.3,10.1-8,13.1c-0.8,1.5-1.3,2.4-1.3,2.4c-1.7-1.6-3.5-9.6-4.9-18.2c-1.8-11.1-3.1-23.3-3.4-24.3c0-0.1,0-0.3-0.1-0.4
			l-10,9c0,0-15.2,9.1-21.3,10.1c-6.1,1-27.4,11.2-36.5,13.2c-9.1,2-8.1,9.1-8.1,9.1s0,6.1,0,10.1s-1,6.1-4.1,14.2
			c-3,8.1-10.1,35.5-12.2,46.6c-2,11.2-12.2,42.6-15.2,47.6c-3,5.1-3,11.2-1,18.2c2,7.1,14.2,28.4,21.3,32.4
			c7.1,4.1,28.4,24.3,28.4,24.3s-1,5.1-1,11.2c0,6.1,2,8.1,2,8.1l-6.1,69.9l3,27.4c0,0-1,18.2-1,30.4c0,12.2,0,158.1-1,173.3
			c-1,15.2-6.7,74.7-10.7,83.8C205.9,767.2,203.4,784.2,203.4,791z M376.5,343.1c-1,2.8-6.3,2.8-6.3,2.8s-11.7,12.9-17.7,15.2
			c-6.1,2.3-13.9,3-19.5,2.5c-5.6-0.5-7.9-2.8-8.6-4.1c-0.8-1.3-3.3-5.6-3.3-5.6s-1.5-2.8-2.3-3.5c-0.8-0.8-2-1.8-2.3-2.5
			c-0.3-0.8-0.8-2.3-0.8-2.3s-4.6-1-5.3-1.3c-0.8-0.3-1.8-1.5-1.8-2.8c0-0.5-0.3-1-0.7-1.6c0.1,0.1,0.2,0.2,0.2,0.3
			c0.8,2,1.3,8.1-2.8,8.4c-0.8,3-1.5,8.4-4.1,8.4c-0.8,4.8-4.1,5.6-6.1,6.1c-2,0.5,0.8,3.3-1.8,4.6c-2.5,1.3-2,2.3-3.5,3.5
			c-1.5,1.3-4.3,1.3-9.6,1.3c-5.3,0-8.4-2.3-11.1-4.3c-2.8-2-6.6-4.6-9.4-4.8c-2.8-0.3-5.6-2.5-7.1-4.3c-1.5-1.8-8.6-8.1-8.6-8.1
			s3-20.8,12.9-24.8c9.9-4.1,11.2-3.3,12.7-3.3c1.5,0,6.8,0,9.9,0.3c3,0.3,7.6,0.8,8.9,1c1.3,0.3,3,0.3,4.6,1.5
			c1.5,1.3,9.1,4.1,9.1,4.1s-3,3.8-0.8,5.3c1.7,1.1,4.3,2.4,5.8,3.9c-0.4-0.5-0.8-1-1-1.3c-0.5-1-5.1-2-5.1-3.5c0-1.5,0.5-2.5,2-2.5
			c1.5,0,1.5,0,1.5,0s-0.5-5.1,3-4.6c3.5,0.5,6.8,0.5,9.1-0.5c2.3-1,7.4-4.1,9.4-4.1c2,0,5.3-3,6.8-3.5c1.5-0.5,11.4-2.5,14.2-2.5
			c2.8,0,3-0.3,7.6-0.3c4.6,0,14.4-0.8,14.4-0.8S377.5,340.3,376.5,343.1z"/>
		<path class="st4" d="M259.5,77.8c1.3,2.6,2.7,5,3.2,5.5c1.1,1.1,3.6,0.4,3.6,0.4s-1.1-8.6-1.4-12.2c-0.4-3.6,0-14,0.4-16.2
			c0.4-2.2,1.6-10.6,1.6-10.6s2.7,1.3,11.3,1.6c8.6,0.4,16.9-0.7,22.3-0.7c5.4,0,17.2-1.1,18.3-0.7c1.1,0.4,3.6,10.8,4.7,14
			c1.1,3.2,4.3,8.6,4.7,10.1c0.4,1.4,0.7,8.6,0.7,8.6s1.8,1.4,4.3-3.2c2.5-4.7,2.5-6.1,3.2-7.9c0.3-0.8,0.5-2.1,0.6-3.7
			c0.1-2,0.1-4.2,0.1-6c0-3.2-1.4-7.2-1.4-10.8c0-3.6,1.1-10.8-5-14c-6.1-3.2-8.3-6.8-11.9-8.6c-3.6-1.8-12.2-11.9-27.3-8.3
			c-15.1,3.6-25.5,16.2-27.7,17.2c-2.2,1.1-7.9,5.4-8.3,13.3c-0.4,7.9,0,23.7,1.1,26.2C257.2,73.1,258.3,75.5,259.5,77.8z"/>
		<path class="st5" d="M289,168.8l6.7,28.9l11.1-32.2l-9.5-9.5C293.8,160.9,290.7,165.9,289,168.8z"/>
		<path class="st5" d="M333.2,117.5c0,0.1,0,0.2-0.1,0.2c-1.4,5.8-11.4,25.7-25,26.1c-13.7,0.5-28.4-19.1-28.4-19.1s0,0.1-0.1,0.3
			c-0.2,0.6-0.5,1.8-0.3,3.1c0,0.1,0,0.3,0.1,0.4c0.3,1,1.6,13.2,3.4,24.3c1.4,8.6,3.1,16.6,4.9,18.2c0,0,0.5-0.9,1.3-2.4
			c1.7-3,4.7-8.2,8-13.1c1.7-2.5,3.5-4.9,5.2-6.8c0.2-0.2,0.4-0.5,0.6-0.7c1.9-2,3.6-3.3,5-3.4c1.6-0.1,3.8,1,6.2,2.9
			c1.1,0.8,2.2,1.8,3.3,2.9c2,1.9,4,4.1,5.8,6.3c3.7,4.4,6.7,8.8,7.5,11.1c-1.5-3.2-4.5-7-8-10.7l-6.6,6.3l9.2,24.5
			c1.9-6.8,3.7-13.5,5.4-19.8c0,0,0,0.1,0,0.1c0,0,0-0.1,0-0.1c0.2-0.4,0.4-0.8,0.5-1.2c2-4.6,4-11.1,5.5-16.9
			c1.6-5.9,2.7-11.1,2.7-12.8c0-3.5,0.1-8.9,0.1-10.7c0-1.8-0.2-3.8-0.2-3.8S337.5,117.4,333.2,117.5z"/>
	</g>
</g>
</svg>
