<?xml version="1.0" encoding="utf-8"?>
<!-- Generator: Adobe Illustrator 19.2.1, SVG Export Plug-In . SVG Version: 6.00 Build 0)  -->
<svg version="1.1" id="Ebene_1" xmlns="http://www.w3.org/2000/svg" xmlns:xlink="http://www.w3.org/1999/xlink" x="0px" y="0px"
	 viewBox="0 0 595.3 841.9" style="enable-background:new 0 0 595.3 841.9;" xml:space="preserve">
<style type="text/css">
	.st0{fill:#E2B4A4;}
	.st1{fill:none;}
	.st2{fill:#F5C2B0;}
	.st3{fill:#2D2D2E;}
	.st4{fill:#E9E8E5;}
</style>
<g>
	<path class="st0" d="M224.2,440.4c-0.4-4.7-4.7-14-4.7-14c-16.3-1.6-30.7,2.7-30.7,2.7s0.1,0.6,0.2,1.4c0.2,1.4,0.5,3.6,1,4.8
		c0.8,1.9,0,7.8,0,10.5c0,2.7,1.9,11.7,2.7,13.2c0.8,1.6,3.1,8.2,5.1,10.9c0.8,1.2,3.1,2.9,5.4,4.5c3.1,2.2,6.5,4.5,7.4,5.6
		c1.6,1.9,5.4,3.1,5.4,3.1s0.8,1.6,3.1,1.2c2.3-0.4,1.9-6.2,1.9-6.2s2.7,0.8,3.5-2.3c0.8-3.1-2.3-6.6-4.7-8.9
		c-2.3-2.3-3.1-8.2-3.1-8.2s3.5,3.1,7.4,1.9c3.9-1.2,2.3-6.6,1.9-8.5C225.8,450.1,224.6,445.1,224.2,440.4z"/>
	<g>
		<path class="st1" d="M395.2,443.9c-0.1,0.6-0.1,1.3,0,2.1C395.4,445.8,395.3,444.9,395.2,443.9z"/>
		<path class="st0" d="M313.9,132.2c-5.8,5.1-15.9,10.1-34.4,3.6c-6.5-2.3-10.8-7.3-13.7-12.7v17.6c3.3,1.7,13.5,21.5,17.4,26.5
			c0.2,0.3,0.5,0.6,0.6,0.7c0.7,0.7,1.4,1.6,2.2,2.7c3.5,4.6,7.8,11.5,10.4,11.5c2.4,0,5.8-6.7,9.1-12.5c0.9-1.6,1.8-3.1,2.7-4.5
			c0.3-0.4,0.6-0.8,0.8-1.2c2.8-3.8,5.5-6.7,6.6-21.6l0.6-13.4C315.5,130.4,314.7,131.5,313.9,132.2z"/>
		<path class="st2" d="M456,795.9c-4.2-3.3-6.9-13.1-7.8-16.8c-0.1,1.1-0.1,1.7-0.1,1.7l-23,4.1l-6.4,1.1c2.8,2.8,7.7,8,8.3,11.7
			c0.1,0.4,0.1,0.8,0.2,1.2c0.9,5,2.2,11,2.2,11s0.9-0.8,2.4-1.7c7-5.5,20.9-5,29.3-3.9c0.6,0.1,1.1,0.2,1.6,0.4
			C461.9,803,459.9,799,456,795.9z"/>
		<path class="st2" d="M283.9,797.5c-4.6,0-11.5-1.3-18.1-2.8c0,1.2,0,2.7,0,3.8c0,2.1-2.2,9.2-2,11.1l32-2.1c0-1-0.5-8.7-0.8-13.2
			C292.4,796.2,288.8,797.5,283.9,797.5z"/>
		<path class="st2" d="M407.2,425.1c-20.2-5.8-27.1-1.4-27.1-1.4s-0.4,7.2-0.7,10.8c-0.4,3.6,0,16.3,1.8,19.5c1.8,3.3,4.7,2.9,6.9,0
			c2.2-2.9,3.3-13.7,3.3-13.7l3.6,0.7c0,0,0.3,1.5,0.4,2.9c0.1,0.9,0.1,1.8,0,2.1c-0.4,0.7-3.6,10.8-3.6,10.8s-4.7,2.2-8,2.2
			c-3.3,0-6.9,2.5-10.8,3.6c-4,1.1,0.4,6.1,0.4,6.1l4.7-0.7l9-0.4c0,0-3.6,2.2-6.1,4c-2.5,1.8,1.1,4.3,1.1,4.3s4.7-0.4,5.8,0.4
			c0.8,0.5,4.9-2.9,7.6-5.3c1.1-1,1.9-1.8,2.2-2.3c1.1-1.4,0,0,3.3-2.2c3.3-2.2,7.2-15.5,7.6-17c0.4-1.4,2.2-2.5,2.9-5.1
			c0.5-1.6,1.2-4.3,0.2-9C410.7,432.9,409.4,429.4,407.2,425.1z"/>
		<path class="st3" d="M418.7,786.1l6.4-1.1l23-4.1c0,0,0.1-0.6,0.1-1.7c0.5-5.6,1.8-23.3,0.6-29.3c-1.4-7.2-9.4-54.2-12.3-68.7
			c-2.9-14.5-11.6-57.8-15.9-66.5c-4.3-8.7-5.8-10.1-5.8-18.1c0-8,2.2-21.7-4.3-30.4c-6.5-8.7-8.7-11.6-8.7-16.6
			c0-5.1,0.7-19.5-2.2-29.6c-2.9-10.1-4.3-11.6-5.1-21.7c-0.4-5.3,0.2-16.2,0.7-27c-2.7,2.5-6.8,5.9-7.6,5.3
			c-1.1-0.7-5.8-0.4-5.8-0.4s-3.6-2.5-1.1-4.3c2.5-1.8,6.1-4,6.1-4l-9,0.4l-4.7,0.7c0,0-4.3-5.1-0.4-6.1c4-1.1,7.6-3.6,10.8-3.6
			c3.3,0,8-2.2,8-2.2s3.3-10.1,3.6-10.8c-0.1-0.8-0.1-1.5,0-2.1c-0.1-1.4-0.4-2.9-0.4-2.9l-3.6-0.7c0,0-1.1,10.8-3.3,13.7
			c-2.2,2.9-5.1,3.3-6.9,0c-1.8-3.3-2.2-15.9-1.8-19.5c0.4-3.6,0.7-10.8,0.7-10.8s6.9-4.3,27.1,1.4c2.3,4.3,3.5,7.8,4.1,10.5
			c1.2-1.4,2-3.3,2-6.2c0-14.5-1.4-47-1.4-64.4c0-17.4-5.1-68.7-8-81.7c-2.9-13-2.2-21.7-2.9-28.2c-0.7-6.5-10.1-39-10.8-47
			c-0.7-8-4.3-21-5.8-23.1c-1.4-2.2-5.1-6.5-8-5.8c-2.9,0.7-15.2-5.8-22.4-9.4c-2.1-1-4.6-2.3-7.2-3.6c0.7-2.7,2.2-8.4,3.3-10.8
			c1.4-3.3,2.2-10.8,1.8-17.4c-0.4-6.5-1.1-10.8-0.4-13.7c0.7-2.9-1.8-8.7-1.8-13.4c0-4.7-0.7-15.2-1.8-30
			c-1.1-14.8-14.5-43.7-31.1-55c-16.6-11.2-34.3-1.8-34.3-1.8c-26-4.3-41.9,49.2-42.3,52.8c-0.4,3.6-4.3,11.9-6.1,18.8
			c-1.8,6.9-1.1,17.7,0,24.9c1.1,7.2,3.3,20.2,3.3,23.9c0,3.6,4,10.1,5.8,13c0.4,0.6,0.7,1.7,1.1,2.9c-1.2,1-2.3,1.7-2.9,2.1
			c-2.2,1.4-15.2,5.1-24.6,8.7c-9.4,3.6-22.4,2.9-27.5,21.7c-5.1,18.8-13,113.5-13,120s2.2,65.1,2.2,77.4c0,12.3,4.3,34,5.1,36.2
			c0.7,2.2,2.2,6.5,2.2,6.5l5.2-1.2c-0.1-0.8-0.1-1.3-0.1-1.3s13.4-4,28.6-2.5c0,0,4,8.7,4.3,13c0.4,4.3,1.4,9,1.8,10.8
			c0.4,1.8,1.8,6.9-1.8,8c-3.6,1.1-6.9-1.8-6.9-1.8s0.7,5.4,2.9,7.6c2.2,2.2,5.1,5.4,4.3,8.3c-0.7,2.9-3.3,2.2-3.3,2.2
			s0.4,5.4-1.8,5.8c-2.2,0.4-2.9-1.1-2.9-1.1s-3.6-1.1-5.1-2.9c-0.8-1-4-3.1-6.9-5.2c1.3,17,2.6,33.9,3.3,40.6
			c1.4,15.2,12.3,73,15.2,85.3c2.9,12.3,8,41.9,8.7,57.1c0.7,15.2,7.2,68.7,8,81.7c0.7,13,5.1,35.4,5.8,37.6
			c0.7,2.2,1.4,14.5,1.4,14.5s9.5,2.9,19.5,5.2c6.6,1.5,13.5,2.8,18.1,2.8c4.9,0,8.6-1.3,11.1-3.1c3.4-2.4,4.8-5.7,4.8-7.7
			c0-3.6,2.9-21.7,1.4-31.8c-1.4-10.1-9.4-15.2-10.1-28.2c-0.7-13,4.3-47,3.6-55c-0.7-8-2.2-30.4-5.1-44.8
			c-2.9-14.5-2.9-15.9-2.9-22.4c0-6.5,3.6-78.8,3.6-89.7c0-10.8,1.7-57.8,1.7-57.8s22.9,88.2,25.8,99.1c2.9,10.8,23.1,81,23.9,94.7
			c0.7,13.7,24.6,68.7,25.3,77.4c0.7,8.7,13,39.8,13.7,42.7c0.7,2.9,6.5,21,6.5,21l23-4.1c2.5,3.1,5.9,7.5,6.6,9.6
			c1.1,3.5,0.8,20.3,0.8,20.3l4.6,0.3c0,0,0-13,0.5-14.9c0.5-1.9,0.3-4.6,2.7-3.8c0.5,0.2,1.1,0.1,1.6-0.2c-0.1-0.4-0.1-0.8-0.2-1.2
			C426.4,794.1,421.5,788.9,418.7,786.1z M332.7,99.3c-2.8,7.9-6.3,3.1-6.3,3.1s-5,18.3-10.1,26.6l-0.6,13.4c0-0.1,0-0.3,0-0.4
			c0,0,4.1-2.7,6.8,10c0,0.1,0.1,0.3,0.1,0.5c0.6,2.8,0.9,6.9,1.1,11.2c0.1,1.7,0.2,3.4,0.2,5c0.3,8.7,0.2,17,0.2,17
			s-1.6-2.5-4.2-3.9c-1.3,24.3-3.3,55.3-5,59.6c-2.9,7.2-8.7,33.3-8.7,33.3s-16.6-38.3-18.8-48.4c-1.5-7.1-9.5-30.4-14.6-46.1
			c-1.1-0.2-2.1,0.3-2.7,2.3c-1,3.3-2.9-1.2-4.9-7.4c-0.3-1.1-0.7-2.2-1-3.3c-1.9-6.7-3.7-14.1-4.2-15.6c-0.5-1.5,0-4.5,1-7.5
			c1.1-3.4,2.7-6.8,3.9-8c0.2-0.2,0.4-0.2,0.7,0v-17.6c-5.3-10-5.9-21.4-6.4-20.6c-2.2,3.4-6.2-1.2-6.7-3.4
			c-0.2-1.1-1.5-2.5-2.5-10.5c3.3-2.2,8.7-6.2,10.9-10.5c3.3-6.5,2.9-20.6,5.8-23.9c2.2-2.5,8-9.1,10.6-13.9
			c1.1-0.4,2.2-0.8,3.4-1.1c5.9,7.8,23.6,30.5,33.4,37.1c11.9,8,18.1,10.5,18.1,10.5S334.4,94.5,332.7,99.3z"/>
		<path class="st3" d="M462.7,804.8c-0.5-0.2-1.1-0.3-1.6-0.4c-8.3-1.2-22.3-1.6-29.3,3.9c-1.2,0.9-2.2,2-2.9,3.3
			c-1.9,7.9,3.5,7.9,3.5,7.9s21.7,3.8,30.1,3.8c8.4,0,11.1-1.4,11.1-1.4S471.1,807.6,462.7,804.8z"/>
		<path class="st3" d="M295.8,807.6l-32,2.1l-0.9,0.1c0,0-2.2,4.1-0.4,11.6c1.8,7.2,7.2,4.7,7.2,4.7c1.1,0,25.7,0.4,27.1-3.3
			c1.4-3.6,2.5-9.4,1.8-11.2C298,809.8,295.8,807.6,295.8,807.6z"/>
		<path class="st4" d="M324,168.8c-0.1-1.7-0.1-3.4-0.2-5c-0.2-4.3-0.6-8.3-1.1-11.2c0-0.2-0.1-0.3-0.1-0.5c-2.7-12.7-6.8-10-6.8-10
			c0,0.1,0,0.3,0,0.4c-1.1,14.8-3.8,17.8-6.6,21.6c-0.3,0.4-0.6,0.8-0.8,1.2c-0.9,1.3-1.8,2.9-2.7,4.5c-3.3,5.8-6.7,12.5-9.1,12.5
			c-2.6,0-6.9-7-10.4-11.5c-0.8-1.1-1.6-2-2.2-2.7c-0.2-0.2-0.4-0.4-0.6-0.7c-3.9-5-14.2-24.8-17.4-26.5c-0.3-0.2-0.5-0.2-0.7,0
			c-1.2,1.2-2.8,4.6-3.9,8c-1,3-1.5,5.9-1,7.5c0.5,1.5,2.2,8.9,4.2,15.6c0.3,1.1,0.7,2.2,1,3.3c1.9,6.2,3.9,10.7,4.9,7.4
			c0.6-2,1.6-2.5,2.7-2.3c5.1,15.7,13.1,38.9,14.6,46.1c2.2,10.1,18.8,48.4,18.8,48.4s5.8-26,8.7-33.3c1.7-4.3,3.7-35.2,5-59.6
			c2.6,1.3,4.2,3.9,4.2,3.9S324.3,177.5,324,168.8z"/>
		<path class="st2" d="M314.4,75.6c-9.9-6.6-27.8-29.6-33.8-37.5c-1.2,0.3-2.3,0.7-3.4,1.1c-2.6,4.8-8.5,11.6-10.7,14.1
			c-2.9,3.3-2.6,17.5-5.8,24.1c-2.2,4.4-7.6,8.4-11,10.6c1,8.1,2.3,9.4,2.5,10.6c0.5,2.3,4.6,6.9,6.8,3.5c0.5-0.8,1.1,10.8,6.4,20.8
			c2.9,5.5,7.3,10.5,13.9,12.9c18.6,6.6,28.8,1.5,34.7-3.7c0.8-0.7,1.6-1.8,2.5-3.1c5.1-8.4,10.2-26.9,10.2-26.9s3.5,4.8,6.3-3.2
			c1.7-4.9-0.4-12.8-0.4-12.8S326.5,83.6,314.4,75.6z"/>
	</g>
</g>
</svg>
