<?xml version="1.0" encoding="utf-8"?>
<!-- Generator: Adobe Illustrator 19.2.1, SVG Export Plug-In . SVG Version: 6.00 Build 0)  -->
<svg version="1.1" id="Ebene_1" xmlns="http://www.w3.org/2000/svg" xmlns:xlink="http://www.w3.org/1999/xlink" x="0px" y="0px"
	 viewBox="0 0 595.3 841.9" style="enable-background:new 0 0 595.3 841.9;" xml:space="preserve">
<style type="text/css">
	.st0{fill:#474647;}
	.st1{fill:#E2484A;}
	.st2{fill:#E2B4A4;}
	.st3{fill:#F5C2B0;}
	.st4{fill:#2D2D2E;}
	.st5{fill:#E9E8E5;}
</style>
<g>
	<path class="st0" d="M321.2,759.4c-1.7-9.2,0.3,13.9,1.8,14.7c1.5,0.7,13.4,2.2,14.5,2.2c1.1,0,7.4-0.6,8.7-1
		c1.2-0.4,0.4,2.7,5.5,4.1c5.1,1.5,22.7,2.2,29.8,1.6c7.1-0.6,13.7-2.3,13.7-5c0.9-3,2-6.7-2.1-7.6c-4-0.9-7.4-1-9.8-3.7
		c-2.3-2.7-11.7-11.8-13.8-15.1L321.2,759.4z"/>
	<path class="st0" d="M217.1,744.5c0,0-16.2,17.8-18.3,19.4c-2.1,1.6-8.2,4.4-8.2,4.4s-7.9-1.7-8.9,4.5c-1,6.2,1.3,5.1,1.3,5.1
		s13.5,3.9,26,3.9c12.4,0,21.2-2.6,21.2-2.6s5.1-3.8,5.5-4.1c0.4-0.4,11.2,1.2,11.2,1.2l14.4-1.6c0,0,2.4-0.1,2.2-1.7
		c-0.2-1.6,0-7,0-7s0.9-0.6,1.1-2.2L217.1,744.5z"/>
	<g>
		<path class="st1" d="M315.7,215.9c-1.5-6.5-6.5-28.7-6-31c0.6-2.7,0.6-2.7,0.6-2.7l4.3-7.3c-1.5-1.9-3-3.7-4.4-5.2
			c-1.3-1.3-2.4-2.3-3.4-2.7c0,0,0,0-0.1,0l0,0c-0.6,0-1.1,0-1.7,0.2c-0.2,0.1-0.3,0.1-0.5,0.2c0,0-0.1,0-0.1,0
			c-0.1,0-0.1,0.1-0.2,0.1c-0.9,0.5-2.1,1.4-3.4,2.7c-1.3,1.3-2.8,2.9-4.3,4.7l4.4,8.1l-7.2,41.5l-0.1,0.7l9,54.2l13.6-61.7
			C316.2,217.7,316,217,315.7,215.9z"/>
		<path class="st1" d="M307.4,167.1c-0.2,0-0.3-0.1-0.5-0.1c0,0,0,0,0,0c0,0,0,0,0,0C307.1,167.1,307.2,167.1,307.4,167.1z"/>
		<path class="st2" d="M330.4,129.9c0,0-12.8,11.9-16.8,13c-4,1.1-12.1,0.4-17.6-0.9c-5.5-1.3-16-14.2-16-14.2s0,1.6-0.1,3.9
			c0,2,0,4.5,0,6.7c0,0.1,0.1,0.3,0.1,0.4c2.3,7.7,19.1,23.6,19.1,23.6l1.2,1.2l4,3.8c0.1,0,0.1,0,0.2,0c0,0,0,0-0.1,0
			c0.2-0.1,0.3-0.1,0.5-0.2c0.6-0.2,1.2-0.2,1.7-0.2l0,0c0,0,0,0,0,0l0,0l3.7-3.8c0,0,14.2-16.3,18.4-22.9c0,0,0-0.1,0.1-0.1
			c0.5-0.7,0.8-1.4,1-1.8c0.1-0.3,0.2-0.5,0.3-0.5c0.3-3.6,0.2-6.6,0.2-7.7C330.4,130,330.4,129.9,330.4,129.9z"/>
		<path class="st2" d="M285.7,361.1c-4.1,3.9-15.1,14.7-15.1,15.7c0,1,2.6,8.2,6.4,10.4c1.3-1.2,4-1.5,6.5-2.8
			c3.9-2,14.9-11,15.6-12.4c0.7-1.5,0.7-9.3,0.7-9.3s-4.6-0.5-9.3-0.5C289.2,362.1,287.5,361.7,285.7,361.1z"/>
		<path class="st3" d="M275.4,108.3c0,0,2.2,11.6,2.2,14.8c0,1.3,0,4.5,0.1,8c0-2.5,0.1-4.3,0.1-4.3s11.5,14.1,17.5,15.5
			c6,1.4,14.8,2.2,19.2,1c4.4-1.2,18.4-14.2,18.4-14.2s0,0.2,0,0.5c0.1-0.8,0.2-1.3,0.2-1.3s3-15.6,3-19.8c4.4,0.8,6.4-4.2,6.8-7.4
			c0.4-3.2,4.2-18.4-0.6-16.8c0,0-0.1,0-0.1,0c-1.9,4.6-6.5,13.3-6.7,12.8c-0.2-0.6-1.8-8.8-1.8-12c0-3.2-0.8-13.4-1.2-20
			c-0.4-6.6-5-6.6-9-5.2c-4,1.4-17.2,2.2-25.8,2.2c-8.6,0-17-1.4-17-1.4s-2.6,6.4-3.4,8.2c-0.8,1.8-0.8,13.8-0.6,19.2
			c0.2,5.4-0.8,14.6-2,12.2c-1.2-2.4-4.4-11.6-6.8-16.6c0,0,0,0,0,0c-1.2,0.5-2.1,1.5-2,3.8c0.2,6.4,2.2,10.6,2.2,14.2
			c0,3.6-0.4,4.3,3.4,6.2C272.6,108.5,275.4,108.3,275.4,108.3z"/>
		<path class="st3" d="M324.3,354.1c0,0-7.6-1.2-12.2-2.2c-4.6-1-6.3-3.2-10.7-1.2c-4.4,2-11.7,0.7-14.4,0.7c-2.7,0-11-5.4-10.2,0.7
			c0.5,4.3,4.9,7.5,9,9c1.8,0.7,3.5,1,4.9,1c4.6,0,9.3,0.5,9.3,0.5s0,7.8-0.7,9.3c-0.7,1.5-11.7,10.5-15.6,12.4
			c-2.5,1.3-5.2,1.6-6.5,2.8c-0.7,0.7-1,1.6-0.6,3.1c1.2,4.1,4.1,4.4,4.1,4.4s1.2,6.8,6.3,7.1c2.7,2.7,10.2,5.1,11.7,4.9
			c2.9,2.2,7.8,2.9,12,0.5c4.1-2.4,6.8-7.1,11.5-9.3c4.6-2.2,9.3-7.3,10.5-9.8c1.2-2.4,3.2-6.6,5.6-8.8c2.4-2.2,4.6-3.4,4.6-3.4
			S336.3,357.5,324.3,354.1z"/>
		<path class="st4" d="M214.6,747.8c0,0,3.7,1.7,7.3,2.3s6.3,9,19.7,11.3c13.3,2.3,23.3,3.7,23.3,3.7s5.7-8.7,8-13.3
			c2.3-4.7,0.8-10.9,0.8-10.9c-1.5-4.6-2.3-6-2.3-8.2c0-2.2-2-7.1-4.3-14.2c-2.3-7.1-6.5-17.4-6.5-17.4s7.2-6.3,6.7-17.1
			c-0.5-10.7-1.6-33.8-0.5-38.1c1.1-4.3,4.5-31.5,4-34.2c-0.5-2.7,2.8-15.7,2.4-20.6c0,0,9.2-64.4,10.4-71
			c1.2-6.6,10.7-48.7,11.7-51.5c1-2.8,2.6-5.7,2.6-5.7s2.4-0.7,3.8,4.4c1.3,5.1,2.6,10,2.4,17.9c-0.1,7.9,4.9,46.7,5.9,59
			c1,12.3,4.8,43.7,5.9,47.7c1.1,4,2.1,4.8,2.3,6.8c0.2,2.1-2,5.7-0.7,9.5c1.2,3.8,1.6,4.3,0.9,7.8c-0.7,3.5,0.4,10.6,1.1,15.9
			c0.7,5.2-0.9,12.1-0.5,17.1c0.4,5-3.2,36.2-1.7,44c1.5,7.8,1.1,17.8,4.9,24.5c3.8,6.7,5.9,6.6,3,11.8c-2.8,5.2-2.7,6.7-4.4,7.8
			c-1.7,1.1-8.3,2-5.7,8.8c0,0,4.1,12.3,3.8,13.9c-0.3,1.7,12.3,2,25,0.3c12.7-1.7,25-8.7,25.7-10.7c0.7-2-1.6-10.9-1.6-10.9
			c0.9-5.6,2.1-3.8,1-9.4c-1.1-5.6,0.7-10.1,1.3-19c0.6-8.9,0.1-35-0.1-37.3c-0.2-2.3,3.4-32.2,3.5-41.8c0.1-9.6-0.4-25.5-1.1-30.9
			c-0.7-5.4-1.5-54.5-1.5-63.7c0-9.1,3.7-45.7,4.1-52.9c0.5-7.2,0-18.4,0.9-24.3c0.9-5.9,1.3-9.9,1.3-9.9s2.3,1.8,1.6-5.7
			c-0.7-7.6-2.4-22.6-2.4-29.6c0-7.1,0.6-5.5,0.9-11c0.2-5.5-1.3-17.3-2.4-22.9c-1.1-5.6-1.2-10.6-1.2-10.6s8.3-11.5,13.4-15.6
			c5.1-4.1,10.9-11.7,13.3-16.8c2.4-5.1,10-20.6,10.6-29.6c0.6-9,0.1-10.1,1.6-16.2c1.5-6.1,1.3-11.6,1-15.6c-0.4-4-4.8-30.3-5.1-37
			c-0.4-6.7-2.9-14.3-5.2-17.9s-1.5-6.8-2-10.5c-0.5-3.7-2.4-7.3-2.7-11.1c-0.2-3.8,0.6-6.2-1.1-8.8c-1.7-2.6-5.4-7.1-5.2-10.5
			c0.1-3.4,1.6-10-4-8.8c-6.8-3.7-37.6-13.9-39.4-14.5c-1.8-0.6-11.2-4.5-11.2-4.5l-6.3-10.2l-0.6-2.1c0.2,1.8,0.2,4.1,0.2,4.1
			s0.2,7.1-1.2,10.2c-1.5,3.1-6,21.8-6.8,24.7c-0.1,0.5-0.6,2.6-1.2,5.7c-3.6-7-7.1-12.5-10.5-15.4c-1-0.9-2.1-1.5-3.1-1.9
			c-0.1,0-0.2-0.1-0.3-0.1c-0.2-0.1-0.3-0.1-0.5-0.1c-0.2,0-0.3-0.1-0.5-0.1c0,0,0,0,0,0c0,0-0.1,0-0.1,0l0,0c0,0,0,0,0,0
			c0,0,0,0,0,0c0,0,0,0,0.1,0c1,0.4,2.1,1.4,3.4,2.7c1.4,1.4,2.9,3.2,4.4,5.2c2.9,3.7,5.6,7.8,7.1,10.1c-1.4,7.3-3.8,19.7-5.9,30.9
			c0.3,1.1,0.4,1.8,0.4,1.8l-13.6,61.7l-9-54.2l0.1-0.7c-0.7-4.3-1.2-7.3-1.4-8.2c-0.6-2.7-3.5-16.9-6-28.3
			c1.9-2.7,6.2-8.4,10.2-13.1c1.5-1.8,3-3.4,4.3-4.7c1.3-1.3,2.4-2.2,3.4-2.7c0.1,0,0.1-0.1,0.2-0.1c0,0,0.1,0,0.1,0c0,0,0,0,0.1,0
			c-0.1,0-0.1,0-0.2,0c-0.2,0-0.5,0.1-0.7,0.1c-1.2,0.3-2.5,1.1-4,2.3c-4.3,3.5-9.4,10.3-13.4,17.8c-1.6-7.2-3-13.1-3.4-14
			c-1.1-2.4-3.5-13.5-4-16.8c-0.5-3.2-2.5-15.6,0.1-18.3c-0.6,0.5-2,1.6-2.6,2.7c-0.7,1.5-4.1,4.3-6,5.6c-1.8,1.3-4.5,2.7-6.1,3.3
			c-1.6,0.6-17.2,6.3-21.2,7.4c-4,1.1-24.6,6.8-24.6,6.8s-2.4-2.4-4.6,1.1c-2.2,3.5-2,10-3.8,14.2c-1.8,4.1-3.1,6.5-4.4,10.9
			c-1.3,4.4-7.1,25.4-8.4,32c-1.3,6.6-1.6,16.3-2,21.1c-0.4,4.8-2.8,28.7-2.8,32.9c0,4.3-0.1,21.5,0.4,26.4
			c0.5,4.9,1.6,14.5,8.1,22.2c6.5,7.7,22.9,32.7,24.9,34.3c2,1.6,1.7,2.6,1.7,2.6s-2.3,19.9-2.3,27c0,7.1-1.6,18.3-2.3,21.3
			c-0.7,3.1-4.9,23.8-5.5,27.9c-0.6,4.1-1.5,7.1,0.1,8.2c-0.4,4.9-0.4,13.4-0.4,17.1c0,3.7,2.6,47.3,2.7,55
			c0.1,7.7,1.1,10.1,0.6,16.5c-0.5,6.3,0,13.2-0.2,17.7c-0.2,4.5-0.1,26.5-0.5,31.6c-0.4,5.1-4,23.8-4,27.9c0,4.1-1.1,27.2-0.4,34
			c0.7,6.8,1,23.1,1.2,26c0.2,2.9,0,19.9,0,23.5s0.2,18.4,0.4,19.8c0.1,1.3,2.1,4.9,3.7,6.7c1.6,1.8,2.3,3.5,2.3,3.5s-1.1,0.9-2.6,2
			C214.2,732.1,214.6,747.8,214.6,747.8z M338.2,379.2c-2.4,2.2-4.4,6.3-5.6,8.8c-1.2,2.4-5.9,7.6-10.5,9.8
			c-4.6,2.2-7.3,6.8-11.5,9.3c-4.1,2.4-9,1.7-12-0.5c-1.5,0.2-9-2.2-11.7-4.9c-5.1-0.2-6.3-7.1-6.3-7.1s-2.9-0.2-4.1-4.4
			c-0.4-1.5-0.1-2.4,0.6-3.1c-3.8-2.1-6.4-9.3-6.4-10.4c0-1,11-11.7,15.1-15.7c-4.2-1.5-8.5-4.7-9-9c-0.7-6.1,7.6-0.7,10.2-0.7
			c2.7,0,10,1.2,14.4-0.7c4.4-2,6.1,0.2,10.7,1.2c4.6,1,12.2,2.2,12.2,2.2c12,3.4,18.5,21.7,18.5,21.7S340.6,377,338.2,379.2z"/>
		<path class="st4" d="M267.8,83.7c2.4,5,5.6,14.2,6.8,16.6c1.2,2.4,2.2-6.8,2-12.2c-0.2-5.4-0.2-17.4,0.6-19.2
			c0.8-1.8,3.4-8.2,3.4-8.2s8.4,1.4,17,1.4c8.6,0,21.8-0.8,25.8-2.2c4-1.4,8.6-1.4,9,5.2c0.4,6.6,1.2,16.8,1.2,20
			c0,3.2,1.6,11.4,1.8,12c0.2,0.6,4.8-8.2,6.7-12.8c0.1-0.3,0.2-0.6,0.3-0.8c1.6-4.2,0.8-14.2-3.2-21.8c-4-7.6-7.2-8.6-7.2-8.6
			s-0.8-12.2-15.6-13.8c-14.8-1.6-34.8,0.6-39.8,11.4c-5,10.8-9,12.2-9.6,18.4C266.4,75.3,265.4,78.7,267.8,83.7
			C267.8,83.7,267.8,83.7,267.8,83.7z"/>
		<path class="st5" d="M330.7,139.8c-0.1-1-0.3-1.8-0.5-1.8c-0.1,0-0.2,0.1-0.3,0.5c-0.2,0.4-0.5,1.1-1,1.8c0,0,0,0.1-0.1,0.1
			c-4.2,6.6-18.4,22.9-18.4,22.9l-3.7,3.8c0,0,0.1,0,0.1,0c0,0,0,0,0,0c0.2,0,0.3,0,0.5,0.1c0.2,0,0.3,0.1,0.5,0.1
			c0.1,0,0.2,0.1,0.3,0.1c1,0.4,2,1,3.1,1.9c3.4,2.9,6.9,8.4,10.5,15.4c0.6-3.1,1-5.2,1.2-5.7c0.7-2.9,5.3-21.6,6.8-24.7
			c1.5-3.1,1.2-10.2,1.2-10.2S330.9,141.6,330.7,139.8z"/>
		<path class="st5" d="M310.3,182.2c0,0,0,0-0.6,2.7c-0.5,2.3,4.5,24.5,6,31c2.1-11.2,4.5-23.6,5.9-30.9c-1.5-2.3-4.2-6.3-7.1-10.1
			L310.3,182.2z"/>
		<path class="st5" d="M286.3,188c2.5,11.3,5.5,25.6,6,28.3c0.2,0.9,0.7,3.9,1.4,8.2L301,183l-4.4-8.1
			C292.5,179.6,288.2,185.3,286.3,188z"/>
		<path class="st5" d="M299.1,162.5c0,0-16.8-16-19.1-23.6c0-0.1-0.1-0.3-0.1-0.4c0-0.2-0.1-0.3-0.1-0.5l-0.5,0.3l-0.2,0.1
			c-0.1,0-0.1,0.1-0.2,0.2c-2.7,2.7-0.7,15.1-0.1,18.3c0.5,3.3,2.9,14.5,4,16.8c0.4,0.9,1.8,6.8,3.4,14c4-7.5,9.1-14.3,13.4-17.8
			c1.4-1.2,2.8-2,4-2.3c0.3-0.1,0.5-0.1,0.7-0.1l-4-3.8L299.1,162.5z"/>
		<path class="st5" d="M306.7,167L306.7,167C306.7,167,306.7,167,306.7,167L306.7,167z"/>
	</g>
</g>
</svg>
