<?xml version="1.0" encoding="utf-8"?>
<!-- Generator: Adobe Illustrator 19.2.1, SVG Export Plug-In . SVG Version: 6.00 Build 0)  -->
<svg version="1.1" id="Ebene_1" xmlns="http://www.w3.org/2000/svg" xmlns:xlink="http://www.w3.org/1999/xlink" x="0px" y="0px"
	 viewBox="0 0 595.3 841.9" style="enable-background:new 0 0 595.3 841.9;" xml:space="preserve">
<style type="text/css">
	.st0{fill:#69ABB7;}
</style>
<g>
	<path class="st0" d="M384.8,383.9c0-0.1,0-0.1,0-0.1C384.8,383.8,384.8,383.8,384.8,383.9z"/>
	<path class="st0" d="M384.8,383.8C384.8,383.7,384.8,383.7,384.8,383.8L384.8,383.8z"/>
	<path class="st0" d="M384.9,384.8c-0.1-0.5-0.1-0.8-0.1-0.9C384.8,384.1,384.9,384.4,384.9,384.8z"/>
	<path class="st0" d="M384.9,385.1c0-0.1,0-0.2,0-0.3C384.9,384.9,384.9,385,384.9,385.1z"/>
	<path class="st0" d="M385.1,386c0,0.3,0.1,0.6,0.1,0.8C385.1,386.6,385.1,386.3,385.1,386z"/>
	<path class="st0" d="M385.1,386c0-0.2,0-0.3-0.1-0.5c0-0.2,0-0.3-0.1-0.5c0,0.1,0,0.3,0.1,0.5c-3-23.9-16.4-33.9-39.8-35.2
		c-23-1.3-47.1,5-70.2,6.8c-17.6,1.4-44.6-4.3-58.2,9.8c-6.6,6.8-8.4,14.9-5.1,23.8c4.8,13,5.1,23.1,3.6,36.9
		c-1,9.9-2.8,23.1,4.1,31.4c7.2,8.7,18.9,8.4,29.2,9.3c26,2.2,50-1.1,75.8-2.5c5.5,4.8,17.3,17.1,8.3,27.3c12-5.7,27.3-30,30.1-34.5
		c3.9-2.5,7.4-6,10.4-11c5.1-8.5,5.4-18.3,6.6-27.9c1.5-11.3,6.6-22.8,5.2-34.3C385,385.7,385,385.9,385.1,386z"/>
	<path class="st0" d="M385.3,387.6C385.3,387.9,385.3,387.9,385.3,387.6L385.3,387.6z"/>
	<path class="st0" d="M385.3,387.5C385.3,387.5,385.3,387.6,385.3,387.5C385.3,387.6,385.3,387.5,385.3,387.5z"/>
	<path class="st0" d="M385.2,386.9c0,0.3,0.1,0.5,0.1,0.7C385.2,387.4,385.2,387.2,385.2,386.9z"/>
</g>
</svg>
