<?xml version="1.0" encoding="utf-8"?>
<!-- Generator: Adobe Illustrator 19.2.1, SVG Export Plug-In . SVG Version: 6.00 Build 0)  -->
<svg version="1.1" id="Ebene_1" xmlns="http://www.w3.org/2000/svg" xmlns:xlink="http://www.w3.org/1999/xlink" x="0px" y="0px"
	 viewBox="0 0 595.3 841.9" style="enable-background:new 0 0 595.3 841.9;" xml:space="preserve">
<style type="text/css">
	.st0{fill:#69B77D;}
</style>
<g>
	<path class="st0" d="M506.1,327.6c-18.4-40.5-40.8-59.8-81.2-77.2c-49.4-21.3-107.8-27.5-161.2-24.8c-45.3,2.3-99.6,13-125.2,54.5
		c-19.1,31-27.1,85.4-8.8,118.2c3.4,28.3,51.2,62.6,72.6,77.8c44.1,31.2,88.8,42.2,142.2,42.5c48.6,0.3,116.3-11.2,149.4-51
		C528,426.5,527.1,373.6,506.1,327.6C498.4,310.6,513.5,343.9,506.1,327.6z"/>
	<path class="st0" d="M201.5,528.2c-0.7-3.4-2.6-6-5-7.9c-0.8-2.9-2.9-5.6-6.4-7.5c-5.2-2.8-9.8-6.3-15.3-8.5
		c-7-2.7-14.6-2.7-21.9-3.9c-12-2-21.4,0.7-32.2,6c-22.1,10.8-20.7,44.7-1.7,57.8c10.2,6.9,21.6,7.1,33.5,7
		c14.9-0.1,26.5-1.1,38.3-11.2C200.7,551.4,204.2,541.1,201.5,528.2z"/>
	<path class="st0" d="M110.7,588.6c-4-3.6-8.4-4.7-13.2-5c-2.1-1.4-4.6-2.2-7.3-2.2c-11.9,0-23.2,7.3-24.1,20
		c-0.4,6.3,0.6,11.7,5.2,16.4c2.9,3,7.2,4.4,11.3,4.6c1,0,5.5,0.3,1.9-0.4c5.6,1,10.5,1.7,15.9-0.5c6.4-2.6,11.6-6.6,13.9-13.5
		C116.5,601.8,115.9,593.3,110.7,588.6z"/>
</g>
</svg>
