<?xml version="1.0" encoding="utf-8"?>
<!-- Generator: Adobe Illustrator 19.2.1, SVG Export Plug-In . SVG Version: 6.00 Build 0)  -->
<svg version="1.1" id="Ebene_1" xmlns="http://www.w3.org/2000/svg" xmlns:xlink="http://www.w3.org/1999/xlink" x="0px" y="0px"
	 viewBox="0 0 595.3 841.9" style="enable-background:new 0 0 595.3 841.9;" xml:space="preserve">
<style type="text/css">
	.st0{fill:#FECC4D;}
</style>
<path class="st0" d="M388.9,406.4C389.1,407.4,389.2,408.4,388.9,406.4C388.7,404.3,388.8,405.4,388.9,406.4
	c-1.8-14.1-14.5-34.3-27-41.1c-18.3-9.9-43.8-14.9-64.5-15.2c-40.1-0.6-93,17.7-85.6,67.1c2.8,18.3,19.5,39.2,36.3,46.4
	c22.1,9.5,48.3,10,72.1,9.8c4.2,0,8.1-0.3,11.9-0.8c3.7,4,8.8,10.8,12.3,20.6c1.3-0.1,15.4-31.1,15.4-31.1l-0.3,0
	c2.6-1.8,5.2-3.8,7.9-6.1C382.4,443.2,391.6,426.7,388.9,406.4z"/>
</svg>
