<?xml version="1.0" encoding="utf-8"?>
<!-- Generator: Adobe Illustrator 19.2.1, SVG Export Plug-In . SVG Version: 6.00 Build 0)  -->
<svg version="1.1" id="Ebene_1" xmlns="http://www.w3.org/2000/svg" xmlns:xlink="http://www.w3.org/1999/xlink" x="0px" y="0px"
	 viewBox="0 0 841.9 595.3" style="enable-background:new 0 0 841.9 595.3;" xml:space="preserve">
<style type="text/css">
	.st0{fill:#F29400;}
	.st1{fill:#BF4F00;}
	.st2{fill:#8F0000;}
</style>
<g>
	<g>
		<path class="st0" d="M875.3,294.3c-34,0-418.4,0-454.8,0v-40.8c0,0,0.1,0,0.1,0h1v0.3h0.5v0.5h2.4v-0.4h0.4v-0.3h1.2v0.3h0.7v0.7
			h0.3v0.3c0,0-0.2,0.3-0.3,0.4c-0.2,0.2,0.3,0.5,0.3,0.5v1.9h0.9v2.1h0.4v-0.3h1.9V257h3.4c0,0,0.4-0.6,0.7-0.6
			c0.3,0,0.3,0.6,0.3,0.6h0.8v0.3h4.6v0.4h0.2v1.8h1.4V259h1.2v-0.4h0.3v0.4h1.5v-0.2h0.3v-0.7h4.2l0.5-0.2c0,0,0,0,0.4,0
			c0.5,0,0,0.9,0,0.9l0.5,0.2v-0.7h1.9v-0.3h1.7v-0.5h0.9v-0.3h0.9V256h0.2v-0.7l0.4-0.3v2.1c0,0,0.2,0.1,0.6,0.1
			c0.3,0,0.4,0.5,0.4,0.5h0.9v4h1.4v0.3h0.2v-0.7h0.5V260h3.2v1.1h0.5v0.4h0.4v-10.3h1.5V250h4.1v1.1h1.5v8.1h0.5v1.3h0.5
			c0,0,0,4.9,0,5.2c0,0.3,0.8,0.4,0.8,0.4v-1.3h0.5v-0.4h-0.6v-0.2h1.3v-0.6h2.6v0.4h0.5c0,0,2.1,0,2.9,0.3c0.8,0.2,0.8,0.5,0.8,0.5
			v-5.6h1.2v-0.3h-0.3v-0.3h0.5v0.3h0.5v-0.3h0.4v0.4h0.2v-1.1l-0.4,0.1c0,0,0-0.2,0.1-0.2c0.1,0,0.4-0.3,0.4-0.3v1.2h0.4v0.6h3v7.1
			h3.3v0.4h0.2l1.3-10.9h0.2c0,0,0.7-4.7,0.7-5.1c0-0.4,0.4-0.1,0.4-0.1l0.6,5.2h0.2l0.5,6.2c0,0,0.1,0,0.3,0s0.2,0.3,0.2,0.3h1.4v2
			h0.5v0.4h0.3v-0.5h1.1v0.4h2.9c0,0,0-2.1,0-3.1c0-1,0.4-1,0.4-1h0.5V260h0.6v0.3h0.3v-0.2h0.2c0,0,0-1.3,0-1.6
			c0-0.3,0.1-0.4,0.3-0.5c0.3-0.1,0.8-0.6,0.8-0.6l0.1-0.4h0.3v-1.4l-0.7,0.3c0,0-0.2-0.3,0-0.3c0.1,0,0.8-0.8,0.8-0.8l0.1,2.3h0.2
			v0.2l0.7,0.6l0.3,0.1l0.2,0.1l0.3,0.1v2.1c0,0,0.2-0.1,0.3,0c0.1,0.1,0.3,0.8,0.3,0.8v1.7h0.4v-0.6h0.4c0,0,0.2-0.2,0.6-0.3
			c0.4-0.1,0.9,0,0.9,0s0.3,0,0.7,0c0.4,0,0.7,0.3,0.7,0.3h0.4V258h0.9c0,0,0-0.5,0.3-0.7c0.3-0.2,0.3-1.9,0.3-1.9s0,0.9,0,1.6
			c0,0.7,0.4,1,0.4,1v-0.6h3v3.2h2.8v0.6l1.1-0.6l0.7,0.7v2.2l1.8-1.6v-1.7h1.8v-1.4h0.4v-0.5h4.2l0.2,0.7h0.5v0.4h1.2
			c0-0.3,0-0.5,0-0.5h4.9v5.1h0.4v0.3h0.7v-0.6h0.5v-0.4h0.8v-4.4h0.3c0,0,0.1-0.3,0.1-0.6c0-0.3,0.6-0.3,0.6-0.3v-3.4h0.2v-0.8h0.5
			l0.3-0.3h1v0.3h0.5v0.5h2.4v-0.4h0.4v-0.3h1.2v0.3h0.7v0.7h0.3v0.3c0,0-0.1,0.3-0.3,0.4c-0.2,0.2,0.3,0.5,0.3,0.5v1.9h0.9v2.1h0.4
			v-0.3h1.9V257h3.4c0,0,0.4-0.6,0.7-0.6c0.3,0,0.3,0.6,0.3,0.6h0.8v0.3h4.6v0.4h0.2v1.8h1.4V259h1.2v-0.4h0.3v0.4h1.5v-0.2h0.3
			v-0.7h4.2l0.5-0.2c0,0,0,0,0.5,0c0.4,0,0,0.9,0,0.9l0.5,0.2v-0.7h1.9v-0.3h1.7v-0.5h0.9v-0.3h0.9V256h0.2v-0.7l0.4-0.3v2.1
			c0,0,0.2,0.1,0.6,0.1c0.3,0,0.4,0.5,0.4,0.5h0.9v4h1.4v0.3h0.2v-0.7h0.5V260h3.2v1.1h0.5v0.4h0.4v-10.3h1.5V250h4.1v1.1h1.5v8.1
			h0.5v1.3h0.5c0,0,0,4.9,0,5.2c0,0.3,0.8,0.4,0.8,0.4v-1.3h0.5v-0.4h-0.6v-0.2h1.3v-0.6h2.6v0.4h0.4c0,0,2.1,0,2.9,0.3
			c0.8,0.2,0.8,0.5,0.8,0.5v-5.6h1.2v-0.3H602v-0.3h0.5v0.3h0.4v-0.3h0.4v0.4h0.2v-1.1l-0.4,0.1c0,0,0-0.2,0.1-0.2
			c0.1,0,0.5-0.3,0.5-0.3v1.2h0.4v0.6h3v7.1h3.3v0.4h0.2l1.3-10.9h0.2c0,0,0.7-4.7,0.7-5.1c0-0.4,0.4-0.1,0.4-0.1l0.6,5.2h0.2
			l0.5,6.2c0,0,0.1,0,0.3,0c0.1,0,0.2,0.3,0.2,0.3h1.4v2h0.5v0.4h0.3v-0.5h1.1v0.4h2.9c0,0,0-2.1,0-3.1c0-1,0.4-1,0.4-1h0.5V260h0.6
			v0.3h0.3v-0.2h0.2c0,0,0-1.3,0-1.6c0-0.3,0.1-0.4,0.3-0.5c0.3-0.1,0.8-0.6,0.8-0.6l0.1-0.4h0.3v-1.4l-0.7,0.3c0,0-0.2-0.3,0-0.3
			c0.1,0,0.8-0.8,0.8-0.8l0.1,2.3h0.2v0.2l0.6,0.6l0.3,0.1l0.2,0.1l0.3,0.1v2.1c0,0,0.2-0.1,0.3,0c0.1,0.1,0.3,0.8,0.3,0.8v1.7h0.4
			v-0.6h0.4c0,0,0.2-0.2,0.6-0.3c0.4-0.1,0.9,0,0.9,0s0.3,0,0.7,0c0.4,0,0.7,0.3,0.7,0.3h0.4V258h0.9c0,0,0-0.5,0.3-0.7
			c0.3-0.2,0.3-1.9,0.3-1.9s0,0.9,0,1.6c0,0.7,0.4,1,0.4,1v-0.6h3v3.2h2.8v0.6l1.1-0.6l0.7,0.7v2.2l1.8-1.6v-1.7h1.8v-1.4h0.4v-0.5
			h4.2l0.2,0.7h0.5v0.4c0,0,0,0,0.1,0v-0.6h0.3c0,0,0.1-0.3,0.1-0.6c0-0.3,0.6-0.3,0.6-0.3v-3.4h0.2v-0.8h0.5l0.3-0.3h1v0.3h0.5v0.5
			h2.4v-0.4h0.4v-0.3h1.2v0.3h0.7v0.7h0.3v0.3c0,0-0.1,0.3-0.3,0.4c-0.2,0.2,0.3,0.5,0.3,0.5v1.9h0.9v2.1h0.4v-0.3h1.9V257h3.3
			c0,0,0.4-0.6,0.7-0.6c0.3,0,0.3,0.6,0.3,0.6h0.8v0.3h4.6v0.4h0.2v1.8h1.4V259h1.2v-0.4h0.3v0.4h1.5v-0.2h0.3v-0.7h4.2l0.5-0.2
			c0,0,0,0,0.5,0c0.5,0,0,0.9,0,0.9l0.5,0.2v-0.7h1.9v-0.3h1.7v-0.5h0.9v-0.3h0.9V256h0.2v-0.7l0.4-0.3v2.1c0,0,0.2,0.1,0.6,0.1
			c0.3,0,0.4,0.5,0.4,0.5h0.9v4h1.4v0.3h0.2v-0.7h0.5V260h3.2v1.1h0.5v0.4h0.4v-10.3h1.5V250h4.1v1.1h1.5v8.1h0.5v1.3h0.5
			c0,0,0,4.9,0,5.2c0,0.3,0.8,0.4,0.8,0.4v-1.3h0.5v-0.4h-0.6v-0.2h1.3v-0.6h2.6v0.4h0.5c0,0,2.1,0,2.9,0.3c0.8,0.2,0.8,0.5,0.8,0.5
			v-5.6h1.2v-0.3h-0.3v-0.3h0.5v0.3h0.5v-0.3h0.4v0.4h0.2v-1.1l-0.4,0.1c0,0,0-0.2,0.1-0.2c0.1,0,0.5-0.3,0.5-0.3v1.2h0.4v0.6h3v7.1
			h3.3v0.4h0.2l1.3-10.9h0.2c0,0,0.7-4.7,0.7-5.1c0-0.4,0.4-0.1,0.4-0.1l0.6,5.2h0.2l0.5,6.2c0,0,0.1,0,0.3,0c0.1,0,0.2,0.3,0.2,0.3
			h1.4v2h0.5v0.4h0.3v-0.5h1.1v0.4h2.9c0,0,0-2.1,0-3.1c0-1,0.4-1,0.4-1h0.5V260h0.6v0.3h0.3v-0.2h0.2c0,0,0-1.3,0-1.6
			c0-0.3,0.1-0.4,0.3-0.5c0.3-0.1,0.8-0.6,0.8-0.6l0.1-0.4h0.3v-1.4l-0.7,0.3c0,0-0.2-0.3,0-0.3c0.1,0,0.8-0.8,0.8-0.8l0.1,2.3h0.2
			v0.2l0.7,0.6l0.3,0.1l0.2,0.1l0.3,0.1v2.1c0,0,0.2-0.1,0.3,0c0.1,0.1,0.3,0.8,0.3,0.8v1.7h0.4v-0.6h0.4c0,0,0.2-0.2,0.6-0.3
			c0.4-0.1,0.9,0,0.9,0s0.3,0,0.7,0c0.4,0,0.7,0.3,0.7,0.3h0.4V258h0.9c0,0,0-0.5,0.3-0.7c0.3-0.2,0.3-1.9,0.3-1.9s0,0.9,0,1.6
			c0,0.7,0.4,1,0.4,1v-0.6h3v3.2h2.8v0.6l1.1-0.6l0.7,0.7v2.2l1.8-1.6v-1.7h1.8v-1.4h0.4v-0.5h4.2l0.2,0.7h0.5v0.4h1.2
			c0-0.3,0-0.5,0-0.5h4.9v5.1h0.4v0.3h0.7v-0.6h0.5v-0.4h0.8v-4.4h0.3c0,0,0.1-0.3,0.1-0.6c0-0.3,0.6-0.3,0.6-0.3v-3.4h0.2v-0.8h0.5
			l0.3-0.3h1v0.3h0.5v0.5h2.4v-0.4h0.4v-0.3h1.2v0.3h0.7v0.7h0.3v0.3c0,0-0.1,0.3-0.3,0.4c-0.2,0.2,0.3,0.5,0.3,0.5v1.9h0.9v2.1h0.4
			v-0.3h1.9V257h3.4c0,0,0.4-0.6,0.7-0.6c0.3,0,0.3,0.6,0.3,0.6h0.8v0.3h4.6v0.4h0.2v1.8h1.4V259h1.2v-0.4h0.3v0.4h1.5v-0.2h0.3
			v-0.7h4.2l0.5-0.2c0,0,0,0,0.4,0c0.5,0,0,0.9,0,0.9l0.5,0.2v-0.7h1.9v-0.3h1.7v-0.5h0.9v-0.3h0.9V256h0.2v-0.7l0.4-0.3v2.1
			c0,0,0.2,0.1,0.6,0.1c0.3,0,0.4,0.5,0.4,0.5h0.9v4h1.4v0.3h0.2v-0.7h0.5V260h3.2v1.1h0.5v0.4h0.4v-10.3h1.5V250h4.1v1.1h1.5v8.1
			h0.5v1.3h0.5c0,0,0,4.9,0,5.2c0,0.3,0.8,0.4,0.8,0.4v-1.3h0.5v-0.4H824v-0.2h1.3v-0.6h2.6v0.4h0.5c0,0,2.1,0,2.9,0.3
			c0.8,0.2,0.8,0.5,0.8,0.5v-5.6h1.2v-0.3H833v-0.3h0.5v0.3h0.5v-0.3h0.4v0.4h0.2v-1.1l-0.4,0.1c0,0,0-0.2,0.1-0.2
			c0.1,0,0.5-0.3,0.5-0.3v1.2h0.4v0.6h3v7.1h3.3v0.4h0.2l1.3-10.9h0.2c0,0,0.7-4.7,0.7-5.1c0-0.4,0.4-0.1,0.4-0.1l0.6,5.2h0.2
			l0.5,6.2c0,0,0.1,0,0.3,0c0.1,0,0.2,0.3,0.2,0.3h1.4v2h0.5v0.4h0.3v-0.5h1.1v0.4h2.9c0,0,0-2.1,0-3.1c0-1,0.4-1,0.4-1h0.5V260h0.6
			v0.3h0.3v-0.2h0.2c0,0,0-1.3,0-1.6c0-0.3,0.1-0.4,0.3-0.5c0.3-0.1,0.8-0.6,0.8-0.6l0.1-0.4h0.3v-1.4l-0.7,0.3c0,0-0.2-0.3,0-0.3
			c0.1,0,0.8-0.8,0.8-0.8l0.1,2.3h0.2v0.2l0.7,0.6l0.3,0.1l0.2,0.1l0.3,0.1v2.1c0,0,0.2-0.1,0.3,0c0.1,0.1,0.3,0.8,0.3,0.8v1.7h0.4
			v-0.6h0.4c0,0,0.2-0.2,0.6-0.3c0.4-0.1,0.9,0,0.9,0s0.3,0,0.7,0c0.4,0,0.7,0.3,0.7,0.3h0.4V258h0.9c0,0,0-0.5,0.3-0.7
			c0.3-0.2,0.3-1.9,0.3-1.9s0,0.9,0,1.6c0,0.7,0.4,1,0.4,1v-0.6h3v3.2h2.8v0.6l1.1-0.6l0.7,0.7v2.2l1.8-1.6v-1.7h1.8v-1.4
			c0,0,0.1,0,0.2,0V294.3z"/>
	</g>
	<g>
		<path class="st0" d="M429.9,294.3c-34,0-418.4,0-454.8,0v-40.8c0,0,0.1,0,0.1,0h1v0.3h0.5v0.5h2.4v-0.4h0.4v-0.3h1.2v0.3h0.7v0.7
			h0.3v0.3c0,0-0.2,0.3-0.3,0.4c-0.2,0.2,0.3,0.5,0.3,0.5v1.9h0.9v2.1h0.4v-0.3h1.9V257h3.4c0,0,0.4-0.6,0.7-0.6
			c0.3,0,0.3,0.6,0.3,0.6h0.8v0.3h4.6v0.4h0.2v1.8H-4V259h1.2v-0.4h0.3v0.4H-1v-0.2h0.3v-0.7h4.2L4,258c0,0,0,0,0.5,0
			c0.5,0,0,0.9,0,0.9l0.5,0.2v-0.7h1.9v-0.3h1.7v-0.5h0.9v-0.3h0.9V256h0.2v-0.7L11,255v2.1c0,0,0.2,0.1,0.6,0.1
			c0.3,0,0.4,0.5,0.4,0.5h0.9v4h1.4v0.3h0.2v-0.7h0.5V260h3.2v1.1h0.5v0.4H19v-10.3h1.5V250h4.1v1.1h1.5v8.1h0.5v1.3h0.5
			c0,0,0,4.9,0,5.2c0,0.3,0.8,0.4,0.8,0.4v-1.3h0.5v-0.4H28v-0.2h1.3v-0.6h2.6v0.4h0.5c0,0,2.1,0,2.9,0.3c0.8,0.2,0.8,0.5,0.8,0.5
			v-5.6h1.2v-0.3h-0.3v-0.3h0.5v0.3h0.5v-0.3h0.4v0.4h0.2v-1.1l-0.4,0.1c0,0,0-0.2,0.1-0.2c0.1,0,0.5-0.3,0.5-0.3v1.2H39v0.6h3v7.1
			h3.3v0.4h0.2l1.3-10.9H47c0,0,0.7-4.7,0.7-5.1c0-0.4,0.4-0.1,0.4-0.1l0.6,5.2h0.2l0.5,6.2c0,0,0.1,0,0.3,0c0.1,0,0.2,0.3,0.2,0.3
			h1.4v2h0.5v0.4h0.3v-0.5H53v0.4h2.9c0,0,0-2.1,0-3.1c0-1,0.4-1,0.4-1h0.5V260h0.6v0.3h0.3v-0.2h0.2c0,0,0-1.3,0-1.6
			c0-0.3,0.1-0.4,0.3-0.5c0.3-0.1,0.8-0.6,0.8-0.6l0.1-0.4h0.3v-1.4l-0.7,0.3c0,0-0.2-0.3,0-0.3c0.1,0,0.8-0.8,0.8-0.8l0.1,2.3h0.2
			v0.2l0.7,0.6l0.3,0.1l0.2,0.1l0.3,0.1v2.1c0,0,0.2-0.1,0.3,0c0.1,0.1,0.3,0.8,0.3,0.8v1.7h0.4v-0.6h0.4c0,0,0.2-0.2,0.6-0.3
			c0.4-0.1,0.9,0,0.9,0s0.3,0,0.7,0c0.4,0,0.7,0.3,0.7,0.3h0.4V258h0.9c0,0,0-0.5,0.3-0.7c0.3-0.2,0.3-1.9,0.3-1.9s0,0.9,0,1.6
			c0,0.7,0.4,1,0.4,1v-0.6h3v3.2h2.8v0.6l1.1-0.6l0.7,0.7v2.2l1.8-1.6v-1.7h1.8v-1.4h0.4v-0.5h4.2l0.2,0.7h0.5v0.4h1.2
			c0-0.3,0-0.5,0-0.5h4.9v5.1h0.4v0.3h0.7v-0.6h0.5v-0.4h0.8v-4.4h0.3c0,0,0.1-0.3,0.1-0.6c0-0.3,0.6-0.3,0.6-0.3v-3.4H94v-0.8h0.5
			l0.3-0.3h1v0.3h0.5v0.5h2.4v-0.4H99v-0.3h1.2v0.3h0.7v0.7h0.3v0.3c0,0-0.1,0.3-0.3,0.4c-0.2,0.2,0.3,0.5,0.3,0.5v1.9h0.9v2.1h0.4
			v-0.3h1.9V257h3.4c0,0,0.4-0.6,0.7-0.6c0.3,0,0.3,0.6,0.3,0.6h0.8v0.3h4.6v0.4h0.2v1.8h1.4V259h1.2v-0.4h0.3v0.4h1.5v-0.2h0.3
			v-0.7h4.2l0.5-0.2c0,0,0,0,0.5,0c0.5,0,0,0.9,0,0.9l0.5,0.2v-0.7h1.9v-0.3h1.7v-0.5h0.9v-0.3h0.9V256h0.2v-0.7l0.4-0.3v2.1
			c0,0,0.2,0.1,0.6,0.1c0.3,0,0.4,0.5,0.4,0.5h0.9v4h1.4v0.3h0.2v-0.7h0.5V260h3.2v1.1h0.5v0.4h0.4v-10.3h1.5V250h4.1v1.1h1.5v8.1
			h0.5v1.3h0.5c0,0,0,4.9,0,5.2c0,0.3,0.8,0.4,0.8,0.4v-1.3h0.5v-0.4h-0.6v-0.2h1.3v-0.6h2.6v0.4h0.4c0,0,2.1,0,2.9,0.3
			c0.8,0.2,0.8,0.5,0.8,0.5v-5.6h1.2v-0.3h-0.3v-0.3h0.5v0.3h0.4v-0.3h0.4v0.4h0.2v-1.1l-0.4,0.1c0,0,0-0.2,0.1-0.2
			c0.1,0,0.5-0.3,0.5-0.3v1.2h0.4v0.6h3v7.1h3.3v0.4h0.2l1.3-10.9h0.2c0,0,0.7-4.7,0.7-5.1c0-0.4,0.4-0.1,0.4-0.1l0.6,5.2h0.2
			l0.5,6.2c0,0,0.1,0,0.3,0c0.1,0,0.2,0.3,0.2,0.3h1.4v2h0.5v0.4h0.3v-0.5h1.1v0.4h2.9c0,0,0-2.1,0-3.1c0-1,0.4-1,0.4-1h0.5V260h0.6
			v0.3h0.3v-0.2h0.2c0,0,0-1.3,0-1.6c0-0.3,0.1-0.4,0.3-0.5c0.3-0.1,0.8-0.6,0.8-0.6l0.1-0.4h0.3v-1.4l-0.7,0.3c0,0-0.2-0.3,0-0.3
			c0.1,0,0.8-0.8,0.8-0.8l0.1,2.3h0.2v0.2l0.6,0.6l0.3,0.1l0.2,0.1l0.3,0.1v2.1c0,0,0.2-0.1,0.3,0c0.1,0.1,0.3,0.8,0.3,0.8v1.7h0.4
			v-0.6h0.4c0,0,0.2-0.2,0.6-0.3c0.4-0.1,0.9,0,0.9,0s0.3,0,0.7,0c0.4,0,0.7,0.3,0.7,0.3h0.4V258h0.9c0,0,0-0.5,0.3-0.7
			c0.3-0.2,0.3-1.9,0.3-1.9s0,0.9,0,1.6c0,0.7,0.4,1,0.4,1v-0.6h3v3.2h2.8v0.6l1.1-0.6l0.7,0.7v2.2l1.8-1.6v-1.7h1.8v-1.4h0.4v-0.5
			h4.2l0.2,0.7h0.5v0.4c0,0,0,0,0.1,0v-0.6h0.3c0,0,0.1-0.3,0.1-0.6c0-0.3,0.6-0.3,0.6-0.3v-3.4h0.2v-0.8h0.5l0.3-0.3h1v0.3h0.5v0.5
			h2.4v-0.4h0.4v-0.3h1.2v0.3h0.7v0.7h0.3v0.3c0,0-0.2,0.3-0.3,0.4c-0.2,0.2,0.3,0.5,0.3,0.5v1.9h0.9v2.1h0.4v-0.3h1.9V257h3.4
			c0,0,0.4-0.6,0.7-0.6c0.3,0,0.3,0.6,0.3,0.6h0.8v0.3h4.6v0.4h0.2v1.8h1.4V259h1.3v-0.4h0.3v0.4h1.5v-0.2h0.3v-0.7h4.2l0.5-0.2
			c0,0,0,0,0.5,0c0.5,0,0,0.9,0,0.9l0.5,0.2v-0.7h1.9v-0.3h1.7v-0.5h0.9v-0.3h0.9V256h0.2v-0.7l0.4-0.3v2.1c0,0,0.2,0.1,0.6,0.1
			c0.3,0,0.4,0.5,0.4,0.5h0.9v4h1.4v0.3h0.2v-0.7h0.5V260h3.2v1.1h0.5v0.4h0.4v-10.3h1.5V250h4.1v1.1h1.5v8.1h0.5v1.3h0.5
			c0,0,0,4.9,0,5.2c0,0.3,0.8,0.4,0.8,0.4v-1.3h0.5v-0.4h-0.6v-0.2h1.3v-0.6h2.6v0.4h0.5c0,0,2.1,0,2.9,0.3c0.8,0.2,0.8,0.5,0.8,0.5
			v-5.6h1.2v-0.3h-0.3v-0.3h0.5v0.3h0.5v-0.3h0.4v0.4h0.2v-1.1l-0.4,0.1c0,0,0-0.2,0.1-0.2c0.1,0,0.5-0.3,0.5-0.3v1.2h0.4v0.6h3v7.1
			h3.3v0.4h0.2l1.3-10.9h0.2c0,0,0.7-4.7,0.7-5.1c0-0.4,0.4-0.1,0.4-0.1l0.6,5.2h0.2l0.5,6.2c0,0,0.1,0,0.3,0c0.1,0,0.2,0.3,0.2,0.3
			h1.4v2h0.5v0.4h0.3v-0.5h1.1v0.4h2.9c0,0,0-2.1,0-3.1c0-1,0.4-1,0.4-1h0.5V260h0.6v0.3h0.3v-0.2h0.2c0,0,0-1.3,0-1.6
			c0-0.3,0.1-0.4,0.3-0.5c0.3-0.1,0.8-0.6,0.8-0.6l0.1-0.4h0.3v-1.4l-0.7,0.3c0,0-0.2-0.3,0-0.3c0.1,0,0.8-0.8,0.8-0.8l0.1,2.3h0.2
			v0.2l0.7,0.6l0.3,0.1l0.2,0.1l0.3,0.1v2.1c0,0,0.2-0.1,0.3,0c0.1,0.1,0.3,0.8,0.3,0.8v1.7h0.4v-0.6h0.4c0,0,0.2-0.2,0.6-0.3
			c0.4-0.1,0.9,0,0.9,0s0.3,0,0.7,0c0.4,0,0.7,0.3,0.7,0.3h0.4V258h0.9c0,0,0-0.5,0.3-0.7c0.3-0.2,0.3-1.9,0.3-1.9s0,0.9,0,1.6
			c0,0.7,0.4,1,0.4,1v-0.6h3v3.2h2.8v0.6l1.1-0.6l0.7,0.7v2.2l1.8-1.6v-1.7h1.8v-1.4h0.4v-0.5h4.2l0.2,0.7h0.5v0.4h1.2
			c0-0.3,0-0.5,0-0.5h4.9v5.1h0.4v0.3h0.7v-0.6h0.5v-0.4h0.8v-4.4h0.3c0,0,0.1-0.3,0.1-0.6c0-0.3,0.6-0.3,0.6-0.3v-3.4h0.2v-0.8h0.5
			l0.3-0.3h1v0.3h0.5v0.5h2.4v-0.4h0.4v-0.3h1.2v0.3h0.7v0.7h0.3v0.3c0,0-0.1,0.3-0.3,0.4c-0.2,0.2,0.3,0.5,0.3,0.5v1.9h0.9v2.1h0.4
			v-0.3h1.9V257h3.4c0,0,0.4-0.6,0.7-0.6c0.3,0,0.3,0.6,0.3,0.6h0.8v0.3h4.6v0.4h0.2v1.8h1.4V259h1.2v-0.4h0.3v0.4h1.5v-0.2h0.3
			v-0.7h4.2l0.5-0.2c0,0,0,0,0.4,0c0.5,0,0,0.9,0,0.9l0.5,0.2v-0.7h1.9v-0.3h1.7v-0.5h0.9v-0.3h0.9V256h0.2v-0.7l0.4-0.3v2.1
			c0,0,0.2,0.1,0.6,0.1c0.3,0,0.4,0.5,0.4,0.5h0.9v4h1.4v0.3h0.2v-0.7h0.5V260h3.2v1.1h0.5v0.4h0.4v-10.3h1.5V250h4.1v1.1h1.5v8.1
			h0.5v1.3h0.5c0,0,0,4.9,0,5.2c0,0.3,0.8,0.4,0.8,0.4v-1.3h0.5v-0.4h-0.6v-0.2h1.3v-0.6h2.6v0.4h0.5c0,0,2.1,0,2.9,0.3
			c0.8,0.2,0.8,0.5,0.8,0.5v-5.6h1.2v-0.3h-0.3v-0.3h0.5v0.3h0.5v-0.3h0.4v0.4h0.2v-1.1l-0.4,0.1c0,0,0-0.2,0.1-0.2
			c0.1,0,0.5-0.3,0.5-0.3v1.2h0.4v0.6h3v7.1h3.3v0.4h0.2l1.3-10.9h0.2c0,0,0.7-4.7,0.7-5.1c0-0.4,0.4-0.1,0.4-0.1l0.6,5.2h0.2
			l0.5,6.2c0,0,0.1,0,0.3,0c0.1,0,0.2,0.3,0.2,0.3h1.4v2h0.5v0.4h0.3v-0.5h1.1v0.4h2.9c0,0,0-2.1,0-3.1c0-1,0.4-1,0.4-1h0.5V260h0.6
			v0.3h0.3v-0.2h0.2c0,0,0-1.3,0-1.6c0-0.3,0.1-0.4,0.3-0.5c0.3-0.1,0.8-0.6,0.8-0.6l0.1-0.4h0.3v-1.4l-0.7,0.3c0,0-0.2-0.3,0-0.3
			c0.1,0,0.8-0.8,0.8-0.8l0.1,2.3h0.2v0.2l0.7,0.6l0.3,0.1l0.2,0.1l0.3,0.1v2.1c0,0,0.2-0.1,0.3,0c0.1,0.1,0.3,0.8,0.3,0.8v1.7h0.4
			v-0.6h0.4c0,0,0.2-0.2,0.6-0.3c0.4-0.1,0.9,0,0.9,0s0.3,0,0.7,0c0.4,0,0.7,0.3,0.7,0.3h0.4V258h0.9c0,0,0-0.5,0.3-0.7
			c0.3-0.2,0.3-1.9,0.3-1.9s0,0.9,0,1.6c0,0.7,0.4,1,0.4,1v-0.6h3v3.2h2.8v0.6l1.1-0.6l0.7,0.7v2.2l1.8-1.6v-1.7h1.8v-1.4
			c0,0,0.1,0,0.2,0V294.3z"/>
	</g>
</g>
<g>
	<g>
		<g>
			<path class="st1" d="M652.1,294.7c0-11.9,0-30.5,0-30.5c-2.3,0-7.1,0-7.1,0v0.9h-0.8v2.7h-3.6v3.4l-3.6,3.2v-4.5l-1.5-1.3
				l-2.2,1.2v-1.2h-5.5v-6.3h-6v1.2c0,0-0.9-0.6-0.9-2c0-1.4,0-3.1,0-3.1s-0.1,3.2-0.6,3.7c-0.5,0.5-0.5,1.5-0.5,1.5H618v8.3h-0.8
				c0,0-0.5-0.6-1.4-0.6c-0.9,0-1.4,0-1.4,0s-1-0.3-1.8,0c-0.8,0.3-1.2,0.7-1.2,0.7h-0.8v1.2h-0.8V270c0,0-0.2-1.3-0.5-1.6
				c-0.3-0.3-0.6,0-0.6,0v-4.2l-0.5-0.3l-0.3-0.3l-0.7-0.3l-1.3-1.2v-0.4h-0.4l-0.2-4.5c0,0-1.3,1.7-1.6,1.7c-0.3,0,0,0.6,0,0.6
				l1.4-0.7v2.8h-0.6l-0.3,0.7c0,0-1.1,1-1.6,1.2c-0.5,0.1-0.7,0.5-0.7,1c0,0.5,0,3.2,0,3.2h-0.5v0.4h-0.7v-0.5h-1.1v0.6h-1
				c0,0-0.7,0.1-0.7,2.1c0,2,0,6.2,0,6.2h-5.7v-0.7h-2.2v0.9h-0.6v-0.9h-0.9v-4h-2.8c0,0,0-0.5-0.3-0.5c-0.3,0-0.5,0-0.5,0l-1-12.3
				h-0.4l-1.1-10.3c0,0-0.7-0.7-0.7,0.2c0,0.9-1.4,10.2-1.4,10.2h-0.3l-2.7,21.7h-0.5v-0.9h-6.5v-14.1h-5.9v-1.1h-0.8v-2.3
				c0,0-0.7,0.5-0.9,0.5c-0.2,0-0.2,0.5-0.2,0.5l0.8-0.3v2.2h-0.4v-0.8h-0.8v0.7h-0.9v-0.5h-0.9v0.5h0.5v0.7h-2.3v11.1
				c0,0,0-0.5-1.6-0.9c-1.6-0.4-5.8-0.5-5.8-0.5h-0.9v-0.7h-5.1v1.3h-2.6v0.4h1.3v0.8h-1v2.5c0,0-1.6,0-1.6-0.7c0-0.7,0-10.4,0-10.4
				h-1.1V266h-1.1v-16.1H536v-2.3h-8.2v2.4h-3.1v20.5h-0.8v-0.8h-1.1v-2.2h-6.3v2.4h-1v1.3h-0.3v-0.6h-2.7v-8h-1.7
				c0,0-0.2-0.9-0.8-0.9c-0.7,0-1.1-0.2-1.1-0.2v-4.2l-0.7,0.7v1.5h-0.5v2.4h-1.7v0.7h-1.8v1h-3.4v0.6h-3.9v1.4l-1-0.4
				c0,0,0.9-1.9,0-1.9c-0.9,0-0.9,0-0.9,0l-0.9,0.3h-8.4v1.4h-0.6v0.3h-3v-0.9h-0.7v0.8h-2.5v1.1h-2.8V263h-0.4v-0.8h-9.1v-0.5H465
				c0,0,0-1.1-0.6-1.1c-0.6,0-1.3,1.2-1.3,1.2h-6.7v4.4h-3.8v0.6h-0.8v-4.1H450v-3.7c0,0-0.8-0.7-0.5-1c0.3-0.3,0.6-0.8,0.6-0.8
				v-0.6h-0.6v-1.3h-1.4v-0.5h-2.4v0.6h-0.7v0.8h-4.7V255h-0.9v-0.6h-1.9l-0.6,0.6h-1v1.6h-0.4v6.7c0,0-1.2,0.1-1.2,0.7
				c0,0.6-0.1,1.1-0.1,1.1h-0.5v8.8h-1.7v0.8h-1.1v1.3h-1.3v-0.7h-0.8v-10.1h-9.8c0,0,0,17.4,0,29.4H652.1z"/>
			<g>
				<path class="st1" d="M651.2,294.7c0.2-6,0.5-12.3,0.5-12.3l0.2-16.1h3.9v-0.8h0.9l0.3-1.3h8.4v0.9h0.8v2.7h3.6v3.4l3.6,3.2v-4.5
					l1.5-1.3l2.2,1.2v-1.2h5.5v-6.3h6v1.2c0,0,0.9-0.6,0.9-2c0-1.4,0-3.1,0-3.1s0.1,3.2,0.6,3.7c0.5,0.5,0.5,1.5,0.5,1.5h1.9v8.3
					h0.8c0,0,0.5-0.6,1.4-0.6c0.9,0,1.4,0,1.4,0s1-0.3,1.8,0c0.8,0.3,1.2,0.7,1.2,0.7h0.8v1.2h0.8V270c0,0,0.2-1.3,0.5-1.6
					c0.3-0.3,0.6,0,0.6,0v-4.2l0.5-0.3l0.3-0.3l0.7-0.3l1.3-1.2v-0.4h0.4l0.2-4.5c0,0,1.3,1.7,1.6,1.7c0.3,0,0,0.6,0,0.6l-1.4-0.7
					v2.8h0.6l0.3,0.7c0,0,1.1,1,1.6,1.2c0.6,0.1,0.7,0.5,0.7,1c0,0.5,0,3.2,0,3.2h0.5v0.4h0.7v-0.5h1.1v0.6h1c0,0,0.7,0.1,0.7,2.1
					c0,2,0,6.2,0,6.2h5.7v-0.7h2.2v0.9h0.6v-0.9h0.9v-4h2.8c0,0,0-0.5,0.3-0.5c0.3,0,0.5,0,0.5,0l1-12.3h0.4l1.1-10.3
					c0,0,0.7-0.7,0.7,0.2c0,0.9,1.4,10.2,1.4,10.2h0.3l2.7,21.7h0.5v-0.9h6.5v-14.1h5.9v-1.1h0.8v-2.3c0,0,0.7,0.5,0.9,0.5
					c0.2,0,0.2,0.5,0.2,0.5l-0.8-0.3v2.2h0.4v-0.8h0.8v0.7h0.9v-0.5h0.9v0.5h-0.5v0.7h2.3v11.1c0,0,0-0.5,1.6-0.9
					c1.6-0.4,5.8-0.5,5.8-0.5h0.9v-0.7h5.1v1.3h2.6v0.4h-1.3v0.8h1v2.5c0,0,1.6,0,1.6-0.7c0-0.7,0-10.4,0-10.4h1.1V266h1.1v-16.1
					h3.1v-2.3h8.2v2.4h3.1v20.5h0.8v-0.8h1.1v-2.2h6.3v2.4h1v1.3h0.3v-0.6h2.7v-8h1.7c0,0,0.2-0.9,0.8-0.9c0.7,0,1.1-0.2,1.1-0.2
					v-4.2l0.7,0.7v1.5h0.5v2.4h1.7v0.7h1.8v1h3.4v0.6h3.9v1.4l1-0.4c0,0-0.9-1.9,0-1.9c0.9,0,0.9,0,0.9,0l0.9,0.3h8.4v1.4h0.6v0.3h3
					v-0.9h0.7v0.8h2.5v1.1h2.8V263h0.4v-0.8h9.1v-0.5h1.5c0,0,0-1.1,0.6-1.1c0.6,0,1.3,1.2,1.3,1.2h6.7v4.4h3.8v0.6h0.8v-4.1h1.8
					v-3.7c0,0,0.8-0.7,0.5-1c-0.3-0.3-0.6-0.8-0.6-0.8v-0.6h0.5v-1.3h1.4v-0.5h2.4v0.6h0.7v0.8h4.7V255h0.9v-0.6h1.9l0.6,0.6h1v1.6
					c0,0,0.2,0,0.3,0c0,0,0,24.2,0,38.1H651.2z"/>
			</g>
		</g>
	</g>
	<g>
		<g>
			<path class="st1" d="M429.8,294.7c0-11.9,0-30.5,0-30.5c-2.3,0-7.1,0-7.1,0v0.9h-0.8v2.7h-3.6v3.4l-3.6,3.2v-4.5l-1.5-1.3
				l-2.2,1.2v-1.2h-5.5v-6.3h-6v1.2c0,0-0.9-0.6-0.9-2c0-1.4,0-3.1,0-3.1s-0.1,3.2-0.6,3.7c-0.5,0.5-0.5,1.5-0.5,1.5h-1.9v8.3h-0.8
				c0,0-0.5-0.6-1.4-0.6c-0.9,0-1.4,0-1.4,0s-1-0.3-1.8,0c-0.8,0.3-1.2,0.7-1.2,0.7h-0.8v1.2h-0.8V270c0,0-0.2-1.3-0.5-1.6
				c-0.3-0.3-0.6,0-0.6,0v-4.2l-0.5-0.3l-0.3-0.3l-0.7-0.3l-1.3-1.2v-0.4h-0.4l-0.2-4.5c0,0-1.3,1.7-1.6,1.7c-0.3,0,0,0.6,0,0.6
				l1.4-0.7v2.8h-0.6l-0.3,0.7c0,0-1.1,1-1.6,1.2c-0.6,0.1-0.7,0.5-0.7,1c0,0.5,0,3.2,0,3.2h-0.5v0.4h-0.7v-0.5h-1.1v0.6h-1
				c0,0-0.7,0.1-0.7,2.1c0,2,0,6.2,0,6.2h-5.7v-0.7h-2.2v0.9h-0.6v-0.9h-0.9v-4h-2.8c0,0,0-0.5-0.3-0.5c-0.3,0-0.5,0-0.5,0l-1-12.3
				h-0.4l-1.1-10.3c0,0-0.7-0.7-0.7,0.2c0,0.9-1.4,10.2-1.4,10.2h-0.3l-2.7,21.7h-0.5v-0.9H348v-14.1H342v-1.1h-0.8v-2.3
				c0,0-0.7,0.5-0.9,0.5c-0.2,0-0.2,0.5-0.2,0.5l0.8-0.3v2.2h-0.4v-0.8h-0.8v0.7h-0.9v-0.5h-0.9v0.5h0.5v0.7h-2.3v11.1
				c0,0,0-0.5-1.6-0.9c-1.6-0.4-5.8-0.5-5.8-0.5h-0.9v-0.7h-5.1v1.3h-2.6v0.4h1.3v0.8h-1v2.5c0,0-1.6,0-1.6-0.7c0-0.7,0-10.4,0-10.4
				h-1.1V266h-1.1v-16.1h-3.1v-2.3h-8.2v2.4h-3.1v20.5h-0.8v-0.8h-1.1v-2.2h-6.3v2.4h-1v1.3h-0.3v-0.6h-2.7v-8h-1.7
				c0,0-0.2-0.9-0.8-0.9c-0.7,0-1.1-0.2-1.1-0.2v-4.2l-0.7,0.7v1.5h-0.5v2.4h-1.7v0.7h-1.8v1h-3.4v0.6h-3.9v1.4l-1-0.4
				c0,0,0.9-1.9,0-1.9c-0.9,0-0.9,0-0.9,0l-0.9,0.3h-8.4v1.4h-0.6v0.3h-3v-0.9h-0.7v0.8h-2.5v1.1h-2.8V263h-0.4v-0.8h-9.1v-0.5h-1.5
				c0,0,0-1.1-0.6-1.1c-0.6,0-1.3,1.2-1.3,1.2H234v4.4h-3.8v0.6h-0.8v-4.1h-1.8v-3.7c0,0-0.8-0.7-0.5-1c0.3-0.3,0.6-0.8,0.6-0.8
				v-0.6h-0.6v-1.3h-1.4v-0.5h-2.4v0.6h-0.7v0.8h-4.7V255H217v-0.6h-1.9l-0.6,0.6h-1v1.6H213v6.7c0,0-1.2,0.1-1.2,0.7
				c0,0.6-0.1,1.1-0.1,1.1h-0.5v8.8h-1.7v0.8h-1.1v1.3h-1.3v-0.7h-0.8v-10.1h-9.8c0,0,0,17.4,0,29.4H429.8z"/>
			<g>
				<path class="st1" d="M198.8,294.7c-0.2-6-0.5-12.3-0.5-12.3l-0.2-16.1h-3.9v-0.8h-0.9l-0.3-1.3h-8.4v0.9h-0.8v2.7h-3.6v3.4
					l-3.6,3.2v-4.5l-1.5-1.3l-2.2,1.2v-1.2h-5.5v-6.3h-6v1.2c0,0-0.9-0.6-0.9-2c0-1.4,0-3.1,0-3.1s-0.1,3.2-0.6,3.7
					c-0.5,0.5-0.5,1.5-0.5,1.5h-1.9v8.3h-0.8c0,0-0.5-0.6-1.4-0.6c-0.9,0-1.4,0-1.4,0s-1-0.3-1.8,0c-0.8,0.3-1.2,0.7-1.2,0.7h-0.8
					v1.2h-0.8V270c0,0-0.2-1.3-0.5-1.6c-0.3-0.3-0.6,0-0.6,0v-4.2l-0.5-0.3l-0.3-0.3l-0.7-0.3l-1.3-1.2v-0.4H145l-0.2-4.5
					c0,0-1.3,1.7-1.6,1.7c-0.3,0,0,0.6,0,0.6l1.4-0.7v2.8H144l-0.3,0.7c0,0-1.1,1-1.6,1.2c-0.5,0.1-0.7,0.5-0.7,1c0,0.5,0,3.2,0,3.2
					H141v0.4h-0.7v-0.5h-1.1v0.6h-1c0,0-0.7,0.1-0.7,2.1c0,2,0,6.2,0,6.2h-5.7v-0.7h-2.2v0.9H129v-0.9h-0.9v-4h-2.8
					c0,0,0-0.5-0.3-0.5c-0.3,0-0.5,0-0.5,0l-1-12.3H123l-1.1-10.3c0,0-0.7-0.7-0.7,0.2c0,0.9-1.4,10.2-1.4,10.2h-0.3l-2.7,21.7h-0.5
					v-0.9h-6.5v-14.1h-5.9v-1.1h-0.8v-2.3c0,0-0.7,0.5-0.9,0.5c-0.2,0-0.2,0.5-0.2,0.5l0.8-0.3v2.2h-0.4v-0.8h-0.8v0.7h-0.9v-0.5
					h-0.9v0.5h0.5v0.7H98v11.1c0,0,0-0.5-1.6-0.9c-1.6-0.4-5.8-0.5-5.8-0.5h-0.9v-0.7h-5.1v1.3H82v0.4h1.3v0.8h-1v2.5
					c0,0-1.6,0-1.6-0.7c0-0.7,0-10.4,0-10.4h-1.1V266h-1.1v-16.1h-3.1v-2.3h-8.2v2.4h-3.1v20.5h-0.8v-0.8h-1.1v-2.2H56v2.4h-1v1.3
					h-0.3v-0.6h-2.7v-8h-1.7c0,0-0.2-0.9-0.8-0.9c-0.7,0-1.1-0.2-1.1-0.2v-4.2l-0.7,0.7v1.5H47v2.4h-1.7v0.7h-1.8v1H40v0.6h-3.9v1.4
					l-1-0.4c0,0,0.9-1.9,0-1.9c-0.9,0-0.9,0-0.9,0l-0.9,0.3h-8.4v1.4h-0.5v0.3h-3v-0.9h-0.7v0.8h-2.5v1.1h-2.8V263h-0.4v-0.8H6v-0.5
					H4.5c0,0,0-1.1-0.6-1.1c-0.6,0-1.3,1.2-1.3,1.2h-6.7v4.4h-3.8v0.6h-0.8v-4.1h-1.8v-3.7c0,0-0.8-0.7-0.5-1
					c0.3-0.3,0.6-0.8,0.6-0.8v-0.6h-0.5v-1.3h-1.4v-0.5h-2.4v0.6h-0.7v0.8h-4.7V255h-0.9v-0.6h-1.9l-0.6,0.6h-1v1.6c0,0-0.2,0-0.3,0
					c0,0,0,24.2,0,38.1H198.8z"/>
			</g>
		</g>
	</g>
</g>
<g>
	<g>
		<path class="st2" d="M875.2,285.5c-0.4,0-0.7,0-0.7,0V285h-0.6l-0.2-0.9h-5.6v0.6h-0.6v1.8h-2.4v2.3l-2.4,2.2v-3l-1-0.9l-1.5,0.8
			V287h-3.7v-4.2h-4v0.8c0,0-0.6-0.4-0.6-1.3c0-0.9,0-2.1,0-2.1s-0.1,2.2-0.4,2.5c-0.3,0.3-0.3,1-0.3,1H850v5.6h-0.6
			c0,0-0.3-0.4-0.9-0.4c-0.6,0-1,0-1,0s-0.7-0.2-1.2,0c-0.5,0.2-0.8,0.5-0.8,0.5H845v0.8h-0.6v-2.2c0,0-0.2-0.9-0.3-1.1
			c-0.2-0.2-0.4,0-0.4,0V284l-0.4-0.2l-0.2-0.2l-0.4-0.2l-0.9-0.8v-0.3h-0.3l-0.1-3c0,0-0.9,1.1-1,1.1c-0.2,0,0,0.4,0,0.4l0.9-0.5
			v1.9H841l-0.2,0.5c0,0-0.7,0.7-1.1,0.8c-0.4,0.1-0.4,0.3-0.4,0.7c0,0.4,0,2.1,0,2.1h-0.3v0.3h-0.4v-0.4h-0.8v0.4h-0.6
			c0,0-0.5,0-0.5,1.4c0,1.3,0,4.2,0,4.2h-3.8v-0.5h-1.5v0.6h-0.4v-0.6h-0.6v-2.6h-1.8c0,0,0-0.4-0.2-0.4c-0.2,0-0.3,0-0.3,0
			l-0.7-8.2h-0.3l-0.8-6.9c0,0-0.5-0.5-0.5,0.1c0,0.6-0.9,6.8-0.9,6.8h-0.2l-1.8,14.5h-0.3v-0.6h-4.4v-9.4h-4v-0.7h-0.5v-1.5
			c0,0-0.5,0.3-0.6,0.3c-0.1,0-0.1,0.3-0.1,0.3l0.5-0.2v1.5h-0.3v-0.6h-0.6v0.4H812v-0.4h-0.6v0.3h0.3v0.5h-1.5v7.4
			c0,0,0-0.3-1.1-0.6c-1.1-0.3-3.8-0.4-3.8-0.4h-0.6v-0.5h-3.4v0.9h-1.8v0.3h0.9v0.5h-0.6v1.7c0,0-1.1,0-1.1-0.5c0-0.5,0-6.9,0-6.9
			h-0.7v-1.8h-0.7v-10.8h-2.1V273h-5.5v1.6h-2.1v13.7h-0.5v-0.5h-0.7v-1.4h-4.2v1.6h-0.7v0.9h-0.2v-0.4h-1.8v-5.3h-1.2
			c0,0-0.1-0.6-0.6-0.6c-0.4,0-0.8-0.1-0.8-0.1v-2.8l-0.5,0.5v1h-0.3v1.6h-1.2v0.5h-1.2v0.7h-2.3v0.4h-2.6v1l-0.7-0.3
			c0,0,0.6-1.3,0-1.3c-0.6,0-0.6,0-0.6,0l-0.6,0.2h-5.6v0.9H761v0.2h-2v-0.6h-0.4v0.5h-1.7v0.7H755v-2.5h-0.3v-0.6h-6.1v-0.4h-1
			c0,0,0-0.8-0.4-0.8c-0.4,0-0.9,0.8-0.9,0.8h-4.5v3h-2.5v0.4h-0.5v-2.8h-1.2v-2.5c0,0-0.6-0.5-0.3-0.7c0.2-0.2,0.4-0.5,0.4-0.5
			v-0.4h-0.4V278h-1v-0.4h-1.6v0.4h-0.5v0.5h-3.1v-0.6h-0.6v-0.4h-1.3l-0.4,0.4h-0.7v1.1h-0.3v4.5c0,0-0.8,0.1-0.8,0.5
			c0,0.4-0.1,0.8-0.1,0.8h-0.4v5.9h-1.1v0.5c0,0,0,0,0,0v19.7c30.5,0,132,0,149.8,0V285.5z"/>
		<path class="st2" d="M727,310.9c0-4.7,0-25.4,0-25.4c-0.3,0-0.6,0-0.6,0V285h-0.6l-0.2-0.9H720v0.6h-0.6v1.8H717v2.3l-2.4,2.2v-3
			l-1-0.9l-1.5,0.8V287h-3.7v-4.2h-4v0.8c0,0-0.6-0.4-0.6-1.3c0-0.9,0-2.1,0-2.1s-0.1,2.2-0.4,2.5c-0.3,0.3-0.3,1-0.3,1h-1.2v5.6
			h-0.6c0,0-0.3-0.4-0.9-0.4c-0.6,0-1,0-1,0s-0.7-0.2-1.2,0c-0.5,0.2-0.8,0.5-0.8,0.5H697v0.8h-0.6v-2.2c0,0-0.2-0.9-0.3-1.1
			c-0.2-0.2-0.4,0-0.4,0V284l-0.4-0.2l-0.2-0.2l-0.4-0.2l-0.9-0.8v-0.3h-0.3l-0.1-3c0,0-0.9,1.1-1,1.1c-0.2,0,0,0.4,0,0.4l0.9-0.5
			v1.9h-0.4l-0.2,0.5c0,0-0.7,0.7-1.1,0.8c-0.4,0.1-0.4,0.3-0.4,0.7c0,0.4,0,2.1,0,2.1h-0.3v0.3h-0.4v-0.4h-0.8v0.4H689
			c0,0-0.5,0-0.5,1.4c0,1.3,0,4.2,0,4.2h-3.8v-0.5h-1.5v0.6h-0.4v-0.6h-0.6v-2.6h-1.8c0,0,0-0.4-0.2-0.4c-0.2,0-0.3,0-0.3,0
			l-0.7-8.2h-0.3l-0.8-6.9c0,0-0.5-0.5-0.5,0.1c0,0.6-0.9,6.8-0.9,6.8h-0.2l-1.8,14.5h-0.3v-0.6H670v-9.4h-4v-0.7h-0.5v-1.5
			c0,0-0.5,0.3-0.6,0.3c-0.1,0-0.1,0.3-0.1,0.3l0.5-0.2v1.5h-0.3v-0.6h-0.6v0.4h-0.6v-0.4h-0.6v0.3h0.3v0.5h-1.5v7.4
			c0,0,0-0.3-1.1-0.6c-1.1-0.3-3.9-0.4-3.9-0.4h-0.6v-0.5h-3.4v0.9h-1.8v0.3h0.9v0.5h-0.6v1.7c0,0-1.1,0-1.1-0.5c0-0.5,0-6.9,0-6.9
			h-0.7v-1.8h-0.7v-10.8h-2.1V273h-5.5v1.6h-2.1v13.7H639v-0.5h-0.7v-1.4H634v1.6h-0.7v0.9h-0.2v-0.4h-1.8v-5.3h-1.2
			c0,0-0.1-0.6-0.6-0.6c-0.4,0-0.8-0.1-0.8-0.1v-2.8l-0.5,0.5v1H628v1.6h-1.2v0.5h-1.2v0.7h-2.3v0.4h-2.6v1l-0.7-0.3
			c0,0,0.6-1.3,0-1.3s-0.6,0-0.6,0l-0.6,0.2h-5.6v0.9h-0.4v0.2h-2v-0.6h-0.4v0.5h-1.7v0.7h-1.9v-2.5h-0.3v-0.6h-6.1v-0.4h-1
			c0,0,0-0.8-0.4-0.8c-0.4,0-0.9,0.8-0.9,0.8h-4.5v3h-2.5v0.4h-0.5v-2.8h-1.2v-2.5c0,0-0.6-0.5-0.3-0.7c0.2-0.2,0.4-0.5,0.4-0.5
			v-0.4h-0.4V278h-1v-0.4h-1.6v0.4h-0.5v0.5H583v-0.6h-0.6v-0.4h-1.3l-0.4,0.4h-0.7v1.1h-0.3v4.5c0,0-0.8,0.1-0.8,0.5
			c0,0.4-0.1,0.8-0.1,0.8h-0.4v5.9h-1.1v0.5h-0.7v0.9h-0.9v-0.4h-0.6v-6.7h-6.5c0,0,0,21.2,0,26.1H727z"/>
		<path class="st2" d="M407.8,310.9c39.3,0,162.7,0,162.7,0c-0.1-3.4-0.6-14.6-0.6-14.6l-0.2-10.8h-2.8V285h-0.7l-0.2-0.9h-6.1v0.6
			h-0.6v1.8h-2.6v2.3l-2.6,2.2v-3l-1.1-0.9l-1.6,0.8V287h-4v-4.2h-4.3v0.8c0,0-0.6-0.4-0.6-1.3c0-0.9,0-2.1,0-2.1s-0.1,2.2-0.5,2.5
			c-0.4,0.3-0.4,1-0.4,1h-1.3v5.6h-0.6c0,0-0.4-0.4-1-0.4c-0.6,0-1,0-1,0s-0.7-0.2-1.3,0c-0.6,0.2-0.9,0.5-0.9,0.5h-0.6v0.8h-0.6
			v-2.2c0,0-0.2-0.9-0.4-1.1c-0.2-0.2-0.4,0-0.4,0V284l-0.4-0.2l-0.2-0.2l-0.5-0.2l-0.9-0.8v-0.3h-0.3l-0.1-3c0,0-0.9,1.1-1.1,1.1
			c-0.2,0,0,0.4,0,0.4l1-0.5v1.9h-0.4l-0.2,0.5c0,0-0.8,0.7-1.2,0.8c-0.4,0.1-0.5,0.3-0.5,0.7c0,0.4,0,2.1,0,2.1h-0.3v0.3h-0.5v-0.4
			H527v0.4h-0.7c0,0-0.5,0-0.5,1.4c0,1.3,0,4.2,0,4.2h-4.1v-0.5h-1.6v0.6h-0.4v-0.6H519v-2.6h-2c0,0,0-0.4-0.2-0.4
			c-0.2,0-0.4,0-0.4,0l-0.7-8.2h-0.3l-0.8-6.9c0,0-0.5-0.5-0.5,0.1c0,0.6-1,6.8-1,6.8h-0.3l-1.9,14.5h-0.3v-0.6h-4.7v-9.4h-4.3v-0.7
			h-0.5v-1.5c0,0-0.5,0.3-0.7,0.3c-0.1,0-0.1,0.3-0.1,0.3l0.6-0.2v1.5h-0.3v-0.6h-0.6v0.4h-0.6v-0.4h-0.7v0.3h0.4v0.5h-1.7v7.4
			c0,0,0-0.3-1.2-0.6c-1.2-0.3-4.2-0.4-4.2-0.4h-0.6v-0.5h-3.7v0.9h-1.9v0.3h0.9v0.5h-0.7v1.7c0,0-1.2,0-1.2-0.5c0-0.5,0-6.9,0-6.9
			h-0.8v-1.8h-0.8v-10.8h-2.2V273h-6v1.6h-2.2v13.7h-0.6v-0.5h-0.8v-1.4h-4.6v1.6H466v0.9h-0.3v-0.4h-2v-5.3h-1.2
			c0,0-0.1-0.6-0.6-0.6c-0.5,0-0.8-0.1-0.8-0.1v-2.8l-0.5,0.5v1h-0.3v1.6H459v0.5h-1.3v0.7h-2.5v0.4h-2.8v1l-0.7-0.3
			c0,0,0.6-1.3,0-1.3c-0.7,0-0.7,0-0.7,0l-0.6,0.2h-6.1v0.9h-0.4v0.2h-2.2v-0.6h-0.5v0.5h-1.8v0.7h-2v-2.5h-0.3v-0.6h-6.6v-0.4h-1.1
			c0,0,0-0.8-0.4-0.8c-0.4,0-1,0.8-1,0.8h-4.8v3h-2.7v0.4h-0.6v-2.8h-1.3v-2.5c0,0-0.6-0.5-0.4-0.7c0.2-0.2,0.4-0.5,0.4-0.5v-0.4
			h-0.4V278h-1v-0.4h-1.8v0.4h-0.5v0.5h-3.4v-0.6h-0.7v-0.4h-1.4l-0.4,0.4h-0.7v1.1h-0.3v4.5c0,0,0,0-0.1,0V310.9z"/>
	</g>
	<g>
		<path class="st2" d="M-24.8,285.5c0.4,0,0.7,0,0.7,0V285h0.6l0.2-0.9h5.6v0.6h0.6v1.8h2.4v2.3l2.4,2.2v-3l1-0.9l1.5,0.8V287h3.7
			v-4.2h4v0.8c0,0,0.6-0.4,0.6-1.3c0-0.9,0-2.1,0-2.1s0.1,2.2,0.4,2.5c0.3,0.3,0.3,1,0.3,1h1.2v5.6H1c0,0,0.3-0.4,0.9-0.4
			c0.6,0,1,0,1,0s0.7-0.2,1.2,0c0.5,0.2,0.8,0.5,0.8,0.5h0.5v0.8H6v-2.2c0,0,0.2-0.9,0.3-1.1c0.2-0.2,0.4,0,0.4,0V284l0.4-0.2
			l0.2-0.2l0.4-0.2l0.9-0.8v-0.3h0.3l0.1-3c0,0,0.9,1.1,1,1.1c0.2,0,0,0.4,0,0.4l-0.9-0.5v1.9h0.4l0.2,0.5c0,0,0.7,0.7,1.1,0.8
			c0.4,0.1,0.4,0.3,0.4,0.7c0,0.4,0,2.1,0,2.1h0.3v0.3H12v-0.4h0.8v0.4h0.6c0,0,0.5,0,0.5,1.4c0,1.3,0,4.2,0,4.2h3.8v-0.5h1.5v0.6
			h0.4v-0.6h0.6v-2.6H22c0,0,0-0.4,0.2-0.4c0.2,0,0.3,0,0.3,0l0.7-8.2h0.3l0.8-6.9c0,0,0.5-0.5,0.5,0.1c0,0.6,0.9,6.8,0.9,6.8h0.2
			l1.8,14.5H28v-0.6h4.4v-9.4h4v-0.7h0.5v-1.5c0,0,0.5,0.3,0.6,0.3c0.1,0,0.1,0.3,0.1,0.3l-0.5-0.2v1.5h0.3v-0.6h0.6v0.4h0.6v-0.4
			h0.6v0.3h-0.3v0.5h1.5v7.4c0,0,0-0.3,1.1-0.6c1.1-0.3,3.8-0.4,3.8-0.4h0.6v-0.5h3.4v0.9H51v0.3h-0.9v0.5h0.6v1.7
			c0,0,1.1,0,1.1-0.5c0-0.5,0-6.9,0-6.9h0.7v-1.8h0.7v-10.8h2.1V273h5.5v1.6h2.1v13.7h0.5v-0.5h0.7v-1.4h4.2v1.6H69v0.9h0.2v-0.4
			h1.8v-5.3h1.2c0,0,0.1-0.6,0.6-0.6c0.4,0,0.8-0.1,0.8-0.1v-2.8l0.5,0.5v1h0.3v1.6h1.2v0.5h1.2v0.7H79v0.4h2.6v1l0.7-0.3
			c0,0-0.6-1.3,0-1.3c0.6,0,0.6,0,0.6,0l0.6,0.2h5.6v0.9h0.4v0.2h2v-0.6h0.4v0.5h1.7v0.7h1.9v-2.5h0.3v-0.6h6.1v-0.4h1
			c0,0,0-0.8,0.4-0.8c0.4,0,0.9,0.8,0.9,0.8h4.5v3h2.5v0.4h0.5v-2.8h1.2v-2.5c0,0,0.6-0.5,0.3-0.7c-0.2-0.2-0.4-0.5-0.4-0.5v-0.4
			h0.4V278h1v-0.4h1.6v0.4h0.5v0.5h3.1v-0.6h0.6v-0.4h1.3l0.4,0.4h0.7v1.1h0.3v4.5c0,0,0.8,0.1,0.8,0.5c0,0.4,0.1,0.8,0.1,0.8h0.4
			v5.9h1.1v0.5c0,0,0,0,0,0v19.7c-30.5,0-132,0-149.8,0V285.5z"/>
		<g>
			<path class="st2" d="M123.4,310.9c0-4.7,0-25.4,0-25.4c0.3,0,0.6,0,0.6,0V285h0.6l0.2-0.9h5.6v0.6h0.6v1.8h2.4v2.3l2.4,2.2v-3
				l1-0.9l1.5,0.8V287h3.7v-4.2h4v0.8c0,0,0.6-0.4,0.6-1.3c0-0.9,0-2.1,0-2.1s0.1,2.2,0.4,2.5c0.3,0.3,0.3,1,0.3,1h1.2v5.6h0.6
				c0,0,0.3-0.4,0.9-0.4c0.6,0,1,0,1,0s0.7-0.2,1.2,0c0.5,0.2,0.8,0.5,0.8,0.5h0.5v0.8h0.6v-2.2c0,0,0.2-0.9,0.3-1.1
				c0.2-0.2,0.4,0,0.4,0V284l0.4-0.2l0.2-0.2l0.4-0.2l0.9-0.8v-0.3h0.3l0.1-3c0,0,0.9,1.1,1,1.1c0.2,0,0,0.4,0,0.4l-0.9-0.5v1.9h0.4
				l0.2,0.5c0,0,0.7,0.7,1.1,0.8c0.4,0.1,0.4,0.3,0.4,0.7c0,0.4,0,2.1,0,2.1h0.3v0.3h0.4v-0.4h0.8v0.4h0.6c0,0,0.5,0,0.5,1.4
				c0,1.3,0,4.2,0,4.2h3.8v-0.5h1.5v0.6h0.4v-0.6h0.6v-2.6h1.8c0,0,0-0.4,0.2-0.4c0.2,0,0.3,0,0.3,0l0.7-8.2h0.3l0.8-6.9
				c0,0,0.5-0.5,0.5,0.1c0,0.6,0.9,6.8,0.9,6.8h0.2l1.8,14.5h0.3v-0.6h4.4v-9.4h4v-0.7h0.5v-1.5c0,0,0.5,0.3,0.6,0.3
				c0.1,0,0.1,0.3,0.1,0.3l-0.5-0.2v1.5h0.3v-0.6h0.6v0.4h0.6v-0.4h0.6v0.3h-0.3v0.5h1.5v7.4c0,0,0-0.3,1.1-0.6
				c1.1-0.3,3.8-0.4,3.8-0.4h0.6v-0.5h3.4v0.9h1.8v0.3h-0.9v0.5h0.6v1.7c0,0,1.1,0,1.1-0.5c0-0.5,0-6.9,0-6.9h0.7v-1.8h0.7v-10.8
				h2.1V273h5.5v1.6h2v13.7h0.5v-0.5h0.7v-1.4h4.2v1.6h0.7v0.9h0.2v-0.4h1.8v-5.3h1.2c0,0,0.1-0.6,0.6-0.6c0.4,0,0.8-0.1,0.8-0.1
				v-2.8l0.5,0.5v1h0.3v1.6h1.2v0.5h1.2v0.7h2.3v0.4h2.6v1l0.7-0.3c0,0-0.6-1.3,0-1.3c0.6,0,0.6,0,0.6,0l0.6,0.2h5.6v0.9h0.4v0.2h2
				v-0.6h0.4v0.5h1.7v0.7h1.9v-2.5h0.3v-0.6h6.1v-0.4h1c0,0,0-0.8,0.4-0.8c0.4,0,0.9,0.8,0.9,0.8h4.5v3h2.5v0.4h0.5v-2.8h1.2v-2.5
				c0,0,0.6-0.5,0.3-0.7c-0.2-0.2-0.4-0.5-0.4-0.5v-0.4h0.4V278h1v-0.4h1.6v0.4h0.5v0.5h3.1v-0.6h0.6v-0.4h1.3l0.4,0.4h0.7v1.1h0.3
				v4.5c0,0,0.8,0.1,0.8,0.5c0,0.4,0.1,0.8,0.1,0.8h0.4v5.9h1.1v0.5h0.7v0.9h0.9v-0.4h0.6v-6.7h6.5c0,0,0,21.2,0,26.1H123.4z"/>
			<path class="st2" d="M430.1,310.9c-36.2,0-150.1,0-150.1,0c0.1-3.4,0.6-14.6,0.6-14.6l0.1-10.8h2.6V285h0.6l0.2-0.9h5.6v0.6h0.6
				v1.8h2.4v2.3l2.4,2.2v-3l1-0.9l1.5,0.8V287h3.7v-4.2h4v0.8c0,0,0.6-0.4,0.6-1.3c0-0.9,0-2.1,0-2.1s0.1,2.2,0.4,2.5
				c0.3,0.3,0.3,1,0.3,1h1.2v5.6h0.6c0,0,0.3-0.4,0.9-0.4c0.6,0,1,0,1,0s0.7-0.2,1.2,0c0.5,0.2,0.8,0.5,0.8,0.5h0.5v0.8h0.6v-2.2
				c0,0,0.2-0.9,0.3-1.1c0.2-0.2,0.4,0,0.4,0V284l0.4-0.2l0.2-0.2l0.4-0.2l0.9-0.8v-0.3h0.3l0.1-3c0,0,0.9,1.1,1,1.1
				c0.2,0,0,0.4,0,0.4l-0.9-0.5v1.9h0.4l0.2,0.5c0,0,0.7,0.7,1.1,0.8c0.4,0.1,0.4,0.3,0.4,0.7c0,0.4,0,2.1,0,2.1h0.3v0.3h0.4v-0.4
				h0.8v0.4h0.6c0,0,0.5,0,0.5,1.4c0,1.3,0,4.2,0,4.2h3.8v-0.5h1.5v0.6h0.4v-0.6h0.6v-2.6h1.8c0,0,0-0.4,0.2-0.4c0.2,0,0.3,0,0.3,0
				l0.7-8.2h0.3l0.8-6.9c0,0,0.5-0.5,0.5,0.1c0,0.6,0.9,6.8,0.9,6.8h0.2l1.8,14.5h0.3v-0.6h4.4v-9.4h4v-0.7h0.5v-1.5
				c0,0,0.5,0.3,0.6,0.3c0.1,0,0.1,0.3,0.1,0.3l-0.5-0.2v1.5h0.3v-0.6h0.6v0.4h0.6v-0.4h0.6v0.3h-0.3v0.5h1.5v7.4c0,0,0-0.3,1.1-0.6
				c1.1-0.3,3.9-0.4,3.9-0.4h0.6v-0.5h3.4v0.9h1.8v0.3h-0.9v0.5h0.6v1.7c0,0,1.1,0,1.1-0.5c0-0.5,0-6.9,0-6.9h0.7v-1.8h0.7v-10.8
				h2.1V273h5.5v1.6h2.1v13.7h0.5v-0.5h0.7v-1.4h4.2v1.6h0.7v0.9h0.2v-0.4h1.8v-5.3h1.2c0,0,0.1-0.6,0.6-0.6c0.4,0,0.8-0.1,0.8-0.1
				v-2.8l0.5,0.5v1h0.3v1.6h1.2v0.5h1.2v0.7h2.3v0.4h2.6v1l0.7-0.3c0,0-0.6-1.3,0-1.3s0.6,0,0.6,0l0.6,0.2h5.6v0.9h0.4v0.2h2v-0.6
				h0.4v0.5h1.7v0.7h1.9v-2.5h0.3v-0.6h6.1v-0.4h1c0,0,0-0.8,0.4-0.8c0.4,0,0.9,0.8,0.9,0.8h4.5v3h2.5v0.4h0.5v-2.8h1.2v-2.5
				c0,0,0.6-0.5,0.3-0.7c-0.2-0.2-0.4-0.5-0.4-0.5v-0.4h0.4V278h1v-0.4h1.6v0.4h0.5v0.5h3.1v-0.6h0.6v-0.4h1.3l0.4,0.4h0.7v1.1h0.3
				v4.5c0,0,0,0,0.1,0V310.9z"/>
		</g>
	</g>
</g>
</svg>
