<?xml version="1.0" encoding="utf-8"?>
<!-- Generator: Adobe Illustrator 19.2.1, SVG Export Plug-In . SVG Version: 6.00 Build 0)  -->
<svg version="1.1" id="Ebene_1" xmlns="http://www.w3.org/2000/svg" xmlns:xlink="http://www.w3.org/1999/xlink" x="0px" y="0px"
	 viewBox="0 0 595.3 841.9" style="enable-background:new 0 0 595.3 841.9;" xml:space="preserve">
<style type="text/css">
	.st0{fill:#69F4A2;}
</style>
<path class="st0" d="M254.4,192c0,0-1.7-11.1,3.7-12.5c5.4-1.4,4.3-1.7,3.1-6.8c-1.1-5.1-0.9-9.4,1.4-11.4c2.3-2-1.4-2.9-1.4-5.1
	c0-2.3,3.4-8.8,4.8-10c0,0-7.7-16.5-2-16.2c0,0-9.4-15.7-2-19.1c0,0,2.8-2.9,3.1-5.4c0,0,8.3-28.2,43.6-14.5c0,0,16,12.8,16,29.1
	c0,0,6-1.1-1.7,21.9c0,0,7.4,11.4,8.5,19.7c0,0-0.3,9.4,3.7,12.5c4,3.1,2.8,4.3,3.1,6.3c0.3,2,3.4,9.4,6,9.7c0,0,22.2-2.3,25.6,24.2
	c0,0,1.1,31.6-1.1,47.9c0,0,0,28.8,6.3,36.7c6.3,8,5.7,27.1,7.7,45c2,17.9,1.7,35.3,7.7,42.4c6,7.1,12.5,14.2,11.7,19.1
	c0,0-0.6,12.2-1.4,13.1c-0.9,0.9-7.4,2.6-8.8,1.7c0,0-4.6,1.1-5.4-0.3c-0.9-1.4-0.9-1.4-0.9-1.4s-4.3-4.3-1.7-3.4
	c2.6,0.9,0.3-5.1,0-7.1c-0.3-2-10.5-13.7-8.3-21.7c2.3-8-4.6-17.4-9.7-30.2c-5.1-12.8-17.4-49.3-16.5-62.4c0.9-13.1-6.3-30.8-4.8-35
	c0,0-8,15.1-3.4,32.5c4.6,17.4,15.1,45.6,18.5,65.8c3.4,20.2,1.7,51.8-6,70.4c-7.7,18.5-11.1,45-14.5,55.8c0,0-0.9,19.1-2.3,27.1
	c-1.4,8,6.5,27.9-4.6,59.8c0,0-9.7,29.9-8.8,33c0.9,3.1,0.6,10.5,2,12.5c1.4,2,8.8,16,7.1,25.3c0,0-3.7,8-2.3,14.2
	c1.4,6.3,6.8,29.9-11.1,29.3c0,0-0.6,21.4-10.3,23.6c-9.7,2.3-22.2,2.3-22.8-8.8c-0.6-11.1,2.6-20.2,1.7-29.1
	c-0.8-8.8,1.7-34.2,5.4-37.6c3.7-3.4,5.4-35.6,2.6-42.4c-2.9-6.8-19.9-61.2-16.2-72.6c3.7-11.4,0-19.4-5.4-30.2
	c-5.4-10.8-19.4-59.5-19.4-59.5s-22.8-38.7-7.4-89.2c0,0-14.5,38.7-13.1,47.6c0,0,0.3,14.5-6.6,19.9c0,0-2.8,4.3-2,6
	c0,0,3.4-2,0.6,3.4c0,0,3.1,3.4-0.9,4.6c0,0-7.7,6-9.1,2.3l-5.7-3.1c0,0-2.3-13.1-2.6-14.5c-0.3-1.4-0.3-1.4-0.3-1.4
	s9.4-15.1,12-16.5c2.6-1.4,6.6-42.2,5.7-52.1c-0.9-10,2.3-34.8,8-41.3c5.7-6.5,2.8-12.5,2.8-21.1c0-8.6,0.9-28.8,0.3-32.5
	c-0.6-3.7-3.7-35.3,6.6-40.4C253.6,194.2,254.4,192,254.4,192z"/>
</svg>
