<?xml version="1.0" encoding="utf-8"?>
<!-- Generator: Adobe Illustrator 19.2.1, SVG Export Plug-In . SVG Version: 6.00 Build 0)  -->
<svg version="1.1" id="Ebene_1" xmlns="http://www.w3.org/2000/svg" xmlns:xlink="http://www.w3.org/1999/xlink" x="0px" y="0px"
	 viewBox="0 0 595.3 841.9" style="enable-background:new 0 0 595.3 841.9;" xml:space="preserve">
<style type="text/css">
	.st0{fill-rule:evenodd;clip-rule:evenodd;fill:#F0B58F;}
	.st1{fill-rule:evenodd;clip-rule:evenodd;fill:#D6124D;}
	.st2{fill-rule:evenodd;clip-rule:evenodd;fill:#C46B2B;}
	.st3{fill-rule:evenodd;clip-rule:evenodd;fill:#C28C6E;}
	.st4{fill-rule:evenodd;clip-rule:evenodd;fill:#990833;}
	.st5{fill-rule:evenodd;clip-rule:evenodd;fill:#24384F;}
	.st6{fill-rule:evenodd;clip-rule:evenodd;fill:#E0D9B8;}
	.st7{fill-rule:evenodd;clip-rule:evenodd;fill:#121F2B;}
	.st8{fill:#EDC782;}
	.st9{fill:#8A8569;}
	.st10{fill-rule:evenodd;clip-rule:evenodd;fill:#403D2E;}
</style>
<g>
	<path class="st0" d="M265.2,249.8c-4.2,6.5-3.2,3.7-1.9,10.6c1.4,6.9-6.5,12-2.3,14.8c4.2,2.8-4.2,9.7,1.9,12
		c6,2.3-6.5,6.9-2.8,9.7c3.7,2.8-4.2,4.6-3.2,8.3c0.9,3.7,3.2,2.8,0,7.4c-3.2,4.6,3.2,12,4.2,25.9c0.9,13.9,0,16.2,1.4,9.7
		c1.4-6.5,4.2-7.9,2.3-13c-1.9-5.1,3.7-13.9,0.9-21.7c-2.8-7.9,11.6-15.3,6.9-21.7c-4.6-6.5-3.2-5.1,4.2-11.6
		c7.4-6.5-0.5-12-6.5-15.3C264.3,261.8,267.6,257.7,265.2,249.8 M294.3,652.2c-3.8,10.2,0.8,9,4.5,1.1c3.8-7.9,3-11.3,2.3-15.8
		C302.2,630.7,298.1,642,294.3,652.2z M336.5,17.5c11.1,2.9,23.7,22.3,31.9,42c8.3,19.7,6.8,51.3,5.7,71.1
		c-1.1,19.7,6.5,26.6,8.6,39.1c2.2,12.6-1.8,9.7-1.1,28.7c0.7,19-0.7,40.9-3.6,51.3c-2.9,10.4-1.4,14,1.1,21.2
		c2.5,7.2,3.9,6.5-0.7,11.8c-4.7,5.4-5,10.8,2.5,14.4c7.5,3.6-5,12.9,3.6,16.2c8.6,3.2-3.9,8.6,5,15.4c9,6.8-6.5,6.8-3.2,13.6
		c3.2,6.8,7.5,20.1,7.9,39.8c0.4,19.7,0,19.7-3.6,47c-3.6,27.3-15.8,59.6-20.1,72.9c-4.3,13.3-6.5,20.1-8.6,27.6
		c-2.2,7.5-3.6,8.3-3.6,17.2c0,9-5.7,8.3-3.9,12.2c1.8,3.9,0.7,3.9-3.2,7.5c-3.9,3.6-2.5,10.1,1.1,13.3c3.6,3.2,2.5,7.5-2.9,15.1
		c-5.4,7.5,0,24-2.5,33.4c-2.5,9.3,1.8,7.2-2.9,21.2c-4.7,14-5,17.9,1.1,18.7c6.1,0.7,3.2,10.4,0.7,14c-2.5,3.6-1.4,2.9-1.4,7.2
		c0,4.3-0.4,15.1-0.4,24.1c0,9,12.2,18.7,19.7,24.4c7.5,5.7,19,6.8,21.2,14c2.2,7.2-0.7,12.6-11.1,15.4c-10.4,2.9-29.1,0.7-37-5
		c-7.9-5.7-19.7-7.5-29.4-7.5c-9.7,0-13.3-7.9-12.6-16.2c0.7-8.3,2.9-17.6,4.3-24.1c1.4-6.5-0.4-7.5-3.6-8.6
		c-3.2-1.1-2.2-8.6,1.4-14c3.6-5.4,5-8.3,0.7-10.8c-4.3-2.5-3.6-7.5-6.5-5.7c-2.9,1.8-4.3,5-3.9,14.4c0.4,9.3,0.7,10.4-2.2,16.9
		c-2.9,6.5-5,7.9-1.1,10.4c3.9,2.5,0.7,5.7-3.9,10.1c-4.7,4.3-3.6,10-2.5,23c1.1,12.9-1.4,14.4-1.4,14.4s0,6.1,6.8,14.4
		c6.8,8.3,11.8,14.4,12.6,24.4c0.7,10.1,3.6,13.3-20.8,16.9s-29.8-22.3-32.7-27.3c-2.9-5-5-7.5-6.1-15.1c-1.1-7.5,0.7-8.4,0.7-13.6
		c0-5.2,3-12.3,1.5-18.3c-1.5-6-1.1-9.3-6-15c-4.9-5.6-2.6-17.2-0.4-20.9c2.2-3.7-3.4-13.8,3-13.8c6.4,0,5.2,1.5,3-7.1
		c-2.2-8.6,1.1-11.6,4.1-17.2c3-5.6,4.1-6.4,3-14.2c-1.1-7.9,6-38.1,8.6-46c2.6-7.8,1.5-12,5.2-12c3.7,0,3-4.9,2.6-11.2
		c-0.4-6.4,1.9-9,5.6-12c3.7-3-2.6-8.6,0.4-8.2c3,0.4-3.4-5.6,0-5.2c3.4,0.4,1.5-22.8,1.6-37.7c0.1-14.9-6.9-53.1-9.1-74.3
		c-2.2-21.2-2.2-32.6-2.2-32.6s-3.3-6-6.5-19c-3.3-13-11.4-36.9-14.1-45c-2.7-8.1-3.8-7.1-6.5-21.2c-2.7-14.1-3.8-27.1-8.7-27.1
		c-4.9,0-8.7-7.1-3.3-9.2c5.4-2.2-2.2-5.4,3.3-11.4c5.4-6-4.3-4.3-1.1-7.6c3.3-3.3-0.3-5,2.3-12.9c2.6-7.9,2.6-24.3,3.3-44.6
		c0.7-20.3,1.3-45.9,9.8-61c8.5-15.1,34.7-21.6,38.7-29.5c3.9-7.9,2-15.7,2.6-59.6c0.7-43.9,26.2-50.5,32.8-49.8
		C318.6,18.2,325.4,14.6,336.5,17.5z"/>
	<path class="st1" d="M265.2,249.8c-4.2,6.5-3.2,3.7-1.9,10.6c1.4,6.9-6.5,12-2.3,14.8c4.2,2.8-4.2,9.7,1.9,12
		c6,2.3-6.5,6.9-2.8,9.7c3.7,2.8-4.2,4.6-3.2,8.3c0.9,3.7,3.2,2.8,0,7.4c-3.2,4.6,3.2,12,4.2,25.9c0.9,13.9,0,16.2,1.4,9.7
		c1.4-6.5,4.2-7.9,2.3-13c-1.9-5.1,3.7-13.9,0.9-21.7c-2.8-7.9,11.6-15.3,6.9-21.7c-4.6-6.5-3.2-5.1,4.2-11.6
		c7.4-6.5-0.5-12-6.5-15.3C264.3,261.8,267.6,257.7,265.2,249.8 M321.3,178.7c18.6,1.8,36.8,4.5,44.1-8.6c3.3-6,6.8-16.6,9.5-26.4
		c1.8,10.5,6.4,16.7,7.9,26c2.2,12.6-1.8,9.7-1.1,28.7c0.7,19-0.7,40.9-3.6,51.3c-2.9,10.4-1.4,14,1.1,21.2
		c2.5,7.2,3.9,6.5-0.7,11.8c-4.7,5.4-5,10.8,2.5,14.4c7.5,3.6-5,12.9,3.6,16.2c8.6,3.2-3.9,8.6,5,15.4c9,6.8-6.5,6.8-3.2,13.6
		c3.2,6.8,7.5,19.8,7.9,39.3c-34.3,13.2-87.8,29.1-141.8,22.6c-0.4-1.5-0.9-3.1-1.3-4.8c-3.3-13-11.4-36.9-14.1-45
		c-2.7-8.1-3.8-7.1-6.5-21.2c-2.7-14.1-3.8-27.1-8.7-27.1c-4.9,0-8.7-7.1-3.3-9.2c5.4-2.2-2.2-5.4,3.3-11.4c5.4-6-4.3-4.3-1.1-7.6
		c3.3-3.3-0.3-5,2.3-12.9c2.6-7.9,2.6-24.3,3.3-44.6c0.7-20.3,1.3-45.9,9.8-61c7.9-13.9,30.8-20.6,37.4-27.7
		C285.4,148.6,306,177.2,321.3,178.7z"/>
	<path class="st2" d="M310.3,20.4c-6.6-0.7-32.1,5.9-32.8,49.8c-0.7,43.9,1.3,51.8-2.6,59.6c-0.7,1.4-2.1,2.7-3.9,4.1
		c7.7-1.9,17.4,5.9,24.8,16.2c8.3,11.7,16.7,49.4,16.7,63.1c0,13.7,3,3,3-7.7c0-10.7,4,7,6.3,20.4c2.3,13.3,2.3-8.3,2.3-17.7
		c0-9.3,5.3,1,13.7,10.7c8.3,9.7-2-4.7-6.7-12c-4.7-7.3,15.3,2.3,22,11.3c6.7,9,4.7,17,5,10.7c0.3-6.3,0-11.7-7-20.4
		c-7-8.7-14.7-36.4-16.7-45.7c-0.6-2.6-2.4-5.8-4.8-9.2c-9-8.2-21.2-18.1-23.9-28.8c-3-12-3.3-8.7-6-17.4c-2.7-8.7-6-19.4-2.7-31
		c3.3-11.7,7-19.4,9-30.4c2-11,3.3-12.7,7-2.7c3.7,10,21,34.4,14,21.7c-7-12.7-11-18-12.3-30c5.3,5.3,21.4,18.4,31,21.4
		c9.7,3,11,2.3,13,7.3c2,5,4,12,3.3,21.4c-0.7,9.3,0.3,23-9,31.4c-23.5,21-4.4,31.2,7.3,47.4c4.3,6,10,5.7,8,12.3
		c-2,6.7,5.7,3,3.3-6c-2.3-9-2-10.3,3-1c5,9.3,3.7,14.3-2.3,30c-6,15.7-4,12.3,2.7-0.3c6.5-12.3,5.7-11.7,8.1-20.4
		c0.2-2.1,0.2-4.6-0.5-8.8c-2.2-12.6-9.7-19.4-8.6-39.1c1.1-19.7,2.5-51.3-5.7-71.1c-8.3-19.7-20.8-39.1-31.9-42
		C325.4,14.6,318.6,18.2,310.3,20.4"/>
	<path class="st3" d="M355.1,59.3c-11.2-1.7-29.9-8.5-27.6-6.2c2.3,2.3,7,26.4-0.7,17.7c-7.7-8.7-15-18.7-19-10.7
		c-4,8-9.7,22-8.3,31c1.3,9,1,19,8.3,24.4c7.3,5.3,28.4,10.3,35.4,8c7-2.3,1,5.3-12,4c-13-1.3-20-4-15.7,3.7
		c4.3,7.7,21.4,21.4,22.4,31.4c1,10,5.3,28.4,10,39c0.5,1.1,0.6,1.9,0.4,2.4c-6.1-11.4-12-33.1-13.8-41.1c-0.6-2.6-2.4-5.8-4.8-9.2
		c-9-8.2-21.2-18.1-23.9-28.8c-3-12-3.3-8.7-6-17.4c-2.7-8.7-6-19.4-2.7-31c3.3-11.7,7-19.4,9-30.4c2-11,3.3-12.7,7-2.7
		c3.7,10,21,34.4,14,21.7c-7-12.7-11-18-12.3-30c5.3,5.3,21.4,18.4,31,21.4C350.6,57.9,353.3,58.5,355.1,59.3"/>
	<path class="st4" d="M262.1,267.6c1-2.1,1.8-4.5,1.3-7.2c-0.6-3-1.1-4.2-1.2-5.1c-1.4,0.9-3.4,2-6,4.8
		C250.7,266.3,252.3,264.4,262.1,267.6 M256.9,305.3c-0.9-3.7,6.9-5.6,3.2-8.3c-3.7-2.8,8.8-7.4,2.8-9.7c-5.7-2.2,1.5-8.5-1.3-11.5
		c-1,0.8-2.3,1.7-3.5,3c-3.1,3.1-18.5,2.8-29.7,4.6c-11.1,1.9,14.2,2.5,26.9,2.5c12.7,0-9,2.5-22.9,4c-13.9,1.5,4.3,0.6,20.1,0.6
		c15.8,0,7.4,4-0.6,4.3c-8,0.3-12.1,0.3-22.6,4.9c-10.5,4.6-3.7,3.7,7.1-0.9c10.8-4.6,18.2,4.3,20.7,9.6c2,4.3,0.8,1,0.4-1.4
		C257.3,306.6,257.1,306,256.9,305.3z M265.7,313.6c2.3,6.6-1.2,13.9-1.3,19.1c5-4.6,15.2-18.1,26.9-27.2
		c14.6-11.4-9.1,3.6-18.2,10.9c-9.1,7.3-5.5-7.8-2.7-11.4c1.2-1.6,1.4-3.8,1.9-6.3C269.5,303.4,263.9,308.4,265.7,313.6z M259,174.2
		c-7.4-17.6,1.5,19.5,7.4,33.4c5.9,13.9-6.5-1.2-13.9-18.2c-7.4-17,7.1,19.2,13.6,30.6c6.5,11.4-6.8,0-21.9-9.3
		c-15.1-9.3,5.3,10.5,17,18.5c11.7,8,2.8,15.1,3.4,21c0,0.2,0,0.3,0,0.5l0.6-0.9c2.3,7.9-0.9,12,5.1,15.3c6,3.2,13.9,8.8,6.5,15.3
		c-7.4,6.5-8.8,5.1-4.2,11.6c0.7,1,1,2,0.9,3c1-1.9,2.6-3.9,5.4-5.8c8.7-5.9,30.6-10.5,48.3-20.5c17.8-10-15.5,5.5-26.9,10
		c-11.4,4.6-21,0-14.6,0c6.4,0-8.2-13.7-11.9-17.8c-3.6-4.1,25.5-8.2,41.5-13.7c16-5.5-10.9-1.4-23.3,2.3
		c-12.3,3.6-25.5,1.8-20.1,3.2c5.5,1.4-5.5-12.3,3.2-11.9c8.7,0.5,0.5-3.2-4.6-6.8c-5-3.6,5.9-8.2,25.5-8.2c19.6,0,5-6.8-11.9-4.6
		c-16.9,2.3-12.3-3.2-6.4-17.3c5.9-14.1-8.2-21-11.9-34.7C261.5,158.5,266.4,191.9,259,174.2z"/>
	<path class="st5" d="M301.1,637.5c1.1-6.8-3,4.5-6.8,14.7c-3.8,10.2,0.8,9,4.5,1.1C302.6,645.4,301.8,642,301.1,637.5 M392.9,365.2
		c0.1,0.5,0.1,1,0.2,1.5C393,366.2,393,365.7,392.9,365.2z M263,405.2c50.3,3.4,99.2-11.3,131.3-23.6c-0.1-4.2-0.4-8-0.8-11.6
		c0.4,3.8,0.7,7.8,0.8,12.2c0.4,19.7,0,19.7-3.6,47c-3.6,27.3-15.8,59.6-20.1,72.9c-4.3,13.3-6.5,20.1-8.6,27.6
		c-2.2,7.5-3.6,8.3-3.6,17.2c0,9-5.7,8.3-3.9,12.2c1.8,3.9,0.7,3.9-3.2,7.5c-3.9,3.6-2.5,10.1,1.1,13.3c3.6,3.2,2.5,7.5-2.9,15.1
		c-5.4,7.5,0,24-2.5,33.4c-2.5,9.3,1.8,7.2-2.9,21.2c-4.7,14-5,17.9,1.1,18.7c6.1,0.7,3.2,10.4,0.7,14c-2.5,3.6-1.4,2.9-1.4,7.2
		c0,3.4-0.2,10.8-0.3,18.2c-17.6,4.4-34.6,6.7-43.6,1c-0.6-0.3-1.1-0.6-1.6-0.8c-0.7-1-1.9-1.4-3.3-1.9c-3.2-1.1-2.2-8.6,1.4-14
		c3.6-5.4,5-8.3,0.7-10.8c-4.3-2.5-3.6-7.5-6.5-5.7c-2.9,1.8-4.3,5-3.9,14.4c0.4,9.3,0.7,10.4-2.2,16.9c-2.9,6.5-5,7.9-1.1,10.4
		c3.9,2.5,0.7,5.7-3.9,10.1c-4.7,4.3-3.6,10-2.5,23c0.8,9.9-0.5,13.1-1.1,14c-13.7,1.8-26.9,8.5-40.2,3.6c0.2-1,0.3-2.2,0.3-3.6
		c0-5.2,3-12.3,1.5-18.3c-1.5-6-1.1-9.3-6-15c-4.9-5.6-2.6-17.2-0.4-20.9c2.2-3.7-3.4-13.8,3-13.8c6.4,0,5.2,1.5,3-7.1
		c-2.2-8.6,1.1-11.6,4.1-17.2c3-5.6,4.1-6.4,3-14.2c-1.1-7.9,6-38.1,8.6-46c2.6-7.8,1.5-12,5.2-12c3.7,0,3-4.9,2.6-11.2
		c-0.4-6.4,1.9-9,5.6-12c3.7-3-2.6-8.6,0.4-8.2c3,0.4-3.4-5.6,0-5.2c3.4,0.4,1.5-22.8,1.6-37.7c0.1-14.9-6.9-53.1-9.1-74.3
		c-2.2-21.2-2.2-32.6-2.2-32.6s-1.7-3.2-3.9-9.9L263,405.2z"/>
	<path class="st6" d="M298.9,707.9c0.5,0.2,1,0.4,1.6,0.8c9,5.7,26,3.4,43.6-1c0,2,0,4,0,5.8c0,9,12.2,18.7,19.7,24.4
		c7.5,5.7,19,6.8,21.2,14c2.2,7.2-0.7,12.6-11.1,15.4c-10.4,2.9-29.1,0.7-37-5c-7.9-5.7-19.7-7.5-29.4-7.5
		c-9.7,0-13.3-7.9-12.6-16.2c0.7-8.3,2.9-17.6,4.3-24.1C300,711,299.8,709.1,298.9,707.9 M276.5,764.1c-0.2,0.3-0.3,0.4-0.3,0.4
		s0,6.1,6.8,14.4c6.8,8.3,11.8,14.4,12.6,24.4c0.7,10.1,3.6,13.3-20.8,16.9s-29.8-22.3-32.7-27.3c-2.9-5-5-7.5-6.1-15.1
		c-0.8-5.4-0.1-7.4,0.4-10C249.6,772.6,262.8,765.9,276.5,764.1z"/>
	<path class="st7" d="M350.8,593.1c-3.4-0.4-21.9-4-29-7.5c-10-5-3.8,20.7-11.9,30.1c-8.1,9.4,0.6,14.4,6.9,21.9
		c6.3,7.5-2.5,2.5-10.7,0c-2.4-0.7-3.9-0.4-4.9,0.8l-0.1-0.8c0.7-3.9-0.5-1.8-2.3,2.7c1.3-7.6,2.7-15.3,4.8-21.5
		c5-15,18.2-54.5,19.4-65.8c1.3-11.3,14.3-93.2,13.7-105.1c-0.6-11.9-8.7-10.2-25.6-11.5c-16.9-1.3,20.1-1.3,29.4-0.6
		c9.4,0.6,15,1.3,32.6-19.4c17.5-20.7-28.8,89.6-33.8,100.9c-5,11.3-11.9,32.6-12.5,37.6c-0.6,5,0,6.9,11.3,11.3
		c11.3,4.4-0.6,3.1-10,0.6c-9.4-2.5,4.4,10,14.4,12.5c10,2.5-6.9,0-18.8-2.5c-11.9-2.5,5,11.3,22.6,15c2.5,0.5,4,0.9,4.7,1.1
		L350.8,593.1 M292.9,668.2c1.1-2.6,2-6.1,2.8-10c0.3-0.3,0.6-0.7,0.9-1.2c-3.7,11.7-0.6,3.1,2.5,11.8c3.1,8.8,7.5,5,30.1,8.1
		c21.9,3-17.1,4.3-29.7,10.7c1.4-2.8,1.2-4.8-1.8-6.5c-4.3-2.5-3.6-7.5-6.5-5.7c-0.1,0.1-0.2,0.2-0.3,0.2
		C291.4,673,292,670.4,292.9,668.2z M256.6,732.1c-17.5-1.3,16.2-10.6,28.7-10.7c-0.9,1.6-2.9,3.5-5.2,5.7c-1.5,1.4-2.4,2.9-2.9,4.8
		C272.4,731.8,265.5,732.8,256.6,732.1z"/>
	<path class="st7" d="M344.2,686.7c-0.2-1.6-0.2-1.9,1.6-4.5c0.1-0.1,0.2-0.2,0.2-0.3c-15.8,3.6-27.4,5.4-17.4,5.1
		C333.7,686.9,339,687,344.2,686.7"/>
	<path class="st7" d="M234.8,734.4c5.9,4.6,11.2,4.8,14.9,4.6c3.9-0.3,4.8,6.5-12,4.4C236.9,740,236.6,737.4,234.8,734.4
		 M267.1,712.8c8.4,0-4,7.2-15.6,2.5c-5.8-2.4-12.6-4.5-19.3-6.5c0.6-2.7-0.9-7.2-0.5-10C240.8,706.5,259,712.8,267.1,712.8z"/>
	<path class="st8" d="M361.2,398.4l0-0.2l0-0.2l0-0.2l0-0.1l0-0.1l0-0.1l0,0c0-0.7-1.1-0.7-1.1,0v0l0,0.1l0,0.1l0,0.1l0,0.2l0,0.2
		l0,0.2v0.2c0,0.7,1.1,0.7,1.1,0V398.4z M361.2,402.8l0-0.2l0-0.2l0-0.2l0-0.2l0-0.2l0-0.2c0-0.7-1.1-0.7-1.1,0l0,0.2l0,0.2l0,0.2
		l0,0.2l0,0.2l0,0.2v0C360.1,403.5,361.2,403.5,361.2,402.8L361.2,402.8z M361,407.1l0-0.2l0-0.2l0-0.2l0-0.2l0-0.2l0,0
		c0-0.7-1.1-0.7-1.1-0.1l0,0l0,0.2l0,0.2l0,0.2l0,0.2l0,0.2l0,0C359.9,407.9,361,407.8,361,407.1L361,407.1z M360.6,411.4l0-0.2
		l0-0.2l0-0.2l0-0.2l0-0.2c0-0.8-1.1-0.7-1.1-0.1l0,0.2l0,0.2l0,0.2l0,0.2l0,0.2l0,0.1l0,0C359.6,412.2,360.6,412,360.6,411.4
		L360.6,411.4z M360.1,415.7l0-0.2l0-0.2l0-0.2l0-0.2l0-0.2c0.1-0.6-0.9-0.9-1.1-0.1l0,0.2l0,0.2l0,0.2l0,0.2l0,0.2l0,0.1l0,0.1
		C359,416.2,359.9,416.5,360.1,415.7L360.1,415.7z M359.3,420l0-0.2l0-0.2l0-0.2l0-0.2l0-0.2l0-0.1l0-0.1c0-0.7-0.9-0.8-1.1-0.1
		l0,0.1l0,0.2l0,0.2l0,0.2l0,0.2l0,0.2l0,0l0,0.1C358.2,420.5,359.1,420.6,359.3,420L359.3,420z M358,424.1l0.1-0.2l0.1-0.2l0.1-0.2
		l0.1-0.2l0.1-0.2l0-0.1c0.2-0.7-0.9-1-1-0.3l0,0.1l-0.1,0.2l-0.1,0.2l-0.1,0.2l-0.1,0.2l-0.1,0.2l0,0.1l0,0c-0.2,0.7,0.7,1,1,0.4
		L358,424.1z M356,428l0.1-0.1l0.1-0.1l0.1-0.1l0.1-0.1l0.1-0.1l0.1-0.1l0,0c0.3-0.7-0.6-1.1-0.9-0.5l0,0l-0.1,0.1l-0.1,0.1
		l-0.1,0.1l-0.1,0.1l-0.1,0.1l-0.1,0.1l-0.1,0.1c-0.1,0.1-0.1,0.3-0.1,0.4c0.1,0.4,0.7,0.6,1,0.2L356,428z M352.4,430.9l0.1,0l0.1,0
		l0.1-0.1l0.1-0.1l0.1-0.1l0.1-0.1l0.1-0.1l0.1-0.1l0.1,0l0,0c0.6-0.4,0.1-1.2-0.6-0.9l-0.1,0l-0.1,0.1l-0.1,0.1l-0.1,0.1l-0.1,0
		l-0.1,0l-0.1,0l-0.1,0l-0.1,0l0,0l-0.1,0C351.3,430.3,351.9,431.2,352.4,430.9L352.4,430.9z M354,396.6L354,396.6l0-0.2l0-0.1
		l0-0.1l0-0.1l0-0.1l0-0.1l0-0.1l0-0.1l0-0.1l0-0.1l0-0.1c0-0.7-1.1-0.7-1.1,0l0,0.1l0,0.1l0,0.1l0,0.1l0,0.1l0,0.1l0,0.1l0,0.1
		l0,0.1l0,0.1l0,0.1l0,0.1l0,0.1C352.9,397.3,354,397.4,354,396.6L354,396.6z M353.6,400.9l0-0.1l0-0.1l0-0.1l0-0.1l0-0.1l0-0.1
		l0-0.1l0-0.1c0-0.8-1.1-0.7-1.1-0.1l0,0.1l0,0.1l0,0.1l0,0.1l0,0.1l0,0.1l0,0.1l0,0.1l0,0.1C352.5,401.6,353.4,401.7,353.6,400.9
		L353.6,400.9z M353.1,405.1l0-0.2l0-0.2l0-0.2l0-0.2l0-0.2l0-0.1c0.1-0.6-0.9-0.9-1.1-0.1l0,0.1l0,0.2l0,0.2l0,0.2l0,0.2l0,0.2
		l0,0.1c-0.1,0.6,0.9,0.9,1.1,0.1L353.1,405.1z M352.5,409.4l0-0.2l0-0.2l0-0.2l0-0.2l0-0.2l0-0.1c0.1-0.6-0.9-0.9-1.1-0.1l0,0.1
		l0,0.2l0,0.2l0,0.2l0,0.2l0,0.2l0,0.1c-0.1,0.6,0.9,0.9,1.1,0.2L352.5,409.4z M351.8,413.7l0-0.2l0-0.2l0-0.2l0-0.2l0-0.2l0-0.1
		c0.1-0.6-0.9-0.9-1.1-0.2l0,0.1l0,0.2l0,0.2l0,0.2l0,0.2l0,0.2l0,0.1l0,0.1c0,0.5,0.9,0.8,1.1,0.1L351.8,413.7z M351.2,418l0-0.2
		l0-0.2l0-0.2l0-0.2l0-0.2l0-0.2l0,0l0,0c0-0.8-0.9-0.8-1.1-0.2l0,0l0,0.2l0,0.2l0,0.2l0,0.2l0,0.2l0,0.2l0,0.1l0,0.1
		C350.1,418.5,351,418.7,351.2,418L351.2,418z M350.4,422.2l0-0.1l0-0.1l0-0.1l0-0.1l0-0.1l0-0.1l0-0.1l0-0.1c0-0.6-0.9-0.8-1.1-0.1
		l0,0.1l0,0.1l0,0.1l0,0.1l0,0.1l0,0.1l0,0.1l0,0.1l0,0.1c0,0.6,0.9,0.8,1.1,0.1L350.4,422.2z M349.5,426.5L349.5,426.5l0-0.2l0-0.1
		l0-0.1l0-0.1l0-0.1l0-0.1l0-0.1l0-0.1l0-0.1c0-0.2,0-0.3-0.1-0.4c-0.3-0.4-0.8-0.2-0.9,0.2l0,0.1l0,0.1l0,0.1l0,0.1l0,0.1l0,0.1
		l0,0.1l0,0.1l0,0.1l0,0.1l0,0C348.3,427,349.3,427.2,349.5,426.5L349.5,426.5z M282.8,435.9l0-0.5l0-0.5c0-0.7-1.1-0.7-1.1,0l0,0.5
		l0,0.5l0,0.1c0,0.7,1.1,0.7,1.1,0L282.8,435.9z M282.9,440l0-0.5l0-0.2c0-0.7-1.1-0.7-1.1,0l0,0.2l0,0.5l0,0.3c0,0.7,1.1,0.7,1.1,0
		L282.9,440z M283,444.3l0-0.6l0-0.2c0-0.7-1.1-0.7-1.1,0l0,0.2l0,0.6l0,0.3c0,0.7,1.1,0.7,1.1,0L283,444.3z M283.1,448.8l0-0.6
		l0-0.4c0-0.7-1.1-0.7-1.1,0l0,0.4l0,0.6l0,0.1C282,449.6,283.1,449.6,283.1,448.8L283.1,448.8z M283.2,452.9l0-0.6l0-0.2
		c0-0.7-1.1-0.7-1.1,0l0,0.2l0,0.6l0,0.3c0,0.7,1.1,0.7,1.1,0L283.2,452.9z M283.4,457.2l0-0.6l0-0.2c0-0.7-1.1-0.7-1.1,0l0,0.2
		l0,0.6l0,0.3c0,0.7,1.1,0.7,1.1,0L283.4,457.2z M283.5,461.6l0-0.6l0-0.3c0-0.7-1.1-0.7-1.1,0l0,0.3l0,0.6l0,0.2
		c0,0.7,1.1,0.7,1.1,0L283.5,461.6z M283.6,465.5l0-0.5c0-0.7-1.1-0.7-1.1,0l0,0.5l0,0.6c0,0.7,1.1,0.7,1.1,0L283.6,465.5z
		 M283.7,470.1l0-0.7l0-0.2c0-0.7-1.1-0.7-1.1,0l0,0.2l0,0.7l0,0.2c0,0.7,1.1,0.7,1.1,0L283.7,470.1z M283.9,474.2l0-0.6
		c0-0.7-1.1-0.7-1.1,0l0,0.6l0,0.5c0,0.7,1.1,0.7,1.1,0L283.9,474.2z M284,478.9l0-0.7l0-0.4c0-0.7-1.1-0.7-1.1,0l0,0.4l0,0.7l0,0
		C282.9,479.7,284,479.7,284,478.9L284,478.9z M284.1,483.1l0-0.7l0-0.2c0-0.7-1.1-0.7-1.1,0l0,0.2l0,0.7l0,0.2c0,0.7,1.1,0.7,1.1,0
		L284.1,483.1z M284.2,487.3l0-0.7l0-0.1c0-0.7-1.1-0.7-1.1,0l0,0.1l0,0.7l0,0.3c0,0.7,1.1,0.7,1.1,0L284.2,487.3z M284.3,491.5
		l0-0.7c0-0.7-1.1-0.7-1.1,0l0,0.7l0,0.4c0,0.7,1.1,0.7,1.1,0L284.3,491.5z M284.4,495.7l0-0.6c0-0.7-1.1-0.7-1.1,0l0,0.6l0,0.5
		c0,0.7,1.1,0.7,1.1,0L284.4,495.7z M284.5,499.9l0-0.5c0-0.7-1.1-0.7-1.1,0l0,0.5l0,0.5c0,0.7,1.1,0.7,1.1,0L284.5,499.9z
		 M284.6,504.2l0-0.5c0-0.7-1.1-0.7-1.1,0l0,0.5l0,0.6c0,0.7,1.1,0.7,1.1,0L284.6,504.2z M284.6,508.4l0-0.4c0-0.7-1.1-0.7-1.1,0
		l0,0.4l0,0.7c0,0.7,1.1,0.7,1.1,0L284.6,508.4z M284.7,513.3l0-0.7l0-0.3c0-0.7-1.1-0.7-1.1,0l0,0.3l0,0.7v0.1
		C283.6,514.1,284.7,514.1,284.7,513.3L284.7,513.3z M284.7,517.5l0-0.7l0-0.2c0-0.7-1.1-0.7-1.1,0l0,0.2l0,0.7v0.2
		c0,0.7,1.1,0.7,1.1,0V517.5z M284.7,521.6l0-0.7l0-0.1c0-0.7-1.1-0.7-1.1,0l0,0.1v0.7v0.3l0,0.1c0.1,0.7,1.1,0.5,1.1-0.1V521.6z
		 M284.7,525.7l0-0.5c0-0.7-1.1-0.7-1.1,0l0,0.5l0,0.5c0,0.7,1.1,0.7,1.1,0L284.7,525.7z M284.7,530.4l0-0.7l0-0.3
		c0-0.7-1.1-0.7-1.1,0l0,0.3l0,0.7l0,0.1c0,0.7,1.1,0.7,1.1,0L284.7,530.4z M284.6,534.4l0-0.6c0-0.7-1.1-0.7-1.1,0l0,0.6l0,0.5
		c0,0.7,1.1,0.7,1.1,0L284.6,534.4z M284.5,538.9l0-0.6l0-0.2c0-0.7-1.1-0.7-1.1,0l0,0.2l0,0.6l0,0.2c0,0.7,1.1,0.7,1.1,0
		L284.5,538.9z M284.4,543.4l0-0.6l0-0.3c0-0.7-1.1-0.7-1.1,0l0,0.3l0,0.6l0,0.1c0,0.7,1.1,0.7,1.1,0L284.4,543.4z M284.2,547.6
		l0-0.6l0-0.3c0-0.7-1.1-0.7-1.1,0l0,0.3l0,0.6l0,0.1c0,0.7,1.1,0.7,1.1,0L284.2,547.6z M284,551.8l0-0.6l0-0.2
		c0-0.7-1.1-0.7-1.1-0.1l0,0.2l0,0.6l0,0.3c0,0.7,1.1,0.7,1.1,0.1L284,551.8z M283.8,556.3l0-0.6l0-0.5c0-0.8-1.1-0.7-1.1-0.1l0,0.5
		l0,0.6l0,0C282.7,557,283.8,557,283.8,556.3L283.8,556.3z M283.4,560.6l0-0.5l0-0.5c0-0.8-1.1-0.7-1.1-0.1l0,0.5l0,0.5l0,0
		C282.3,561.4,283.4,561.3,283.4,560.6L283.4,560.6z M283,564.7l0.1-0.5l0-0.3c0-0.8-1.1-0.7-1.1-0.1l0,0.3l-0.1,0.5l0,0.3
		c0,0.7,0.9,0.8,1.1,0.1L283,564.7z M282.5,568.9l0.1-0.5l0-0.3c0.1-0.6-0.9-0.9-1.1-0.1l0,0.3l-0.1,0.4l0,0.3
		c-0.1,0.6,0.9,0.9,1.1,0.2L282.5,568.9z M281.8,573.2l0.1-0.4l0.1-0.4l0-0.1c0-0.6-0.9-0.8-1.1-0.1l-0.1,0.4l-0.1,0.4l-0.1,0.3l0,0
		c0,0.8,0.9,0.8,1.1,0.2L281.8,573.2z M280.8,577.7l0.1-0.3l0.1-0.3l0.1-0.3l0-0.1c0-0.7-0.9-0.8-1.1-0.2l-0.1,0.3l-0.1,0.3
		l-0.1,0.3l0,0C279.6,578.2,280.6,578.4,280.8,577.7L280.8,577.7z M279.5,581.6l0.1-0.3l0.1-0.3l0.1-0.2l0-0.1c0.1-0.5-0.7-1-1-0.3
		l-0.1,0.2l-0.1,0.3l-0.1,0.3l-0.1,0.2l0,0c-0.2,0.7,0.7,1,1,0.4L279.5,581.6z M277.6,585.5l0.1-0.3l0.1-0.3l0.1-0.2l0-0.1
		c0.2-0.7-0.7-1-1-0.4l-0.1,0.2l-0.1,0.3l-0.1,0.3l-0.1,0.2l0,0c-0.3,0.7,0.7,1.1,1,0.5L277.6,585.5z M275.8,589.5l0.1-0.3l0.1-0.3
		l0.1-0.1c0.1-0.2,0-0.5-0.1-0.6c-0.3-0.3-0.7-0.2-0.9,0.2l-0.1,0.1l-0.1,0.3l-0.1,0.3l-0.1,0.2l0,0c-0.2,0.6,0.7,1.1,1,0.4
		L275.8,589.5z M274.2,593.4l0.2-0.4l0.2-0.4l0,0l0,0c0.2-0.6-0.7-1.1-1-0.4l0,0l-0.2,0.4l-0.2,0.4l-0.1,0.2l0,0
		c-0.2,0.7,0.7,1,1,0.4L274.2,593.4z M272.6,597.5l0.2-0.4l0.2-0.4l0-0.1l0-0.1c0.1-0.6-0.7-1-1-0.3l0,0.1l-0.2,0.4l-0.2,0.4l0,0.1
		l0,0.1C271.4,597.8,272.2,598.3,272.6,597.5L272.6,597.5z M271,601.5l0.2-0.5l0.2-0.5l0,0l0,0c0.2-0.7-0.7-1-1-0.4l0,0l-0.2,0.5
		l-0.2,0.5l0,0.1l0,0.1C269.8,601.9,270.7,602.3,271,601.5L271,601.5z M269.6,605.3l0.2-0.5l0.1-0.2l0-0.1c0.1-0.5-0.7-0.9-1-0.3
		l-0.1,0.2l-0.2,0.5l-0.1,0.3l0,0.1c-0.1,0.5,0.7,0.9,1,0.3L269.6,605.3z M268.2,609.4l0.2-0.5l0.1-0.2l0-0.1c0-0.7-0.8-0.8-1-0.3
		l-0.1,0.2l-0.2,0.5l-0.1,0.3l0,0.1c-0.1,0.5,0.7,1,1,0.3L268.2,609.4z M266.7,613.6l0.2-0.5l0.1-0.3c0.2-0.7-0.7-1-1-0.4l-0.1,0.3
		l-0.2,0.5l-0.1,0.2c-0.2,0.7,0.7,1,1,0.4L266.7,613.6z M265.4,617.4l0.2-0.6l0,0c0.2-0.7-0.7-1-1-0.4l0,0l-0.2,0.5l-0.1,0.4
		c-0.2,0.8,0.9,0.9,1,0.3L265.4,617.4z M263.8,621.8l0.2-0.6l0.1-0.4c0.2-0.8-0.9-0.9-1-0.3l-0.1,0.4l-0.2,0.6l0,0
		C262.6,622.3,263.7,622.5,263.8,621.8L263.8,621.8z M262.5,625.8l0.2-0.6l0.1-0.4c0.2-0.7-0.9-1-1-0.3l-0.1,0.4l-0.2,0.6l0,0.1
		C261.3,626.4,262.3,626.5,262.5,625.8L262.5,625.8z M261.2,629.9l0.2-0.6l0.1-0.3c0.2-0.8-0.9-0.9-1-0.3l-0.1,0.3l-0.2,0.6l0,0.1
		C259.9,630.4,261,630.6,261.2,629.9L261.2,629.9z M259.8,634l0.2-0.6l0.1-0.4c0.2-0.7-0.9-1-1-0.3l-0.1,0.4l-0.2,0.6l0,0.1
		C258.6,634.5,259.7,634.7,259.8,634L259.8,634z M258.7,637.6l0.1-0.4c0.2-0.8-0.9-0.9-1-0.3l-0.1,0.4l-0.2,0.6
		c-0.2,0.8,0.9,0.9,1,0.3L258.7,637.6z M257.4,641.8l0.2-0.5c0.2-0.7-0.9-1-1-0.3l-0.2,0.5l-0.2,0.5c-0.2,0.7,0.9,1,1,0.3
		L257.4,641.8z M256.1,646l0.2-0.6l0,0c0.2-0.7-0.9-0.9-1-0.3l0,0l-0.2,0.6l-0.1,0.4c-0.2,0.7,0.9,0.9,1,0.3L256.1,646z
		 M254.8,650.2l0.2-0.6l0-0.1c0.2-0.7-0.9-0.9-1-0.3l0,0.1l-0.2,0.6l-0.1,0.3c-0.2,0.7,0.9,0.9,1,0.3L254.8,650.2z M253.6,654.4
		l0.2-0.6l0.1-0.2c0.2-0.7-0.9-0.9-1-0.3l-0.1,0.2l-0.2,0.6l-0.1,0.3c-0.2,0.7,0.9,0.9,1,0.3L253.6,654.4z M252.4,658.5l0.2-0.6
		l0.1-0.2c0.2-0.7-0.9-0.9-1-0.3l-0.1,0.2l-0.2,0.6l-0.1,0.3c-0.2,0.7,0.9,0.9,1,0.3L252.4,658.5z M251.2,662.6l0.2-0.6l0-0.1
		c0.2-0.7-0.9-0.9-1-0.3l0,0.1l-0.2,0.6l-0.1,0.3c-0.2,0.7,0.9,0.9,1,0.3L251.2,662.6z M250.1,666.6l0.2-0.6l0,0
		c0.2-0.7-0.9-0.9-1-0.3l0,0l-0.2,0.6l-0.1,0.4c-0.2,0.7,0.9,0.9,1,0.3L250.1,666.6z M248.9,671.1l0.1-0.6l0.1-0.4
		c0.2-0.7-0.9-0.9-1-0.3l-0.1,0.4l-0.1,0.6l0,0.1c-0.2,0.7,0.9,0.9,1,0.3L248.9,671.1z M247.9,674.9l0.1-0.5l0,0
		c0.2-0.7-0.9-0.9-1-0.3l0,0l-0.1,0.5l-0.1,0.5c-0.2,0.7,0.9,0.9,1,0.3L247.9,674.9z M246.9,679.1l0.1-0.5l0-0.1l0-0.1
		c0-0.7-0.9-0.7-1.1-0.1l0,0.1l-0.1,0.5l-0.1,0.4c0,0.1,0,0.3,0.1,0.4c0.2,0.4,0.9,0.3,1-0.2L246.9,679.1z M245.8,683.6l0.1-0.5
		l0.1-0.5l0,0c0-0.8-0.9-0.8-1.1-0.2l-0.1,0.5l-0.1,0.5l0,0.1c0,0.1,0,0.4,0.1,0.4C245,684.2,245.6,684.1,245.8,683.6L245.8,683.6z
		 M244.8,687.8l0.1-0.5l0.1-0.5l0-0.1l0-0.1c0-0.7-0.9-0.8-1.1-0.1l0,0.1l-0.1,0.5l-0.1,0.5l0,0l0,0
		C243.6,688.3,244.6,688.6,244.8,687.8L244.8,687.8z M244,691.8l0.1-0.4l0.1-0.4l0,0c0-0.8-0.9-0.8-1.1-0.2l-0.1,0.4l-0.1,0.4
		l-0.1,0.3c0,0.1,0,0.2,0,0.2c0.1,0.5,0.9,0.6,1,0L244,691.8z M243.2,696.2l0.1-0.4l0.1-0.4l0-0.2l0-0.1c0-0.6-0.9-0.8-1.1-0.1
		l0,0.2l-0.1,0.4l-0.1,0.4l0,0.1l0,0C242.1,696.9,243,696.9,243.2,696.2L243.2,696.2z M242.6,700.3l0-0.3l0-0.3l0-0.2
		c0.1-0.6-0.9-0.9-1.1-0.1l0,0.2l0,0.3l0,0.3l0,0.2c-0.1,0.6,0.9,0.9,1.1,0.1L242.6,700.3z M242.3,704.7v-0.2l0-0.2l0-0.2l0-0.2l0,0
		c0-0.8-1.1-0.7-1.1-0.1l0,0l0,0.3l0,0.3l0,0.2l0,0.2v0.1c0,0.3,0.2,0.5,0.4,0.5C242,705.3,242.3,705,242.3,704.7L242.3,704.7z
		 M242.2,708.9l0-0.2l0-0.2l0-0.2l0-0.2l0-0.1c0-0.7-1.1-0.7-1.1,0l0,0.1l0,0.2l0,0.2l0,0.2l0,0.2l0,0.1c0,0.7,1.1,0.7,1.1,0.1
		L242.2,708.9z M241.8,713.3l0-0.2l0-0.2l0-0.2l0-0.2l0-0.2l0-0.2l0-0.1c0.1-0.6-0.9-0.9-1.1-0.1l0,0.1l0,0.2l0,0.2l0,0.2l0,0.1
		l0,0.2l0,0.1l0,0C240.6,713.8,241.6,714.1,241.8,713.3L241.8,713.3z M240.9,717.6l0-0.1l0-0.1l0-0.1l0-0.1l0-0.1l0-0.1l0-0.1l0-0.1
		l0-0.1l0-0.1c0-0.6-0.9-0.7-1.1-0.1l0,0.1l0,0.1l0,0.1l0,0.1l0,0.1l0,0.1l0,0.1l0,0.1l0,0.1l0,0.1
		C239.7,718.1,240.7,718.3,240.9,717.6L240.9,717.6z M239.4,721.7L239.4,721.7l0.1-0.1l0-0.1l0-0.1l0-0.1l0-0.1l0-0.1l0-0.1l0-0.1
		l0-0.1l0-0.1l0-0.1l0-0.1l0-0.1l0-0.1c0.1-0.6-0.7-0.9-1-0.3l0,0.1l0,0.1l0,0.1l0,0.1l0,0.1l0,0.1l0,0.1l0,0.1l0,0.1l0,0.1l0,0.1
		l0,0.1l0,0.1l0,0.1l0,0c0,0.1,0,0.1,0,0.2C238.3,722.1,239.1,722.3,239.4,721.7L239.4,721.7z M237.9,725.6L237.9,725.6l0-0.1l0-0.1
		l0-0.1l0-0.1l0-0.1l0-0.1l0-0.1l0-0.1l0-0.1l0-0.1l0-0.1l0-0.1l0,0l0-0.1l0-0.1l0-0.1l0,0c0.2-0.8-0.9-0.9-1-0.3l0,0l0,0.1l0,0.1
		l0,0.1l0,0.1l0,0.1l0,0.1l0,0.1l0,0.1l0,0.1l0,0.1l0,0.1l0,0.1l0,0.1l0,0.1l0,0.1l0,0.1l0,0.1l0,0l0,0.1
		C236.8,726.1,237.7,726.3,237.9,725.6L237.9,725.6z M238.1,729.6L238.1,729.6l0-0.2l0-0.1l0-0.1l0-0.1l0-0.1l0-0.1l0-0.1l0-0.1
		l0-0.1l0-0.1c-0.2-0.7-1.2-0.4-1.1,0.2l0,0.1l0,0.1l0,0.1l0,0.1l0,0.1l0,0.1l0,0.1l0,0.1l0,0.1l0,0.1l0,0.1l0,0.1
		C237.3,730.6,238.3,730.3,238.1,729.6L238.1,729.6z M239.1,733.8l0-0.1l0-0.1l0-0.1l0-0.1l0-0.1l0-0.1l0-0.1l0-0.1l0-0.1
		c-0.3-0.7-1.2-0.3-1,0.3l0,0.1l0,0.1l0,0.1l0,0.1l0,0.1l0,0.1l0,0.1l0,0.1l0,0.1C238.2,734.8,239.2,734.5,239.1,733.8L239.1,733.8z
		 M239.7,738l0-0.2l0-0.2l0-0.2l0-0.2l0-0.2l0-0.2l0,0c-0.2-0.8-1.2-0.5-1.1,0.1l0,0l0,0.2l0,0.2l0,0.2l0,0.2l0,0.2l0,0.2l0,0.1
		c0,0.2,0.1,0.3,0.2,0.4c0.4,0.2,0.9-0.1,0.8-0.5L239.7,738z M240.2,742.4l0-0.2l0-0.2l0-0.2l0-0.2l0-0.2l0-0.2l0,0
		c0-0.6-1.1-0.7-1.1,0.1l0,0l0,0.2l0,0.2l0,0.2l0,0.2l0,0.2l0,0.2l0,0C239.1,743.1,240.2,743.3,240.2,742.4L240.2,742.4z
		 M240.5,746.6l0-0.2l0-0.2l0-0.2l0-0.2l0-0.2l0-0.1c0-0.6-1.1-0.7-1.1,0.1l0,0.1l0,0.2l0,0.2l0,0.2l0,0.2l0,0.2l0,0.1
		c0,0.6,1.1,0.7,1.1-0.1L240.5,746.6z M240.8,750.9l0-0.2l0-0.2l0-0.2l0-0.2l0-0.2l0-0.1c0-0.6-1.1-0.7-1.1,0.1l0,0.1l0,0.2l0,0.2
		l0,0.2l0,0.2l0,0.2l0,0.2c0,0.6,1.1,0.7,1.1-0.1L240.8,750.9z M241,755.3l0-0.2l0-0.2l0-0.2l0-0.2l0-0.2l0-0.2l0-0.1
		c0-0.7-1.1-0.7-1.1,0l0,0.1l0,0.2l0,0.2l0,0.2l0,0.2l0,0.2l0,0.2v0C239.9,756,241,756.1,241,755.3L241,755.3z M241,759.6l0-0.1
		v-0.1v-0.1l0-0.1l0-0.1v-0.1v-0.1c0-0.3-0.2-0.5-0.4-0.5c-0.3-0.1-0.7,0.2-0.7,0.5v0.1v0.1l0,0.1l0,0.1v0.1l0,0.1v0.1l0,0.1
		c0,0.7,1.1,0.7,1.1,0L241,759.6z M313.9,592.9l0-0.2l0-0.2l0-0.2l0-0.2l0-0.2l0,0c0-0.8-0.9-0.8-1.1-0.2l0,0.2l0,0.2l0,0.2l0,0.2
		l0,0.2l0,0l0,0C312.8,593.5,313.7,593.6,313.9,592.9L313.9,592.9z M313.2,597l0-0.2l0-0.2l0-0.2l0-0.2l0,0l0-0.1
		c0-0.6-0.9-0.8-1.1-0.1l0,0l0,0.2l0,0.2l0,0.2l0,0.2l0,0.2l0,0.1c0,0.6,0.9,0.8,1.1,0.1L313.2,597z M312.5,601.3l0-0.2l0-0.2l0-0.2
		l0-0.2l0-0.1l0-0.1c0-0.6-0.9-0.8-1.1-0.1l0,0.1l0,0.2l0,0.2l0,0.2l0,0.2l0,0.1l0,0.1C311.4,601.9,312.3,602.1,312.5,601.3
		L312.5,601.3z M311.7,605.5l0-0.2l0-0.2l0-0.2l0-0.2l0,0l0-0.1c0-0.6-0.9-0.8-1.1-0.1l0,0l0,0.2l0,0.2l0,0.2l0,0.2l0,0.2l0,0.1
		c0,0.6,0.9,0.8,1.1,0.1L311.7,605.5z M310.9,609.8l0-0.2l0-0.2l0-0.2l0-0.2l0-0.1l0-0.1c0-0.6-0.9-0.8-1.1-0.1l0,0.1l0,0.2l0,0.2
		l0,0.2l0,0.2l0,0l0,0.1C309.8,610.4,310.7,610.6,310.9,609.8L310.9,609.8z M310.2,613.9l0-0.2l0-0.2l0-0.2l0-0.2l0,0l0-0.1
		c0-0.6-0.9-0.8-1.1-0.1l0,0l0,0.2l0,0.2l0,0.2l0,0.2l0,0.2c0,0.1,0,0.2,0,0.2c0.1,0.5,0.9,0.6,1.1,0L310.2,613.9z M309.4,618.2
		l0-0.2l0-0.2l0-0.2l0-0.2l0-0.1l0-0.1c0-0.6-0.9-0.8-1.1-0.1l0,0.1l0,0.2l0,0.2l0,0.2l0,0.2l0,0.1l0,0.1c0,0.6,0.9,0.8,1.1,0.1
		L309.4,618.2z M308.7,622.5l0-0.2l0-0.2l0-0.2l0-0.2l0-0.2l0,0c0-0.8-0.9-0.8-1.1-0.2l0,0.2l0,0.2l0,0.2l0,0.2l0,0.2l0,0l0,0
		C307.6,623.2,308.5,623.2,308.7,622.5L308.7,622.5z M308,626.7l0-0.2l0-0.2l0-0.2l0-0.2l0-0.2l0-0.1c0-0.5-0.9-0.8-1.1-0.1l0,0.2
		l0,0.2l0,0.2l0,0.2l0,0.2l0,0.1C306.8,627.3,307.9,627.6,308,626.7L308,626.7z M307.5,630.9l0-0.2l0-0.2l0-0.2l0-0.2l0-0.2
		c0.1-0.6-0.9-0.9-1.1-0.1l0,0.2l0,0.2l0,0.2l0,0.2l0,0.2l0,0.2c-0.1,0.6,0.9,0.9,1.1,0.1L307.5,630.9z M306.9,635.3l0-0.2l0-0.2
		l0-0.2l0-0.2l0-0.2l0-0.2l0,0c0-0.7-0.9-0.8-1.1-0.1l0,0l0,0.2l0,0.2l0,0.2l0,0.2l0,0.2l0,0.2v0l0,0
		C305.9,636,306.9,635.9,306.9,635.3L306.9,635.3z M306.6,639.4l0-0.1l0-0.2l0-0.2l0-0.2l0-0.2l0-0.2l0,0c0-0.8-1.1-0.7-1.1-0.1l0,0
		l0,0.2l0,0.2l0,0.2l0,0.2l0,0.2l0,0.2l0,0.1c0,0.8,1.1,0.7,1.1,0.1L306.6,639.4z M306.5,643.8l0-0.1l0-0.1l0-0.1l0-0.1l0-0.1l0-0.1
		l0-0.1l0-0.1c0-0.7-1.1-0.7-1.1,0l0,0.1l0,0.1l0,0.1l0,0.1l0,0.1l0,0.1l0,0.1l0,0.1l0,0.1C305.4,644.6,306.5,644.5,306.5,643.8
		L306.5,643.8z M306,648.1l0-0.1l0-0.1l0-0.1l0-0.1l0-0.1l0-0.1l0-0.1l0-0.1c0.1-0.6-0.9-0.9-1.1-0.2l0,0l0,0.1l0,0.1l0,0.1l0,0.1
		l0,0.1l0,0.1l0,0.1l0,0.1l0,0.1C304.9,648.7,305.8,648.9,306,648.1L306,648.1z M305.1,652.3l0-0.1l0-0.1l0-0.1l0-0.1l0-0.1l0-0.1
		l0-0.1l0,0l0,0c0-0.8-0.9-0.8-1.1-0.2l0,0l0,0.1l0,0.1l0,0.1l0,0.1l0,0.1l0,0.1l0,0.1l0,0.1c-0.2,0.7,0.9,0.9,1,0.3L305.1,652.3z
		 M304,656.6l0-0.1l0-0.1l0-0.1l0-0.1l0-0.1l0-0.1l0-0.1l0-0.1c0.2-0.7-0.9-0.9-1-0.3l0,0.1l0,0.1l0,0.1l0,0.1l0,0.1l0,0.1l0,0.1
		l0,0.1l0,0C302.7,657,303.8,657.3,304,656.6L304,656.6z M302.8,660.6l0-0.1l0-0.1l0-0.1l0-0.1l0-0.1l0-0.1l0-0.1l0-0.1
		c0.2-0.7-0.9-0.9-1-0.3l0,0.1l0,0.1l0,0.1l0,0.1l0,0.1l0,0.1l0,0.1l0,0.1l0,0.1C301.6,661.2,302.6,661.4,302.8,660.6L302.8,660.6z
		 M301.8,664.8l0-0.1l0-0.1l0-0.1l0-0.1l0-0.1l0-0.1l0-0.1l0-0.1l0-0.1c0-0.6-0.9-0.8-1.1-0.1l0,0.1l0,0.1l0,0.1l0,0.1l0,0.1l0,0.1
		l0,0.1l0,0.1l0,0.1l0,0C300.7,665.5,301.7,665.5,301.8,664.8L301.8,664.8z M301.2,669l0-0.1l0-0.1l0-0.1l0-0.1l0-0.1l0-0.1l0-0.1
		l0-0.1l0,0c0.1-0.6-0.9-0.9-1.1-0.1l0,0l0,0.1l0,0.1l0,0.1l0,0.1l0,0.1l0,0.1l0,0.1l0,0.1l0,0C300.1,669.8,301.2,669.7,301.2,669
		L301.2,669z M301.1,673.2l0-0.1l0-0.1l0-0.1l0-0.1l0-0.1l0-0.1l0-0.1l0-0.1c0-0.7-1.1-0.7-1.1,0l0,0.1l0,0.1l0,0.1l0,0.1l0,0.1
		l0,0.1l0,0.1l0,0.1l0,0.1c0,0.6,1.1,0.7,1.1-0.1L301.1,673.2z M301.7,677.4l0-0.1l0-0.1l0-0.1l0-0.1l0-0.1l0-0.1l0-0.1l0-0.1
		c-0.2-0.8-1.2-0.4-1.1,0.2l0,0.1l0,0.1l0,0.1l0,0.1l0,0.1l0,0.1l0,0.1l0,0.1l0,0.1C300.9,678.4,301.9,678.1,301.7,677.4
		L301.7,677.4z M302.4,681.7l0-0.1l0-0.1l0-0.1l0-0.1l0-0.1l0-0.1l0-0.1l0,0c-0.1-0.3-0.3-0.5-0.7-0.4c-0.2,0.1-0.4,0.3-0.4,0.6l0,0
		l0,0.1l0,0.1l0,0.1l0,0.1l0,0.1l0,0.1l0,0.1l0,0C301.6,682.7,302.6,682.3,302.4,681.7L302.4,681.7z M303.1,686l0-0.1l0-0.1l0-0.1
		l0-0.1l0-0.1l0-0.1l0-0.1l0-0.1l0-0.1c-0.3-0.7-1.2-0.2-1,0.3l0,0l0,0.1l0,0.1l0,0.1l0,0.1l0,0.1l0,0.1l0,0.1v0
		C302.2,686.9,303.3,686.6,303.1,686L303.1,686z M303.8,690.2l0-0.1l0-0.1l0-0.1l0-0.1l0-0.1l0-0.1l0-0.1c-0.1-0.7-1.2-0.5-1.1,0.2
		l0,0.1l0,0.1l0,0.1l0,0.1l0,0.1l0,0.1l0,0.1l0,0.1C302.9,691.1,303.9,690.9,303.8,690.2L303.8,690.2z M304.3,694.4l0-0.1l0-0.1
		l0-0.1l0-0.1l0-0.1l0-0.1l0-0.1c-0.1-0.7-1.2-0.5-1.1,0.1l0,0.1l0,0.1l0,0.1l0,0.1l0,0.1l0,0.1l0,0.1l0,0.1
		c0.2,0.8,1.2,0.5,1.1-0.1L304.3,694.4z M304.8,698.8l0-0.1l0-0.1l0-0.1l0-0.1l0-0.1l0-0.1l0-0.1l0-0.1c0-0.6-1.1-0.7-1.1,0.1l0,0.1
		l0,0.1l0,0.1l0,0.1l0,0.1l0,0.1l0,0.1l0,0.1l0,0C303.7,699.5,304.8,699.6,304.8,698.8L304.8,698.8z M305,703.1l0-0.1l0-0.1l0-0.1
		l0-0.1l0-0.1l0-0.1l0-0.1l0-0.1l0,0c0-0.6-1.1-0.7-1.1,0.1l0,0l0,0.1l0,0.1l0,0.1l0,0.1l0,0.1l0,0.1l0,0.1l0,0.1v0
		C304,703.8,305,703.9,305,703.1L305,703.1z M339,705.2l0.2,0l0.2,0l0.2,0l0.2,0l0.2,0c0.7-0.2,0.4-1.2-0.2-1l-0.2,0l-0.2,0l-0.2,0
		l-0.2,0l-0.2,0l0,0C338.1,704.4,338.3,705.4,339,705.2L339,705.2z M335,706.1l0.2,0l0.2,0l0.2,0l0.2,0l0,0l0.1,0
		c0.7-0.2,0.4-1.2-0.3-1l0,0l-0.2,0l-0.2,0l-0.2,0l-0.2,0l-0.2,0c-0.7,0.2-0.5,1.2,0.2,1.1L335,706.1z M330.7,706.8l0.2,0l0.2,0
		l0.2,0l0.2,0c0.7-0.2,0.5-1.2-0.2-1.1l-0.2,0l-0.2,0l-0.2,0l-0.2,0l-0.2,0l-0.1,0c-0.6,0.2-0.4,1.2,0.2,1L330.7,706.8z
		 M326.3,707.4l0.2,0l0.2,0l0.2,0l0.2,0l0.1,0c0.7-0.1,0.5-1.2-0.1-1.1l-0.1,0l-0.2,0l-0.2,0l-0.2,0l-0.2,0l-0.1,0
		C325.4,706.5,325.5,707.4,326.3,707.4L326.3,707.4z M322.1,707.7l0.2,0l0.2,0l0.2,0l0.2,0c0.6,0,0.7-1.1-0.1-1.1l-0.2,0l-0.2,0
		l-0.2,0l-0.2,0l-0.2,0c-0.6,0-0.7,1.1,0.1,1.1L322.1,707.7z M317.6,707.9l0.2,0l0.2,0l0.2,0l0.2,0l0.1,0c0.7,0,0.7-1.1,0-1.1
		l-0.1,0l-0.2,0l-0.2,0l-0.2,0l-0.2,0h0C316.9,706.9,316.9,707.9,317.6,707.9L317.6,707.9z M313.4,707.8l0.2,0l0.2,0l0.2,0l0.2,0
		l0,0c0.7,0,0.7-1.1,0-1.1l0,0l-0.2,0l-0.2,0l-0.2,0l-0.2,0l-0.1,0c-0.7,0-0.7,1.1-0.1,1.1L313.4,707.8z M309.1,707.5l0.2,0l0.2,0
		l0.2,0l0.2,0l0,0c0.8,0,0.7-1.1,0.1-1.1l0,0l-0.2,0l-0.2,0l-0.2,0l-0.2,0l-0.1,0c-0.6-0.1-0.9,0.9-0.1,1.1L309.1,707.5z M304,706.3
		L304,706.3l0,0.2l0,0.1l0,0.1l0,0.1l0,0.1l0,0.1l0,0.1l0,0.1l0,0.1c0,0.7,1.1,0.7,1.1,0.1l0-0.1l0-0.1l0-0.1l0-0.1l0-0.1l0-0.1v0
		l0.1,0l0.2,0l0.2,0l0.2,0l0,0c0.8,0,0.8-0.9,0.2-1.1l-0.2,0l-0.2,0l-0.2,0l-0.2,0l-0.2,0l0,0c-0.1,0-0.4,0-0.4,0.1
		c-0.1,0-0.1,0.1-0.1,0.1C304.2,705.9,304,706.1,304,706.3z M300.6,705.5l0.2,0.1l0.2,0.1l0.2,0.1l0.2,0.1l0.1,0
		c0.7,0.2,1-0.9,0.3-1l-0.1,0l-0.2-0.1l-0.2-0.1l-0.2-0.1l-0.2-0.1l-0.1,0l-0.1,0C300.1,704.4,299.9,705.2,300.6,705.5L300.6,705.5z
		 M296.6,703.7l0.2,0.1l0.2,0.1l0.2,0.1l0.2,0.1l0.2,0.1l0.1,0c0.7,0.2,1-0.7,0.4-1l-0.2-0.1l-0.2-0.1l-0.2-0.1l-0.2-0.1l-0.2-0.1
		l-0.1,0C296.4,702.4,295.9,703.4,296.6,703.7L296.6,703.7z M273.6,759.4l0.3-0.1l0.3-0.1l0.3-0.1l0.1,0c0.8-0.4,0.1-1.3-0.4-1
		l-0.1,0l-0.3,0.1l-0.3,0.1l-0.3,0.1l-0.2,0.1c-0.7,0.3-0.3,1.2,0.4,1L273.6,759.4z M269.4,760.8l0.2-0.1l0.2-0.1l0.2-0.1l0.2-0.1
		l0,0c0.6-0.2,0.4-1.2-0.4-1l-0.2,0.1l-0.2,0.1l-0.2,0.1l-0.2,0.1l-0.1,0c-0.2,0-0.3,0.2-0.4,0.4C268.5,760.6,268.9,761,269.4,760.8
		L269.4,760.8z M265.3,762.1l0.2-0.1l0.2-0.1l0.2-0.1l0.2-0.1c0.1,0,0.1,0,0.2-0.1c0.5-0.4,0.1-1.1-0.5-1l-0.2,0.1l-0.2,0.1
		l-0.2,0.1l-0.2,0.1l-0.2,0c-0.2,0-0.3,0.2-0.4,0.4c-0.1,0.4,0.3,0.8,0.7,0.7L265.3,762.1z M261.2,763.2l0.2-0.1l0.2-0.1l0.2-0.1
		l0.2,0l0,0c0.7-0.3,0.3-1.2-0.3-1l-0.2,0l-0.2,0.1l-0.2,0.1l-0.2,0.1l-0.2,0c-0.7,0.2-0.4,1.2,0.3,1L261.2,763.2z M257,764.1l0.2,0
		l0.2,0l0.2,0l0.2,0c0.7-0.2,0.4-1.2-0.2-1.1l-0.2,0l-0.2,0l-0.2,0l-0.2,0l-0.2,0c-0.8,0.2-0.4,1.2,0.2,1.1L257,764.1z M252.5,764.8
		l0.2,0l0.2,0l0.2,0l0.2,0l0.2,0l0,0c0.7-0.1,0.5-1.2-0.2-1.1l0,0l-0.2,0l-0.2,0l-0.2,0l-0.2,0l-0.2,0l0,0
		C251.6,763.9,251.9,764.9,252.5,764.8L252.5,764.8z M248.2,765.2l0.2,0l0.2,0l0.2,0l0.2,0l0.2,0l0.1,0c0.6,0,0.7-1.1-0.1-1.1
		l-0.1,0l-0.2,0l-0.2,0l-0.2,0l-0.2,0l-0.2,0h0C247.5,764.2,247.4,765.2,248.2,765.2L248.2,765.2z M244,765.3l0.2,0l0.2,0l0.2,0
		l0.2,0l0.1,0c0.3,0,0.5-0.2,0.5-0.4c0.1-0.3-0.2-0.7-0.5-0.7h-0.1l-0.2,0l-0.2,0l-0.2,0l-0.2,0l-0.2,0c-0.7,0-0.7,1.1,0,1.1
		L244,765.3z M239.6,765l0.2,0l0.2,0l0.2,0l0.2,0l0.2,0l0.1,0c0.7,0,0.7-0.9,0.3-1l0-0.1l0-0.1l0-0.1l0-0.1l0-0.1l0-0.1l0-0.1l0-0.1
		l0-0.1l0-0.1l0-0.1c0-0.7-1.1-0.7-1.1-0.1l0,0.1l0,0.1l0,0.1l0,0.1l0,0.1l0,0.1l0,0.1l0,0.1l0,0.1l0,0.1l0,0l-0.1,0l-0.1,0
		C239.1,763.8,238.7,764.8,239.6,765L239.6,765z M344,704.1l-0.2,0l-0.2,0l-0.2,0l-0.2,0l0,0c-0.6,0.2-1-0.8-0.3-1l0,0l0,0l0.2,0
		l0.2,0l0.2,0l0.2,0l0.2,0l0.1,0c0.1,0,0.1,0,0.2,0l0,1.1L344,704.1z M277.7,757.9l-0.2,0.1c-0.4,0.2-0.9-0.3-0.7-0.7
		c0.1-0.2,0.1-0.2,0.3-0.3l0.2-0.1l0.3-0.1l0.3-0.1l0.1,0c0,0.4,0,0.8,0,1.2L277.7,757.9z M236.7,764.4l0-0.3c0-0.2,0-0.4,0-0.6
		C237.1,763.7,237,764.3,236.7,764.4z M360,393.2L360,393.2l0,0.1l0,0.1l0,0.1l0,0.1l0,0.1l0,0.1l0,0.1l0,0.1l0,0.1l0,0.1l0,0.1
		c0,0.7,1.1,0.7,1.1,0l0-0.1l0-0.1l0-0.1l0-0.1l0-0.1l0-0.1l0-0.1l0-0.1l0-0.1l0-0.1l0-0.1l0-0.1l0-0.1c0-0.1,0-0.2-0.1-0.3l-1,0.3
		V393.2L360,393.2z"/>
	<path class="st9" d="M382.7,748.3c-4.8,2.1-12.1,4.6-19.4,6.1c-5.6,1.1-11.1,1.5-15.5,0.5c-6.6-1.5-12.6-4.1-18.9-6.8
		c-4.1-1.8-8.4-3.6-12.9-5.2c-4.3-1.5-7.9-2.4-11.1-3.3c-3.7-1-6.8-1.8-9.9-3.2c-0.1,0.7-0.2,1.4-0.2,2.1c0,0.2,0,0.4,0,0.7
		c3,1.3,6,2,9.5,3c3.1,0.8,6.7,1.8,10.9,3.2c4.5,1.6,8.7,3.4,12.8,5.1c6.4,2.7,12.6,5.4,19.4,6.9c4.8,1.1,10.7,0.7,16.6-0.5
		c7.8-1.5,15.6-4.3,20.5-6.5C384,749.7,383.4,749,382.7,748.3"/>
	<path class="st9" d="M294,795.6c-0.8,2.3-2.8,4.5-6.2,6.1c-3.2,1.5-7.6,2.3-13.4,1.9c-1.3-0.1-2.7-0.2-4-0.2
		c-10.3-0.6-16.5-0.9-32.7-18.6c1.1,2.9,2.6,5,4.3,8c0.1,0.2,0.2,0.4,0.3,0.6c12.3,11.8,18.5,12.1,28,12.6c1.2,0.1,2.5,0.1,3.9,0.2
		c6.3,0.5,11.1-0.5,14.7-2.2c2.7-1.3,4.7-3,6.1-4.9C294.8,798,294.4,796.7,294,795.6"/>
	<path class="st10" d="M314.3,715.9c-0.8,0-1.4,0.6-1.4,1.4c0,0.8,0.6,1.4,1.4,1.4c0.8,0,1.4-0.6,1.4-1.4
		C315.7,716.6,315.1,715.9,314.3,715.9"/>
	<path class="st10" d="M321.7,724.5c-0.8,0-1.4,0.6-1.4,1.4c0,0.8,0.6,1.4,1.4,1.4c0.8,0,1.4-0.6,1.4-1.4
		C323.1,725.2,322.4,724.5,321.7,724.5"/>
	<path class="st10" d="M328,732.1c-0.8,0-1.4,0.6-1.4,1.4c0,0.8,0.6,1.4,1.4,1.4c0.8,0,1.4-0.6,1.4-1.4
		C329.4,732.8,328.8,732.1,328,732.1"/>
	<path class="st10" d="M334.6,737.4c-0.8,0-1.4,0.6-1.4,1.4c0,0.8,0.6,1.4,1.4,1.4c0.8,0,1.4-0.6,1.4-1.4
		C336,738.1,335.4,737.4,334.6,737.4"/>
	<path class="st10" d="M342,742.2c-0.8,0-1.4,0.6-1.4,1.4c0,0.8,0.6,1.4,1.4,1.4c0.8,0,1.4-0.6,1.4-1.4
		C343.4,742.8,342.7,742.2,342,742.2"/>
	<path class="st10" d="M349.5,746.7c-0.8,0-1.4,0.6-1.4,1.4c0,0.8,0.6,1.4,1.4,1.4c0.8,0,1.4-0.6,1.4-1.4
		C351,747.3,350.3,746.7,349.5,746.7"/>
	<path class="st10" d="M247.4,772.1c-0.8,0-1.4,0.6-1.4,1.4c0,0.8,0.6,1.4,1.4,1.4c0.8,0,1.4-0.6,1.4-1.4
		C248.9,772.7,248.2,772.1,247.4,772.1"/>
	<path class="st10" d="M250.3,779.7c-0.8,0-1.4,0.6-1.4,1.4c0,0.8,0.6,1.4,1.4,1.4c0.8,0,1.4-0.6,1.4-1.4
		C251.7,780.3,251.1,779.7,250.3,779.7"/>
	<path class="st10" d="M255.8,787.9c-0.8,0-1.4,0.6-1.4,1.4c0,0.8,0.6,1.4,1.4,1.4c0.8,0,1.4-0.6,1.4-1.4
		C257.3,788.5,256.6,787.9,255.8,787.9"/>
	<path class="st10" d="M274.9,768.8c-0.8,0-1.4,0.6-1.4,1.4c0,0.8,0.6,1.4,1.4,1.4c0.8,0,1.4-0.6,1.4-1.4
		C276.3,769.5,275.7,768.8,274.9,768.8"/>
	<path class="st10" d="M277.6,776.6c-0.8,0-1.4,0.6-1.4,1.4c0,0.8,0.6,1.4,1.4,1.4c0.8,0,1.4-0.6,1.4-1.4
		C279,777.3,278.4,776.6,277.6,776.6"/>
	<path class="st10" d="M281.5,782.4c-0.8,0-1.4,0.6-1.4,1.4c0,0.8,0.6,1.4,1.4,1.4c0.8,0,1.4-0.6,1.4-1.4
		C282.9,783,282.3,782.4,281.5,782.4"/>
	<path class="st10" d="M364.9,740.1c-0.8,0-1.4,0.6-1.4,1.4c0,0.8,0.6,1.4,1.4,1.4c0.8,0,1.4-0.6,1.4-1.4
		C366.4,740.8,365.7,740.1,364.9,740.1"/>
	<path class="st10" d="M355.9,732.7c-0.8,0-1.4,0.6-1.4,1.4c0,0.8,0.6,1.4,1.4,1.4c0.8,0,1.4-0.6,1.4-1.4
		C357.3,733.4,356.7,732.7,355.9,732.7"/>
	<path class="st10" d="M347.9,725.3c-0.8,0-1.4,0.6-1.4,1.4c0,0.8,0.6,1.4,1.4,1.4c0.8,0,1.4-0.6,1.4-1.4
		C349.3,726,348.7,725.3,347.9,725.3"/>
	<path class="st10" d="M342.6,714.7c-0.8,0-1.4,0.6-1.4,1.4c0,0.8,0.6,1.4,1.4,1.4c0.8,0,1.4-0.6,1.4-1.4
		C344,715.3,343.4,714.7,342.6,714.7"/>
	<path class="st4" d="M232.7,342.6c1.4,4.8,2.5,6.1,4.4,11.7c2.7,8.1,10.9,32,14.1,45c0.4,1.7,0.9,3.3,1.3,4.8
		c15.1,1.8,30.2,1.9,44.9,0.7c2.4-1.7,3.1-3.9,0.8-6.6c-10.3-12.2-7.9-15.2,4.3-19.4c12.2-4.3-10.9-6.7-29.2-10.3
		c-18.2-3.6,0.6-9.7,18.8-14c17.9-4.2-11.8-11.3-28.4-10.4c-0.4,1.1-0.9,2.5-1.2,4.1c-1.2,5.5-0.7,4.7-1.1-4.3
		C249.6,342.2,240.1,341.9,232.7,342.6"/>
	<path class="st0" d="M233.9,346.2c0.9,2.4,1.9,4.2,3.2,8.1c2.7,8.1,10.9,32,14.1,45c3.3,13,6.5,19,6.5,19s0,0.8,0,2.3
		c5.9,5.2,6.5,6.4,11.2,8.3c4.6,1.9,3,6,10.1,8.9c7.1,2.9,8.7-6.4,11.5-2.1c2.8,4.3,6.3,3.2,6.3-1.5c0-4.7,1.2,3.9,8.3,3.9
		c7.1,0-10.2-25.7-13.5-29.5c-3.3-3.8,6.2-1.4,10.9-0.9c4.7,0.5,0-3.8-5.7-8.5c-5.7-4.7-20.8-9.9-25.1-13.3
		c-4.3-3.3-9.5-31.7-11.4-43.6l0,0C251,339.6,241.9,342.2,233.9,346.2"/>
	<path class="st3" d="M294.5,437.7c0-7.6-5.6-12.1-11.3-20.3c-5.6-8.1,14.2,13.9,19.6,20.5c-5.1-1.5-6.1-7.8-6.1-3.6
		c0,2.5-1,4-2.3,4.2L294.5,437.7z M283.8,437.7c0-5.9-8.2-13.8-13.2-20.3c-5.1-6.5,10.4,7.3,16.6,16.3l0.9,1.3
		c-1.1,0.7-2.4,2.3-4.3,3.1C283.8,437.9,283.8,437.8,283.8,437.7z M262.6,421.3c-4.5-5.5,2.2,0.2,7.2,8.1c-0.3-0.2-0.6-0.3-0.9-0.4
		l-0.6-0.3C266.8,426.3,264.7,423.8,262.6,421.3z"/>
</g>
</svg>
