<?xml version="1.0" encoding="utf-8"?>
<!-- Generator: Adobe Illustrator 19.2.1, SVG Export Plug-In . SVG Version: 6.00 Build 0)  -->
<svg version="1.1" id="Ebene_1" xmlns="http://www.w3.org/2000/svg" xmlns:xlink="http://www.w3.org/1999/xlink" x="0px" y="0px"
	 viewBox="0 0 595.3 841.9" style="enable-background:new 0 0 595.3 841.9;" xml:space="preserve">
<style type="text/css">
	.st0{fill-rule:evenodd;clip-rule:evenodd;fill:#F0B58F;}
	.st1{fill-rule:evenodd;clip-rule:evenodd;fill:#24264A;}
	.st2{fill-rule:evenodd;clip-rule:evenodd;fill:#C28C6E;}
	.st3{fill-rule:evenodd;clip-rule:evenodd;fill:#456E82;}
	.st4{fill-rule:evenodd;clip-rule:evenodd;fill:#213B47;}
	.st5{fill-rule:evenodd;clip-rule:evenodd;fill:#C27DD6;}
	.st6{fill-rule:evenodd;clip-rule:evenodd;fill:#666666;}
	.st7{fill-rule:evenodd;clip-rule:evenodd;fill:#1A1A1A;}
	.st8{fill-rule:evenodd;clip-rule:evenodd;fill:#9963AB;}
	.st9{fill-rule:evenodd;clip-rule:evenodd;fill:#6666CC;}
	.st10{fill-rule:evenodd;clip-rule:evenodd;fill:#F7F5E6;}
	.st11{fill-rule:evenodd;clip-rule:evenodd;fill:#E0D9B8;}
	.st12{fill-rule:evenodd;clip-rule:evenodd;fill:#75735E;}
	.st13{fill-rule:evenodd;clip-rule:evenodd;fill:#E0A3F2;}
	.st14{fill-rule:evenodd;clip-rule:evenodd;fill:#948F78;}
</style>
<g>
	<path class="st0" d="M349.4,22c9.9,5.4,26,0.9,26.9,9.9c0.9,9,15.2,9.9,15.2,18.8c0,9,10.8,9.9,9.9,21.5
		c-0.9,11.7,10.8,19.7,6.3,22.4c-4.5,2.7,7.2,17-0.9,20.6c-8.1,3.6,0.9,24.2-7.2,24.2c-8.1,0-7.2,10.8-14.4,10.8
		c-7.2,0-10.8,1.8-18.8-2.7c-8.1-4.5-6.3,0-4.5,8.1c1.8,8.1,15.2,17,31.4,22.4c16.1,5.4,25.1,11.7,34.1,24.2
		c9,12.6,14.4,15.2,14.4,15.2l18.8-4.5l-4.5,35c0,0,26,26,29.6,42.2c3.6,16.1,3.6,21.5-9.9,29.6c-13.5,8.1-26.9,10.8-43.9,13.5
		c-17,2.7-32.3,4.5-28.7,15.2c3.6,10.8,9,41.3,8.1,63.7c-0.9,22.4-8.1,42.2-9,65.5c-0.9,23.3-0.9,82.5-0.9,106.7
		c0,24.2,4.5,37.7,2.7,57.4c-1.8,19.7-17.8,69.4-16,84.7c1.8,15.2-0.2,23.8-0.2,39.1c0,15.2-13.5,51.1-39.5,44.8
		c-26-6.3-19.7-12.6-15.2-22.4c4.5-9.9,25.1-26,26-43.9c0.9-17.9,2.7-38.6,0-55.6c-2.7-17-0.9-35.9-2.7-53.8
		c-1.8-17.9-4.5-27.8-7.2-43.9c-2.7-16.1-7.2-50.2-9-61.9c-1.8-11.7-8.1,13.5-8.1,27.8c0,14.3,0.9,22.4,0.9,38.6s-6.3,73.5-4.5,89.7
		c1.8,16.1,1.8,33.2,2.7,42.2c0.9,9-2.7,16.1-14.4,17c-11.7,0.9-19.7,22.4-30.5,23.3c-10.8,0.9-20.6,2.7-29.6-2.7
		c-9-5.4-5.4-16.1,3.6-19.7c9-3.6,26.9-18.8,33.2-28.7c6.3-9.9,13.5-31.4,7.2-52c-6.3-20.6-11.7-52.9-11.7-78s1.8-38.6-6.3-60.1
		c-8.1-21.5-24.2-72.6-19.7-111.2c4.5-38.6,17-58.3,17-83.4c0-25.1-0.9-48.4-3.6-60.1c-2.7-11.7-3.6-13.5-10.8-7.2
		c-7.2,6.3-15.2,18.8-26.9,14.4c-11.7-4.5-21.5-23.3-12.6-43.9c9-20.6,30.5-55.6,31.4-69.1c0.9-13.5,0.9-34.1,6.3-40.4
		c5.4-6.3,3.6-9.7,8.9-8.9c5.3,0.9,6.2-4.4,9.7-2.2c3.5,2.2,4.8,0.9,4-2.6c-0.9-3.5,0.9-6.2,3.1-11c2.2-4.8,0.4-7.9,3.1-16.7
		c2.6-8.8,3.1-10.6,2.6-14.5c-0.4-4-1.8-10.1,2.2-11c4-0.9-0.9-12.3,3.1-11.9c4,0.4-1.3-5.7,3.1-5.7c4.4,0,5.3-12.8,10.1-10.6
		c4.8,2.2,8.8-4.4,14.5-4.4c5.7,0,5.3-6.2,11.4-4.8C346.1,22.1,344.4,18.6,349.4,22"/>
	<path class="st1" d="M349.4,22c9.9,5.4,26,0.9,26.9,9.9c0.9,9,15.2,9.9,15.2,18.8c0,9,10.8,9.9,9.9,21.5
		c-0.9,11.7,10.8,19.7,6.3,22.4c-4.5,2.7,7.2,17-0.9,20.6c-8.1,3.6,0.9,24.2-7.2,24.2c-8.1,0-7.2,10.8-14.4,10.8
		c-7.2,0-10.8,1.8-18.8-2.7c-1.9-1.1-3.3-1.6-4.2-1.7c-3.9-2.5-5.5-6.2-5.1-11.1c0.4-6.2-2.2-6.2,5.3-11.4
		c7.5-5.3,11.9-12.8,7.9-17.6c-4-4.8-9.2-1.8-14.5,0.4c-5.3,2.2-7.5,0-6.6-7.5c0.9-7.5-2.6-15-8.4-24.2c-5.7-9.2-27.7-17.2-44.9-4
		c-0.1,0.1-0.2,0.2-0.3,0.2c0-0.5-0.1-1-0.1-1.5c-0.4-4-1.8-10.1,2.2-11c4-0.9-0.9-12.3,3.1-11.9c4,0.4-1.3-5.7,3.1-5.7
		c4.4,0,5.3-12.8,10.1-10.6c4.8,2.2,8.8-4.4,14.5-4.4c5.7,0,5.3-6.2,11.4-4.8C346.1,22.1,344.4,18.6,349.4,22"/>
	<path class="st2" d="M362.2,145.8c-3-0.4-1.7,3.7-0.3,9.8c1,4.5,5.7,9.3,12.5,13.6c-0.6-0.1-1.1-0.2-1.7-0.4
		c-14.4-3.5-15.3,3.8-21.7,7.3c-6.4,3.5,2.7-14.6,2.7-21.9c0-7.3,0.2-16.4-4.2-13c-4.4,3.3-18.8,16.4-23.7,19
		c-4.9,2.7-12.8,11.3-12.8,11.3s-0.2-4.6-1.8-10.4c-1.5-5.7-13.8,13.7-16.7,8.4c-2.9-5.3-13.5,1.4-13.5,1.4l-13.2-25.3l2.9-25.4
		l11.3-0.2c0,0,5.1-1.5,8,5.3c2.9,6.9,3.3,11.9,6.2,17.5c2.9,5.5,2.7,5.5,6.9,9.5c4.2,4,14.1-1.7,20.3-6.3
		c6.2-4.6,20-11.8,24.4-14.5c4.4-2.7,2-7.3,4-5.7c1.9,1.5,3.4,1.7,6.5,1c-2,2.3-0.7,3.5-1,7.9C356.8,139.6,358.3,143.3,362.2,145.8"
		/>
	<path class="st3" d="M410.4,423.3c-2.2,18-7.3,34.9-8,54.3c-0.9,23.3-0.9,82.5-0.9,106.7c0,24.2,4.5,37.7,2.7,57.4
		c-0.1,1.4-0.4,3-0.7,4.7c-19,6.3-34.9,0.5-46.4-5.2c-0.1-2.2-0.3-4.5-0.5-6.7c-1.8-17.9-4.5-27.8-7.2-43.9
		c-2.7-16.1-7.2-50.2-9-61.9c-1.8-11.7-8.1,13.5-8.1,27.8c0,14.3,0.9,22.4,0.9,38.6c0,1.8-0.1,4.2-0.2,6.9
		c-10.2,1.6-25.7,3.2-43.1-0.4c-0.4-5.3-0.6-10.5-0.6-15.5c0-25.1,1.8-38.6-6.3-60.1c-8.1-21.5-24.2-72.6-19.7-111.2
		c0.5-4,1-7.8,1.6-11.4L410.4,423.3z"/>
	<path class="st4" d="M340.4,528.7c-1.8-11.7-8.1,13.5-8.1,27.8c0,14.3,0.9,22.4,0.9,38.6c0,1.8-0.1,4.2-0.2,6.9
		c-6-17.8-12.5-24.7-24.7-22.6c-12.2,2.1-7.2-4.6,5.1-9.3c12.2-4.6-0.4-8.4-13.5-8.4c-13,0-5.1-6.3,5.5-6.3c10.5,0,10.9-5.9,3.8-13
		s-0.8-10.9,12.2-10.9c13,0-2.1-14.7-20.2-24c-18.1-9.3-14.3-37.5-25.3-60.6c-10.9-23.1,50.1,8.4,52.8,20.2S338.6,515,340.4,528.7"
		/>
	<path class="st5" d="M375.2,169.7c5.1,3.2,11.4,6,18.1,8.3c16.1,5.4,25.1,11.7,34.1,24.2c9,12.6,14.4,15.2,14.4,15.2l18.8-4.5
		l-4.5,35c0,0,26,26,29.6,42.2c3.6,16.1,3.6,21.5-9.9,29.6c-13.5,8.1-26.9,10.8-43.9,13.5c-17,2.7-32.3,4.5-28.7,15.2
		c3.6,10.8,9,41.3,8.1,63.7c-0.8,21.1-7.2,39.8-8.7,61.3c-13.3-0.7-29.4-4.4-56.3-4.9c-32.3-0.6-56.1-12.2-82.6-20
		c-1.3-11.6-1.6-23.1-0.4-33.7c4.5-38.6,17-58.3,17-83.4c0-25.1-0.9-48.4-3.6-60.1c-2.7-11.7-3.6-13.5-10.8-7.2
		c-5.5,4.8-11.5,13.3-19.3,15c3.8-16,6.6-26.5,6.6-26.5l20.6-84.9c0,0,23.4-9.7,35.6-9.7c1.8,3.2,2.6,6.7,3.4,11.7
		c0.8,5.1,11.5,20.1,12.8,33.8C353.8,189.8,359.5,209.2,375.2,169.7"/>
	<path class="st0" d="M258.7,271.3c-5.5,5.4-11.7,10.2-19.6,7.1c-11.7-4.5-21.5-23.3-12.6-43.9c9-20.6,30.5-55.6,31.4-69.1
		c0.9-13.5,0.9-34.1,6.3-40.4c5.4-6.3,3.6-9.7,8.9-8.9c5.3,0.9,6.2-4.4,9.7-2.2c2.7,1.7,4.1,1.3,4.2-0.5c3.1,9.9-0.2,4.6,1.1,8.4
		c1.3,4-1.8-1.8-5.7,1.3c-4,3.1-3.1,0.9-6.2-1.3c-3.1-2.2-2.2-0.4-4,5.7c-1.8,6.2-0.3,16.4,6.7,16.9c7.1,0.5,5.8,7,11.8,0
		c6-7,6.1-0.6,7.4,5.1c1.3,5.7-0.9,7.5-6.6,11c-5.7,3.5-8.4,8.4-15,21.6c-6.6,13.2-9.2,33-9.2,52.4c0,19.4-2.2,28.6-8.4,35.2
		L258.7,271.3z"/>
	<path class="st6" d="M277.3,126.3l-0.1,2.5l7.9,11.4l6.8-6.1c-1.2-2.8-2.1-5.3-2.4-6.7c-0.3-2-0.8-4.1-1.5-6.3l-0.4,0
		c0.1,1.9-1.2,0.2-0.3,2.9c1.3,4-2.9-0.9-5.7,1.3C278.8,127.5,277.9,126.5,277.3,126.3"/>
	<path class="st7" d="M278.9,124.8l-1.3,2l7.9,11.4l6.8-6.1c-1.2-2.8-2.1-5.3-2.4-6.7c-0.3-2-0.8-4.1-1.5-6.3l-0.4,0
		c0.1,1.9-1.2,0.2-0.3,2.9c1.3,4-1.8-1.8-5.7,1.3C280.3,124.6,279.5,124.9,278.9,124.8"/>
	<path class="st2" d="M270,261.1c-1.1,0.6-2.4,1.6-4,3c-2.3,2-4.7,4.7-7.3,7.2l0.3-1.6c6.2-6.6,8.4-15.8,8.4-35.2
		c0-16.8,2-33.9,6.8-46.8c0.4,11.8,5,37.7,5,48c0,10.9-5.3,18.8-8.8,24.7C270.2,260.7,270.1,260.9,270,261.1"/>
	<path class="st8" d="M396.9,437.3c-12.8,0.5-49.6,20.3-80.6,10.7c-31-9.6-61.4-40-41.1-27.2c20.3,12.8,35.2,22.4,58.2,22.4
		c23,0-2.1-3.2-13.9-13.9c-11.7-10.7-56.6-68.3-33.6-45.9c23,22.4,36.8,41.6,50.2,47.5c13.3,5.9,1.1-2.7-7.5-12.8
		c-8.5-10.1-21.4-55-11.7-37.9c9.6,17.1,13.9,40,25.1,45.9c11.2,5.9,19.2,14.4,8.5-1.6c-10.7-16-29.4-67.8-15.5-43.2
		c13.9,24.6,23,43.2,36.8,48.6C385.7,435.1,407.1,436.2,396.9,437.3"/>
	<path class="st8" d="M286.1,243.5c5.5,16.6,44.9,78.7,75.6,93.4c30.7,14.7-15.4-14.7-30.1-32.6
		C316.9,286.5,276.3,224.4,286.1,243.5"/>
	<path class="st8" d="M282.5,285.3c1.8,11.7,17.2,46.7,49.2,67.6c32,20.9,49.8,28.9,35,16c-6.1-5.3-26.5-12.1-42.9-29.6
		C300.5,314.5,280.7,278.8,282.5,285.3"/>
	<polygon class="st9" points="441.8,217.5 460.6,213 456.1,248 447.8,315.7 421.3,334.9 321.6,352.7 321.1,247.2 	"/>
	<path class="st0" d="M456.1,248c0.4,0.4,26,26.1,29.6,42.1c3.6,16.1,3.6,21.5-9.9,29.6c-13.5,8.1-26.9,10.8-43.9,13.5
		c-4.4,0.7-8.6,1.3-12.5,2.1l0,0c-23.8,4-83.4,14.9-90.1,16.1c-6.7,1.2-12.7-5.5-15.6-8.7c-2.9-3.2-2.1-6.5-2.9-11.1
		c-0.8-4.6,4.5-7.3,1.3-10.2c-3.2-2.9-1.6-6.7-1.6-12.1c0-5.4,10.8-9.4,10.8-7.6c0,1.7,4.4,3.7,13.7,4.1c9.3,0.5,18.5,1.3,25.8,7.6
		c7.3,6.4,29.3-2.9,47.8-10.5c18.5-7.6,43.3-21,43.9-25.3C453,273.6,455.1,256.6,456.1,248"/>
	<path class="st4" d="M357.1,640.7c-0.1-2.1-0.3-4.1-0.5-6.2c-1.5-15-3.6-24.4-5.9-36.5c9.3,7.9,15.1,13.1,8.9,13.8
		c-6.2,0.7-1.3,8.8,5.5,10.9c6.7,2.1,18.1,5.1,6.7,5.1c-11.4,0-8.8,6.7-3.8,7.2c5.1,0.4,7.8,7.2-1.7,5.1
		C362.8,639.2,359.7,639.7,357.1,640.7"/>
	<path class="st10" d="M328.5,681.2c0.1,1.4,0.1,2.6,0.2,3.6c1.8,16.1,1.8,33.2,2.7,42.2c0.9,9-2.7,16.1-14.4,17
		c-11.7,0.9-19.7,22.4-30.5,23.3c-10.8,0.9-20.6,2.7-29.6-2.7c-9-5.4-5.4-16.1,3.6-19.7c9-3.6,26.9-18.8,33.2-28.7
		c5-7.8,10.5-23,9.5-39.2C313.2,682.6,320.8,685,328.5,681.2L328.5,681.2z M388.4,717.3c-0.4,3.7-0.6,6.8-0.3,9.1
		c1.8,15.2-0.2,23.8-0.2,39.1c0,15.2-13.5,51.1-39.5,44.8c-26-6.3-19.7-12.6-15.2-22.4c4.5-9.9,25.1-26,26-43.9
		c0.5-9.6,1.2-20.1,1.4-30.3C366.7,715.7,374.7,720,388.4,717.3z"/>
	<path class="st11" d="M388.4,729c1.3,13.7-0.4,22.1-0.4,36.5c0,15.2-13.5,51.1-39.5,44.8c-26-6.3-19.7-12.6-15.2-22.4
		c4.5-9.9,25.1-26,26-43.9c0.3-5.8,0.7-11.8,1-17.9c0.7,1.1,1.2,2.7,1.5,4.8c1.3,10.5,3.2,6.9,8,6.7c4.9-0.3,7.3,6.1,11.1-1.8
		C383,731.1,385.2,729.6,388.4,729"/>
	<path class="st11" d="M329.7,695.8c-5.8-0.1-9.8,0.3-11.4,4.5c-2.3,5.9-2,2.6-7.9,2c-5.9-0.7-7.2,5.6-8.2,1
		c-0.5-2.5,0.2-5.4-0.4-7.7c-1.8,8.6-5,16-8,20.7c-6.3,9.9-24.2,25.1-33.2,28.7c-9,3.6-12.6,14.4-3.6,19.7c9,5.4,19.5,5.9,29.6,2.7
		c10.1-3.2,18.8-22.4,30.5-23.3c11.7-0.9,15.2-8.1,14.4-17C330.8,720,330.6,708.2,329.7,695.8"/>
	<path class="st12" d="M383.7,743.4c1,0,1.8,0.8,1.8,1.8c0,1-0.8,1.8-1.8,1.8c-1,0-1.8-0.8-1.8-1.8
		C381.9,744.2,382.7,743.4,383.7,743.4"/>
	<path class="st12" d="M380.7,753.6c1,0,1.8,0.8,1.8,1.8c0,1-0.8,1.8-1.8,1.8c-1,0-1.8-0.8-1.8-1.8
		C378.9,754.4,379.7,753.6,380.7,753.6"/>
	<path class="st12" d="M376.8,763.5c1,0,1.8,0.8,1.8,1.8c0,1-0.8,1.8-1.8,1.8c-1,0-1.8-0.8-1.8-1.8
		C375,764.3,375.8,763.5,376.8,763.5"/>
	<path class="st12" d="M372.5,772.3c1,0,1.8,0.8,1.8,1.8s-0.8,1.8-1.8,1.8c-1,0-1.8-0.8-1.8-1.8S371.5,772.3,372.5,772.3"/>
	<path class="st12" d="M366.9,781.6c1,0,1.8,0.8,1.8,1.8c0,1-0.8,1.8-1.8,1.8c-1,0-1.8-0.8-1.8-1.8
		C365.1,782.4,365.9,781.6,366.9,781.6"/>
	<path class="st12" d="M347.1,774c1,0,1.8,0.8,1.8,1.8c0,1-0.8,1.8-1.8,1.8c-1,0-1.8-0.8-1.8-1.8C345.3,774.8,346.1,774,347.1,774"
		/>
	<path class="st12" d="M354.7,762.8c1,0,1.8,0.8,1.8,1.8c0,1-0.8,1.8-1.8,1.8c-1,0-1.8-0.8-1.8-1.8
		C352.9,763.6,353.7,762.8,354.7,762.8"/>
	<path class="st12" d="M359.3,752.3c1,0,1.8,0.8,1.8,1.8c0,1-0.8,1.8-1.8,1.8c-1,0-1.8-0.8-1.8-1.8
		C357.5,753.1,358.3,752.3,359.3,752.3"/>
	<path class="st12" d="M361.6,741.4c1,0,1.8,0.8,1.8,1.8c0,1-0.8,1.8-1.8,1.8c-1,0-1.8-0.8-1.8-1.8
		C359.8,742.2,360.6,741.4,361.6,741.4"/>
	<path class="st12" d="M315.5,707.8c1,0,1.8,0.8,1.8,1.8c0,1-0.8,1.8-1.8,1.8c-1,0-1.8-0.8-1.8-1.8
		C313.7,708.6,314.5,707.8,315.5,707.8"/>
	<path class="st12" d="M311.2,717.4c1,0,1.8,0.8,1.8,1.8c0,1-0.8,1.8-1.8,1.8c-1,0-1.8-0.8-1.8-1.8
		C309.4,718.2,310.2,717.4,311.2,717.4"/>
	<path class="st12" d="M303.3,728.2c1,0,1.8,0.8,1.8,1.8c0,1-0.8,1.8-1.8,1.8c-1,0-1.8-0.8-1.8-1.8
		C301.5,729,302.3,728.2,303.3,728.2"/>
	<path class="st12" d="M285.2,742.1c1,0,1.8,0.8,1.8,1.8c0,1-0.8,1.8-1.8,1.8c-1,0-1.8-0.8-1.8-1.8
		C283.4,742.9,284.2,742.1,285.2,742.1"/>
	<path class="st12" d="M295.4,733.8c1,0,1.8,0.8,1.8,1.8c0,1-0.8,1.8-1.8,1.8c-1,0-1.8-0.8-1.8-1.8
		C293.6,734.6,294.4,733.8,295.4,733.8"/>
	<path class="st13" d="M327,212.4c1,0,1.8,0.8,1.8,1.8c0,1-0.8,1.8-1.8,1.8s-1.8-0.8-1.8-1.8C325.1,213.2,326,212.4,327,212.4"/>
	<path class="st13" d="M322.5,224.7c1,0,1.8,0.8,1.8,1.8s-0.8,1.8-1.8,1.8c-1,0-1.8-0.8-1.8-1.8S321.4,224.7,322.5,224.7"/>
	<path class="st13" d="M317.9,238.3c1,0,1.8,0.8,1.8,1.8c0,1-0.8,1.8-1.8,1.8c-1,0-1.8-0.8-1.8-1.8
		C316.1,239.1,316.9,238.3,317.9,238.3"/>
	<path class="st14" d="M331.3,725.3c-7,7.6-14.8,9.1-23.4,16.4c-9.4,7.9-29.9,16.5-42.9,14.3c-7.2-1.2-10.1-2.9-11.3-5.8
		c-3.2,4.7-2.8,10.7,3.2,14.4c9,5.4,18.7,6.2,29.6,2.7c10.9-3.5,18.8-22.4,30.5-23.3c11.7-0.9,15.2-8.1,14.4-17
		C331.4,726.4,331.4,725.9,331.3,725.3"/>
	<path class="st14" d="M387.7,769.2c-1.8,16.6-15.1,47-39.2,41.2c-26-6.3-19.7-12.6-15.2-22.4c2.1,6,11.9,12.4,25.8,8.7
		C372.9,792.8,376.6,794.4,387.7,769.2"/>
</g>
</svg>
