<?xml version="1.0" encoding="utf-8"?>
<!-- Generator: Adobe Illustrator 19.2.1, SVG Export Plug-In . SVG Version: 6.00 Build 0)  -->
<svg version="1.1" id="Ebene_1" xmlns="http://www.w3.org/2000/svg" xmlns:xlink="http://www.w3.org/1999/xlink" x="0px" y="0px"
	 viewBox="0 0 595.3 841.9" style="enable-background:new 0 0 595.3 841.9;" xml:space="preserve">
<style type="text/css">
	.st0{fill-rule:evenodd;clip-rule:evenodd;fill:#F0B58F;}
	.st1{fill-rule:evenodd;clip-rule:evenodd;fill:#C28C6E;}
	.st2{fill-rule:evenodd;clip-rule:evenodd;fill:#0D8F87;}
	.st3{fill-rule:evenodd;clip-rule:evenodd;fill:#4D1F0D;}
	.st4{fill-rule:evenodd;clip-rule:evenodd;fill:#709EB5;}
	.st5{fill-rule:evenodd;clip-rule:evenodd;fill:#456E82;}
	.st6{fill:#5C544F;}
	.st7{fill-rule:evenodd;clip-rule:evenodd;fill:#A67003;}
</style>
<g>
	<path class="st0" d="M325.6,36.2c12.9,0.9,32.4,19.9,35.1,45.3c10.2,93.5,1.6,32.9-1.8,88.3c-0.5,7.4,6.9,9.7,11.1,19
		c4.2,9.2,1.8,39.3-8.8,67.5c-10.6,28.2-19,37.9-19.9,45.8c-0.9,7.9,0.6,14.9,6.7,33.5c6.1,18.6,16.4,38.5,18.2,65.7
		c1.7,27.2-3.4,48.1-5.4,68.2c-1.9,20.2-10.4,75.4-9.8,83.2c0.7,7.8-0.7,10.4-2,16.9c-1.3,6.5,3.9,20.8,2,24.7
		c-2,3.9,3.3,15,3.3,23.4s0.7,18.2,0.7,33.8s-5.2,52-5.2,61.8c0,9.8,2.6,20.2-1.3,28c-3.9,7.8-2,18.9-2,26.7c0,7.8-4.6,15-22.1,18.9
		c-17.6,3.9-39,11.1-57.2,9.1c-18.2-2-24.1-5.2-15.6-15c8.5-9.8,18.9-11.1,29.9-15.6c11.1-4.6,11.1-3.3,14.3-11.1
		c3.3-7.8,2.6-13.7,7.8-18.9c5.2-5.2,3.9-11.7,0.7-19.5c-3.3-7.8,0-18.9,3.9-29.3c3.9-10.4,1.9-28.6,5.2-31.2
		c3.3-2.6-1.3-7.2-2.6-14.3c-1.3-7.2,5.2-14.3,0-20.8c-5.2-6.5-13-11.1-8.5-15c4.6-3.9-1.3-14.3-1.3-30.6c0-16.3-7.2-35.1-6.5-46.8
		c0.7-11.7,0-20.8-3.9-13c-3.9,7.8-24.1,41.6-18.2,41.6c5.9,0-1.3,3.3-2,11.1c-0.7,7.8,2,18.2,4.6,31.2c2.6,13,11.7,61.1,15,74.8
		c3.3,13.7,6.5,31.2,7.8,43.6c1.3,12.4,1.3,20.2-0.7,25.4c-2,5.2-15,9.8-26,9.8c-11.1,0-43.6,5.2-55.9,3.3c-12.4-2-25.4-15-9.1-19.5
		c16.3-4.6,29.9-7.2,37.1-9.8c7.2-2.6,5.9-6.5,11.1-12.4c5.2-5.9,3.9-4.6,0-8.5c-3.9-3.9,0-14.3,0-20.8c0-6.5-2-7.8-7.2-22.8
		c-5.2-15-8.5-29.3-13-41c-4.6-11.7,0.6-15.6-5.9-21.5c-6.5-5.9-8.5-24.1-7.2-37.1c1.3-13,3.9-34.5,9.1-63.1
		c5.2-28.6,15-57.2,16.3-67c1.3-9.8,7.8-23.4,4.6-29.3c-3.3-5.9-2.6-15-2-26c0.7-11.1,2.5-33.5,3.3-39c0.8-5.6,2.8-4.8-6.8-6
		c-9.5-1.2-39.4-7.6-41-12.3c-1.6-4.8-3.2-19.9,7.6-54.5c10.7-34.6,27.1-76.4,34.6-83.2c7.6-6.8,11.1-10.3,17.9-10.7
		c6.8-0.4,8-12.7,8-23.1c0-10.3-4.8-18.3-6.8-29c-2-10.7,6.8-9.2,8.4-26.7c1.6-17.5,3.6-23.9,14.7-34.2
		C300,48.1,311.1,35.8,325.6,36.2"/>
	<path class="st1" d="M251,350.6c0.5-5.6,1-10.3,1.3-12.4c0.1-0.9,0.3-1.6,0.4-2.2c2.3-1.2,5-1.8,8-1.6c13.9,1.1,31.1-0.6,23.6-1.1
		c-7.5-0.6-21.1-8.6-28.4-13.6c-7.2-5-27.8-22.8-33.4-25c-5.6-2.2,0.3-4.4,2.8-9.2c2.5-4.7,11.4-18.1,10.6-32.8
		c-0.8-14.7,9.7-32.8,10.6-41.4c61.4-40,84.8,96.2,84.8,96.2L309.6,348L251,350.6z"/>
	<path class="st2" d="M360.5,158.4c-0.8,4.6-1.4,8.6-1.6,11.4c-0.5,7.4,6.9,9.7,11.1,19c4.2,9.2,1.8,39.3-8.8,67.5
		c-10.6,28.2-19,37.9-19.9,45.8c-0.9,7.9,0.6,14.9,6.7,33.5c4.9,15.1,12.7,31.1,16.4,51.2c-7.4,0.3-15.6,0.5-23.6,0.2
		c-25.1-0.8-46.8,3.3-61.4,5c-13.6,1.6-20.3-9.8-30.6-11.5l0.2-3.3c0.7-11.1,2.5-33.5,3.3-39c0.3-2.2,0.8-3.4,0.7-4.1l0-0.2
		c0.1-0.2,0.1-0.4,0.2-0.6c11.6,2,22.9,4.9,41,1.8c19.7-3.3,16.3-24.7,16.3-24.7s-48.3,13.3-55.3,7.3c-0.1-0.1-0.2-0.2-0.3-0.2
		c-1-19-11.9-37.3-15.9-56.5c-2.9-13.7-2.8-17.8,6.5-47.1c4.5-14,11.8-30.4,16.4-42.1c0.9-0.2,1.8-0.3,2.7-0.4
		c2.2-0.1,3.8-1.5,5-3.7c3.3,17.7,9.3,34.2,19.2,36.3c13.6,2.9,24.1,0.5,41.3-17.9C347.3,167.8,350,165.9,360.5,158.4"/>
	<path class="st1" d="M293.9,63.3c6.8-5.6,21.6-11.2,32.2-0.6c10.6,10.6,15.1,17.1,13.6,22.5c-1.5,5.3-0.9,13.9,1.5,18.3
		c2.4,4.4-2.4,14.8-3.5,19.8c-1.2,5-7.4,13.9-10.9,16.8c-3.5,3-12.4,5.9-19.2,5c-6.8-0.9-18.6-8.9-13.3-4.1
		c5.3,4.7,24.5,8.6,22.8,13.3c-1.8,4.7-5.9,15.7-5.3,23.6c0.6,8,0.9,18.9,3.8,20.7c3,1.8,22.8-27.8,22.8-27.8l14.2-89.9L332.4,45
		l-34.3,8C298.1,53,277.4,73.4,293.9,63.3"/>
	<path class="st3" d="M325.6,36.2c12.9,0.9,32.4,19.9,35.1,45.3c10.2,93.5,1.6,32.9-1.8,88.3c-0.2,2.9,0.8,5,2.4,7
		c-0.2-0.1-0.4-0.2-0.6-0.3c-5.5-3.7-5.5,2.2-18.3,4.7c-12.8,2.6-17.5,32.1-15.7,40.2s-0.7,12.4-5.5,0.4c-4.7-12-8-31.4-6.9-41.6
		c0.9-8.8,10.9-20.7,10.7-23l0.2-0.3c2.2-3.6-4-11,3.6-16.4c7.7-5.5,13.5-22.6,16.1-31c2.6-8.4-0.7-24.1-3.7-32.5
		c-2.9-8.4-18.3-23.4-28.8-23.4c-7.7-1.8-16.1,5.5-21.9,12c-5.8,6.6-3.6,19-5.8,25.6c-2.2,6.6-2.2,20.8-1.8,29.9
		c0.4,9.1,9.1,16.4,10.6,20.1c1.1,2.8,2,8.3,2.4,17.2c-0.2,8.6-1.8,19.6-8.6,28.4c-9.9,12.8-22.3,16.4-35.4,23.4
		c-13.1,6.9-10.2,4.7-4-6.2c1.9-3.3,11.4-31.1,16.2-36c4.2-4.3,8.4-10,8.4-19.6c0-9.6-4.8-18.3-6.8-29c-2-10.7,6.8-9.2,8.4-26.7
		c1.6-17.5,3.6-23.9,14.7-34.2C300,48.1,311.1,35.8,325.6,36.2"/>
	<path class="st0" d="M371.9,206.1c-0.5,13.6-3.9,32.3-10.7,50.2c-8,21.3-14.7,32-17.9,39.4c-6.3,12.4-9,15-16.4,29.1
		c-9,17-22,10.7-42.7,7.3c-20.7-3.3-40-24.7-48.7-30c-8.7-5.3-5.3-6-3-11.3c2.3-5.3,6.7-11,12.7-9.3c6,1.7,23.7,11.7,34.3,13
		c10.7,1.3,19.7,1.7,19.7,0c0-1.7,1.3-5.3,1.3-7.3c0-2,3-3.3,3-5.7c0-2.3,5-3,5.3-6.3c0.3-3.3,2.3-4.7,5.7-5
		c3.3-0.3,2.3-4.7,7.3-16.3c5-11.7,6.7-29.3,9.3-46c2.7-16.7,21-26.3,28-26c6.7,0,12,10,12.7,23.7
		C371.9,205.7,371.9,205.9,371.9,206.1"/>
	<path class="st1" d="M312.2,270.6c0.7-0.2,1.4-0.4,2.3-0.5c0.4,0,0.8-0.2,1.1-0.3c0.2,0,0.3,0,0.5,0c3.2,0,6.3,0.6,8,4.2
		c1.7,3.6-2.5,6.9-6.1,11.2c-3.6,4.2-5.9,6.5-9.9,9.7c-4,3.2-2.3-0.6-0.4-1.1c1.9-0.4,3.6-3.4,4.4-4.8c0.8-1.5,1.5-2.5-0.8-2.5
		c-2.3,0-4.6,5.3-7.2,8c-2.5,2.7-0.6-1.7,1.5-4.2c2.1-2.5,5.5-4.4,7.8-5.5c2.3-1.1,2.3-0.8,4.6-2.5c2.3-1.7,0.2-3.4,2.1-3.4
		c1.9,0,2.3,0,2.9-3.8c0.6-3.8-4-0.6-3.6-2.9C319.9,269.8,317.6,270.4,312.2,270.6L312.2,270.6z"/>
	<path class="st4" d="M364.4,386.7L364.4,386.7c0.8,4.6,1.5,9.5,1.8,14.6c1.7,27.2-3.4,48.1-5.4,68.2c-1.9,20.2-10.4,75.4-9.8,83.2
		c0.7,7.8-0.7,10.4-2,16.9c-1.3,6.5,3.9,20.8,2,24.7c-2,3.9,3.3,15,3.3,23.4s0.7,18.2,0.7,33.8s-5.2,52-5.2,61.8
		c0,9.8,2.6,20.2-1.3,28c-3.9,7.8-2,18.9-2,26.7c0,0.7,0,1.5-0.1,2.2c-27.4,12.1-46.2-9.7-50.7-15.5l0.1-0.3
		c3.3-7.8,2.6-13.7,7.8-18.9c5.2-5.2,3.9-11.7,0.7-19.5c-3.3-7.8,0-18.9,3.9-29.3c3.9-10.4,1.9-28.6,5.2-31.2
		c3.3-2.6-1.3-7.2-2.6-14.3c-1.3-7.2,5.2-14.3,0-20.8c-5.2-6.5-13-11.1-8.5-15c4.6-3.9-1.3-14.3-1.3-30.6c0-16.3-7.2-35.1-6.5-46.8
		c0.7-11.7,0-20.8-3.9-13c-3.9,7.8-24.1,41.6-18.2,41.6c5.9,0-1.3,3.3-2,11.1c-0.7,7.8,2,18.2,4.6,31.2c2.6,13,11.7,61.1,15,74.8
		c3.3,13.7,6.5,31.2,7.8,43.6c0.7,6.8,1,12.3,0.9,16.7c-0.4,0.2-0.9,0.4-1.4,0.6c-13.4,5.5-33.1-1-48.2-12.4
		c1.5-2.2,2.3-4.8,5.2-8.1c5.2-5.9,3.9-4.6,0-8.5c-3.9-3.9,0-14.3,0-20.8c0-6.5-2-7.8-7.2-22.8c-5.2-15-8.5-29.3-13-41
		c-4.6-11.7,0.6-15.6-5.9-21.5c-6.5-5.9-8.5-24.1-7.2-37.1c1.3-13,3.9-34.5,9.1-63.1c5.2-28.6,15-57.2,16.3-67
		c1.3-9.8,7.8-23.4,4.6-29.3c-2.9-5.3-2.7-13.2-2.1-22.7c10.2,1.7,17,13.1,30.6,11.5c14.6-1.7,36.4-5.9,61.4-5
		C348.8,387.2,357,387.1,364.4,386.7"/>
	<path class="st2" d="M298.6,733.9c-0.2,3.5-0.6,6.4-1.5,8.7c-2,5.2-15,9.8-26,9.8c-11.1,0-43.6,5.2-55.9,3.3
		c-12.4-2-25.4-15-9.1-19.5c10.6-3,20.1-5.1,27.5-7l-0.1,0.1c-7.7,3.6-10.3,7.7-8,10.8c2.3,3.1,16.2,7.7,43.3-4.4
		c1.1-0.5,2.2-1,3.3-1.6c9.1,2.8,18.1,3.3,25.2,0.4C297.7,734.3,298.2,734.1,298.6,733.9 M299.8,741.4c0.1-0.3,0.2-0.5,0.3-0.8
		C300,740.9,299.9,741.1,299.8,741.4z M296.5,752.7L296.5,752.7 M346.4,770.2c-0.8,6.9-6.1,13.1-22,16.7c-17.6,3.9-39,11.1-57.2,9.1
		c-18.2-2-24.1-5.2-15.6-15c5-5.8,10.8-8.6,16.9-10.9c-1,5.5,17,14.2,31.9,10c12.2-3.4,14.8-3.2,18.1-8.3
		C326.3,774.4,335.7,774.9,346.4,770.2z"/>
	<path class="st5" d="M297.4,714.5c0.1,1,0.2,1.9,0.3,2.8c0.1,0.9,0.2,1.8,0.3,2.7c-1.2-0.4-2.6-0.6-4.4-0.5
		c-7.4,0.6-25.8-4.6-34.4-10.3c-8.6-5.7,15.5,5.7,26.9,4C293.1,712.2,296.5,715.5,297.4,714.5 M294,513.3c-0.6-1.8-1.7-1.6-3.4,1.8
		c-3.9,7.8-24.1,41.6-18.2,41.6c5.9,0-1.3,3.3-2,11.1c-0.7,7.8,2,18.2,4.6,31.2c2.6,13,11.7,61.1,15,74.8c0.4,1.8,0.9,3.7,1.3,5.6
		c-6-24.1-15.8-53.9-25.1-51.5c-13.2,3.4-3.4-5.2,4-5.2c7.4,0,5.7-13.8-5.2-13.8c-10.9,0-2.3-4.6,6.9-6.9c9.2-2.3-6.3-12-17.8-11.5
		c-11.5,0.6,1.1-2.9,10.9-4.6c9.7-1.7-1.7-9.7,3.4-16c5.2-6.3,1.1-16.6,4-29.8c2.9-13.2,2.9-35,8-51c5.2-16,4.6-15.5,3.4-26.4
		c-1.1-10.9-1.1-14.3-13.2-15.5c-12-1.1-8.6-5.2,2.3-5.2c10.9,0,0-5.2-14.9-9.2c-14.9-4,24.1,0,33.2-5.2c9.2-5.2,9.2,6.9,0.6,7.4
		c-8.6,0.6-12.6,9.2-0.6,9.2c12,0,37.8,5.7,25.8,4.6c-12-1.1-30.4-1.1-29.2,6.9C289,463.7,292.2,495.1,294,513.3z M300.9,571.6
		c-0.1-1.4-0.2-2.8-0.4-4.3c3.6-4.1,7.8-9.6,12-13.4C322.2,545.4,311.8,560.8,300.9,571.6z M303.8,603.1c0.7-2.5,0-6.2-0.9-11.1
		c8.4-2.2,17.6-12,25.2-18.6c9.2-8-1.1,16-14.3,18.9c-13.2,2.9,6.9,7.4,26.9,2.3c20.1-5.2-19.5,9.7-34.9,8.6
		C305,603.2,304.4,603.1,303.8,603.1z M310.9,620.5l-0.1-0.1c-0.7-0.8-1.4-1.6-2.1-2.4c6.1,0.6,14,0.8,21.7,1.8
		C344.6,621.8,326.4,624.2,310.9,620.5z M347.7,743c-0.5,1.2-0.8,2.4-1,3.7c-3.7,1.1-8.1,2-11.2,2c-8.6,0-21.8-9.7-28.6-14.9
		c-0.5-0.3-0.9-0.6-1.3-0.9c2.8-4.7,1.4-10.4-1.3-17c-0.8-1.9-1.2-4-1.3-6.2c0.9,3.4,2,6.4,3.3,8.6
		C313.7,730.3,332.9,743.9,347.7,743z"/>
	<path class="st6" d="M280.9,413.7c0.2,0.9,1.4,0.6,1.3-0.2l0-0.1l0-0.2l0-0.2l0-0.2l0-0.2l0-0.2l0-0.2l0-0.2l0-0.2l0-0.2l0-0.2
		l0-0.2l0-0.2l0-0.2l0-0.2l0-0.2l0-0.1c-0.2-0.9-1.4-0.6-1.3,0.1l0,0.1l0,0.2l0,0.2l0,0.2l0,0.2l0,0.2l0,0.2l0,0.2l0,0.2l0,0.2
		l0,0.2l0,0.2l0,0.2l0,0.2l0,0.2L280.9,413.7L280.9,413.7z M282.2,422.8c0.1,0.9,1.4,0.6,1.3-0.2l0-0.1l0-0.2l0-0.2l0-0.2l0-0.2
		l0-0.2l0-0.2l0-0.2l0-0.2l0-0.2l0-0.2l0-0.2l0-0.2l0-0.2l0-0.2l0-0.2l0-0.1c-0.1-0.9-1.4-0.6-1.3,0.2l0,0.1l0,0.2l0,0.2l0,0.2
		l0,0.2l0,0.2l0,0.2l0,0.2l0,0.2l0,0.2l0,0.2l0,0.2l0,0.2l0,0.2l0,0.2l0,0.2L282.2,422.8z M283.7,431.8c0.1,0.9,1.4,0.6,1.3-0.2
		l0-0.1l0-0.1l0-0.1l0-0.1l0-0.1l0-0.1l0-0.1l0-0.1l0-0.1l0-0.1l0-0.1l0-0.1l0-0.1l0-0.1l0-0.1l0-0.1l0-0.1l0-0.1l0-0.1l0-0.1l0-0.1
		c-0.1-0.8-1.4-0.6-1.3,0.2l0,0.1l0,0.1l0,0.1l0,0.1l0,0.1l0,0.1l0,0.1l0,0.1l0,0.1l0,0.1l0,0.1l0,0.1l0,0.1l0,0.1l0,0.1l0,0.1
		l0,0.1l0,0.1l0,0.1l0,0.1L283.7,431.8z M269.3,395.1c0,0.8,1.3,0.9,1.3-0.1l0-0.1l0-0.2l0-0.2l0-0.2l0-0.2l0-0.2l0-0.2l0-0.2l0-0.1
		l0-0.1l0-0.1l0-0.1l0-0.1l0-0.1l0-0.1l0-0.1l0-0.1l0-0.1c0-0.7-1.3-0.9-1.3,0.1l0,0.1l0,0.1l0,0.1l0,0.1l0,0.1l0,0.1l0,0.1l0,0.1
		l0,0.1l0,0.1l0,0.2l0,0.1l0,0.2l0,0.2l0,0.2l0,0.2l0,0.2L269.3,395.1z M269.5,404.3c0,0.8,1.3,0.9,1.3,0v0l0-0.2l0-0.2l0-0.2l0-0.2
		l0-0.2l0-0.2l0-0.2l0-0.2l0-0.2l0-0.2l0-0.2l0-0.1c0-0.8-1.3-0.9-1.3,0l0,0.1l0,0.2l0,0.2l0,0.2l0,0.2l0,0.2l0,0.2l0,0.2l0,0.2
		l0,0.2l0,0.2L269.5,404.3L269.5,404.3z M269.9,413.4c0,0.8,1.3,0.9,1.3-0.1l0-0.1l0-0.3l0-0.3l0-0.3l0-0.3l0-0.3l0-0.3l0-0.3l0-0.3
		l0-0.3l0-0.2c0-0.8-1.3-0.9-1.3,0.1l0,0.2l0,0.3l0,0.3l0,0.3l0,0.3l0,0.3l0,0.3l0,0.3l0,0.3l0,0.3L269.9,413.4z M270.9,422.6
		c0.1,0.9,1.4,0.6,1.3-0.2l0-0.2l0-0.2l0-0.2l0-0.2l0-0.2l0-0.2l0-0.3l0-0.3l0-0.3l0-0.3l0-0.1c-0.2-0.9-1.4-0.6-1.3,0.2l0,0.1
		l0,0.3l0,0.3l0,0.3l0,0.3l0,0.3l0,0.3l0,0.3l0,0.3l0,0.3L270.9,422.6z M273,431.6c0.3,0.9,1.5,0.3,1.2-0.4l0,0l-0.1-0.2l-0.1-0.2
		l-0.1-0.2l-0.1-0.2l-0.1-0.2l-0.1-0.2l-0.1-0.2l-0.1-0.2l-0.1-0.2l-0.1-0.2l-0.1-0.2l0-0.2c-0.3-0.8-1.4-0.5-1.3,0.3l0,0.2l0.1,0.2
		l0.1,0.2l0.1,0.2l0.1,0.2l0.1,0.2l0.1,0.2l0.1,0.2l0.1,0.2l0.1,0.2l0.1,0.2L273,431.6L273,431.6z M278.4,439.3
		c0.7,0.4,1.4-0.7,0.7-1.1l-0.1-0.1l-0.1-0.1l-0.1-0.1l-0.1-0.1l-0.1-0.1l-0.1-0.1l-0.1-0.1l-0.1-0.1l-0.1-0.1l-0.1-0.1l-0.1-0.1
		l-0.1-0.1l-0.1-0.1l-0.1-0.1l-0.1-0.1l-0.1-0.1l-0.1-0.1l0,0c-0.7-0.7-1.5,0.2-1,0.8l0,0l0,0l0.1,0.1l0.1,0.1l0.1,0.1l0.1,0.1
		l0.1,0.1l0.1,0.1l0.1,0.1l0.1,0.1l0.1,0.1l0.1,0.1l0.1,0.1l0.1,0.1l0.1,0.1l0.1,0.1l0.1,0.1L278.4,439.3L278.4,439.3z M267.9,397.5
		c0.9,0.2,1-1.1,0.3-1.3l-0.3-0.1l-0.4-0.1l-0.4-0.1l-0.3-0.1l-0.3-0.1l-0.3-0.1l-0.3-0.1l-0.1,0c-1-0.2-1,1.1-0.3,1.3l0.1,0
		l0.3,0.1l0.3,0.1l0.3,0.1l0.4,0.1l0.4,0.1l0.4,0.1L267.9,397.5z M276.9,399.3c0.8,0.1,1.1-1.1,0.2-1.3l0,0l-0.4-0.1l-0.4-0.1
		l-0.4-0.1l-0.4-0.1l-0.4-0.1l-0.4-0.1l-0.1,0c-0.9-0.1-1.1,1.1-0.2,1.3l0.1,0l0.4,0.1l0.4,0.1l0.4,0.1l0.4,0.1l0.4,0.1L276.9,399.3
		L276.9,399.3z M286,400.4c0.7,0.1,1.1-1.1,0.1-1.3l-0.3,0l-0.5,0l-0.5,0l-0.5,0l-0.5-0.1l-0.5,0l0,0c-0.8-0.1-1.1,1.1-0.2,1.3l0,0
		l0.5,0.1l0.5,0.1l0.5,0l0.5,0l0.5,0L286,400.4z M295.2,401.1c0.9,0,0.8-1.3,0.1-1.3l-0.2,0l-0.5,0l-0.5,0l-0.5,0l-0.5,0l-0.4,0
		c-1,0-0.8,1.3-0.1,1.3l0.4,0l0.5,0l0.5,0l0.5,0l0.5,0L295.2,401.1z M313.5,400.8c0.8,0,0.9-1.3-0.1-1.3l-0.1,0l-0.6,0l-0.6,0
		l-0.6,0l-0.6,0l-0.2,0c-0.8,0-0.9,1.3,0.1,1.3l0.2,0l0.6,0l0.6,0l0.6,0l0.6,0L313.5,400.8z M322.7,400c0.9-0.2,0.6-1.4-0.2-1.3
		l-0.4,0.1l-0.6,0.1l-0.6,0.1l-0.6,0.1l-0.4,0c-0.9,0.2-0.6,1.4,0.1,1.3l0.4,0l0.6-0.1l0.6-0.1l0.6-0.1L322.7,400z M331.8,398.7
		c0.8-0.1,0.6-1.4-0.2-1.3l-0.4,0.1l-0.6,0.1l-0.6,0.1l-0.6,0.1l-0.4,0.1c-0.9,0.1-0.6,1.4,0.2,1.3l0.4-0.1l0.6-0.1l0.6-0.1l0.6-0.1
		L331.8,398.7z M340.8,396.9c0.8-0.1,0.7-1.4-0.3-1.3l-0.5,0.1l-0.6,0.1l-0.6,0.1l-0.6,0.1l-0.1,0c-0.8,0.1-0.6,1.4,0.3,1.3l0.1,0
		l0.6-0.1l0.6-0.1l0.6-0.1L340.8,396.9z M349.7,394.7c0.9-0.3,0.5-1.4-0.3-1.3l-0.3,0.1l-0.7,0.2l-0.7,0.2l-0.7,0.2l-0.3,0.1
		c-0.7,0.1-0.7,1.4,0.3,1.3l0.3-0.1l0.7-0.2l0.7-0.2l0.7-0.2L349.7,394.7z M358.5,392.1c0.9-0.4,0.3-1.5-0.4-1.2l-0.4,0.1l-0.7,0.2
		l-0.7,0.2l-0.7,0.2l-0.1,0c-0.9,0.4-0.3,1.5,0.4,1.2l0.1,0l0.7-0.2l0.7-0.2l0.7-0.2L358.5,392.1z M301.9,405.9
		c0.1,0.8,1.4,0.6,1.3-0.2l0,0l0-0.1l0-0.1l0-0.1l0-0.1l0-0.1l0-0.1l0-0.1l0-0.1l0-0.1l0-0.1l0-0.1l0-0.1l0-0.1l0-0.1l0-0.1l0-0.1
		l0-0.1l0-0.1l0-0.1c0-0.6-0.6-0.8-1.1-0.5c-0.1,0.1-0.2,0.3-0.2,0.5l0,0.1l0,0.1l0,0.1l0,0.1l0,0.1l0,0.1l0,0.1l0,0.1l0,0.1l0,0.1
		l0,0.1l0,0.1l0,0.1l0,0.1l0,0.1l0,0.1l0,0.2l0,0.2L301.9,405.9L301.9,405.9z M304.8,414.7c0.3,0.7,1.5,0.3,1.2-0.5l-0.1-0.2
		l-0.1-0.2l-0.1-0.2l-0.1-0.2l-0.1-0.2l-0.1-0.2l-0.1-0.2l-0.1-0.2l-0.1-0.2l-0.1-0.2l-0.1-0.2L305,412l-0.1-0.1
		c-0.3-0.8-1.5-0.3-1.2,0.5l0.1,0.2l0.1,0.2l0.1,0.2l0.1,0.2l0.1,0.2l0.1,0.2l0.1,0.2l0.1,0.2l0.1,0.2l0.1,0.2l0.1,0.2l0.1,0.2
		L304.8,414.7z M307.9,420.6l1.1-0.7 M309.3,422.8c0.4,0.7,1.5,0,1.1-0.7l0,0l-0.1-0.2l-0.1-0.2l-0.1-0.2l-0.1-0.2l-0.1-0.2
		l-0.1-0.2l-0.1-0.2l-0.1-0.2l-0.1-0.2l-0.1-0.2l-0.1-0.2l0,0c-0.4-0.7-1.6-0.1-1.1,0.7l0,0l0.1,0.2l0.1,0.2l0.1,0.2l0.1,0.2
		l0.1,0.2l0.1,0.2l0.1,0.2l0.1,0.2l0.1,0.2l0.1,0.2L309.3,422.8L309.3,422.8z M315,430.1c0.1,0.1,0.2,0.2,0.3,0.2
		c0.7,0.1,1-0.7,0.6-1.1l-0.1-0.1l-0.2-0.2l-0.2-0.2l-0.2-0.2l-0.2-0.2l-0.2-0.2l-0.2-0.2l-0.2-0.2l-0.2-0.2l-0.2-0.2l-0.2-0.2l0,0
		c-0.6-0.6-1.4,0.1-1.1,0.7l0.1,0.1l0,0l0.2,0.2l0.2,0.2l0.2,0.2l0.2,0.2l0.2,0.2l0.2,0.2l0.2,0.2l0.2,0.2l0.2,0.2L315,430.1
		L315,430.1z M322,436.2c0.8,0.5,1.4-0.7,0.7-1.1l-0.1-0.1l-0.2-0.1l-0.2-0.1l-0.2-0.1l-0.2-0.1l-0.2-0.1l-0.2-0.1l-0.2-0.1
		l-0.2-0.1l-0.2-0.1l-0.2-0.2l0,0c-0.5-0.5-1.5,0.3-0.8,1l0,0l0.2,0.2l0.2,0.2l0.2,0.2l0.2,0.2l0.2,0.1l0.2,0.1l0.2,0.1l0.2,0.1
		l0.2,0.1L322,436.2L322,436.2z M330.3,440.3c0.7,0.3,1.3-0.9,0.4-1.2l-0.2-0.1l-0.2-0.1l-0.2-0.1l-0.2-0.1l-0.2-0.1l-0.2-0.1
		l-0.2-0.1l-0.2-0.1l-0.2-0.1l-0.2-0.1l-0.2-0.1c-0.8-0.3-1.3,0.9-0.5,1.2l0.2,0.1l0.2,0.1l0.2,0.1l0.2,0.1l0.2,0.1l0.2,0.1l0.2,0.1
		l0.2,0.1l0.2,0.1l0.2,0.1L330.3,440.3z M339.1,441.5c0.8,0,0.9-1.3-0.1-1.3l-0.2,0l-0.2,0l-0.2,0l-0.2,0l-0.2,0l-0.2,0l-0.2,0
		l-0.2,0l-0.1,0c-0.9,0-0.8,1.3-0.1,1.3l0.1,0l0.3,0l0.3,0l0.3,0l0.3,0l0.3,0l0.3,0l0.3,0L339.1,441.5z M350.3,393.8
		c0,1,1.3,0.8,1.3,0.1l0-0.1l0-0.2l0-0.2l0-0.2l0-0.2l0-0.2l0-0.2l0-0.2l0-0.2l0-0.2l0-0.2l0-0.2l0-0.1l0-0.1l0-0.1v-0.1
		c0-0.6-0.6-0.8-1.1-0.5c-0.1,0.1-0.2,0.3-0.2,0.5l0,0.1l0,0.1l0,0.1l0,0.1l0,0.1l0,0.2l0,0.2l0,0.2l0,0.2l0,0.2l0,0.2l0,0.2l0,0.2
		l0,0.2l0,0.2L350.3,393.8z M349.4,402.9c-0.1,0.8,1.1,1.1,1.3,0.1l0-0.2l0-0.4l0-0.3l0-0.3l0-0.3l0-0.3l0-0.3l0-0.3l0,0
		c0.1-0.8-1.1-1.1-1.3-0.1l0,0l0,0.3l0,0.3l0,0.3l0,0.3l0,0.3l0,0.3l0,0.3L349.4,402.9z M348.3,411.9c-0.1,0.8,1.1,1.1,1.3,0.2
		l0-0.2l0.1-0.4l0.1-0.4l0.1-0.4l0.1-0.4l0-0.4l0-0.3c0.1-0.8-1.1-1.1-1.3-0.2l0,0.3l-0.1,0.4l-0.1,0.4l-0.1,0.4l-0.1,0.4l-0.1,0.4
		L348.3,411.9z M347.2,421c-0.1,0.8,1.1,1.1,1.3,0.2l0,0l0.1-0.5l0.1-0.5l0.1-0.5l0.1-0.5l0.1-0.5l0-0.2c0.1-0.8-1.1-1.1-1.3-0.2
		l0,0.2l-0.1,0.5l-0.1,0.5l-0.1,0.5l-0.1,0.5L347.2,421L347.2,421z M346.1,430.1c-0.1,0.8,1.1,1.1,1.3,0.2l0-0.4l0.1-0.5l0.1-0.5
		l0.1-0.5l0.1-0.5l0-0.1c0.1-0.8-1.1-1.1-1.3-0.2l0,0.1l-0.1,0.5l-0.1,0.5l-0.1,0.5l-0.1,0.5L346.1,430.1z M345,439.2
		c-0.1,0.8,1.1,1.1,1.3,0.2l0-0.3l0.1-0.6l0.1-0.6l0.1-0.6l0.1-0.5l0-0.1c0.1-0.8-1.1-1.1-1.3-0.2l0,0.1l-0.1,0.6l-0.1,0.6l-0.1,0.6
		l-0.1,0.6L345,439.2z M343.8,448.3c-0.1,0.8,1.1,1.1,1.3,0.2l0-0.3l0.1-0.6l0.1-0.6l0.1-0.6l0.1-0.6l0,0c0.1-0.8-1.1-1.1-1.3-0.2
		l0,0l-0.1,0.6l-0.1,0.6l-0.1,0.6l-0.1,0.6L343.8,448.3z M342.8,457.4c-0.1,0.8,1.1,1.1,1.3,0.2l0-0.2l0.1-0.6l0.1-0.6l0.1-0.6
		l0.1-0.6l0-0.1c0.1-0.8-1.1-1.1-1.3-0.2l0,0.1l-0.1,0.6l-0.1,0.6l-0.1,0.6l-0.1,0.6L342.8,457.4z M341.7,466.4
		c-0.1,0.8,1.1,1.1,1.3,0.1v0l0.1-0.6l0.1-0.6l0.1-0.6l0.1-0.6l0-0.3c0.1-0.8-1.1-1.1-1.3-0.1l0,0.3l-0.1,0.6l-0.1,0.6l-0.1,0.6
		L341.7,466.4L341.7,466.4z M340.7,475.5c-0.1,0.8,1.1,1.1,1.3,0.1l0.1-0.5l0.1-0.6l0.1-0.6l0.1-0.6l0-0.4c0.1-0.8-1.1-1.1-1.3-0.1
		l0,0.4l-0.1,0.6l-0.1,0.6l-0.1,0.6L340.7,475.5z M339.8,484.7c-0.1,0.7,1.1,1.1,1.3,0.1l0-0.1l0.1-0.5l0.1-0.5l0.1-0.6l0.1-0.6
		l0-0.3c0.1-0.7-1.1-1.1-1.3-0.1l0,0.3l-0.1,0.6l-0.1,0.6l-0.1,0.6l-0.1,0.5L339.8,484.7z M339,493.8c0,1,1.3,0.8,1.3,0.1l0-0.2
		l0-0.5l0-0.5l0-0.5l0-0.5l0-0.3c0-1-1.3-0.8-1.3-0.1l0,0.3l0,0.5l0,0.5l0,0.5l0,0.5L339,493.8z M338.4,502.9c0,1,1.3,0.8,1.3,0.1
		l0-0.4l0-0.5l0-0.5l0-0.5l0-0.5l0-0.3c0-1-1.3-0.8-1.3-0.1l0,0.3l0,0.5l0,0.5l0,0.5l0,0.5L338.4,502.9z M337.9,512.1
		c0,0.9,1.3,0.8,1.3,0l0-0.2l0-0.4l0-0.4l0-0.4l0-0.4l0-0.4l0-0.3c0-0.9-1.3-0.8-1.3-0.1l0,0.3l0,0.4l0,0.4l0,0.4l0,0.4l0,0.4
		L337.9,512.1z M337.7,521.2c0,0.9,1.3,0.9,1.3,0v0l0-0.4l0-0.4l0-0.4l0-0.4l0-0.4l0-0.4l0-0.2c0-0.9-1.3-0.9-1.3,0l0,0.2l0,0.4
		l0,0.4l0,0.4l0,0.4l0,0.4L337.7,521.2L337.7,521.2z M337.5,530.4c0,0.9,1.3,0.9,1.3,0l0-0.3l0-0.4l0-0.4l0-0.4l0-0.4l0-0.4l0-0.4
		l0-0.1c0-0.9-1.3-0.9-1.3,0l0,0.1l0,0.4l0,0.4l0,0.4l0,0.4l0,0.4l0,0.4L337.5,530.4z M337.5,539.5c0,0.9,1.3,0.9,1.3,0l0-0.3l0-0.4
		l0-0.4l0-0.4l0-0.4l0-0.4v-0.4v-0.2c0-0.6-0.6-0.8-1.1-0.5c-0.1,0.1-0.2,0.3-0.2,0.5v0.2l0,0.4l0,0.4l0,0.4v0.4l0,0.4l0,0.4
		L337.5,539.5z M337.6,548.7c0,0.8,1.3,0.9,1.3,0l0-0.2l0-0.3l0-0.3l0-0.3l0-0.3l0-0.3l0-0.3l0-0.3l0-0.1c0-0.8-1.3-0.9-1.3,0l0,0.1
		l0,0.3l0,0.3l0,0.3l0,0.3l0,0.3l0,0.3l0,0.3L337.6,548.7z M337.9,557.8c0,0.8,1.3,0.9,1.3-0.1v0l0-0.3l0-0.3l0-0.3l0-0.3l0-0.3
		l0-0.3l0-0.3l0-0.3l0-0.1c0-0.8-1.3-0.9-1.3,0l0,0.1l0,0.3l0,0.3l0,0.3l0,0.3l0,0.3l0,0.3l0,0.3L337.9,557.8L337.9,557.8z
		 M338.4,567c0,0.8,1.3,0.9,1.3-0.1l0-0.2l0-0.3l0-0.3l0-0.3l0-0.3l0-0.3l0-0.3l0-0.3l0-0.3l0-0.1c0-0.8-1.3-0.9-1.3,0.1l0,0.1
		l0,0.3l0,0.3l0,0.3l0,0.3l0,0.3l0,0.3l0,0.3l0,0.3L338.4,567z M339.2,576.1c0.2,1,1.4,0.6,1.3-0.1l0,0l0-0.3l0-0.3l0-0.3l0-0.3
		l0-0.3l0-0.3l0-0.3l0-0.3l0-0.3l0-0.2c0-0.7-1.3-0.9-1.3,0.1l0,0.2l0,0.3l0,0.3l0,0.3l0,0.3l0,0.3l0,0.3l0,0.3l0,0.3L339.2,576.1
		L339.2,576.1z M340.2,585.2c0.1,0.9,1.4,0.6,1.3-0.2l0-0.2l0-0.2l0-0.2l0-0.2l0-0.2l0-0.2l0-0.2l0-0.2l0-0.2l0-0.2l0-0.2l0,0
		c-0.2-0.9-1.4-0.6-1.3,0.2l0,0l0,0.2l0,0.2l0,0.2l0,0.2l0,0.2l0,0.2l0,0.2l0,0.2l0,0.2l0,0.2L340.2,585.2z M341.3,594.3
		c0,0.8,1.3,0.9,1.3-0.1l0-0.2l0-0.3l0-0.3l0-0.3l0-0.3l0-0.3l0-0.3l0-0.3l0-0.3l0,0c-0.2-0.9-1.4-0.6-1.3,0.2l0,0l0,0.3l0,0.3
		l0,0.3l0,0.3l0,0.3l0,0.3l0,0.3l0,0.3L341.3,594.3z M341.4,603.4c0,0.9,1.3,0.9,1.3,0l0-0.2l0-0.5l0-0.5l0-0.5l0-0.5l0-0.4
		c0-0.9-1.3-0.9-1.3,0l0,0.4l0,0.5l0,0.5l0,0.5l0,0.5L341.4,603.4z M341.2,612.5c0,0.9,1.3,0.8,1.3,0l0-0.6l0-0.6l0-0.6l0-0.6l0-0.1
		c0-0.9-1.3-0.9-1.3,0l0,0.1l0,0.6l0,0.6l0,0.6L341.2,612.5z M340.8,621.6c0,0.9,1.3,0.8,1.3,0.1l0-0.2l0-0.7l0-0.7l0-0.7l0-0.3
		c0-0.9-1.3-0.8-1.3-0.1l0,0.3l0,0.7l0,0.7l0,0.7L340.8,621.6z M340.3,630.8c0,1,1.3,0.8,1.3,0.1l0-0.3l0-0.8l0-0.8l0-0.7
		c0-0.9-1.3-0.8-1.3-0.1l0,0.7l0,0.8l0,0.8L340.3,630.8z M339.8,639.9c0,1,1.3,0.8,1.3,0.1l0-0.5l0.1-0.8l0-0.8l0-0.4
		c0-1-1.3-0.8-1.3-0.1l0,0.4l0,0.8l0,0.8L339.8,639.9z M339.2,649c0,1,1.3,0.8,1.3,0.1l0-0.3l0.1-0.9l0.1-0.9l0-0.6
		c0-1-1.3-0.8-1.3-0.1l0,0.6l-0.1,0.9l-0.1,0.9L339.2,649z M338.6,658.1c0,1,1.3,0.8,1.3,0.1l0-0.6l0.1-0.9l0.1-0.9l0-0.2
		c0-1-1.3-0.8-1.3-0.1l0,0.2l-0.1,0.9l-0.1,0.9L338.6,658.1z M338,667.3c0,1,1.3,0.8,1.3,0.1l0-0.7l0.1-0.9l0.1-0.9l0-0.1
		c0-1-1.3-0.8-1.3-0.1l0,0.1l-0.1,0.9l-0.1,0.9L338,667.3z M337.3,676.4c0,1,1.3,0.8,1.3,0.1l0-0.6l0.1-0.9l0.1-0.9l0-0.1
		c0-1-1.3-0.8-1.3-0.1l0,0.1l-0.1,0.9l-0.1,0.9L337.3,676.4z M336.7,685.5c0,1,1.3,0.8,1.3,0.1l0-0.5l0.1-0.9l0.1-0.9l0-0.3
		c0-1-1.3-0.8-1.3-0.1l0,0.3l-0.1,0.9l-0.1,0.9L336.7,685.5z M336,694.6c0,1,1.3,0.8,1.3,0.1l0-0.4l0.1-0.9l0.1-0.9l0-0.4
		c0-1-1.3-0.8-1.3-0.1l0,0.4l-0.1,0.9l-0.1,0.9L336,694.6z M335.3,703.8c0,1,1.3,0.8,1.3,0.1l0-0.4l0.1-0.9l0.1-0.9l0-0.4
		c0-1-1.3-0.8-1.3-0.1l0,0.4l-0.1,0.9l-0.1,0.9L335.3,703.8z M334.7,712.9c0,1,1.3,0.8,1.3,0.1l0-0.5l0.1-0.9l0.1-0.9l0-0.3
		c0-1-1.3-0.8-1.3-0.1l0,0.3l-0.1,0.9l-0.1,0.9L334.7,712.9z M334,722c0,1,1.3,0.8,1.3,0.1l0-0.1l0.1-0.9l0.1-0.9l0.1-0.8
		c0-1-1.3-0.8-1.3-0.1l-0.1,0.8l-0.1,0.9L334,722L334,722z M333.4,731.1c0,1,1.3,0.8,1.3,0.1l0,0l0.1-0.8l0.1-0.8l0.1-0.8l0-0.1
		c0-1-1.3-0.8-1.3-0.1l0,0.1l-0.1,0.8l-0.1,0.8L333.4,731.1L333.4,731.1z M332.8,740.3c0,1,1.3,0.8,1.3,0.1l0-0.5l0-0.8l0.1-0.8
		l0-0.6c0-1-1.3-0.8-1.3-0.1l0,0.6l-0.1,0.8l0,0.8L332.8,740.3z M332.2,749.4c0,1,1.3,0.8,1.3,0.1l0-0.2l0-0.7l0-0.7l0-0.7l0-0.3
		c0-1-1.3-0.8-1.3-0.1l0,0.3l0,0.7l0,0.7l0,0.7L332.2,749.4z M331.7,758.5c0,0.9,1.3,0.8,1.3,0.1l0-0.3l0-0.6l0-0.6l0-0.6l0-0.5
		c0-1-1.3-0.8-1.3-0.1l0,0.5l0,0.6l0,0.6l0,0.6L331.7,758.5z M331.3,767.7c0,0.9,1.3,0.9,1.3,0l0-0.4l0-0.5l0-0.5l0-0.5l0-0.5l0-0.3
		c0-0.9-1.3-0.8-1.3-0.1l0,0.3l0,0.5l0,0.5l0,0.5l0,0.5L331.3,767.7z M287,463.9c-0.5,0.8,0.7,1.4,1.1,0.8l0,0l0.2-0.3l0.2-0.3
		l0.2-0.3l0.2-0.3l0.2-0.3l0.2-0.3l0.2-0.3l0.2-0.2c0.5-0.9-0.7-1.4-1-0.8l-0.2,0.3l-0.2,0.3l-0.2,0.3l-0.2,0.3l-0.2,0.3l-0.2,0.3
		l-0.2,0.3L287,463.9L287,463.9z M282,471.7c-0.4,0.7,0.7,1.4,1.1,0.7l0.1-0.1l0.2-0.4l0.2-0.4l0.2-0.4l0.2-0.4l0.2-0.4l0.2-0.3
		c0.5-0.8-0.7-1.4-1.1-0.7l-0.2,0.3L283,470l-0.2,0.4l-0.2,0.4l-0.2,0.4l-0.2,0.4L282,471.7z M277.4,479.6c-0.4,0.7,0.7,1.4,1.1,0.6
		l0.2-0.4l0.2-0.4l0.2-0.4l0.2-0.4l0.2-0.4l0.1-0.2c0.4-0.7-0.7-1.4-1.1-0.6l-0.1,0.2l-0.2,0.4l-0.2,0.4l-0.2,0.4l-0.2,0.4
		L277.4,479.6z M273,487.7c-0.4,0.7,0.7,1.4,1.1,0.6l0,0l0.1-0.3l0.2-0.5l0.2-0.5l0.2-0.5l0.2-0.5l0.1-0.2l0-0.1
		c0.3-0.7-0.7-1.3-1.2-0.6l-0.1,0.2l-0.2,0.5l-0.2,0.5l-0.2,0.5l-0.2,0.5L273,487.7z M268.9,495.8c-0.3,0.8,0.7,1.3,1.2,0.6l0.2-0.5
		l0.2-0.5l0.3-0.5l0.2-0.5l0.2-0.3c0.1-0.1,0.1-0.4,0-0.5c-0.2-0.6-0.9-0.6-1.2-0.1l-0.2,0.3l-0.3,0.5l-0.2,0.5l-0.3,0.5
		L268.9,495.8z M265,504.1c-0.3,0.9,0.9,1.3,1.2,0.5l0.1-0.3l0.2-0.5l0.2-0.5l0.2-0.5l0.2-0.5c0.4-0.9-0.9-1.3-1.2-0.5l-0.2,0.5
		l-0.2,0.5l-0.2,0.5l-0.2,0.5L265,504.1z M261.3,512.5c-0.3,0.8,0.9,1.3,1.2,0.5l0.2-0.4l0.2-0.6l0.2-0.6l0.2-0.6l0.1-0.3
		c0.3-0.8-0.9-1.3-1.2-0.5l-0.1,0.3L262,511l-0.2,0.6l-0.2,0.6L261.3,512.5z M257.8,521c-0.3,0.8,0.9,1.3,1.2,0.5l0.2-0.4l0.2-0.6
		l0.2-0.6l0.2-0.6l0.1-0.3c0.3-0.8-0.9-1.3-1.2-0.5l-0.1,0.3l-0.2,0.6l-0.2,0.6l-0.2,0.6L257.8,521z M254.6,529.6
		c-0.3,0.8,0.9,1.3,1.2,0.5l0,0l0.2-0.4l0.2-0.6l0.2-0.6l0.2-0.6l0.1-0.3c0.3-0.8-0.9-1.3-1.2-0.5l-0.1,0.3l-0.2,0.6l-0.2,0.6
		l-0.2,0.6L254.6,529.6z M251.7,538.3c-0.3,0.7,0.9,1.2,1.2,0.5l0-0.1l0.2-0.5l0.2-0.6l0.2-0.6l0.2-0.6l0.1-0.3
		c0.1-0.3-0.1-0.7-0.3-0.8c-0.4-0.2-0.7,0-0.9,0.4l-0.1,0.3l-0.2,0.6l-0.2,0.6l-0.2,0.6L251.7,538.3z M249,547.1
		c-0.2,0.8,0.9,1.2,1.3,0.3l0.1-0.2l0.2-0.6l0.2-0.6l0.2-0.6l0.2-0.6l0,0c0.3-0.7-0.9-1.3-1.3-0.4l0,0l-0.2,0.6l-0.2,0.6l-0.2,0.6
		l-0.2,0.6L249,547.1z M246.8,556c-0.2,0.9,1.1,1,1.3,0.3l0.1-0.3l0.1-0.5l0.1-0.5l0.1-0.5l0.1-0.5l0-0.1c0.2-1-1.1-1-1.3-0.3l0,0.1
		l-0.1,0.5l-0.1,0.5l-0.1,0.5l-0.1,0.5L246.8,556z M245.1,565c-0.1,0.8,1.1,1.1,1.3,0.2l0-0.3l0.1-0.5l0.1-0.5l0.1-0.5l0.1-0.5
		l0-0.2c0.1-0.9-1.1-1.1-1.3-0.2l0,0.2l-0.1,0.5l-0.1,0.5l-0.1,0.5l-0.1,0.5L245.1,565z M244.2,574.2c0,0.9,1.3,0.8,1.3,0.1l0-0.1
		l0-0.5l0-0.5l0-0.5l0-0.5l0-0.5l0-0.1c0-1-1.3-0.8-1.3-0.1l0,0.2l0,0.5l0,0.5l0,0.5l0,0.5L244.2,574.2L244.2,574.2z M244.4,583.4
		c0.2,1,1.4,0.6,1.3-0.1l0-0.4l0-0.4l0-0.4l0-0.4l0-0.4l0-0.4l0-0.1c0-0.8-1.3-0.9-1.3,0.1l0,0.1l0,0.4l0,0.4l0,0.4l0,0.4l0,0.4
		L244.4,583.4z M245.9,592.5c0.1,0.8,1.4,0.6,1.3-0.2l0-0.2l-0.1-0.4l-0.1-0.4l-0.1-0.4l-0.1-0.4l-0.1-0.4l-0.1-0.4
		c-0.1-0.8-1.4-0.6-1.3,0.2l0.1,0.4l0.1,0.4l0.1,0.4l0.1,0.4l0.1,0.4l0.1,0.4L245.9,592.5z M247.5,601.5c0.1,0.8,1.4,0.6,1.3-0.2
		l0-0.2l-0.1-0.4l-0.1-0.4l-0.1-0.4l-0.1-0.4l-0.1-0.4l0-0.2c-0.1-0.8-1.4-0.6-1.3,0.2l0,0.2l0.1,0.4l0.1,0.4l0.1,0.4l0.1,0.4
		l0.1,0.4L247.5,601.5z M249,610.5c0.1,0.8,1.4,0.6,1.3-0.2l0-0.2l-0.1-0.5l-0.1-0.5l-0.1-0.5l-0.1-0.5l-0.1-0.5l0-0.1
		c-0.1-0.8-1.4-0.6-1.3,0.2l0,0.1l0.1,0.5l0.1,0.5l0.1,0.5l0.1,0.5l0.1,0.5L249,610.5z M250.5,619.5c0.1,0.9,1.4,0.6,1.3-0.2
		l-0.1-0.3l-0.1-0.5l-0.1-0.5l-0.1-0.5l-0.1-0.5l-0.1-0.4c-0.1-0.9-1.4-0.6-1.3,0.2l0.1,0.4l0.1,0.5l0.1,0.5l0.1,0.5l0.1,0.5
		L250.5,619.5z M252,628.5c0.1,0.9,1.4,0.6,1.3-0.2l-0.1-0.4l-0.1-0.5L253,627l-0.1-0.5l-0.1-0.5l-0.1-0.3c-0.1-0.9-1.4-0.6-1.3,0.2
		l0.1,0.3l0.1,0.5l0.1,0.5l0.1,0.5l0.1,0.5L252,628.5z M253.4,637.6c0.1,0.9,1.4,0.6,1.3-0.2l-0.1-0.4l-0.1-0.5l-0.1-0.5l-0.1-0.5
		l-0.1-0.5l0-0.3c-0.1-0.9-1.4-0.6-1.3,0.2l0,0.3l0.1,0.5l0.1,0.5l0.1,0.5l0.1,0.5L253.4,637.6z M254.8,646.6
		c0.1,0.9,1.4,0.6,1.3-0.2l0-0.1l-0.1-0.5l-0.1-0.5l-0.1-0.5l-0.1-0.5l-0.1-0.5l0-0.2c-0.1-0.9-1.4-0.6-1.3,0.2l0,0.2l0.1,0.5
		l0.1,0.5l0.1,0.5l0.1,0.5L254.8,646.6L254.8,646.6z M256.1,655.7c0.1,0.9,1.4,0.6,1.3-0.2l0-0.1l-0.1-0.4l-0.1-0.4l-0.1-0.4
		l-0.1-0.4l-0.1-0.4l0-0.3c-0.1-0.9-1.4-0.6-1.3,0.2l0,0.3l0.1,0.4l0.1,0.4l0.1,0.4l0.1,0.4L256.1,655.7L256.1,655.7z M257.4,664.7
		c0.1,0.9,1.4,0.6,1.3-0.2l0-0.1l-0.1-0.4l-0.1-0.4l-0.1-0.4l-0.1-0.4l-0.1-0.4l0-0.4c-0.1-0.9-1.4-0.6-1.3,0.2l0,0.4l0.1,0.4
		l0.1,0.4l0.1,0.4l0.1,0.4l0.1,0.4L257.4,664.7z M258.6,673.8c0.2,0.9,1.4,0.6,1.3-0.2l0-0.2l0-0.4l0-0.4l0-0.4l-0.1-0.4l0-0.4
		l-0.1-0.4l0-0.2c-0.2-0.9-1.4-0.6-1.3,0.2l0,0.2l0,0.4l0.1,0.4l0,0.4l0,0.4l0,0.4l0,0.4L258.6,673.8z M259.7,682.9
		c0.2,0.9,1.4,0.6,1.3-0.1l0-0.3l0-0.3l0-0.3l0-0.3l0-0.3l0-0.3l0-0.3l0-0.3l0-0.1c-0.2-0.9-1.4-0.6-1.3,0.2l0,0.1l0,0.3l0,0.3
		l0,0.3l0,0.3l0,0.3l0,0.3l0,0.3L259.7,682.9z M260.6,691.9c0,0.7,1.3,0.9,1.3-0.1l0-0.1l0-0.2l0-0.2l0-0.2l0-0.2l0-0.2l0-0.2l0-0.2
		l0-0.2l0-0.2l0-0.2l0-0.2c-0.1-0.8-1.3-0.8-1.3,0.1l0,0.2l0,0.2l0,0.2l0,0.2l0,0.2l0,0.2l0,0.2l0,0.2l0,0.2l0,0.2L260.6,691.9
		L260.6,691.9z M262.1,701.1c0.1,0.7,1.4,0.7,1.3-0.3l0,0l0-0.2l0-0.2l0-0.2l0-0.2l0-0.2l0-0.2l0-0.2l0-0.2l0-0.2l0-0.2l0-0.2l0-0.2
		l0-0.2l0-0.2l0-0.1c-0.1-0.8-1.4-0.6-1.3,0.3l0,0.1l0,0.2l0,0.2l0,0.2l0,0.2l0,0.2l0,0.2l0,0.2l0,0.2l0,0.2l0,0.2l0,0.2l0,0.2
		l0,0.2L262.1,701.1L262.1,701.1z M265.2,709.8c0.3,0.7,1.5,0.3,1.2-0.5l0,0l0-0.1l0-0.1l0-0.1l0-0.1l0-0.1l0-0.1l-0.1-0.1l0-0.1
		l0-0.1l0-0.1l0-0.1l0-0.1l0-0.1l0-0.1l0-0.1l0-0.1l0-0.1l0-0.1l0-0.1l0-0.1l0,0c-0.3-0.8-1.5-0.3-1.2,0.5l0,0l0.1,0.1l0,0.1l0,0.1
		l0.1,0.1l0,0.1l0.1,0.1l0,0.1l0.1,0.1l0,0.1l0.1,0.1l0,0.1l0.1,0.1l0,0.1l0.1,0.1l0,0.1l0.1,0.1l0.1,0.1l0,0.1l0.1,0.1L265.2,709.8
		L265.2,709.8z M268.7,718.1c0.1,0.7,1.4,0.7,1.3-0.3l0,0l0-0.1l0-0.1l0-0.1l0-0.1l0-0.1l0-0.1l0-0.1l0-0.1l0-0.1l0-0.1l0-0.1l0-0.1
		l0-0.1l0-0.1l0-0.1l0-0.1l0-0.1l0-0.1l0-0.1l0-0.1l0-0.1l0-0.1l0-0.1l0-0.1l0-0.1l0-0.1l0-0.1l0-0.1l0-0.1l0,0
		c-0.3-0.8-1.5-0.3-1.2,0.5l0,0l0,0.1l0,0.1l0,0.1l0,0.1l0,0.1l0,0.1l0,0.1l0,0.1l0,0.1l0,0.1l0,0.1l0,0.1l0,0.1l0,0.1l0,0.1l0,0.1
		l0,0.1l0,0.1l0,0.1l0,0.1l0,0.1l0,0.1l0,0.1l0,0.1l0,0.1l0,0.1l0,0.1L268.7,718.1L268.7,718.1L268.7,718.1z M268.7,727.2
		c0.1,0.7,1.4,0.7,1.3-0.3c-0.2-0.7-0.2-1.6-0.1-2.4c0.1-0.7-1.1-1.1-1.3-0.1C268.4,725.3,268.4,726.2,268.7,727.2z M254.3,401.7
		c0,0.8,1.3,0.9,1.3,0l0,0l0-0.1l0-0.1l0-0.1l0-0.1l0-0.1v-0.1l0-0.1v-0.1l0-0.1v-0.1V401V401l0-0.1l0-0.1v-0.1l0-0.1l0-0.1l0-0.1
		l0-0.1l0-0.1l0-0.1l0-0.1l0-0.1l0-0.1l0-0.1l0-0.1l0-0.1l0-0.1l0-0.1l0-0.1l0-0.1l0-0.1l0-0.1l0-0.1l0-0.1l0-0.1l0-0.1l0-0.1l0-0.1
		l0-0.1l0-0.1l0-0.1l0-0.1l0-0.1c0.1-0.8-1.1-1.1-1.3-0.2l0,0.1l0,0.1l0,0.1l0,0.1l0,0.1l0,0.1l0,0.1l0,0.1l0,0.1l0,0.1l0,0.1l0,0.1
		l0,0.1l0,0.1l0,0.1l0,0.1l0,0.1l0,0.1l0,0.1l0,0.1l0,0.1l0,0.1l0,0.1l0,0.1l0,0.1l0,0.1l0,0.1l0,0.1v0.1l0,0.1l0,0.1l0,0.1v0.1v0.1
		v0.1l0,0.1v0.1l0,0.1l0,0.1v0.1l0,0.1l0,0.1L254.3,401.7L254.3,401.7L254.3,401.7z M253.5,410.5c-0.3,0.8,0.9,1.2,1.2,0.4l0,0
		l0-0.1l0-0.1l0-0.1l0-0.1l0-0.1l0-0.1l0-0.1l0-0.1l0-0.1l0-0.1l0-0.1l0-0.1l0-0.1l0-0.1l0-0.1l0-0.1l0-0.1l0-0.1l0-0.1l0-0.1l0-0.1
		l0-0.1l0-0.1l0-0.1l0-0.1l0-0.1l0-0.1l0-0.1l0-0.1l0-0.1l0,0c0.1-0.9-1.1-1.1-1.3-0.2l0,0l0,0.1l0,0.1l0,0.1l0,0.1l0,0.1l0,0.1
		l0,0.1l0,0.1l0,0.1l0,0.1l0,0.1l0,0.1l0,0.1l0,0.1l0,0.1l0,0.1l0,0.1l0,0.1l0,0.1l0,0.1l0,0.1l0,0.1l0,0.1l0,0.1l0,0.1l0,0.1l0,0.1
		l0,0.1l0,0.1L253.5,410.5L253.5,410.5z M299.4,392.6c0.2,1,1.4,0.6,1.3-0.1c0-0.7-0.3-2-0.4-2.7c-0.1-0.7-1.4-0.7-1.3,0.3
		C299.2,390.8,299.4,392,299.4,392.6z M299.6,401.7c0,0.9,1.3,0.9,1.3,0c0-0.9,0-1.7,0-2.6c0-0.9-1.3-0.9-1.3,0
		C299.6,399.9,299.6,400.8,299.6,401.7z M303.9,392.3c-0.1,0.8,1.1,1.1,1.3,0.1c0.1-0.9,0.2-1.8,0.2-2.7c0-0.6-0.6-0.8-1.1-0.5
		c-0.1,0.1-0.2,0.3-0.2,0.5C304.1,390.7,304,391.5,303.9,392.3z M304.1,401.6c0.1,0.7,1.4,0.7,1.3-0.3l0,0l0-0.1l0-0.1l0-0.1l0-0.1
		l0,0l0-0.1l0-0.1l0-0.1l0-0.1l0-0.1l0-0.1l0-0.1l0-0.1l0-0.1l0-0.1l0-0.1l0-0.1l0-0.1l0-0.1l0-0.1l0-0.1l0,0l0-0.1l0,0l0-0.1l0-0.1
		l0,0l0,0l0-0.1l0-0.1l0,0l0-0.1l0,0l0,0l0-0.1l0-0.1l0-0.1l0,0l0-0.1l0-0.1l0,0l0-0.1l0,0l0,0l0-0.1l0,0l0,0
		c-0.2-1-1.4-0.6-1.3,0.1l0,0.1l0,0.1l0,0l0,0.1l0,0.1l0,0.1l0,0.1l0,0.1l0,0.1l0,0.1l0,0.1l0,0.1l0,0.1l0,0.1l0,0.1l0,0.1l0,0
		l-0.3,0l-0.5,0l-0.5,0h-0.5l0,0c-0.9,0-0.9,1.3,0,1.3l0.1,0h0.5l0.5,0l0.5,0l0.5,0l0,0l0,0l0,0.1l0,0.1l0,0.1l0,0.1l0,0.1
		L304.1,401.6L304.1,401.6L304.1,401.6z M254.7,386.9c0,0.9,1.3,0.8,1.3,0.1c0-0.9,0.1-1.8,0-2.7c0-0.7-1.3-0.9-1.3,0.1
		C254.8,385.2,254.7,386.1,254.7,386.9z M253.9,396c-0.1,0.8,1.1,1.1,1.3,0.2c0.1-0.8,0.2-1.8,0.3-2.6c0.1-0.7-1.1-1.1-1.3-0.1
		C254.1,393.4,253.9,395.7,253.9,396z M258.1,388.4c0,0.8,1.3,0.9,1.3-0.1c-0.1-0.9-0.1-1.8-0.3-2.7c-0.1-0.8-1.4-0.6-1.3,0.2
		C258,386.8,258,387.6,258.1,388.4z M258.3,397.5c0,0.9,1.3,0.9,1.3,0l0-2.5c0.3-0.3,0.3-0.9-0.2-1.1l-0.1,0l-0.3-0.1l-0.3-0.1
		l-0.3-0.1l-0.3-0.1l-0.3-0.1l-0.3-0.1l-0.3-0.1l-0.3-0.1l-0.2-0.1c-0.8-0.3-1.3,0.9-0.4,1.2l0.2,0.1l0.3,0.1l0.3,0.1l0.3,0.1
		l0.3,0.1l0.3,0.1l0.3,0.1l0,0v0L258.3,397.5z M248.5,390.8c0-0.5,0-1,0-1.5c0.1,0,0.2,0,0.3,0.1l0.1,0.1l0.1,0.1l0.1,0.1l0.1,0.1
		l0.1,0.1l0.1,0.1l0.1,0.1l0.1,0.1l0.1,0.1l0.1,0.1l0.1,0.1l0.1,0.1l0.1,0.1l0.2,0.1l0.2,0.1l0.2,0.1l0.1,0c0.2,0.1,0.3,0.2,0.4,0.5
		c0.1,0.5-0.5,0.9-0.9,0.7l-0.1,0l-0.2-0.1l-0.2-0.1l-0.2-0.1l-0.2-0.1l-0.2-0.1l-0.1-0.1l-0.1-0.1l-0.1-0.1l-0.1-0.1l-0.1-0.1
		l-0.1-0.1L248.5,390.8L248.5,390.8z M249.6,419.3l0.3-1.2l0.1-0.1l0.1-0.1l0.1-0.1l0.1-0.1l0.1-0.1l0.1-0.1l0.1-0.1l0.1-0.1
		l0.1-0.1l0.1-0.1l0.1-0.1l0.1-0.1l0.1-0.1l0,0c0.4-0.7,1.6-0.1,1.1,0.6l-0.1,0.1l-0.1,0.1l-0.1,0.1l-0.1,0.1l-0.1,0.1l-0.1,0.1
		l-0.1,0.1l-0.1,0.1l-0.1,0.1l-0.1,0.1l-0.1,0.1l-0.1,0.1l-0.1,0.1l-0.1,0.1l-0.1,0.1l-0.1,0.1l-0.1,0.1
		C250.4,419.8,249.8,419.6,249.6,419.3z M273.3,734.6c-0.5-0.1-1-0.3-1.5-0.5l0,0l0-0.1l0-0.1l0-0.1l0-0.1l0-0.1l0-0.1l0-0.1l0-0.1
		l0-0.1l0-0.1l0-0.1c-0.3-0.8,0.9-1.3,1.2-0.5l0,0.1l0,0.1l0,0.1l0,0.1l0,0.1l0,0.1l0,0.1l0,0.1l0,0.1l0,0.1l0,0.1l0,0.1l0,0.1
		l0,0.1l0,0.1l0,0.1l0,0.1l0,0.1l0,0.1L273.3,734.6L273.3,734.6z M281.1,401.9c0-0.8-1.3-0.9-1.3,0l0,0.2l0,0.2l0,0.2l0,0.2l0,0.2
		l0,0.2l0,0.2l0,0.2l0,0.2l0,0.2l0,0.2l0,0.2l0,0.2l0,0.2l0,0.2l0,0.2l0,0.2v0c0,0.8,1.3,0.9,1.3-0.1v0l0-0.2l0-0.2l0-0.2l0-0.2
		l0-0.2l0-0.2l0-0.2l0-0.2l0-0.2l0-0.2l0-0.2l0-0.2l0-0.2l0-0.2l0-0.1l0-0.2L281.1,401.9z"/>
	<path class="st7" d="M273.3,392.9c1.1,0,1.9,1.7,1.9,3.7c0,2.1-0.9,3.7-1.9,3.7c-1.1,0-1.9-1.7-1.9-3.7
		C271.4,394.6,272.3,392.9,273.3,392.9"/>
</g>
</svg>
