<?xml version="1.0" encoding="utf-8"?>
<!-- Generator: Adobe Illustrator 19.2.1, SVG Export Plug-In . SVG Version: 6.00 Build 0)  -->
<svg version="1.1" id="Ebene_1" xmlns="http://www.w3.org/2000/svg" xmlns:xlink="http://www.w3.org/1999/xlink" x="0px" y="0px"
	 viewBox="0 0 595.3 841.9" style="enable-background:new 0 0 595.3 841.9;" xml:space="preserve">
<style type="text/css">
	.st0{fill:#232020;}
	.st1{fill:#734E4D;}
	.st2{fill:#E8A94D;}
	.st3{fill:#442601;}
	.st4{opacity:5.000000e-002;}
	.st5{fill:#FFFFFF;}
	.st6{opacity:0.3;}
	.st7{opacity:0.1;}
	.st8{fill:#B8400B;}
</style>
<g>
	<path d="M388.1,788.8c0,0,0.4,22.7,2.8,29.7l10.1,3.2h7.3c0,0-0.7,9.8,10.5,9.4c11.2-0.4,34.3,0.4,38.5-2.4c0,0,4.9-6.3-9.8-18.7
		c-14.7-12.4-14-19.4-15-27.4L388.1,788.8z"/>
	<path d="M298.3,775.2c0,0,7.3,19.9,2.4,39.5l-10.1,4.5h-4.2v7.3c0,0-8,8.4-36.7,6.6c0,0-26.2,1-5.2-24.1
		c21-25.2,14.7-30.8,14.7-30.8L298.3,775.2z"/>
	<g>
		<path class="st0" d="M420.3,676.2c-8-52.1-18.5-78.3-18.5-78.3l-22.4-172.3c19.9-3.1,25.5,5.6,25.5,5.6l5.2-2.4
			c8-57-8.7-195.1-8.7-195.1c-8.7-85.6-17.8-82.8-17.8-82.8c-69.9-15-77.3-34.6-77.3-34.6c-2.1-4.9,1.7-26.2,1.7-26.2l1.9,0.5
			c6.6-1.7,4.1-19.4,4.1-19.4s11.5-27.6,0-44.7c-11.5-17.1-22-21.7-49.3-15c-27.3,6.6-25.9,39.9-24.1,45.4c1.7,5.6,0,7.7,0.7,19.2
			c0.7,11.5,5.6,9.1,5.6,9.1c8,37.8,2.4,37.4,2.4,37.4c-8.7,15.7-70.6,35-70.6,35c-4.2,1.4-6.3,7-6.3,22.4
			c0,15.4,1.4,71.3-7.7,104.9c-9.1,33.6-4.9,46.1-4.9,46.1c3.1,81.1,35.7,122.4,35.7,122.4c-1.4,43,28,174.4,28,174.4
			c5.9,144.7,32.5,165,32.5,165s8.7-6.6,25.2-5.2c16.4,1.4,19.9-4.5,19.9-4.5c10.1-47.2-9.4-147.9-17.1-177.2
			c-7.7-29.4,10.5-124.8,10.5-124.8c18.9,21,49.3,137.7,51,165c1.7,27.3,38.5,146.1,38.5,146.1c9.8,10.8,61.5-6.3,61.5-6.3
			C447.6,762.6,420.3,676.2,420.3,676.2z M207.4,336.1l-4.2-26.2l4.2-24.5c4.9,10.1,5.9,35.3,5.9,35.3L207.4,336.1z M368.2,351.1
			c0,0-4.9-24.1-6.6-33.6c-1.7-9.4,2.1-18.2,2.1-18.2s3.8,11.2,4.5,22.4C368.9,332.9,368.2,351.1,368.2,351.1z"/>
	</g>
	<path class="st1" d="M306.3,116.2c-0.7-1.6-0.7-5.1-0.5-9.1c-11-8.1-28.9-13.2-54.8,3.7c0.9,11.8-1.7,11.6-1.7,11.6
		c-2.4,4.3-8.9,9-17,13.4l-7.9,19l6.8,2.8l-12.8,7.9c0,0,8,68.1,60,150.6c0,0-2.6-34.5,36.5-94.2c0,0,17.2-26.6,18.6-50.8
		l-11.2-13.1l8.4-7l-8.5-21.2C308.6,122.1,306.3,116.2,306.3,116.2z"/>
	<path class="st2" d="M241.3,76c0.7,11.5,5.6,9.1,5.6,9.1c6.1,28.4,4.4,35.3,3.2,36.9c4.9,13.4,11.5,23.9,27.6,23.9
		c20.8,0,28.7-29.7,28.7-29.7c-2.1-4.9,1.7-26.2,1.7-26.2l1.9,0.5c6.6-1.7,4.1-19.4,4.1-19.4s11.5-27.6,0-44.7
		c-11.5-17.1-22-21.7-49.3-15c-27.3,6.6-25.9,39.9-24.1,45.4C242.4,62.4,240.6,64.5,241.3,76z"/>
	<path class="st3" d="M241.3,60.3c3.8,3.3,5.9,7.8,7.3,12.6c1.4-3.2,2.4-6.6,3.4-9.8c1.8-6.2,0.2-13.8,3.3-19.6c5-9.4,19-8.9,28.3-9
		c9.7-0.1,23.1,0.5,25.6,12c1.3,6-0.8,12.1-1.3,18c-0.4,4.7,1,8.7,2.8,12.7c0.7-6.2,3.3-6.1,3.3-6.1s12.1-25,3.7-43.9
		c-9.5-21.4-39.4-24.6-56.2-17c-25.6,11.6-22.7,40.9-21,46.5C241,58.1,241.2,59.2,241.3,60.3z"/>
	<path class="st4" d="M250.9,109c0.3,3.2,14.2,27.2,27,27c15.3-0.2,27.8-24.7,27.8-26.1c-6.9,7.3-16.3,13.5-16.3,13.5
		c-10.5,6.3-21.2,0-21.2,0C259.1,118.2,253.9,112.9,250.9,109z"/>
	<path class="st2" d="M377.3,426.4c0,0-6.1,13.5-6.5,22.6c-0.5,9.1-1.4,28,1.9,29.1c3.3,1.2,7.7,0.5,9.3-18.6c0,0,3.6-5.7,3,18.6
		c0,0-10.3,21.2-2.3,22.1l5.4-7.8c0,0-3.9,12.6,2,15.1l15-27.8l3-19.6c0,0,1.7-4.3,0-17l-3.1-12
		C404.9,431.2,399.2,421.5,377.3,426.4z"/>
	<path class="st5" d="M250.1,122c0,0,6.7,17.3,27.6,23.9c0,0,16-5.5,28.7-29.7c0,0,15,1.9-12.9,109.1c0,0-18,55-15.1,90.9
		c0,0-10-60.7-25.5-105.8C236.5,162.8,249.7,132.9,250.1,122z"/>
	<path class="st6" d="M279.5,344.8c0,0,1.1,55.9,39.7,141.2c0,0,3.6,15.4,51.1-11.2c0,0-34.2,14.7-45.4-0.7
		C313.7,458.8,284.3,379.4,279.5,344.8z"/>
	<path class="st6" d="M195.5,453.2c0,0,14.7,16.8,37.8-17.5c0,0,23.8-31.5,36.4-67.1c0,0-40.5,122.4-73.4,103.5L195.5,453.2z"/>
	<g class="st7">
		<path d="M250.1,131.8c-0.2,5.1-5.4,7.5-5.4,27.2l19.3,27.2l13.6-40.2C256.8,139.3,250.1,131.8,250.1,131.8z"/>
		<path d="M309.6,122.5c-12.7,24.2-32,23.4-32,23.4l18.5,40.2l12.5-33.1C312.1,129.8,309.6,122.5,309.6,122.5z"/>
	</g>
	<g>
		<path class="st5" d="M250.1,122c-0.2,5.1-3.2,14.3-4.6,27.5l18.6,26.8l13.6-30.4C256.8,139.3,250.1,122,250.1,122z"/>
		<path class="st5" d="M306.3,116.2c-12.7,24.2-28.7,29.7-28.7,29.7l18.5,30.4l14.2-43.3C310.5,116.7,306.3,116.2,306.3,116.2z"/>
	</g>
	<path class="st8" d="M280.5,279.3l10.1-71.4l-8.4-43.2l1.5-5.7l-2.9-7.9h-4.9l-6.3,18.6l-10.3,38.3l10,63c5.7,25.5,9,45.3,9,45.3
		C277.4,305,278.5,291.9,280.5,279.3z"/>
</g>
</svg>
