<?xml version="1.0" encoding="utf-8"?>
<!-- Generator: Adobe Illustrator 19.2.1, SVG Export Plug-In . SVG Version: 6.00 Build 0)  -->
<svg version="1.1" id="Ebene_1" xmlns="http://www.w3.org/2000/svg" xmlns:xlink="http://www.w3.org/1999/xlink" x="0px" y="0px"
	 viewBox="0 0 426.7 274.7" style="enable-background:new 0 0 426.7 274.7;" xml:space="preserve">
<style type="text/css">
	.st0{display:none;}
	.st1{display:inline;fill:#314A97;}
	.st2{font-family:'078MKSDMediumCondensed';}
	.st3{font-size:360px;}
	.st4{fill:#F3F3F3;}
	.st5{fill:#386E91;}
	.st6{fill:#F3F3F3;stroke:#F3F3F3;stroke-width:3;stroke-miterlimit:10;}
</style>
<g id="J" class="st0">
</g>
<g id="D" class="st0">
	<text transform="matrix(1 0 0 1 2.2269 265.7134)" class="st1 st2 st3">D</text>
</g>
<g id="J-geschnitten">
	<path class="st4" d="M102.3,56.8c-1.1,0-2,0.9-2,2v160.5c0,7.9-2.7,14.6-8.2,20.1s-12.1,8.3-20,8.3h-15c-8.1,0-14.9-2.7-20.3-8.2
		c-5.5-5.5-8.2-12.3-8.2-20.4v-42.3c0-0.7-0.2-1.1-0.7-1.1H11.7c-0.5,0-0.7,0.4-0.7,1.1v42.5c0,13,4.4,23.9,13.3,32.8
		c8.9,8.9,19.8,13.3,32.8,13.3h15.1c12.7,0,23.5-4.5,32.4-13.5c8.9-9,13.3-19.9,13.3-32.6V58.7c0-1.1-0.9-2-2-2L102.3,56.8
		L102.3,56.8z"/>
</g>
<g id="D-geschnitten">
	<g>
		<path class="st5" d="M28.6,37.1c0-6,3-9,8.9-9h34.6c7.8,0,14.5,2.8,20,8.3c2.3,2.3,4.1,4.8,5.4,7.5c0.5,0.9,1.6,1.4,2.5,0.9
			l12.6-5.3c1-0.4,1.5-1.7,1-2.7c-2.2-4.6-5.2-8.9-9-12.8c-8.9-9-19.7-13.5-32.4-13.5H11.7c-0.5,0-0.7,0.4-0.7,1.1v150.9
			c0,1.1,0.9,2,2,2h13.7c1.1,0,2-0.9,2-2V37.1H28.6z"/>
		<path class="st5" d="M21.5,254.8c-4.6-4.6-8.1-9.7-10.5-15.3v25.2c0,0.5,0.2,0.7,0.7,0.7H37C31.3,263,26.1,259.4,21.5,254.8z"/>
	</g>
</g>
<g id="ury">
	<g>
		<g>
			<path class="st6" d="M217,225.4c0,10.6-3.7,19.6-11.2,27c-7.4,7.3-16.5,11-27.1,11h-10.1c-10.6,0-19.7-3.7-27.3-11
				c-7.5-7.3-11.3-16.3-11.3-27V58.6c0.2-0.4,0.5-0.6,0.9-0.6h12.8c0.4,0.2,0.6,0.4,0.6,0.6v166.5c0,6.8,2.4,12.5,7.1,17.1
				c4.7,4.6,10.5,6.9,17.3,6.9h9.9c6.8,0,12.5-2.3,17.3-6.9c4.7-4.6,7.1-10.3,7.1-17.1V58.6c0-0.4,0.2-0.6,0.6-0.6h13
				c0.4,0.2,0.6,0.4,0.6,0.6v166.8H217z"/>
			<path class="st6" d="M317.3,262.8c0,0.4-0.2,0.6-0.6,0.6h-13c-0.8,0-1.2-0.3-1.2-0.8l-22.7-87.9c-1.2-4.5-4.1-6.7-8.9-6.7h-18.6
				c-4.6,0-6.9,2.3-6.9,7v87.9c0,0.4-0.2,0.6-0.6,0.6h-13c-0.4,0-0.6-0.2-0.6-0.6v-204c0-0.6,0.2-0.9,0.6-0.9h48.4
				c10.2,0,19,3.6,26.2,10.9s10.9,16,10.9,26.2v35.7c0,8.1-1.7,14.7-5.2,19.7c-2.7,4.1-7.8,8.6-15.4,13.6c-2.5,1.7-3.7,4-3.5,6.7
				c0,1,0.1,1.7,0.3,2.3L317.3,262.8z M303.1,130.9V95.1c0-6.4-2.3-11.7-6.7-16.2c-4.5-4.4-9.9-6.6-16.2-6.6h-27.8
				c-4.6,0-6.9,2.4-6.9,7.2v67.3c0,4.6,2.3,6.9,6.9,6.9h27.8c6.3,0,11.7-2.2,16.2-6.6C300.8,142.7,303.1,137.3,303.1,130.9z"/>
			<path class="st6" d="M415,58.6l-39.7,100.9c-0.8,1.9-1.2,4.1-1.2,6.4v97.2c0,0.2-0.2,0.3-0.6,0.3h-13c-0.4,0-0.6-0.1-0.6-0.3
				v-96.8c0-2.3-0.3-4.4-1-6.4l-40-101.2c0-0.4,0.2-0.6,0.6-0.6h14.3c0.4,0.2,0.7,0.3,0.9,0.3l29.9,76.3c0.6,1.2,1.4,1.7,2.6,1.7
				c1.3,0,2.2-0.5,2.6-1.5l30-76.2c0.2-0.4,0.6-0.6,1.2-0.6h13.8C415.1,58.1,415.2,58.3,415,58.6z"/>
		</g>
	</g>
</g>
</svg>
