<?xml version="1.0" encoding="utf-8"?>
<!-- Generator: Adobe Illustrator 19.2.1, SVG Export Plug-In . SVG Version: 6.00 Build 0)  -->
<svg version="1.1" id="Ebene_1" xmlns="http://www.w3.org/2000/svg" xmlns:xlink="http://www.w3.org/1999/xlink" x="0px" y="0px"
	 viewBox="0 0 595.3 841.9" style="enable-background:new 0 0 595.3 841.9;" xml:space="preserve">
<style type="text/css">
	.st0{fill-rule:evenodd;clip-rule:evenodd;fill:#F0B58F;}
	.st1{fill-rule:evenodd;clip-rule:evenodd;fill:#A34717;}
	.st2{fill-rule:evenodd;clip-rule:evenodd;fill:#BD4F29;}
	.st3{fill-rule:evenodd;clip-rule:evenodd;fill:#709EB5;}
	.st4{fill-rule:evenodd;clip-rule:evenodd;fill:#456E82;}
	.st5{fill-rule:evenodd;clip-rule:evenodd;fill:#424773;}
	.st6{fill-rule:evenodd;clip-rule:evenodd;fill:#2E3352;}
	.st7{fill-rule:evenodd;clip-rule:evenodd;fill:#FFFFFF;}
	.st8{fill-rule:evenodd;clip-rule:evenodd;fill:#C28C6E;}
	.st9{fill-rule:evenodd;clip-rule:evenodd;fill:#4A0808;}
	.st10{fill:#5C544F;}
</style>
<g>
	<path class="st0" d="M290.7,33.4c9.3,1.8,33.1,6.6,32.2,25.6c-0.9,19-2.2,28.2-0.9,28.2c1.3,0,4.4,4,1.8,14.1
		c-2.6,10.1-4.9,11.9-7.5,11.9c-2.6,0-3.1,3.5-3.5,7.1c-0.4,3.5-1.7,6-3.9,7.8c-2.2,1.8-3.6,5.9-3.6,9.9c0,4,5.3,4,15,6.2
		c9.7,2.2,19.4,4,27.8,4.9c8.4,0.9,28.7,27.8,29.1,55.6c0.4,27.8,0,19.9,2.2,36.6c2.2,16.8,10.6,66.2,11.9,91.8
		c1.3,25.6-2.2,57.4-4.4,73.3c-2.2,15.9-7.1,29.1-8.4,39.3c-1.3,10.1,0.1,18.3,1.4,25c1.3,6.8,2.1,12.9,4.3,23.5
		c2.2,10.6,7.5,63.1,0.9,75.9c-6.6,12.8-11,15.9-10.1,19c0.9,3.1,5.7,27.8,3.5,44.6c-2.2,16.8-6.2,30-10.1,35.7
		c-4,5.7,4,22.9,1.8,34.9c-2.2,11.9-7.5,26-6.2,30.4c1.3,4.4,5.3,19,9.7,25.2c4.4,6.2,11,33.1-2.6,36.6
		c-13.7,3.5-35.3,6.6-38.4-15.4c-3.1-22.1-4-30.9-10.6-37.1c-6.6-6.2-19-25.6-12.8-28.7c6.2-3.1,2.6-10.6,1.3-20.3
		c-1.3-9.7-2.6-19,2.6-21.2c5.3-2.2,6.2-24.3,5.3-34.4c-0.9-10.1-1.3-15.9,1.3-20.3c2.6-4.4-3.5-15.4-2.2-21.6
		c1.3-6.2-5.3-11.5-10.6-17.2c-5.3-5.7-4-9.3-6.2-16.8c-2.2-7.5-3.1-3.1-4.4,4.9c-1.3,7.9,1.8,37.5-1.3,41.9
		c-3.1,4.4,3.1,22.5,2.6,36.6c-0.4,14.1-3.5,30.9-2.2,42.8c1.3,11.9,6.2,24.3,3.1,28.2c-3.1,4,5.7,16.3,10.1,22.9
		c4.4,6.6,3.1,13.7,1.3,23.8c-1.8,10.1-0.9,11.9-5.3,11.9c-4.4,0-1.8,8.4,0,13.7c1.8,5.3,5.3,24.7-20.3,24.3
		c-25.6-0.4-27.4-7.5-26.5-20.7c0.9-13.2,0-15-2.6-18.1c-2.6-3.1-1.8-19.4,4.4-23.8c6.2-4.4,2.6-17.2-3.5-41
		c-6.2-23.8-21.4-105.6-26.9-132.1c-5.5-26.5-10.1-65.5-13.2-91.9c-3.1-26.5,3.9-53.8,4.7-70.9c0.8-17.1-8.6-32.7-3.1-58.4
		c5.5-25.7,3.1-60.8-0.8-71.7c-3.9-10.9-8.6-13.2-13.2-3.1c-4.7,10.1-2.3,14.1-3.4,26.1c-1,12-6.8,30.3-6.8,43.3c0,13.1-1,56.9,0,71
		s1,29.8-0.5,39.2c-1.6,9.4-3.7,13.1-3.1,19.3c0.5,6.3,2.1,9.9-3.1,6.8c-5.2-3.1-5.7-2.1-11-6.3c-5.2-4.2-7.3-1.6-12-8.9
		c-4.7-7.3-5.2-10.4-6.3-16.7c-1-6.3-3.1-37.6-2.6-59c0.5-21.4-3.7-48.6,2.1-81.4c5.7-32.9,8.9-58,14.6-86.1
		c5.7-28.2,12.5-51.2,23.5-58.5c11-7.3,31.3-18.3,43.9-22.4c12.5-4.2,17.8-6.8,17.2-21.9c-0.5-15.1-1.6-19.8-4.7-19.8
		c-3.1,0-6.8-0.5-8.9-6.3c-2.1-5.7-2.6-19.3,3.1-20.9c5.7-1.6,2.1-7.8,1.6-14.6C246.8,58.6,251,27.3,290.7,33.4"/>
	<path class="st1" d="M290.7,33.4c9.3,1.8,33.1,6.6,32.2,25.6c-0.9,19-2.2,28.2-0.9,28.2c0.2,0,0.6,0.1,0.9,0.4
		c-0.4,0.7-0.7,1.3-1,1.7c-4.2,6.8-3.1,6.3-5.7,12.5c-2.6,6.3,0-9.9,0.5-17.2c0.5-7.3,4.7-21.9-0.5-19.3c-5.2,2.6-10.4-5.7-20.9-8.4
		c-10.4-2.6-24-5.2-30.8-0.5c-6.8,4.7-9.9,27.1-11.5,36.5c-1.4,8.1-3.5-6.8-5.1-14.3c2.3-2.6-0.3-7.8-0.7-13.3
		C246.8,58.6,251,27.3,290.7,33.4"/>
	<path class="st2" d="M381.7,257.3c16,3.7,31.9,15.2,36.7,35.3c5.3,22.4,1.1,37.8-4.3,49.5c-5.3,11.7-6.9,18.6,1.1,35.1
		c8,16.5,28.7,69.2,0,79.3c-17.6,6.2-28.4,8.8-36.1,7.4c-1.4-4.9-1.6-10.9-0.6-18.4c1.3-10.1,6.2-23.4,8.4-39.3
		c2.2-15.9,5.7-47.7,4.4-73.3C390.3,313.3,385.1,279.4,381.7,257.3"/>
	<path class="st3" d="M352.3,337c-2.1,24.6,19.1,75.2,20.9,97.8c0.8,10.9,6.7,31.9,8.8,39.6c2.1,7.7,0.2,9.1,2.4,19.7
		c2.2,10.6,7.5,63.1,0.9,75.9c-6.6,12.8-11,15.9-10.1,19c0.9,3.1,5.7,27.8,3.5,44.6c-2.2,16.8-6.2,30-10.1,35.7
		c-4,5.7,4,22.9,1.8,34.9c-2.2,11.9-7.5,26-6.2,30.4c0.2,0.7,0.5,1.7,0.9,2.9c-12.5,5.5-29.5,7-39.1,10.7c0,0-0.1,0-0.1,0.1
		c-1-1.6-2.1-3.1-3.5-4.4c-6.6-6.2-19-25.6-12.8-28.7c6.2-3.1,2.6-10.6,1.3-20.3c-1.3-9.7-2.6-19,2.6-21.2
		c5.3-2.2,6.2-24.3,5.3-34.4c-0.9-10.1-1.3-15.9,1.3-20.3c2.6-4.4-3.5-15.4-2.2-21.6c1.3-6.2-5.3-11.5-10.6-17.2
		c-5.3-5.7-4-9.3-6.2-16.8c-2.2-7.5-3.1-3.1-4.4,4.9c-1.3,7.9,1.8,37.5-1.3,41.9c-3.1,4.4,3.1,22.5,2.6,36.6
		c-0.4,14.1-3.5,30.9-2.2,42.8c1.3,11.9,6.2,24.3,3.1,28.2c-3.1,4,5.7,16.3,10.1,22.9c4.4,6.6,3.1,13.7,1.3,23.8
		c-1.8,10.1-0.9,11.9-5.3,11.9c-1.5,0-2.2,1-2.4,2.5c-11.4-6.6-33.1-4.3-44.4,2c-0.4-2.6-1.3-3.8-2.7-5.3
		c-2.6-3.1-1.8-19.4,4.4-23.8c6.2-4.4,2.6-17.2-3.5-41c-6.2-23.8-21.4-105.6-26.9-132.1c-5.5-26.5-10.1-65.5-13.2-91.9
		c-3.1-26.5,3.9-53.8,4.7-70.9c0.4-9.6-2.3-18.7-3.8-29.3L352.3,337z"/>
	<path class="st4" d="M311.6,754.6c-0.1,0.7-0.1,1.5-0.2,2.2c-6.1,4-41.5,6.8-57.1,15.6c-1-5.9,0.6-17.1,5.5-20.7
		c1-0.7,1.8-1.7,2.3-2.8c0.7,0.7,1.5,1.5,2.2,2.4c9.1,11.4,17.7,3.4,23.9,3.4c6.3,0-12-5.7-9.7-13.7c2.3-8,22.2-3.4,14.8,0
		c-7.4,3.4,2.3,6.3,16.5,12.5C310.7,754,311.2,754.3,311.6,754.6 M299.6,560c-1.3-2-2.1,2-3.1,8.2c-1.3,7.9,1.8,37.5-1.3,41.9
		c-3.1,4.4,3.1,22.5,2.6,36.6c-0.4,14.1-3.5,30.9-2.2,42.8c1.3,11.7,6,23.9,3.2,28.1c-4-7.8-9.3-19-19.1-36.4
		c-12.5-22.2-14.8-62.1-14.8-82.6s10.8-93.4,12.5-107.7c1.7-14.2,13.1-28.5,2.3-37c-10.8-8.5-21.6-5.7-32.5,4.6
		c-10.8,10.3-17.7,30.2-12,38.7c5.7,8.5,3.4,9.7,8,28.5c4.6,18.8-1.7,42.2,3.4,51.3c5.1,9.1-4,10.8-1.1,26.2
		c2.8,15.4,2.8,37.6,4.6,53.6c1.7,16,29.1,48.4,41,59.8c11.7,11.2-8.8,16.3-28.4,21.9c-0.9-6.7-3.3-15.8-6.4-27.7
		c-6.2-23.8-21.4-105.6-26.9-132.1c-5.5-26.5-10.1-65.5-13.2-91.9c-3.1-26.5,3.9-53.8,4.7-70.9c0.2-3.9-0.2-7.8-0.8-11.7L315,397
		c0,0,18.2,4.6,12,8.5c-6.3,4,3.4,8.5,14.2,16c10.8,7.4-10.3,1.1-17.7-2.3c-7.4-3.4-31.9-13.1-35.3-9.1c-3.4,4-1.1,13.7,8,22.8
		c9.1,9.1,19.9,1.7,33.6,1.7c13.7,0-10.8,25.6-19.9,30.2c-9.1,4.6,0,16,8,14.2c8-1.7,16.5-2.3,33.6-1.7c17.1,0.6,9.1,5.1-10.3,4
		c-19.4-1.1-17.7,8.5-13.7,22.2c4,13.7,4,39.3,2.3,55.8c-1.7,16.5-17.1-25.6-25.1-33C297.4,519.5,299.2,547.6,299.6,560z M342.1,744
		c-6.2,1.3-12.1,2.6-16.4,4.2c0,0-0.1,0-0.1,0.1c-1-1.6-2.1-3.1-3.5-4.4c-6.6-6.2-19-25.6-12.8-28.7c6.2-3.1,2.6-10.6,1.3-20.3
		c-1.3-9.7-2.6-19,2.6-21.2c5.3-2.2,6.2-24.3,5.3-34.4c-0.9-10.1-1.3-15.9,1.3-20.3c2.6-4.4-3.5-15.4-2.2-21.6
		c1.3-6.2-5.3-11.5-10.6-17.2c-1.2-1.3-2-2.4-2.6-3.5c0.9-0.2,1.9-0.6,3.2-1.4c7.4-4.6,19.9,2.8,35.3,10.8c15.4,8,4.6,19.4,8,31.3
		c3.4,12,6.3,63.2,12.5,76.3c6.3,13.1,6.3,18.2-1.7,17.1c-8-1.1-24.5,9.1-14.8,14.2C355.4,729.6,340.3,734.1,342.1,744z"/>
	<path class="st5" d="M314.3,142.9c1.8,0.3,3.7,0.7,6,1.2c7.7,1.8,15.5,3.2,22.6,4.2c0.3,0.5,0.6,1.1,0.9,1.6
		c9.8,18.7,18.2,182.1,21.4,194.1c3.1,12,7.6,53.4,1.3,53.9c-6.2,0.4-35.2,5.8-62.8,8c-26.3,2.1-67.2-1.8-83.7-2.2
		c-2-13-6.5-26.8-2.3-46.4c5.5-25.7,3.1-60.8-0.8-71.7c-3.9-10.9-8.6-13.2-13.2-3.1c-4.7,10.1-2.3,14.1-3.4,26.1
		c-1,12-6.8,30.3-6.8,43.3c0,13.1-1,56.9,0,71c1,13.9,1,29.3-0.4,38.7c-0.3-0.1-0.6-0.2-1-0.4c-14.1-6.8-21.5-6.3-33.9-1.1
		c-0.2-1.2-0.4-2.4-0.7-3.8c-1-6.3-3.1-37.6-2.6-59c0.5-21.4-3.7-48.6,2.1-81.4c5.7-32.9,8.9-58,14.6-86.1
		c5.7-28.2,12.5-51.2,23.5-58.5c11-7.3,31.3-18.3,43.9-22.4c3.7-1.2,6.7-2.3,9.1-3.6c5.9,13.3,19.8,16.7,37.4,16.7
		C304.2,162,313.2,152.1,314.3,142.9"/>
	<path class="st5" d="M342.9,148.4c1.8,0.2,3.5,0.5,5.2,0.6c8.4,0.9,28.7,27.8,29.1,55.6c0.4,27.8,0,19.9,2.2,36.6
		c2.2,16.8,10.6,66.2,11.9,91.8c1.3,25.6-2.2,57.4-4.4,73.3c-1.7,12.4-5,23.1-7,32.1c-3.4-0.3-5.7-1.1-6.5-3.4
		c-1-2.6-5.4-21-9.5-36.7c1.1-0.1,1.9-0.2,2.6-0.3c6.2-0.4,1.8-41.8-1.3-53.9c-1.5-5.8-4.3-47.3-7.9-90.6
		c-0.4-16.8-0.7-32.6-0.9-40.1c-0.2-9.2-3.1-24.1-7.1-38.2c-1.8-12.4-3.6-21.6-5.5-25.2C343.5,149.4,343.2,148.9,342.9,148.4"/>
	<path class="st6" d="M351.9,150.7c3.6,2.4,8,7.2,12.2,13.7c0.6,12,4.5,21.9,6.3,45.5c1.9,25.5-0.6,52.3-1.9,77.8
		c-1.3,25.5-2.5,38.9,1.3,58.6c3.8,19.8,4.5,49.7-3.8,54.2c-0.5,0-1.1-0.1-1.6-0.2l-0.5-2c1.1-0.1,1.9-0.2,2.6-0.3
		c6.2-0.4,1.8-41.8-1.3-53.9c-1.5-5.8-4.3-47.3-7.9-90.6c-0.4-16.8-0.7-32.6-0.9-40.1c-0.2-7.7-2.3-19.4-5.2-31.3
		c0.5-2.2,0.8-3.5,0.8-3.5V150.7z"/>
	<path class="st7" d="M314.3,142.9c1.8,0.3,3.7,0.7,6,1.2c2.6,0.6,5.2,1.1,7.8,1.7c-3.3,14-12.8,28.2-39.8,29.6
		c-27.6,1.4-41.1-10.9-49.6-26.4l0.4-0.1c3.7-1.2,6.7-2.3,9.1-3.6c5.9,13.3,19.8,16.7,37.4,16.7C304.2,162,313.2,152.1,314.3,142.9"
		/>
	<path class="st6" d="M226.1,404c-2.3-0.1-4.3-0.2-6.1-0.2c-2-13-6.5-26.8-2.3-46.4c5.5-25.7,3.1-60.8-0.8-71.7
		c-2.2-6.1-4.6-9.6-7.2-9.6c5.5-8.4,9.5-23,8.3-35c-1.3-13.4-7.6-57.4-1.3-42.7c6.4,14.7,43.3,49.1,34.4,70.1
		c-8.9,21-18.5,38.9-18.5,56.7c0,17.8,40.8,27.4,23.6,37c-17.2,9.6-34.4,23.6-28.7,26.1C232.1,390.3,230.4,397.4,226.1,404"/>
	<path class="st6" d="M186.2,378.1c-1.9-35.7-13.4-180.4-7.6-148.5c5.7,31.9,13.4,95,14,110.3C193.2,355.2,186.9,389,186.2,378.1"/>
	<path class="st6" d="M190,218.1c0,20.4,5.1,77.8,5.1,91.8c0,14,1.3-6.4,1.3-35.1S189.4,209.2,190,218.1"/>
	<path class="st7" d="M384,421.7c-1.4,6.1-3,11.7-4.1,16.7c-3.4-0.3-5.7-1.1-6.5-3.4c-0.6-1.5-2.3-8.4-4.4-16.9
		C373.5,419,378.6,420.2,384,421.7"/>
	<path class="st8" d="M156.9,451.1c0-0.2,0-0.4-0.1-0.6L156.9,451.1z M193.1,461.7l-0.1,0.5c-1.6,9.4-3.7,13.1-3.1,19.3
		c0.5,6.3,2.1,9.9-3.1,6.8c-5.2-3.1-5.7-2.1-11-6.3c-5.2-4.2-7.3-1.6-12-8.9c-3.7-5.7-4.8-8.8-5.6-12.9c1.5-0.6,2.9-1.2,4.2-1.7
		c0.5,2,1.1,4.3,1.8,6.7c3.2,10,6,14.8,7.2,10.8c1.2-4,4-22.9,4.8-15.6c0.8,7.2,2.8,17.2,7.6,20.1c4.8,2.8,4.4-3.2,4.4-8.8v-12.1
		c1.2,0.5,2.5,1.1,3.8,1.7C192.4,461.4,192.8,461.6,193.1,461.7z"/>
	<path class="st9" d="M302.5,779c-0.3,2.9,1.2,7.7,2.4,11.2c1.8,5.3,5.3,24.7-20.3,24.3c-25.6-0.4-27.4-7.5-26.5-20.7
		c0.4-6.5,0.4-10.3,0-12.7C269.3,774.7,291.1,772.4,302.5,779"/>
	<path class="st9" d="M364.8,737.5c1.8,6.1,5.2,17.1,8.9,22.3c4.4,6.2,11,33.1-2.6,36.6c-13.7,3.5-35.3,6.6-38.4-15.4
		c-2.4-17.4-3.5-26.6-7.1-32.7c0,0,0.1,0,0.1-0.1C335.3,744.5,352.4,743,364.8,737.5"/>
	<path class="st4" d="M365.1,666.5c-4-14.2-12-53.6-1.1-57.5C374.8,604.9,379.9,644.8,365.1,666.5"/>
	<path class="st4" d="M387.7,525.4c1.1,17.8,1.2,37.4-2.5,44.6c-5.8,11.2-9.9,15-10.2,17.8c-5.4-13.8-8.6-26.1-2.4-42.1
		C376.2,536.1,380.9,531.7,387.7,525.4"/>
	<path class="st8" d="M244.8,85.5c3.3-0.2,5.3,5.3,4.9,8.1c-0.5,2.8-3-0.7-2.8,4C247.2,102.2,242,85.5,244.8,85.5"/>
	<path class="st8" d="M256.2,127.8c0-0.3,0-0.5,0-0.8c-0.3-8.9-0.8-14.2-1.8-17c-0.9-6-1.9-12-2.6-14.7c0.4,0.5,0.8-0.1,1.2-2.2
		c1.6-9.4,4.7-31.8,11.5-36.5c6.8-4.7,20.4-2.1,30.8,0.5c6.8,1.7,11.4,5.9,15.3,7.8c-2.2,0-4.9-2-8.1-3.7
		c-4.7-2.6-19.1-5.3-28.1-6.5c-9.1-1.2-15.1,10.7-16.7,21.4c-1.6,10.7,0.2,19.3,3,28.4c2.8,9.1,0.7,16,2.6,24.4
		c1.9,8.4,11.4,16,22.6,16c11.2,0,18.4-12.1,22.6-16.7c-12.3,21.2-23.7,23-23.7,27.4c0,1.8,0.4,4.2,0.5,6.5c-9.3,0-17.5-1-24.1-3.9
		c-0.7-1.3-1.2-2.6-1.3-3.7C259.1,148.5,256.9,135.1,256.2,127.8"/>
	<path class="st2" d="M329.6,146.1c6.5,1.3,12.8,2.3,18.5,2.9c2.5,0.3,6.1,2.9,10,7.2c3.1,8.1,3.9,9.2,7.2,37.8s-3.3,61.5-1.9,98.6
		c1.4,37.1,0.8,43.9,0.3,49.4c-1.6-11.7-10.1-29.3-13.8-45.3c-3.7-16-2.7-45.8-1.1-60.7c1.6-14.9,0-26.1-3.7-43.1
		C341.7,178,336,156.8,329.6,146.1"/>
	<path class="st10" d="M341.3,410.2c0.5,0.5,1.3-0.3,0.8-0.8l-0.1-0.1l-0.1-0.1l-0.1-0.1l-0.1-0.1l-0.1-0.1l-0.1-0.1l-0.1-0.1
		l-0.1-0.1l-0.1-0.1l0,0c-0.5-0.5-1.3,0.3-0.8,0.8l0,0l0.1,0.1l0.1,0.1l0.1,0.1l0.1,0.1l0.1,0.1l0.1,0.1l0.1,0.1L341.3,410.2
		L341.3,410.2z M346.8,414.3c0.7,0.4,1.2-0.6,0.6-1l0,0l-0.1-0.1l-0.1-0.1l-0.1-0.1l-0.1-0.1l-0.1-0.1l-0.1-0.1l-0.1-0.1l-0.1-0.1
		l-0.1,0c-0.7-0.4-1.2,0.5-0.6,0.9l0.1,0l0.1,0.1l0.1,0.1l0.1,0.1l0.1,0.1l0.1,0.1l0.1,0.1l0.1,0.1L346.8,414.3L346.8,414.3z
		 M352.9,417.6c0.6,0.3,1.2-0.7,0.5-1l0,0l-0.1-0.1l-0.1-0.1l-0.1-0.1l-0.1-0.1l-0.1-0.1l-0.1-0.1l-0.1-0.1l-0.1,0
		c-0.6-0.3-1.2,0.7-0.5,1l0.1,0l0.1,0.1l0.1,0.1l0.1,0.1l0.1,0.1l0.1,0.1l0.1,0.1L352.9,417.6L352.9,417.6z M359.3,420
		c0.7,0.2,1.1-0.8,0.4-1.1l-0.1,0l-0.2-0.1l-0.2-0.1l-0.2-0.1l-0.2-0.1l-0.2-0.1l-0.2-0.1l0,0c-0.7-0.3-1.1,0.8-0.4,1.1l0,0l0.2,0.1
		l0.2,0.1l0.2,0.1l0.2,0.1l0.2,0.1l0.2,0.1L359.3,420z M365.9,422c0.7,0.2,1-0.9,0.3-1.1l-0.1,0l-0.2,0l-0.2,0l-0.2,0l-0.2,0l-0.2,0
		l-0.1,0c-0.7-0.2-1,0.9-0.3,1.1l0.1,0l0.2,0l0.2,0l0.2,0l0.2,0L365.9,422L365.9,422z M255.8,413.2c-0.4,0.7,0.5,1.2,0.9,0.6l0,0
		l0.1-0.1l0.1-0.1l0.1-0.1l0.1-0.1l0.1-0.1l0.1-0.1l0.1-0.1l0.1-0.1l0.1-0.1l0.1-0.1c0.4-0.6-0.6-1.2-1-0.6l-0.1,0.1l-0.1,0.1
		l-0.1,0.1l-0.1,0.1l-0.1,0.1l-0.1,0.1l-0.1,0.1L256,413l-0.1,0.1L255.8,413.2L255.8,413.2z M251.4,418.2c-0.6,0.6,0.3,1.3,0.8,0.8
		l0.1-0.1l0.1-0.1l0.1-0.1l0.1-0.1l0.1-0.1l0.1-0.1l0.1-0.1l0.1-0.1l0,0c0.5-0.5-0.3-1.3-0.8-0.8l0,0l-0.1,0.1l-0.1,0.1l-0.1,0.1
		l-0.1,0.1l-0.1,0.1l-0.1,0.1L251.4,418.2L251.4,418.2z M246.1,422.3c-0.6,0.4,0,1.4,0.6,0.9l0,0l0.1-0.1l0.1-0.1l0.1-0.1l0.1-0.1
		l0.1-0.1l0.1-0.1l0.1-0.1c0.6-0.5-0.1-1.3-0.7-0.9l-0.1,0.1l-0.1,0.1l-0.1,0.1l-0.1,0.1l-0.1,0.1l-0.1,0.1L246.1,422.3L246.1,422.3
		z M240.3,425.7c-0.7,0.3-0.2,1.4,0.5,1l0.1,0l0.2-0.1l0.2-0.1l0.2-0.1l0.2-0.1l0.2-0.1l0.2-0.1l0,0c0.6-0.3,0.2-1.4-0.5-1l0,0
		l-0.2,0.1l-0.2,0.1l-0.2,0.1l-0.2,0.1l-0.2,0.1L240.3,425.7L240.3,425.7z M234.1,428.3c-0.7,0.3-0.3,1.3,0.4,1.1l0,0l0.2-0.1
		l0.2-0.1l0.2-0.1l0.2-0.1l0.2-0.1l0.2-0.1l0,0c0.7-0.2,0.3-1.3-0.4-1.1l0,0L235,428l-0.2,0.1l-0.2,0.1l-0.2,0.1l-0.2,0.1
		L234.1,428.3L234.1,428.3z M227.6,430.2c-0.7,0.1-0.5,1.3,0.2,1.1l0.1,0l0.2,0l0.2,0l0.2,0l0.2,0l0.2,0l0.1,0
		c0.8-0.2,0.4-1.3-0.3-1.1l-0.1,0l-0.2,0l-0.2,0l-0.2,0l-0.2,0L227.6,430.2L227.6,430.2z M222.1,431.1l-0.2,0l-0.2,0l-0.2,0l-0.2,0
		l-0.2,0 M221.2,432.3l0.2,0l0.2,0l0.2,0l0.2,0l0.2,0l0,0c0.7-0.1,0.6-1.2-0.1-1.1h0l0.1,1.1 M221.2,431.2c-0.8,0.1-0.6,1.2,0.1,1.1
		L221.2,431.2z M298.8,409.3c0,0.7,1.1,0.8,1.1,0v0l0-0.2l0-0.2l0-0.2l0-0.2v-0.2l0-0.2v-0.2c0-0.2-0.1-0.4-0.3-0.5
		c-0.4-0.2-0.8,0.1-0.8,0.5v0.2l0,0.2l0,0.2l0,0.2l0,0.2l0,0.2L298.8,409.3L298.8,409.3z M299.1,416.1c0.1,0.8,1.1,0.7,1.1-0.1
		l0-0.1l0-0.2l0-0.2l0-0.2l0-0.2l0-0.2v0c0-0.7-1.1-0.8-1.1,0l0,0l0,0.2l0,0.2l0,0.2l0,0.2L299.1,416.1L299.1,416.1z M299.4,422.9
		c0.1,0.8,1.2,0.6,1.1-0.1l0-0.2l0-0.2l0-0.2l0-0.2l0-0.2c-0.1-0.8-1.2-0.6-1.1,0.1l0,0.2l0,0.2l0,0.2l0,0.2L299.4,422.9z
		 M299.8,429.7c0.1,0.8,1.2,0.6,1.1-0.1l0-0.2l0-0.3l0-0.3l0-0.3l0-0.2c-0.1-0.8-1.2-0.6-1.1,0.1l0,0.2l0,0.3l0,0.3l0,0.3
		L299.8,429.7z M300.3,436.5c0.1,0.8,1.2,0.6,1.1-0.1l0-0.1l0-0.3l0-0.3l0-0.3l0-0.3l0,0c-0.1-0.8-1.2-0.6-1.1,0.1l0,0l0,0.3l0,0.3
		l0,0.3L300.3,436.5L300.3,436.5z M300.7,443.3c0.1,0.8,1.2,0.6,1.1-0.1v0l0-0.2l0-0.2l0-0.2l0-0.3l0-0.1c-0.1-0.8-1.2-0.6-1.1,0.1
		l0,0.1l0,0.3l0,0.2l0,0.2L300.7,443.3L300.7,443.3z M301.2,450.1c0.1,0.8,1.2,0.6,1.1-0.1l0-0.1l0-0.2l0-0.2l0-0.2l0-0.2l0-0.1
		c-0.1-0.8-1.2-0.6-1.1,0.1l0,0.1l0,0.2l0,0.2l0,0.2l0,0.2L301.2,450.1z M301.6,456.9c0.1,0.8,1.2,0.6,1.1-0.1l0-0.1l0-0.2l0-0.2
		l0-0.2l0-0.2l0-0.2l0-0.1c-0.1-0.8-1.2-0.6-1.1,0.1l0,0.1l0,0.2l0,0.2l0,0.2l0,0.2l0,0.2L301.6,456.9z M301.8,463.1
		c0,0.2,0.1,0.4,0.3,0.5c0.4,0.2,0.8-0.1,0.8-0.5v-0.1v-0.1l0-0.1l0-0.1v-0.1c0-0.7-1.1-0.8-1.1,0l0,0.1v0.1l0,0.1v0.1V463.1z
		 M311.3,408.9c0.1,0.7,1.2,0.6,1.1-0.1l0,0l0-0.1l0-0.1l0-0.1l0-0.1l0-0.1l0-0.1l0-0.1l0-0.1c-0.1-0.8-1.2-0.6-1.1,0.1l0,0.1l0,0.1
		l0,0.1l0,0.1l0,0.1l0,0.1l0,0.1L311.3,408.9L311.3,408.9z M312,415.7c0.1,0.7,1.2,0.6,1.1-0.1l0-0.2l0-0.2l0-0.2l0-0.2l0-0.2l0,0
		c-0.1-0.7-1.2-0.6-1.1,0.1l0,0l0,0.2l0,0.2l0,0.2l0,0.2L312,415.7z M312.7,422.5c0.1,0.7,1.2,0.6,1.1-0.1l0-0.2l0-0.3l0-0.3l0-0.3
		l0-0.1c-0.1-0.7-1.2-0.6-1.1,0.1l0,0.1l0,0.3l0,0.3l0,0.3L312.7,422.5z M313.2,429.2c0.1,0.8,1.2,0.6,1.1-0.1l0-0.1l0-0.3l0-0.3
		l0-0.3l0-0.2c-0.1-0.8-1.2-0.6-1.1,0.1l0,0.2l0,0.3l0,0.3L313.2,429.2L313.2,429.2z M313.6,436c0,0.7,1.1,0.8,1.1,0l0-0.2l0-0.3
		l0-0.3l0-0.3v0c-0.1-0.8-1.1-0.7-1.1,0.1v0l0,0.3l0,0.3l0,0.3L313.6,436z M313.7,442.8c0,0.8,1.1,0.7,1.1,0l0-0.1l0-0.3l0-0.3v-0.3
		v-0.1c0-0.7-1.1-0.7-1.1,0v0.1l0,0.3l0,0.3l0,0.3L313.7,442.8z M313.4,449.6c-0.1,0.7,1.1,0.8,1.1,0.1l0-0.1l0-0.3l0-0.3l0-0.3
		l0-0.2c0.1-0.7-1.1-0.9-1.1-0.1l0,0.2l0,0.3l0,0.3l0,0.3L313.4,449.6z M312.4,456.2c-0.2,0.7,0.9,1,1.1,0.3l0-0.2l0.1-0.2l0.1-0.2
		l0-0.2l0-0.2l0,0c0.1-0.8-1-0.9-1.1-0.2l0,0l0,0.2l0,0.2l0,0.2l-0.1,0.2L312.4,456.2z M309.7,462.1c-0.5,0.6,0.4,1.3,0.9,0.7l0,0
		l0.1-0.1l0.1-0.1l0.1-0.1l0.1-0.1l0.1-0.1l0.1-0.1l0.1-0.1c0.4-0.7-0.5-1.2-0.9-0.6l-0.1,0.1l-0.1,0.1l-0.1,0.1l-0.1,0.1l-0.1,0.1
		l-0.1,0.1L309.7,462.1L309.7,462.1z M336.8,403.6c-0.5-0.6-1.4,0.1-0.9,0.7l0.1,0.1l0.1,0.1l0.1,0.1l0.1,0.1l0.1,0.1l0.1,0.1
		l0.1,0.1l0.1,0.1l0.1,0.1c0.4,0.6,1.4-0.1,0.9-0.7l-0.1-0.1l-0.1-0.1l-0.1-0.1l-0.1-0.1l-0.1-0.1l-0.1-0.1l-0.1-0.1l-0.1-0.1
		L336.8,403.6z"/>
</g>
</svg>
