<?xml version="1.0" encoding="utf-8"?>
<!-- Generator: Adobe Illustrator 19.2.1, SVG Export Plug-In . SVG Version: 6.00 Build 0)  -->
<svg version="1.1" id="Ebene_1" xmlns="http://www.w3.org/2000/svg" xmlns:xlink="http://www.w3.org/1999/xlink" x="0px" y="0px"
	 viewBox="0 0 595.3 841.9" style="enable-background:new 0 0 595.3 841.9;" xml:space="preserve">
<style type="text/css">
	.st0{fill-rule:evenodd;clip-rule:evenodd;fill:#F0B58F;}
	.st1{fill-rule:evenodd;clip-rule:evenodd;fill:#4D1F0D;}
	.st2{fill-rule:evenodd;clip-rule:evenodd;fill:#426957;}
	.st3{fill-rule:evenodd;clip-rule:evenodd;fill:#709EB5;}
	.st4{fill-rule:evenodd;clip-rule:evenodd;fill:#FFE6BA;}
	.st5{fill-rule:evenodd;clip-rule:evenodd;fill:#CCAB73;}
	.st6{fill-rule:evenodd;clip-rule:evenodd;fill:#C28C6E;}
	.st7{fill-rule:evenodd;clip-rule:evenodd;fill:#334F40;}
	.st8{fill-rule:evenodd;clip-rule:evenodd;fill:#456E82;}
</style>
<g>
	<path class="st0" d="M325.7,43c0-4.8,0.5-11.5,0.7-6.9c0.2,4.6,6.5,12.4,5.5,7.8c-0.9-4.6-2.8-3.9,1.2-1.8c3.9,2.1,8.3,6,7.4,3
		c-0.9-3-1.6-8.3-0.5-5.3c1.2,3,2.5,5.3,4.4,3.7c1.8-1.6,11.1-5.3,6.7-2.3c-4.4,3-3,10.8-3.2,7.4c-0.2-3.5,2.3-4.6,2.3-1.6
		s2.3,4.1,5.8,3.5c3.5-0.7,4.6,1.2,3.5,2.1c-1.2,0.9,2.3,2.8,4.1,2.8c1.8,0,6.7,1.6,1.2,3.5c-5.5,1.8-2.5,6.2,1.6,6
		c4.1-0.2,7.1,5.3,4.4,5.3c-2.8,0-1.2,5.8,3.7,11.3c4.8,5.5,0,3.2-1.6,0.9c-1.6-2.3-1.2,3.5,2.1,6.2c3.2,2.8,2.1,4.1-0.7,2.1
		c-2.8-2.1-0.9,4.4-0.9,9.7c0,5.3-0.5,14.8-3.2,21.2c-2.8,6.5-2.3,4.4-4.1,4.1c-1.8-0.2-1.2,0.5-1.2,5.3c0,4.8-1.2,4.1,2.1,4.8
		c3.2,0.7,6,3.9,6.5,9.2c0.5,5.3,1.2,8.1,3.7,9.5c2.5,1.4,5.3,2.1,10.1,5.3c4.8,3.2,22.6,7.4,25.4,11.1c2.8,3.7,5.5,4.1,8.3,4.1
		c2.8,0,9.5,5.8,13.4,11.5c3.9,5.8,4.6,12.9,6.7,24.2c2.1,11.3,6.2,29,8.1,38.3c1.8,9.2,3.9,18,4.8,21.9c0.9,3.9,1.6,5.5-0.9,5.5
		s-4.1,0-3.7,2.3c0.5,2.3,1.2,20.3,1.6,27.2c0.5,6.9,0.7,16.6-0.9,20.7c-1.6,4.1-16.4,35-22.6,44c-6.2,9-20.7,26-21.9,31.4
		s1.2,12,1.2,15.2s2.1,10.1,2.1,14.8c0,4.6,1.4,8.1,3.2,11.3c1.8,3.2,3.2,7.4-2.3,11.8c-5.5,4.4-2.3,9.9-2.5,17.3
		c-0.2,7.4-1.2,25.1-1.2,31.4c0,6.2,4.1,18,4.6,22.8c2.8,29.6-3.8,33.6-0.7,55.8c1.2,8.3,6,15.4,6,27.4s-2.3,39.2-3,51.9
		c-0.7,12.7-2.8,42.4-4.8,51.9c-2.1,9.5-4.1,11.1-1.8,13.6c2.3,2.5,6,5.8,4.1,10.1c-1.8,4.4-5.3,6-7.4,12c-2.1,6-0.5,6.7-1.6,9.9
		c-1.2,3.2-3.2,6.5-8.3,9.5c-5.1,3-25.1,19.4-32.5,21.2c-7.4,1.8-33.2,6.9-39,3.2c-5.8-3.7-6.9-3.2-6.9-6.9c0-3.7,0.5-7.8,5.5-11.5
		c5.1-3.7,11.3-8.1,11.3-10.8c0-2.8,1.6-5.8,2.8-7.1c1.2-1.4,2.1-2.5,4.6-2.3c2.5,0.2,3.5,0,2.5-3.5c-0.9-3.5,0.7-3.5,2.1-5.3
		c1.4-1.8,2.8-2.1,2.8-2.1s0-2.8,2.1-8.8c2.1-6,6-18,6.7-20.1c0.7-2.1,0.5-2.3,3.2-1.2c2.8,1.2-0.2-3,2.8-3c3,0,0.5-12.2-0.5-23.3
		c-0.9-11.1,1.6-16.6,2.1-20.7c0.5-4.2-0.5-11.8-4.4-23.7s-9.2-30.2-8.3-35.5c0.9-5.3-3.7-21.7-5.8-43.1c-2.1-21.4-3.7-34.3-4.8-38
		c-1.2-3.7-2.5-3-3.7,2.3c-1.2,5.3-9.2,30.4-10.8,35c-1.6,4.6-4.8,11.3-7.1,14.3c-2.3,3-4.6,6.9-2.5,10.1c2.1,3.2,3.7,11.1,1.2,12.9
		s-0.7,23.5-0.5,36.2c0.2,12.7-0.9,34.1-0.9,40.3c0,6.2,3.7,12,3.2,14.5c-0.5,2.5-3,2.8,1.2,6.2c4.1,3.5,1.6,3.7-0.5,8.5
		c-2.1,4.8-1.8,10.6-1.8,14.5c0,3.9,3.5,11.8-4.4,14.3c-7.8,2.5-24.9,1.6-33.4,5.3c-8.5,3.7-22.4,13.8-39.4,12.9
		c-17.1-0.9-19.8-5.3-20.1-9c-0.2-3.7,3-7.1,7.8-11.1c4.8-3.9,9.7-3.9,11.5-6.2c1.8-2.3,0.5-2.8,4.1-4.8c3.7-2.1,3-1.6,5.8-2.1
		c2.8-0.5,3-1.6,3-3.7c0-2.1,0.2-2.5,2.3-4.1c2.1-1.6,2.3-3,4.8-3c2.5,0,1.2-4.4,3.5-7.8c2.3-3.5,4.2-4.8,4.2-8.3
		c0-3.5,0.5-8.3-3.7-13.1c-4.1-4.8-3.9-10.6-3.9-14.8c0-4.1,3-6.5,3.9-9.2c0.9-2.8,0.5-12.7-2.1-27c-2.5-14.3-4.8-25.8-2.5-30.2
		c2.3-4.4,3.7-11.8,1.2-14.3c-2.5-2.5-0.9-5.1-1.6-23.1c-0.7-18-0.7-25.6-1.2-40.3c-0.5-14.8,0.7-27.9,0-37.1
		c-0.7-9.2-1.4-8.1-3.9-14.8c-2.5-6.7-0.7-9.9,1.4-14.5c2.1-4.6,2.1-15.7,4.1-26.7c2.1-11.1,2.5-12.4,2.3-15.7
		c-0.2-3.2-3-1.6-5.3-3.2c-2.3-1.6-1.2-4.8,1.8-4.8c3,0,4.1-2.3,3.5-7.4c-0.7-5.1,0-12,3-18.4c3-6.5,9.7-37.8,14.1-50.5
		c4.4-12.7,9.7-25.1,9.7-30.9s0.9-16.4-0.2-18c-1.2-1.6-8.3,0.9-9.5-6.7c-1.2-7.6,1.6-24.7,1.8-42.9c0.2-18.2,0.7-37.8,3.7-40.8
		c3-3,14.3-12,16.1-13.4c1.8-1.4,0.7-3.2,5.5-8.5c4.8-5.3,7.4-8.3,9.2-9.5c1.8-1.2-3.5-7.4-6.9-12.2c-3.5-4.8-8.3-19.8-8.3-25.1
		c0-5.3-0.2-8.8-2.5-11.1c-2.3-2.3-3.5-1.2-3.5-6.2c0-5.1,0.2-12.7-0.9-10.6c-1.2,2.1-3.7,3.7-1.8-0.5c1.8-4.1,3.2-9.2,1.6-7.6
		c-1.6,1.6-2.5,0.9-0.7-1.6c1.8-2.5,4.1-2.8,1.4-5.1c-2.8-2.3-6.9-7.6-3-5.1c3.9,2.5-5.1-7.4-2.3-5.8c2.8,1.6,9.5,2.5,5.8,0.5
		c-3.7-2.1-8.8-5.8-4.1-4.6c4.6,1.2-1.6-6.2,2.8-3.9c4.4,2.3,5.1,0,3.2-1.8c-1.8-1.8-4.4-3.7-1.4-3c3,0.7-1.4-7.4,3-3.2
		c4.4,4.1,7.6,1.8,5.8,0.5c-1.8-1.4-1.8-3.7,2.1-1.8c3.9,1.8,11.1,2.5,7.8-0.2c-3.2-2.8-4.1-7.6-2.8-5.1c1.4,2.5,8.3,5.8,6.9,2.5
		c-1.4-3.2-0.9-4.4,1.6-3c2.5,1.4,4.4,4.4,4.1-0.5c-0.2-4.8,0.5-6.7,0.9-3.7C323.1,42.4,325,45.6,325.7,43"/>
	<path class="st1" d="M325.7,43c0-4.8,0.5-11.5,0.7-6.9c0.2,4.6,6.5,12.4,5.5,7.8c-0.9-4.6-2.8-3.9,1.2-1.8c3.9,2.1,8.3,6,7.4,3
		c-0.9-3-1.6-8.3-0.5-5.3c1.2,3,2.5,5.3,4.4,3.7c1.8-1.6,11.1-5.3,6.7-2.3c-4.4,3-3,10.8-3.2,7.4c-0.2-3.5,2.3-4.6,2.3-1.6
		s2.3,4.1,5.8,3.5c3.5-0.7,4.6,1.2,3.5,2.1c-1.2,0.9,2.3,2.8,4.1,2.8c1.8,0,6.7,1.6,1.2,3.5c-5.5,1.8-2.5,6.2,1.6,6
		c4.1-0.2,7.1,5.3,4.4,5.3c-2.8,0-1.2,5.8,3.7,11.3c4.8,5.5,0,3.2-1.6,0.9c-1.6-2.3-1.2,3.5,2.1,6.2c3.2,2.8,2.1,4.1-0.7,2.1
		c-2.8-2.1-0.9,4.4-0.9,9.7c0,1.7,0,3.8-0.2,6.1c-0.3-0.6-0.6-1.3-1-2c-1.6-3.9-3.9-3.9-5.1,0.2c-1.2,4.1-3,10.1-5.1,8.5
		c-2.1-1.6-3,2.1-3.2-0.5c-0.2-2.5-5.3-16.4-6-23.7c-0.7-7.4-1.8-15.2-6.5-15.2c-4.6,0-13.8,3-18.7,4.1c-4.8,1.2-9.9,0.2-13.6-0.9
		c-3.7-1.2-9.5-1.2-11.8-1.2c-2.3,0-5.3,5.5-5.3,11.8c0,6,0.4,15.8,1.3,25.3c-0.4-1.5-1-2.7-2-3.7c-2.3-2.3-3.5-1.2-3.5-6.2
		c0-5.1,0.2-12.7-0.9-10.6c-1.2,2.1-3.7,3.7-1.8-0.5c1.8-4.1,3.2-9.2,1.6-7.6c-1.6,1.6-2.5,0.9-0.7-1.6c1.8-2.5,4.1-2.8,1.4-5.1
		c-2.8-2.3-6.9-7.6-3-5.1c3.9,2.5-5.1-7.4-2.3-5.8c2.8,1.6,9.5,2.5,5.8,0.5c-3.7-2.1-8.8-5.8-4.1-4.6c4.6,1.2-1.6-6.2,2.8-3.9
		c4.4,2.3,5.1,0,3.2-1.8c-1.8-1.8-4.4-3.7-1.4-3c3,0.7-1.4-7.4,3-3.2c4.4,4.1,7.6,1.8,5.8,0.5c-1.8-1.4-1.8-3.7,2.1-1.8
		c3.9,1.8,11.1,2.5,7.8-0.2c-3.2-2.8-4.1-7.6-2.8-5.1c1.4,2.5,8.3,5.8,6.9,2.5c-1.4-3.2-0.9-4.4,1.6-3c2.5,1.4,4.4,4.4,4.1-0.5
		c-0.2-4.8,0.5-6.7,0.9-3.7C323.1,42.4,325,45.6,325.7,43"/>
	<path class="st2" d="M365.6,135.5c0.3,0.1,0.6,0.1,1.1,0.2c3.2,0.7,6,3.9,6.5,9.2c0.5,5.3,1.2,8.1,3.7,9.5
		c2.5,1.4,5.3,2.1,10.1,5.3c4.8,3.2,22.6,7.4,25.4,11.1c2.8,3.7,5.5,4.1,8.3,4.1c2.8,0,9.5,5.8,13.4,11.5c3.9,5.8,4.6,12.9,6.7,24.2
		c2.1,11.3,6.2,29,8.1,38.3c1.8,9.2,3.9,18,4.8,21.9c0.9,3.9,1.6,5.5-0.9,5.5s-4.1,0-3.7,2.3c0.5,2.3,1.2,20.3,1.6,27.2
		c0.5,6.9,0.7,16.6-0.9,20.7c-1.6,4.1-16.4,35-22.6,44c-6.2,9-20.7,26-21.9,31.4s1.2,12,1.2,15.2c0,0.8,0.1,1.8,0.3,2.9
		c-32.2-4.5-47.6,7.9-59.4,13.4c-13.1,6.2-49.3,8.2-50.1,4.9c-0.8-3.3-15.2-4.5-21.8-5.3c-6.6-0.8-13.1-11.5-11.9-18.1
		c1.2-6.6,2.9-11.1,4.9-23.8c2.1-12.7,13.1-39.4,13.1-46.4c0-7,7.4-32.4,7.4-39c0-6.6,2.5-17.2,2.5-22.2c0-4.2-2-4.8-5.9-4.9
		c-2.5-0.4-7.2,0-8.1-6.1c-1.2-7.6,1.6-24.7,1.8-42.9c0.2-18.2,0.7-37.8,3.7-40.8c3-3,14.3-12,16.1-13.4c1.8-1.4,0.7-3.2,5.5-8.5
		c4.8-5.3,7.4-8.3,9.2-9.5c0.1-0.1,0.2-0.2,0.3-0.4c0.1,0.1,0.2,0.2,0.2,0.4c4.5,7.4,2.1,16,1.2,25c-0.8,9-3.3,22.2-2.5,27.9
		c0.8,5.7,2.5,7.4,4.9,4.1c2.5-3.3,22.2-33.7,23.8-38.6c1.6-4.9,2.5-6.6,8.6-14.4C356,154.8,364.3,141.8,365.6,135.5"/>
	<path class="st3" d="M406.6,420.1c0.6,3.5,1.8,8.4,1.8,11.9c0,4.6,1.4,8.1,3.2,11.3c1.8,3.2,3.2,7.4-2.3,11.8
		c-5.5,4.4-2.3,9.9-2.5,17.3c-0.2,7.4-1.2,25.1-1.2,31.4c0,6.2,4.1,18,4.6,22.8c2.8,29.6-3.8,33.6-0.7,55.8c1.2,8.3,6,15.4,6,27.4
		s-2.3,39.2-3,51.9c-0.7,12.7-2.8,42.4-4.8,51.9c-2.1,9.5-4.1,11.1-1.8,13.6c2.3,2.5,6,5.8,4.1,10.1c-1.8,4.4-5.3,6-7.4,12
		c-2.1,6-0.5,6.7-1.6,9.9c-0.3,0.9-0.7,1.8-1.2,2.7c-18.9,1.5-39-11.3-54.7-17.9l-0.1-0.1c0.6-0.3,0.9-0.4,0.9-0.4s0-2.8,2.1-8.8
		c2.1-6,6-18,6.7-20.1c0.7-2.1,0.5-2.3,3.2-1.2c2.8,1.2-0.2-3,2.8-3c3,0,0.5-12.2-0.5-23.3c-0.9-11.1,1.6-16.6,2.1-20.7
		c0.5-4.2-0.5-11.8-4.4-23.7s-9.2-30.2-8.3-35.5c0.9-5.3-3.7-21.7-5.8-43.1c-2.1-21.4-3.7-34.3-4.8-38c-1.2-3.7-2.5-3-3.7,2.3
		c-1.2,5.3-9.2,30.4-10.8,35c-1.6,4.6-4.8,11.3-7.1,14.3c-2.3,3-4.6,6.9-2.5,10.1c2.1,3.2,3.7,11.1,1.2,12.9s-0.7,23.5-0.5,36.2
		c0.2,12.7-0.9,34.1-0.9,40.3c0,6.2,3.7,12,3.2,14.5c-0.5,2.5-3,2.8,1.2,6.2c4.1,3.5,1.6,3.7-0.5,8.5c-2.1,4.8-1.8,10.6-1.8,14.5
		c0,1.8,0.7,4.4,0.8,6.9c-11.6,1.4-28.7,3.5-47.6-9.9c-4.6-3.3-8.8-6-12.7-8.3c0.4-0.2,1-0.3,1.6-0.3c2.5,0,1.2-4.4,3.5-7.8
		c2.3-3.5,4.2-4.8,4.2-8.3c0-3.5,0.5-8.3-3.7-13.1c-4.1-4.8-3.9-10.6-3.9-14.8c0-4.1,3-6.5,3.9-9.2c0.9-2.8,0.5-12.7-2.1-27
		c-2.5-14.3-4.8-25.8-2.5-30.2c2.3-4.4,3.7-11.8,1.2-14.3c-2.5-2.5-0.9-5.1-1.6-23.1c-0.7-18-0.7-25.6-1.2-40.3
		c-0.5-14.8,0.7-27.9,0-37.1c-0.7-9.2-1.4-8.1-3.9-14.8c-2.5-6.7-0.7-9.9,1.4-14.5c2.1-4.6,2.1-15.7,4.1-26.7
		c2.1-11.1,2.5-12.4,2.3-15.7l0-0.1c0.8,0.3,1.9,0.7,3.4,1c-0.1,0.5-0.2,1-0.3,1.5c-1.2,6.6,5.3,17.2,11.9,18.1
		c6.6,0.8,20.9,2.1,21.8,5.3c0.8,3.3,36.9,1.2,50.1-4.9C359,428,374.4,415.6,406.6,420.1"/>
	<path class="st4" d="M317.4,728c0,3-0.9,6-5.1,7.4c-7.8,2.5-24.9,1.6-33.4,5.3c-8.5,3.7-22.4,13.8-39.4,12.9
		c-17.1-0.9-19.8-5.3-20.1-9c-0.2-3.7,3-7.1,7.8-11.1c4.8-3.9,9.7-3.9,11.5-6.2c1.8-2.3,0.5-2.8,4.1-4.8c3.7-2.1,3-1.6,5.8-2.1
		c2.8-0.5,3-1.6,3-3.7c0-2.1,0.2-2.5,2.3-4.1c1.5-1.2,2-2.2,3.2-2.7c3.9,2.3,8.1,5,12.7,8.3C288.7,731.4,305.8,729.3,317.4,728"/>
	<path class="st4" d="M399.8,761.7c-1.3,2.3-3.4,4.6-7.1,6.8c-5.1,3-25.1,19.4-32.5,21.2c-7.4,1.8-33.2,6.9-39,3.2
		c-5.8-3.7-6.9-3.2-6.9-6.9c0-3.7,0.5-7.8,5.5-11.5c5.1-3.7,11.3-8.1,11.3-10.8c0-2.8,1.6-5.8,2.8-7.1c1.2-1.4,2.1-2.5,4.6-2.3
		c2.5,0.2,3.5,0,2.5-3.5c-0.9-3.5,0.7-3.5,2.1-5.3c0.7-0.9,1.3-1.4,1.8-1.7h0l0.1,0.1C360.8,750.4,381,763.2,399.8,761.7"/>
	<path class="st5" d="M399.8,761.7c-1.3,2.3-3.4,4.6-7.1,6.8c-5.1,3-25.1,19.4-32.5,21.2c-7.4,1.8-33.2,6.9-39,3.2
		c-5.8-3.7-6.9-3.2-6.9-6.9c0-2.3,0.2-4.8,1.6-7.3c6.3,5.5,13.5,9.1,26.9,6.7c14.8-2.7,26.2-3.9,41.2-19.4c1.6-1.7,3.3-3.3,5-4.9
		C392.7,761.8,396.3,762,399.8,761.7"/>
	<path class="st5" d="M317.4,728c0,3-0.9,6-5.1,7.4c-7.8,2.5-24.9,1.6-33.4,5.3c-8.5,3.7-22.4,13.8-39.4,12.9
		c-17.1-0.9-19.8-5.3-20.1-9c-0.1-2,0.8-3.9,2.4-5.9c4.8,5.1,14.6,10.9,25.1,8.1c11-3,33.9-13.9,49.1-18.2
		C304.2,729.5,311.5,728.6,317.4,728"/>
	<path class="st5" d="M330.9,764.8c0.2-0.4,0.3-0.8,0.3-1.2c0-0.8,0.1-1.6,0.3-2.3c2.1-0.5,4.5,0,9.4,3c7.2,4.5,11.1,6.8,13.4,4.7
		c2.3-2,3.6-3.8-1.3-6.9c-4.9-3.1-10.1-5.4-13.6-7.8l-0.2-0.1c0.3,0,0.6,0,0.8,0c6.3,3.7,3.6,1.9,11.7,6.5
		c8.3,4.7,6.7,10.1,2.9,11.7c-3.7,1.5-6.4-1.5-12.2-5.1C338,764.4,334.2,764.4,330.9,764.8"/>
	<path class="st5" d="M341.4,752c-0.1-0.4-0.2-0.8-0.3-1.3c-0.1-0.5-0.2-0.8-0.2-1.2c3.4,0.1,8.7,2.6,12.1,4.9
		c4.1,2.8,8.8,7.2,10.8,5.5c1.9-1.7-1.2-6.9-4.5-9.2c-0.5-0.4-1.3-0.9-2.3-1.5c1.2,0.6,2.4,1.2,3.6,1.7c5.1,4.3,5.9,7.8,3.9,10.1
		c-2.2,2.6-5.4-0.8-9.3-3.6C351.8,755.2,346.4,753,341.4,752"/>
	<path class="st5" d="M238,727.9c0.3-0.2,0.5-0.4,0.7-0.7c0.7-0.8,0.9-1.4,1.1-1.9c2.1,0,5,1,8.1,2.3c3.6,1.5,4.1,1,6.1-0.2
		c2-1.2,5.6-2.6-4.9-6.5c-0.5-0.2-0.9-0.3-1.4-0.4c0.2,0,0.5-0.1,0.8-0.1c0.2,0,0.4-0.1,0.6-0.1c0.6,0.1,1.2,0.2,1.8,0.5
		c8.7,3.2,9.2,7.6,5.1,9.3c-4.1,1.7-4.5,1.4-8.2-0.1C244.9,728.6,241.1,728,238,727.9"/>
	<path class="st5" d="M251.6,717.7c0-0.3,0-0.7,0-1.1c0-0.5,0-0.9,0.1-1.2c2.5-0.1,4.2,1.1,7.2,3.2c3.6,2.5,6,2.5,7.4,1.4
		c0.5-0.4,1.4-1.6,1.7-3.2c0.6,0.4,1.2,0.8,1.8,1.3l0.2,0.1c-0.7,1.4-1.8,2.5-2.8,3.3c-2.2,1.8-3.2,3.1-5.6,1.9
		C259.6,722.4,254.8,718.9,251.6,717.7"/>
	<path class="st6" d="M365,125.6c-0.8,0.2-0.4,1.4-0.4,5.3c0,4.2-0.9,4.2,1,4.6c-1.3,6.3-9.6,19.3-15.1,26.2
		c-2.6,3.3-4.2,5.5-5.4,7.3c0-0.1,0-0.1,0-0.2c0.3-3.3,3.8-7.1,5.4-10.6c1.6-3.5-6-1.6-13.6,1.1c-7.6,2.7-15.5,0.8-18.8,1.1
		c-3.3,0.3-1.1,4.4,1.1,11.7c2.2,7.3,2.2,12.2,0.8,25c-1.4,12.8,1.6,9.8,4.4,7.3c0.3-0.2,0.6-0.4,0.8-0.6c-3.5,5.4-6.4,9.7-7.2,10.8
		c-2.5,3.3-4.1,1.6-4.9-4.1c-0.8-5.7,1.6-18.9,2.5-27.9c0.8-9,3.3-17.7-1.2-25c-0.1-0.1-0.1-0.2-0.2-0.4c0.2-0.4,0.1-1-0.3-1.7
		c2.2,2.9,1.5,2.6,5.1,3.8c4.1,1.4,15.5-0.3,22.6-2.7c7.1-2.4,15.5-16.9,17.7-21.8C361.5,130,361.8,123.7,365,125.6"/>
	<path class="st7" d="M365.6,135.5c0.3,0.1,0.6,0.1,1.1,0.2c3.2,0.7,6,3.9,6.5,9.2c0.5,5.3,1.2,8.1,3.7,9.5
		c2.5,1.4,5.3,2.1,10.1,5.3c4.8,3.2,22.6,7.4,25.4,11.1c2.8,3.7,5.5,4.1,8.3,4.1c2.8,0,9.5,5.8,13.4,11.5c3.9,5.8,4.6,12.9,6.7,24.2
		c2.1,11.3,6.2,29,8.1,38.3c1.8,9.2,3.9,18,4.8,21.9c0.9,3.9,1.6,5.5-0.9,5.5s-4.1,0-3.7,2.3c0.5,2.3,1.2,20.3,1.6,27.2
		c0.5,6.9,0.7,16.6-0.9,20.7c-1.6,4.1-16.4,35-22.6,44c-6.2,9-20.7,26-21.9,31.4s1.2,12,1.2,15.2c0,0.8,0.1,1.8,0.3,2.9
		c-26.1-3.7-41.2,3.8-52.2,9.7c-0.5-0.1-0.9-0.3-1.2-0.4c-6.5-3.2-8.3-7.6-17.3-7.6c-9,0-8.6-4.3-5.4-8.6
		c3.2-4.3,20.1-14.4,28.4-16.9c8.3-2.5,18.3-13.3,21.9-17.3c3.6-4,2.5-7.9-8.3,2.5c-10.8,10.4,5.8-29.5,10.8-46
		c5-16.5-2.5-10.4-21.6-3.6c-19.1,6.8,32-32.7,35.2-44.9c3.2-12.2-23.4,21.6-42.4,36c-19.1,14.4,38.1-44.6,41.3-52.9
		c3.2-8.3-1.4-11.1-4.3-17.3c-2.9-6.1-4.3-21.9,0-36.3c4.3-14.4,11.1-30.9,18.7-38.1c7.6-7.2-3.2-6.1-13.3-1.1
		c-10.1,5-11.5,6.5-1.8-6.1c9.7-12.6-1.4,0.7-16.9,4c-15.5,3.2-17.6,6.5-24.4,15.5c-6.8,9-6.5,1.8-18.7,10.8
		c-12.2,9-23,35.6-27,45.3c4.3-11.4,7.4-22.1,9.7-31.9l0.1-0.2c2.5-3.3,22.2-33.7,23.8-38.6c1.6-4.9,2.5-6.6,8.6-14.4
		C356,154.8,364.3,141.8,365.6,135.5"/>
	<path class="st2" d="M448.9,278.1c0,0.1,0,0.1,0,0.2C448.9,278.3,448.9,278.2,448.9,278.1 M439.3,202.9c0.4,2.4,0.9,4.9,1.4,7.7
		c2.1,11.3,6.2,29,8.1,38.3c1.8,9.2,3.9,18,4.8,21.9c0.9,3.9,1.6,5.5-0.9,5.5c-1.5,0-2.6,0-3.3,0.4l0,0c-9.1,2.1-34.5,7.7-38.5,7.7
		c-1.1,0-1.6,0.6-1.7,1.7c-2.8-0.4-5-0.6-6-0.6c-4.3,0-3.2-17.3-3.2-28.8c0-11.5,0.4-30.2,1.1-41c0.7-10.8,8.6-27,15.8-33.4
		c7.6-5.8,19.4,12.6,21.6,19.8C438.6,202.5,438.9,202.8,439.3,202.9z"/>
	<path class="st7" d="M408.6,205c0.7,12.6,0.7,30.2-1.1,36.7c-1.8,6.5-6.5,13.7-2.5,8.3c4-5.4,9-18.7,9-33.1
		c0-14.4,4.7-30.2-0.7-24.4C407.9,198.1,408.2,196.3,408.6,205"/>
	<path class="st7" d="M299.2,175.6c1.8-1.4,0.7-3.2,5.5-8.5c4.8-5.3,7.4-8.3,9.2-9.5c0.1-0.1,0.2-0.2,0.3-0.4
		c0.1,0.1,0.2,0.2,0.2,0.4c4.5,7.4,2.1,16,1.2,25c-0.6,6.8-2.2,15.9-2.5,22.5c-0.9-0.6-1.8-2.6-2.7-6.3c-1.1-6.5-1.8-28.8-6.1-25.9
		c-4.3,2.9-3.6,10.8-5,3.2C299.2,176,299.2,175.8,299.2,175.6"/>
	<path class="st8" d="M338.1,524c-0.9-1-1.9,0.4-2.7,4.3c-1.2,5.3-9.2,30.4-10.8,35c-1.6,4.6-4.8,11.3-7.1,14.3
		c-2.3,3-4.6,6.9-2.5,10.1c2.1,3.2,3.7,11.1,1.2,12.9s-0.7,23.5-0.5,36.2c0.2,12.7-0.9,34.1-0.9,40.3c0,6.2,3.7,12,3.2,14.5
		c-0.5,2.5-3,2.8,1.2,6.2c0.7,0.6,1.2,1.1,1.6,1.5c-4.1,4.4-9.1,7-15,7c1.9-3.8,1.3-5.7-13.3-9.5c-14.6-3.8-32.4-14.6-18.4-10.8
		c14,3.8,36.8,15.2,24.1,4.4c-12.7-10.8-7.6-10.2,3.8-4.4c11.4,5.7,7-12.1,6.3-16.5c-0.6-4.4-20.3,15.2-12.7,4.4
		c7.6-10.8,20.3-24.1,8.9-31.1c-11.4-7-12.7-10.2-2.5-10.2c10.2,0,10.2-33,1.9-22.2c-8.3,10.8-40,72.4-36.2,54
		c3.8-18.4,17.8-45.1,24.1-55.2c6.3-10.2,21-47,9.5-36.2c-11.4,10.8-48.9,36.2-37.5,22.2c11.4-14,62.2-56.5,46.3-45.1
		c-15.9,11.4-49.5,17.1-24.8,5.1c24.8-12.1,41.3-32.4,31.1-29.2c-10.2,3.2-38.1,14-26,7c12.1-7,32.4-18.4,24.8-18.4
		c-7.6,0-14-5.7-6.3-6.3c7.6-0.6,17.1-11.4,3.2-8.9c-14,2.5-34.3,5.1-22.9,1.3c11.4-3.8,27.9-17.1,17.8-13.3
		c-10.2,3.8-36.8,11.4-22.2,4.4c14.6-7,30.5-14,16.5-16.5c-14-2.5-50.2-5.1-26.7-7c23.5-1.9,29.2-2.5,26.7-11.4
		c-2.5-8.9-3.2-24.1,4.4-10.8c7.6,13.3,1.3,22.9,12.1,26.7c10.8,3.8-2.5-31.7,3.8-21c6.3,10.8,13.3,41.3,6.3,36.2
		c-7-5.1-17.8-17.8-11.4-5.7c6.3,12.1,20.3,14.6,21.6,38.7C338,521.9,338,522.9,338.1,524"/>
	<path class="st8" d="M405.2,722.7c-0.5,1.9-0.5,3,0.7,4.3c1.9,2,4.6,4.5,4.6,7.7c-9.7,4-11.4,2-16.1-2.2
		c-5.7-5.1-22.2-17.1-9.5-15.2C394.1,718.7,398,725.7,405.2,722.7"/>
	<path class="st8" d="M357,619.5c13.3,12.7,10.2,26.7,31.1,26.7c21,0,14-5.7-0.6-11.4C372.8,629,347.4,607.5,357,619.5"/>
	<path class="st0" d="M449.4,276.8c-0.5,0.3-0.6,0.9-0.4,1.9c0.5,2.3,1.2,20.3,1.6,27.2c0.5,6.9,0.7,16.6-0.9,20.7
		c-1.6,4.1-16.4,35-22.6,44c-5.6,8.1-18,22.8-21.2,29.5c-9.5,14.9-18.5,31.8-20.9,33.4c-2.5,1.6-8.6,1.2-22.6-2.1
		c-14-3.3-7.8-17.2-11.5-14.8c-3.7,2.5-7,2.9-15.6,2.5c-8.6-0.4-2.5-6.2,3.3-8.6c5.7-2.5,11.5-5.7,19.3-9.4
		c7.8-3.7,15.6-0.8,18.9-4.1c3.3-3.3,15.6-18.5,22.2-33.7c6.6-15.2,15.6-37.4,19.3-42.3c3.7-4.9-1.6-11.5-4.5-19.7
		c-2.9-8.2-7-16.8-2.9-16.8C414.9,284.5,440.4,278.9,449.4,276.8"/>
</g>
</svg>
