<?xml version="1.0" encoding="utf-8"?>
<!-- Generator: Adobe Illustrator 19.2.1, SVG Export Plug-In . SVG Version: 6.00 Build 0)  -->
<svg version="1.1" id="Ebene_1" xmlns="http://www.w3.org/2000/svg" xmlns:xlink="http://www.w3.org/1999/xlink" x="0px" y="0px"
	 viewBox="0 0 841.9 595.3" style="enable-background:new 0 0 841.9 595.3;" xml:space="preserve">
<style type="text/css">
	.st0{fill:#033E64;}
	.st1{fill:#B2D7E1;}
</style>
<g id="XMLID_571_">
	<polygon id="XMLID_277_" class="st0" points="526.3,21.9 427.5,98.9 427.5,563 526.3,563 	"/>
	<g id="XMLID_493_">
		
			<rect id="XMLID_489_" x="506.4" y="114.5" transform="matrix(-1 -6.842495e-011 6.842495e-011 -1 1018.3732 244.297)" class="st1" width="5.6" height="15.2"/>
		
			<rect id="XMLID_490_" x="492.3" y="114.5" transform="matrix(-1 -6.874869e-011 6.874869e-011 -1 990.2609 244.297)" class="st1" width="5.6" height="15.2"/>
		
			<rect id="XMLID_491_" x="478.3" y="114.5" transform="matrix(-1 -6.826330e-011 6.826330e-011 -1 962.1485 244.297)" class="st1" width="5.6" height="15.2"/>
		
			<rect id="XMLID_492_" x="464.2" y="114.5" transform="matrix(-1 -6.842495e-011 6.842495e-011 -1 934.0362 244.297)" class="st1" width="5.6" height="15.2"/>
	</g>
	<g id="XMLID_528_">
		<g id="XMLID_520_">
			
				<rect id="XMLID_494_" x="452.7" y="162.5" transform="matrix(-1 -6.834235e-011 6.834235e-011 -1 964.6689 335.9982)" class="st1" width="59.3" height="11"/>
			<g id="XMLID_496_">
				
					<rect id="XMLID_500_" x="505" y="182.6" transform="matrix(-1 -6.776014e-011 6.776014e-011 -1 1017.016 380.3886)" class="st1" width="7" height="15.2"/>
				
					<rect id="XMLID_499_" x="487.6" y="182.6" transform="matrix(-1 -6.815094e-011 6.815094e-011 -1 982.118 380.3886)" class="st1" width="7" height="15.2"/>
				
					<rect id="XMLID_498_" x="470.1" y="182.6" transform="matrix(-1 -6.828106e-011 6.828106e-011 -1 947.2199 380.3886)" class="st1" width="7" height="15.2"/>
				
					<rect id="XMLID_497_" x="452.7" y="182.6" transform="matrix(-1 -6.841162e-011 6.841162e-011 -1 912.3218 380.3886)" class="st1" width="7" height="15.2"/>
			</g>
			
				<rect id="XMLID_495_" x="452.7" y="205.7" transform="matrix(-1 -6.828106e-011 6.828106e-011 -1 964.6689 422.3455)" class="st1" width="59.3" height="11"/>
			<g id="XMLID_502_">
				
					<rect id="XMLID_506_" x="505" y="224.8" transform="matrix(-1 -6.815094e-011 6.815094e-011 -1 1017.016 464.8504)" class="st1" width="7" height="15.2"/>
				
					<rect id="XMLID_505_" x="487.6" y="224.8" transform="matrix(-1 -6.828106e-011 6.828106e-011 -1 982.118 464.8504)" class="st1" width="7" height="15.2"/>
				
					<rect id="XMLID_504_" x="470.1" y="224.8" transform="matrix(-1 -6.854174e-011 6.854174e-011 -1 947.2199 464.8504)" class="st1" width="7" height="15.2"/>
				
					<rect id="XMLID_503_" x="452.7" y="224.8" transform="matrix(-1 -6.880242e-011 6.880242e-011 -1 912.3218 464.8504)" class="st1" width="7" height="15.2"/>
			</g>
			
				<rect id="XMLID_501_" x="452.7" y="247.9" transform="matrix(-1 -6.834235e-011 6.834235e-011 -1 964.6689 506.8074)" class="st1" width="59.3" height="11"/>
			
				<rect id="XMLID_519_" x="452.7" y="356.7" transform="matrix(-1 -6.837299e-011 6.837299e-011 -1 964.6689 724.4521)" class="st1" width="59.3" height="11"/>
			<g id="XMLID_514_">
				
					<rect id="XMLID_518_" x="505" y="332.4" transform="matrix(-1 -6.802038e-011 6.802038e-011 -1 1017.016 680.0618)" class="st1" width="7" height="15.2"/>
				
					<rect id="XMLID_517_" x="487.6" y="332.4" transform="matrix(-1 -6.854174e-011 6.854174e-011 -1 982.118 680.0618)" class="st1" width="7" height="15.2"/>
				
					<rect id="XMLID_516_" x="470.1" y="332.4" transform="matrix(-1 -6.776014e-011 6.776014e-011 -1 947.2199 680.0618)" class="st1" width="7" height="15.2"/>
				
					<rect id="XMLID_515_" x="452.7" y="332.4" transform="matrix(-1 -6.854174e-011 6.854174e-011 -1 912.3218 680.0618)" class="st1" width="7" height="15.2"/>
			</g>
			
				<rect id="XMLID_513_" x="452.7" y="313.6" transform="matrix(-1 -6.831170e-011 6.831170e-011 -1 964.6689 638.1049)" class="st1" width="59.3" height="11"/>
			<g id="XMLID_508_">
				
					<rect id="XMLID_512_" x="505" y="290.2" transform="matrix(-1 -6.854174e-011 6.854174e-011 -1 1017.016 595.5999)" class="st1" width="7" height="15.2"/>
				
					<rect id="XMLID_511_" x="487.6" y="290.2" transform="matrix(-1 -6.867230e-011 6.867230e-011 -1 982.118 595.5999)" class="st1" width="7" height="15.2"/>
				
					<rect id="XMLID_510_" x="470.1" y="290.2" transform="matrix(-1 -6.854174e-011 6.854174e-011 -1 947.2199 595.5999)" class="st1" width="7" height="15.2"/>
				
					<rect id="XMLID_509_" x="452.7" y="290.2" transform="matrix(-1 -6.815094e-011 6.815094e-011 -1 912.3218 595.5999)" class="st1" width="7" height="15.2"/>
			</g>
			
				<rect id="XMLID_507_" x="452.7" y="271.3" transform="matrix(-1 -6.834235e-011 6.834235e-011 -1 964.6689 553.643)" class="st1" width="59.3" height="11"/>
		</g>
		<g id="XMLID_521_">
			
				<rect id="XMLID_547_" x="452.7" y="381.3" transform="matrix(-1 -6.837299e-011 6.837299e-011 -1 964.6689 773.6624)" class="st1" width="59.3" height="11"/>
			<g id="XMLID_542_">
				
					<rect id="XMLID_546_" x="505" y="401.4" transform="matrix(-1 -6.697810e-011 6.697810e-011 -1 1017.016 818.0528)" class="st1" width="7" height="15.2"/>
				
					<rect id="XMLID_545_" x="487.6" y="401.4" transform="matrix(-1 -6.854174e-011 6.854174e-011 -1 982.118 818.0528)" class="st1" width="7" height="15.2"/>
				
					<rect id="XMLID_544_" x="470.1" y="401.4" transform="matrix(-1 -6.776014e-011 6.776014e-011 -1 947.2199 818.0528)" class="st1" width="7" height="15.2"/>
				
					<rect id="XMLID_543_" x="452.7" y="401.4" transform="matrix(-1 -6.854174e-011 6.854174e-011 -1 912.3218 818.0528)" class="st1" width="7" height="15.2"/>
			</g>
			
				<rect id="XMLID_541_" x="452.7" y="424.5" transform="matrix(-1 -6.837299e-011 6.837299e-011 -1 964.6689 860.0097)" class="st1" width="59.3" height="11"/>
			<g id="XMLID_536_">
				
					<rect id="XMLID_540_" x="505" y="443.6" transform="matrix(-1 -6.854174e-011 6.854174e-011 -1 1017.016 902.5146)" class="st1" width="7" height="15.2"/>
				
					<rect id="XMLID_539_" x="487.6" y="443.6" transform="matrix(-1 -6.802038e-011 6.802038e-011 -1 982.118 902.5146)" class="st1" width="7" height="15.2"/>
				
					<rect id="XMLID_538_" x="470.1" y="443.6" transform="matrix(-1 -6.880242e-011 6.880242e-011 -1 947.2199 902.5146)" class="st1" width="7" height="15.2"/>
				
					<rect id="XMLID_537_" x="452.7" y="443.6" transform="matrix(-1 -6.776014e-011 6.776014e-011 -1 912.3218 902.5146)" class="st1" width="7" height="15.2"/>
			</g>
			
				<rect id="XMLID_535_" x="452.7" y="466.7" transform="matrix(-1 -6.831170e-011 6.831170e-011 -1 964.6689 944.4716)" class="st1" width="59.3" height="11"/>
			<g id="XMLID_523_">
				
					<rect id="XMLID_527_" x="505" y="509" transform="matrix(-1 -6.854174e-011 6.854174e-011 -1 1017.016 1033.2642)" class="st1" width="7" height="15.2"/>
				
					<rect id="XMLID_526_" x="487.6" y="509" transform="matrix(-1 -6.776014e-011 6.776014e-011 -1 982.118 1033.2642)" class="st1" width="7" height="15.2"/>
				
					<rect id="XMLID_525_" x="470.1" y="509" transform="matrix(-1 -6.854174e-011 6.854174e-011 -1 947.2199 1033.2642)" class="st1" width="7" height="15.2"/>
				
					<rect id="XMLID_524_" x="452.7" y="509" transform="matrix(-1 -6.854174e-011 6.854174e-011 -1 912.3218 1033.2642)" class="st1" width="7" height="15.2"/>
			</g>
			
				<rect id="XMLID_522_" x="452.7" y="490.2" transform="matrix(-1 -6.831170e-011 6.831170e-011 -1 964.6689 991.3072)" class="st1" width="59.3" height="11"/>
		</g>
	</g>
</g>
<g id="XMLID_572_">
	
		<rect id="XMLID_279_" x="326.2" y="347.6" transform="matrix(-1 -6.834723e-011 6.834723e-011 -1 744.2499 910.6141)" class="st0" width="91.9" height="215.4"/>
	<g id="XMLID_357_">
		
			<rect id="XMLID_360_" x="331.4" y="386.5" transform="matrix(-6.655228e-011 1 -1 -6.655228e-011 741.5079 43.1771)" class="st1" width="35.5" height="11.7"/>
		
			<rect id="XMLID_359_" x="331.4" y="449.5" transform="matrix(-6.657803e-011 1 -1 -6.657803e-011 804.4725 106.1418)" class="st1" width="35.5" height="11.7"/>
		
			<rect id="XMLID_358_" x="331.4" y="512.4" transform="matrix(-6.650076e-011 1 -1 -6.650076e-011 867.4372 169.1064)" class="st1" width="35.5" height="11.7"/>
	</g>
	<g id="XMLID_353_">
		
			<rect id="XMLID_356_" x="354.4" y="386.5" transform="matrix(-6.655228e-011 1 -1 -6.655228e-011 764.4674 20.2176)" class="st1" width="35.5" height="11.7"/>
		
			<rect id="XMLID_355_" x="354.4" y="449.5" transform="matrix(-6.655228e-011 1 -1 -6.655228e-011 827.4321 83.1823)" class="st1" width="35.5" height="11.7"/>
		
			<rect id="XMLID_354_" x="354.4" y="512.4" transform="matrix(-6.650076e-011 1 -1 -6.650076e-011 890.3967 146.1469)" class="st1" width="35.5" height="11.7"/>
	</g>
	<g id="XMLID_349_">
		
			<rect id="XMLID_352_" x="377.4" y="386.5" transform="matrix(-6.655228e-011 1 -1 -6.655228e-011 787.4269 -2.7419)" class="st1" width="35.5" height="11.7"/>
		
			<rect id="XMLID_351_" x="377.4" y="449.5" transform="matrix(-6.657803e-011 1 -1 -6.657803e-011 850.3916 60.2227)" class="st1" width="35.5" height="11.7"/>
		
			<rect id="XMLID_350_" x="377.4" y="512.4" transform="matrix(-6.647501e-011 1 -1 -6.647501e-011 913.3562 123.1874)" class="st1" width="35.5" height="11.7"/>
	</g>
	
		<rect id="XMLID_278_" x="257.5" y="90.9" transform="matrix(-1 -6.834723e-011 6.834723e-011 -1 606.9842 653.9211)" class="st0" width="91.9" height="472.1"/>
	<g id="XMLID_348_">
		<g id="XMLID_280_">
			<g id="XMLID_311_">
				
					<rect id="XMLID_313_" x="315.7" y="124.3" transform="matrix(-1 -6.827973e-011 6.827973e-011 -1 654.5677 259.5439)" class="st1" width="23.2" height="11"/>
				
					<rect id="XMLID_312_" x="268.1" y="124.3" transform="matrix(-1 -6.826774e-011 6.826774e-011 -1 575.9513 259.5439)" class="st1" width="39.8" height="11"/>
			</g>
			<g id="XMLID_308_">
				<rect id="XMLID_310_" x="268.1" y="143.2" class="st1" width="23.2" height="11"/>
				<rect id="XMLID_309_" x="299.1" y="143.2" class="st1" width="39.8" height="11"/>
			</g>
			<g id="XMLID_305_">
				
					<rect id="XMLID_307_" x="315.7" y="162.2" transform="matrix(-1 -6.827973e-011 6.827973e-011 -1 654.5677 335.4446)" class="st1" width="23.2" height="11"/>
				
					<rect id="XMLID_306_" x="268.1" y="162.2" transform="matrix(-1 -6.833657e-011 6.833657e-011 -1 575.9513 335.4446)" class="st1" width="39.8" height="11"/>
			</g>
			<g id="XMLID_302_">
				<rect id="XMLID_304_" x="268.1" y="181.2" class="st1" width="12.1" height="11"/>
				<rect id="XMLID_303_" x="288" y="181.2" class="st1" width="50.9" height="11"/>
			</g>
			<g id="XMLID_299_">
				
					<rect id="XMLID_301_" x="327.3" y="200.2" transform="matrix(-1 -6.820157e-011 6.820157e-011 -1 666.1828 411.3454)" class="st1" width="11.6" height="11"/>
				
					<rect id="XMLID_300_" x="268.1" y="200.2" transform="matrix(-1 -6.834146e-011 6.834146e-011 -1 587.5665 411.3454)" class="st1" width="51.4" height="11"/>
			</g>
			<g id="XMLID_296_">
				<rect id="XMLID_298_" x="268.1" y="219.1" class="st1" width="23.2" height="11"/>
				<rect id="XMLID_297_" x="299.1" y="219.1" class="st1" width="39.8" height="11"/>
			</g>
			<g id="XMLID_293_">
				
					<rect id="XMLID_295_" x="323.4" y="238.1" transform="matrix(-1 -6.822777e-011 6.822777e-011 -1 662.2816 487.2461)" class="st1" width="15.5" height="11"/>
				<rect id="XMLID_294_" x="268.1" y="238.1" class="st1" width="47.5" height="11"/>
			</g>
			<g id="XMLID_290_">
				<rect id="XMLID_292_" x="268.1" y="257.1" class="st1" width="23.2" height="11"/>
				<rect id="XMLID_291_" x="299.1" y="257.1" class="st1" width="39.8" height="11"/>
			</g>
			<g id="XMLID_287_">
				
					<rect id="XMLID_289_" x="281.9" y="276.1" transform="matrix(-1 -6.841118e-011 6.841118e-011 -1 620.8307 563.1469)" class="st1" width="57" height="11"/>
				
					<rect id="XMLID_288_" x="268.1" y="276.1" transform="matrix(-1 -6.741509e-011 6.741509e-011 -1 542.2144 563.1469)" class="st1" width="6" height="11"/>
			</g>
			<g id="XMLID_284_">
				<rect id="XMLID_286_" x="268.1" y="295" class="st1" width="23.2" height="11"/>
				<rect id="XMLID_285_" x="299.1" y="295" class="st1" width="39.8" height="11"/>
			</g>
			<g id="XMLID_281_">
				
					<rect id="XMLID_283_" x="303" y="314" transform="matrix(-1 -6.839031e-011 6.839031e-011 -1 641.9183 639.0475)" class="st1" width="35.9" height="11"/>
				
					<rect id="XMLID_282_" x="268.1" y="314" transform="matrix(-1 -6.831703e-011 6.831703e-011 -1 563.3019 639.0475)" class="st1" width="27.1" height="11"/>
			</g>
		</g>
		<g id="XMLID_314_">
			<g id="XMLID_345_">
				
					<rect id="XMLID_347_" x="315.7" y="334.3" transform="matrix(-1 -6.835833e-011 6.835833e-011 -1 654.5677 679.6172)" class="st1" width="23.2" height="11"/>
				
					<rect id="XMLID_346_" x="268.1" y="334.3" transform="matrix(-1 -6.845070e-011 6.845070e-011 -1 575.9513 679.6172)" class="st1" width="39.8" height="11"/>
			</g>
			<g id="XMLID_342_">
				<rect id="XMLID_344_" x="268.1" y="353.3" class="st1" width="23.2" height="11"/>
				<rect id="XMLID_343_" x="299.1" y="353.3" class="st1" width="39.8" height="11"/>
			</g>
			<g id="XMLID_339_">
				
					<rect id="XMLID_341_" x="315.7" y="372.3" transform="matrix(-1 -6.827973e-011 6.827973e-011 -1 654.5677 755.5179)" class="st1" width="23.2" height="11"/>
				
					<rect id="XMLID_340_" x="268.1" y="372.3" transform="matrix(-1 -6.840496e-011 6.840496e-011 -1 575.9513 755.5179)" class="st1" width="39.8" height="11"/>
			</g>
			<g id="XMLID_336_">
				<rect id="XMLID_338_" x="268.1" y="391.2" class="st1" width="12.1" height="11"/>
				<rect id="XMLID_337_" x="288" y="391.2" class="st1" width="50.9" height="11"/>
			</g>
			<g id="XMLID_333_">
				
					<rect id="XMLID_335_" x="327.3" y="410.2" transform="matrix(-1 -6.827973e-011 6.827973e-011 -1 666.1828 831.4187)" class="st1" width="11.6" height="11"/>
				
					<rect id="XMLID_334_" x="268.1" y="410.2" transform="matrix(-1 -6.834146e-011 6.834146e-011 -1 587.5665 831.4187)" class="st1" width="51.4" height="11"/>
			</g>
			<g id="XMLID_330_">
				<rect id="XMLID_332_" x="268.1" y="429.2" class="st1" width="23.2" height="11"/>
				<rect id="XMLID_331_" x="299.1" y="429.2" class="st1" width="39.8" height="11"/>
			</g>
			<g id="XMLID_327_">
				
					<rect id="XMLID_329_" x="323.4" y="448.2" transform="matrix(-1 -6.822777e-011 6.822777e-011 -1 662.2816 907.3194)" class="st1" width="15.5" height="11"/>
				<rect id="XMLID_328_" x="268.1" y="448.2" class="st1" width="47.5" height="11"/>
			</g>
			<g id="XMLID_324_">
				<rect id="XMLID_326_" x="268.1" y="467.1" class="st1" width="23.2" height="11"/>
				<rect id="XMLID_325_" x="299.1" y="467.1" class="st1" width="39.8" height="11"/>
			</g>
			<g id="XMLID_321_">
				
					<rect id="XMLID_323_" x="281.9" y="486.1" transform="matrix(-1 -6.829927e-011 6.829927e-011 -1 620.8307 983.2202)" class="st1" width="57" height="11"/>
				
					<rect id="XMLID_322_" x="268.1" y="486.1" transform="matrix(-1 -6.831792e-011 6.831792e-011 -1 542.2144 983.2202)" class="st1" width="6" height="11"/>
			</g>
			<g id="XMLID_318_">
				<rect id="XMLID_320_" x="268.1" y="505.1" class="st1" width="23.2" height="11"/>
				<rect id="XMLID_319_" x="299.1" y="505.1" class="st1" width="39.8" height="11"/>
			</g>
			<g id="XMLID_315_">
				
					<rect id="XMLID_317_" x="303" y="524.1" transform="matrix(-1 -6.823843e-011 6.823843e-011 -1 641.9183 1059.1208)" class="st1" width="35.9" height="11"/>
				
					<rect id="XMLID_316_" x="268.1" y="524.1" transform="matrix(-1 -6.845115e-011 6.845115e-011 -1 563.3019 1059.1208)" class="st1" width="27.1" height="11"/>
			</g>
		</g>
	</g>
</g>
</svg>
