<?xml version="1.0" encoding="utf-8"?>
<!-- Generator: Adobe Illustrator 19.2.1, SVG Export Plug-In . SVG Version: 6.00 Build 0)  -->
<svg version="1.1" id="Ebene_1" xmlns="http://www.w3.org/2000/svg" xmlns:xlink="http://www.w3.org/1999/xlink" x="0px" y="0px"
	 viewBox="0 0 595.3 841.9" style="enable-background:new 0 0 595.3 841.9;" xml:space="preserve">
<style type="text/css">
	.st0{fill:#13F20C;}
</style>
<g>
	<path class="st0" d="M297.6,181.1c46.4,0,84.1-37.7,84.1-84.1c0-46.4-37.7-84.1-84.1-84.1c-46.4,0-84.1,37.7-84.1,84.1
		C213.5,143.3,251.2,181.1,297.6,181.1z"/>
	<path class="st0" d="M482.4,444c0.5-1.5,0.6-3.2,0.3-4.8l-38.6-204.7c-3.1-19.2-19.4-33-38.7-33H189.8c-19.3,0-35.6,13.9-38.7,32.8
		l-38.6,204.9c-0.3,1.7-0.2,3.3,0.3,4.8c-0.3,1.9-0.4,3.7-0.4,5.5c0,21.7,17.6,39.3,39.3,39.3c18.9,0,35.2-13.5,38.6-32.4
		l24.3-152.2l-0.3,485.6c0,21.7,17.6,39.3,39.3,39.3c21.7,0,39.3-17.6,39.3-39.3V549.4h9.4v240.4c0,21.7,17.6,39.3,39.3,39.3
		c21.7,0,39.3-17.6,39.3-39.3l-0.3-485.6L405,456.6c3.4,18.6,19.7,32.2,38.6,32.2c21.7,0,39.3-17.6,39.3-39.3
		C482.9,447.7,482.7,445.9,482.4,444z"/>
</g>
</svg>
